<svg width="14" height="8" viewBox="0 0 14 8" fill="none" xmlns="http://www.w3.org/2000/svg">
<path d="M6.99234 5.03883L2.14958 0.358886C1.91035 0.135604 1.58995 0.0120539 1.25738 0.0148467C0.92481 0.0176396 0.606679 0.146552 0.371506 0.373817C0.136334 0.601083 0.00293759 0.908518 4.76531e-05 1.22991C-0.00284229 1.5513 0.125006 1.86093 0.356056 2.09211L6.09431 7.63989C6.21214 7.75404 6.35211 7.8446 6.5062 7.9064C6.6603 7.96819 6.8255 8 6.99234 8C7.15918 8 7.32438 7.96819 7.47848 7.9064C7.63258 7.8446 7.77255 7.75404 7.89037 7.63989L13.6286 2.09211C13.8664 1.86224 14 1.55052 14 1.2255C14 0.900469 13.8664 0.588749 13.6286 0.358886C13.3908 0.129092 13.0682 -5.71229e-07 12.7319 -5.56528e-07C12.3955 -5.41826e-07 12.073 0.129092 11.8351 0.358886L6.99234 5.03883Z" fill="#B3B3B3"/>
</svg>
