<svg width="25" height="25" viewBox="0 0 25 25" fill="none" xmlns="http://www.w3.org/2000/svg">
<path d="M25 5.73378V5.72877C25 5.66926 24.9865 5.61259 24.9675 5.55809C24.9632 5.54588 24.959 5.53433 24.9538 5.52234C24.9305 5.46872 24.9002 5.41858 24.8601 5.37542C24.8548 5.36976 24.8481 5.3654 24.8424 5.35995C24.8204 5.33837 24.7986 5.31635 24.7726 5.29869C24.7508 5.28387 24.7267 5.27428 24.7033 5.26294C24.697 5.25989 24.6931 5.25422 24.6868 5.25139L12.7075 0.0431583C12.5747 -0.0143861 12.4247 -0.0143861 12.292 0.0431583L8.13616 1.85001C8.13616 1.85001 8.13594 1.85001 8.13594 1.85023L4.70097 3.34364C4.70054 3.34386 4.7001 3.34407 4.69966 3.34429L0.313023 5.25165C0.306701 5.25448 0.302778 5.26015 0.296456 5.2632C0.272914 5.27454 0.248937 5.28413 0.22692 5.29895C0.201198 5.31639 0.1794 5.3384 0.157383 5.35999C0.151716 5.36544 0.145176 5.36958 0.139945 5.37525C0.099836 5.41841 0.0695379 5.46854 0.0462121 5.52238C0.0409805 5.53437 0.0368386 5.54571 0.0324793 5.55813C0.0135151 5.61285 0 5.66952 0 5.72881V5.73383V5.73448V19.7913C0 20.0058 0.131445 20.1983 0.331114 20.2763L12.297 24.9588L12.3101 24.9638C12.3711 24.9878 12.4354 24.9998 12.4997 24.9998C12.564 24.9998 12.6283 24.9878 12.6894 24.9638L12.7025 24.9588L24.6683 20.2763C24.868 20.1983 24.9995 20.0058 24.9995 19.7913V5.73504V5.73417L25 5.73378ZM12.5001 1.08838L23.1144 5.70348L20.319 6.79734L9.6589 2.3237L12.5001 1.08838ZM12.5001 9.85731L1.88572 5.70365L4.92243 4.38335L15.7533 8.58427L12.5001 9.85731ZM8.33725 2.89864L18.9265 7.34265L17.187 8.02339L6.28023 3.793L8.33725 2.89864ZM17.7083 8.93767L19.7915 8.12244V12.6985L17.7083 13.7403V8.93767ZM1.04209 6.49237L11.9795 10.772V23.7161L1.04209 19.4361V6.49237ZM23.9583 19.4359L13.0208 23.716V10.7719L16.6666 9.34543V14.5833C16.6666 14.7638 16.7601 14.9314 16.9135 15.0262C16.9972 15.0777 17.0925 15.1038 17.1875 15.1038C17.2671 15.1038 17.3469 15.0855 17.4206 15.0489L20.5455 13.4864C20.7219 13.3983 20.8333 13.2179 20.8333 13.0206V7.71491L23.9583 6.49226V19.4359Z" fill="#00255B"/>
</svg>
