<svg width="21" height="25" viewBox="0 0 21 25" fill="none" xmlns="http://www.w3.org/2000/svg">
<path d="M10.5 11.5555C4.71047 11.5555 0 15.7994 0 21.016C0 23.4327 5.65603 24.29 10.5 24.29C15.344 24.29 21 23.4327 21 21.016C21 15.7995 16.2898 11.5555 10.5 11.5555ZM10.5 23.3182C4.61456 23.3182 0.971588 22.123 0.971588 21.0159C0.971588 16.335 5.24614 12.527 10.5 12.527C15.7539 12.527 20.0284 16.3353 20.0284 21.0159C20.0284 22.123 16.3854 23.3182 10.5 23.3182ZM15.677 5.17708C15.677 3.80414 15.1316 2.48729 14.1608 1.51642C13.1897 0.54541 11.873 0 10.4999 0C9.12696 0 7.81011 0.545362 6.83905 1.51642C5.86818 2.48729 5.32282 3.80414 5.32282 5.17708C5.32282 6.55022 5.86818 7.86688 6.83905 8.83794C7.81006 9.8088 9.12676 10.3542 10.4999 10.3542C11.8725 10.3527 13.1884 9.80673 14.1591 8.83625C15.1296 7.86558 15.6755 6.54969 15.677 5.17708ZM6.29412 5.17708C6.29412 4.06164 6.73728 2.99197 7.52591 2.20338C8.3147 1.41459 9.38436 0.971444 10.4998 0.971444C11.6153 0.971444 12.6849 1.4146 13.4737 2.20338C14.2623 2.99197 14.7055 4.06168 14.7055 5.17708C14.7055 6.29248 14.2623 7.36219 13.4737 8.15098C12.6849 8.93958 11.6153 9.38277 10.4998 9.38277C9.38475 9.38145 8.31585 8.9381 7.5274 8.14949C6.739 7.36108 6.29547 6.29214 6.29412 5.17708Z" fill="#00255B"/>
</svg>
