<svg width="28" height="26" viewBox="0 0 28 26" fill="none" xmlns="http://www.w3.org/2000/svg">
<path d="M1 22.4626C1 22.7089 1.13692 22.9007 1.35594 23.0101L5.05175 24.7073L5.05156 19.2869L1.00001 17.4253L1 22.4626Z" stroke="#00255B" stroke-width="0.75"/>
<path d="M5.87282 14.7701C5.70859 14.688 5.54437 14.688 5.38015 14.7701L1.71167 16.44L5.62629 18.2193L9.54091 16.44L5.87282 14.7701Z" stroke="#00255B" stroke-width="0.75"/>
<path d="M6.22876 24.7074L9.92457 23.0101C10.1436 22.9007 10.2805 22.709 10.2805 22.4627L10.2803 17.4255L6.2561 19.2597V24.7075L6.22876 24.7074Z" stroke="#00255B" stroke-width="0.75"/>
<path d="M6.61193 12.6073C7.8165 10.5268 9.86968 6.72151 9.86968 5.10635C9.86968 2.83417 8.03551 1 5.76333 1C3.49115 1 1.65698 2.83417 1.65698 5.10635C1.65698 6.72146 3.73748 10.5267 4.91473 12.6073C5.32529 13.2369 6.22872 13.2369 6.61197 12.6073H6.61193ZM3.87436 5.10635C3.87436 4.06602 4.72296 3.1901 5.79061 3.1901C6.85826 3.1901 7.70685 4.0387 7.70685 5.10635C7.70685 6.14667 6.85826 7.02259 5.79061 7.02259C4.72296 7.02259 3.87436 6.14667 3.87436 5.10635V5.10635Z" stroke="#00255B" stroke-width="0.75"/>
<path d="M26.733 8.61033L23.9133 5.79064C23.5574 5.4347 22.9826 5.4347 22.654 5.79064C22.298 6.14658 22.298 6.72136 22.654 7.05002L23.9406 8.33667H16.9051C14.934 8.33667 13.3189 9.95179 13.3189 11.9228C13.3189 13.8939 14.934 15.509 16.9051 15.509H19.6426C20.6282 15.509 21.422 16.3028 21.422 17.2883C21.422 18.2738 20.6282 19.0676 19.6426 19.0676L11.6216 19.0678V20.8747H19.6426C21.6137 20.8747 23.2288 19.2596 23.2288 17.2885C23.2288 15.3175 21.6137 13.7023 19.6426 13.7023H16.9051C15.9196 13.7023 15.1258 12.9085 15.1258 11.923C15.1258 10.9375 15.9196 10.1437 16.9051 10.1437H23.9406L22.654 11.4304C22.298 11.7863 22.298 12.3611 22.654 12.6897C22.8182 12.854 23.0645 12.9636 23.2836 12.9636C23.5026 12.9636 23.7489 12.8815 23.9132 12.6897L26.7328 9.87005C27.0888 9.54102 27.0888 8.96626 26.7328 8.61028L26.733 8.61033Z" stroke="#00255B" stroke-width="0.75"/>
</svg>
