<svg width="28" height="26" viewBox="0 0 28 26" fill="none" xmlns="http://www.w3.org/2000/svg">
<path fill-rule="evenodd" clip-rule="evenodd" d="M17.7546 24.0999H23.3475V12.5697C23.3475 12.2675 23.5926 12.0224 23.8949 12.0224H25.934L13.9557 1.2827L1.97739 12.0224H4.01668C4.31885 12.0224 4.56395 12.2676 4.56395 12.5697V24.0999H10.1574V15.7342C10.1574 15.4319 10.4023 15.187 10.7046 15.187H17.2067C17.5089 15.187 17.754 15.4319 17.754 15.7342L17.7546 24.0999ZM23.8952 25.1947H17.2073C16.9049 25.1947 16.6598 24.9496 16.6598 24.6473V16.2816H11.2523V24.6473C11.2523 24.9496 11.0072 25.1947 10.705 25.1947H4.01707C3.71471 25.1947 3.4696 24.9496 3.4696 24.6473V13.1175H0.547339C0.320707 13.1175 0.117247 12.9775 0.0362463 12.7657C-0.0449433 12.5539 0.0130774 12.314 0.182078 12.1625L13.5909 0.13982C13.7988 -0.0467037 14.1139 -0.0465093 14.3218 0.13982L27.7306 12.1625C27.8994 12.314 27.9575 12.5539 27.8765 12.7657C27.7955 12.9776 27.592 13.1175 27.3652 13.1175H24.4429V24.6473C24.4429 24.9496 24.1978 25.1947 23.8956 25.1947H23.8952Z" fill="#00255B"/>
</svg>
