<svg width="150" height="150" viewBox="0 0 150 150" fill="none" xmlns="http://www.w3.org/2000/svg">
<circle cx="75" cy="75" r="75" fill="#00255B"/>
<path d="M56.7799 116.567H94.2207C102.399 116.567 109 109.965 109 101.788L108.999 76.9584C108.999 69.9625 104.171 64.1495 97.6689 62.5729V48.7793C97.6689 40.6014 91.0675 34 82.8896 34H68.1104C59.9325 34 53.3311 40.6014 53.3311 48.7793C53.3311 50.4542 54.6122 51.7353 56.2871 51.7353C57.9621 51.7353 59.2432 50.4542 59.2432 48.7793C59.2432 43.8528 63.184 39.9121 68.1104 39.9121H82.8896C87.8161 39.9121 91.7568 43.8528 91.7568 48.7793V62.1791H56.7793C48.6014 62.1791 42 68.7805 42 76.9584V101.788C42 109.965 48.6014 116.567 56.7793 116.567H56.7799ZM47.912 76.9584C47.912 72.032 51.8528 68.0912 56.7792 68.0912H94.22C99.1465 68.0912 103.087 72.032 103.087 76.9584V101.788C103.087 106.714 99.1465 110.655 94.22 110.655H56.7792C51.8528 110.655 47.912 106.714 47.912 101.788V76.9584Z" fill="white"/>
<path d="M75.5003 102.083C77.1752 102.083 78.4564 100.802 78.4564 99.1271V93.215C78.4564 91.5401 77.1753 90.259 75.5003 90.259C73.8254 90.259 72.5443 91.5401 72.5443 93.215V99.1271C72.5443 100.704 73.8254 102.083 75.5003 102.083Z" fill="white"/>
</svg>
