<svg width="18" height="12" viewBox="0 0 18 12" fill="none" xmlns="http://www.w3.org/2000/svg">
<path d="M13.1833 3.21509C13.0853 3.21496 12.9914 3.2539 12.9222 3.32313C12.853 3.39235 12.814 3.48629 12.8141 3.58419V4.32264C12.8141 4.52648 12.9794 4.69174 13.1832 4.69174C13.3872 4.69174 13.5525 4.52647 13.5525 4.32264V3.58419C13.5525 3.48629 13.5137 3.39235 13.4444 3.32313C13.3752 3.2539 13.2813 3.21496 13.1832 3.21509H13.1833Z" fill="#B3B3B3" stroke="#B3B3B3" stroke-width="0.3"/>
<path d="M13.1833 5.43018C13.0853 5.43005 12.9914 5.46899 12.9222 5.53821C12.853 5.60743 12.814 5.70138 12.8141 5.79928V6.53773C12.8141 6.74156 12.9794 6.90683 13.1832 6.90683C13.3872 6.90683 13.5525 6.74156 13.5525 6.53773V5.79928C13.5525 5.70138 13.5137 5.60743 13.4444 5.53821C13.3752 5.46899 13.2813 5.43005 13.1832 5.43018H13.1833Z" fill="#B3B3B3" stroke="#B3B3B3" stroke-width="0.3"/>
<path d="M13.1833 7.64526C13.0853 7.64514 12.9914 7.68408 12.9222 7.7533C12.853 7.82252 12.814 7.91647 12.8141 8.01437V8.75282C12.8141 8.95665 12.9794 9.12192 13.1832 9.12192C13.3872 9.12192 13.5525 8.95665 13.5525 8.75282V8.01437C13.5525 7.91647 13.5137 7.82252 13.4444 7.7533C13.3752 7.68408 13.2813 7.64514 13.1832 7.64526H13.1833Z" fill="#B3B3B3" stroke="#B3B3B3" stroke-width="0.3"/>
<path d="M16.9485 4.72131C17.1206 4.68658 17.2442 4.53528 17.2442 4.35974V1.3691C17.2442 1.2712 17.2054 1.17726 17.136 1.10804C17.0668 1.03882 16.9728 0.999877 16.8749 1H1.36923C1.27132 0.999877 1.17738 1.03882 1.10816 1.10804C1.03881 1.17726 1 1.2712 1 1.3691V4.35974C1 4.53527 1.12361 4.68657 1.29568 4.72131C1.74376 4.81291 2.12425 5.10699 2.32573 5.51761C2.52734 5.92813 2.52734 6.40897 2.32573 6.81949C2.12425 7.23014 1.74376 7.52421 1.29568 7.61579C1.12361 7.65052 1 7.80182 1 7.97735V10.968C1 11.0659 1.03881 11.1598 1.10816 11.2291C1.17738 11.2983 1.27132 11.3372 1.36923 11.3371H16.8749C16.9728 11.3372 17.0668 11.2983 17.136 11.2291C17.2054 11.1598 17.2442 11.0659 17.2442 10.968V7.97735C17.2443 7.80183 17.1206 7.65053 16.9485 7.61566C16.5004 7.52406 16.1199 7.22998 15.9184 6.81949C15.7168 6.40884 15.7168 5.92813 15.9184 5.51748C16.1199 5.10696 16.5004 4.81289 16.9485 4.72131ZM16.5057 8.25693V10.5986H13.5523V10.2294C13.5523 10.0256 13.387 9.86029 13.1831 9.86029C12.9792 9.86029 12.814 10.0256 12.814 10.2294V10.5986H1.73846V8.25693C2.31783 8.05211 2.78617 7.61563 3.03129 7.0521C3.27641 6.48846 3.27641 5.84839 3.03129 5.28471C2.78617 4.72115 2.3178 4.28468 1.73846 4.07988V1.7382H12.814V2.10743C12.814 2.31126 12.9792 2.47653 13.1831 2.47653C13.387 2.47653 13.5523 2.31126 13.5523 2.10743V1.7382H16.5057V4.07988C15.9263 4.28471 15.458 4.72119 15.2129 5.28471C14.9678 5.84836 14.9678 6.48842 15.2129 7.0521C15.458 7.61566 15.9264 8.05213 16.5057 8.25693Z" fill="#B3B3B3" stroke="#B3B3B3" stroke-width="0.3"/>
<path d="M6.16868 5.79909C6.46238 5.79909 6.7441 5.6824 6.95175 5.47473C7.15954 5.26707 7.27623 4.98535 7.27623 4.69154C7.27623 4.39784 7.15954 4.11612 6.95175 3.90847C6.74408 3.70068 6.46237 3.58398 6.16868 3.58398C5.87485 3.58398 5.59313 3.70067 5.38548 3.90847C5.17782 4.11613 5.06113 4.39784 5.06113 4.69154C5.06137 4.98523 5.17819 5.2667 5.38586 5.47435C5.59354 5.682 5.87499 5.79883 6.16868 5.79909ZM6.16868 4.32231V4.32243C6.318 4.32243 6.45261 4.4123 6.50971 4.55025C6.56682 4.6882 6.5353 4.84704 6.42973 4.9526C6.32405 5.05817 6.16533 5.08981 6.02738 5.0327C5.88943 4.97547 5.79944 4.84086 5.79944 4.69155C5.79969 4.48783 5.96483 4.3227 6.16866 4.32245L6.16868 4.32231Z" fill="#B3B3B3" stroke="#B3B3B3" stroke-width="0.3"/>
<path d="M9.59954 3.69223L5.16933 8.12244C5.09863 8.19141 5.05846 8.28573 5.05784 8.38449C5.05722 8.48313 5.09616 8.57806 5.166 8.6479C5.23571 8.71762 5.33065 8.75656 5.42929 8.75594C5.52805 8.75532 5.62249 8.71527 5.69134 8.64457L10.1215 4.21436C10.2626 4.06961 10.2611 3.83846 10.1182 3.69555C9.97544 3.55266 9.74417 3.55118 9.59953 3.69222L9.59954 3.69223Z" fill="#B3B3B3" stroke="#B3B3B3" stroke-width="0.3"/>
<path d="M9.12214 6.53772C8.82844 6.53772 8.54672 6.65441 8.33894 6.86207C8.13128 7.06974 8.01459 7.35145 8.01459 7.64527C8.01459 7.93897 8.13128 8.22069 8.33894 8.42834C8.54673 8.63613 8.82845 8.75282 9.12214 8.75282C9.41583 8.75282 9.69756 8.63613 9.90534 8.42834C10.113 8.22067 10.2297 7.93896 10.2297 7.64527C10.2293 7.35157 10.1126 7.0701 9.90496 6.86245C9.69728 6.6548 9.41583 6.53797 9.12214 6.53772ZM9.12214 8.0145V8.01437C8.97282 8.01437 8.8382 7.92451 8.78111 7.78656C8.72388 7.64861 8.75552 7.48977 8.86108 7.3842C8.96664 7.27864 9.12549 7.247 9.26344 7.3041C9.40139 7.36134 9.49138 7.49595 9.49138 7.64526C9.49113 7.84897 9.32598 8.01411 9.12215 8.01436L9.12214 8.0145Z" fill="#B3B3B3" stroke="#B3B3B3" stroke-width="0.3"/>
</svg>
