<svg width="21" height="21" viewBox="0 0 21 21" fill="none" xmlns="http://www.w3.org/2000/svg">
<path d="M16.9894 10.352C16.9894 10.5405 16.9825 10.7267 16.9664 10.9151C16.9595 11.0047 16.9504 11.0944 16.9412 11.184C16.9389 11.2047 16.9366 11.2254 16.9343 11.246C16.9251 11.3288 16.9366 11.2277 16.9389 11.2185C16.9274 11.269 16.9228 11.3219 16.9159 11.3747C16.8584 11.7333 16.7711 12.0872 16.6585 12.4319C16.6056 12.5974 16.5436 12.7606 16.4792 12.9214C16.4493 12.9973 16.4884 12.9053 16.4907 12.8962C16.4861 12.9145 16.4746 12.9352 16.4654 12.9513C16.447 12.9927 16.4287 13.0341 16.4103 13.0777C16.3712 13.1605 16.3321 13.2432 16.2908 13.3236C16.1322 13.6339 15.9529 13.9327 15.7506 14.2176C15.7001 14.2866 15.6495 14.3555 15.599 14.4245C15.5622 14.4727 15.6541 14.3555 15.615 14.4038C15.599 14.4222 15.5829 14.4429 15.5691 14.4635C15.5415 14.498 15.5116 14.5348 15.484 14.5693C15.3714 14.7049 15.2542 14.8359 15.1324 14.9623C15.0129 15.0841 14.8911 15.2036 14.7647 15.3162C14.7003 15.3737 14.636 15.4288 14.5716 15.484C14.5372 15.5139 14.5027 15.5414 14.4659 15.569C14.4498 15.5805 14.4337 15.5943 14.4177 15.6058C14.3464 15.6632 14.4935 15.5483 14.4154 15.6081C14.1373 15.8172 13.8477 16.008 13.542 16.1758C13.3858 16.2608 13.2272 16.3412 13.0663 16.4148C13.0295 16.4309 12.9928 16.4492 12.9537 16.4653C12.9376 16.4722 12.9146 16.486 12.8985 16.4906C12.9951 16.4676 12.9537 16.4676 12.9238 16.4791C12.8388 16.5136 12.7537 16.5481 12.6664 16.5779C12.3263 16.7021 11.977 16.7986 11.623 16.8698C11.5403 16.8859 11.4575 16.902 11.3771 16.9135C11.3311 16.9204 11.2829 16.9273 11.2369 16.9342C11.1726 16.9434 11.3288 16.9227 11.2645 16.9296C11.2392 16.9319 11.2116 16.9365 11.1863 16.9388C10.9956 16.9618 10.8048 16.9755 10.6118 16.9824C10.2418 16.9962 9.87176 16.9801 9.50404 16.9365C9.48335 16.9342 9.46267 16.9319 9.44198 16.9296C9.37763 16.9227 9.53391 16.9434 9.46956 16.9342C9.42359 16.9273 9.37533 16.9204 9.32937 16.9135C9.23744 16.8974 9.14321 16.8813 9.05128 16.8629C8.87891 16.8285 8.70654 16.7871 8.53647 16.7388C8.3641 16.6906 8.19174 16.6354 8.02398 16.5734C7.94354 16.5435 7.8608 16.5113 7.78036 16.4791C7.75048 16.4676 7.71141 16.4676 7.80564 16.4906C7.78726 16.486 7.76657 16.4745 7.75048 16.4653C7.70452 16.4447 7.65855 16.424 7.61029 16.4033C7.28854 16.2539 6.97827 16.0815 6.6841 15.8885C6.61745 15.8448 6.5508 15.7988 6.48415 15.7529C6.41521 15.7046 6.32328 15.654 6.26582 15.592C6.34626 15.6793 6.27041 15.5966 6.24054 15.5713C6.20606 15.5437 6.16929 15.5139 6.13482 15.4863C6.06587 15.4288 5.99693 15.3691 5.93027 15.3093C5.67287 15.0772 5.43156 14.8267 5.21093 14.5601C5.18565 14.5302 5.16037 14.498 5.13509 14.4659C5.119 14.4452 5.10521 14.4268 5.08912 14.4061C5.05005 14.3601 5.14198 14.4774 5.10521 14.4268C5.05235 14.3532 4.99719 14.282 4.94433 14.2085C4.84321 14.0637 4.74668 13.9166 4.65475 13.7649C4.56742 13.6178 4.48238 13.4661 4.40654 13.3121C4.36747 13.234 4.3307 13.1582 4.29393 13.08C4.27554 13.0387 4.25716 12.9973 4.23877 12.9536C4.23188 12.9375 4.21809 12.9145 4.21349 12.8985C4.22038 12.9168 4.22958 12.9352 4.23647 12.9513C4.22958 12.9329 4.22038 12.9145 4.21349 12.8939C4.08019 12.5652 3.97217 12.2274 3.88944 11.8803C3.84807 11.7034 3.8113 11.5241 3.78372 11.3425C3.77682 11.3012 3.77223 11.2598 3.76533 11.2184C3.79061 11.3494 3.76533 11.2184 3.76074 11.184C3.74925 11.0897 3.74005 10.9932 3.73316 10.899C3.70558 10.5244 3.70558 10.1475 3.73546 9.77284C3.74235 9.68781 3.75154 9.60277 3.76074 9.52003C3.76303 9.49935 3.76533 9.47866 3.76763 9.45798C3.77912 9.35226 3.75614 9.54072 3.76533 9.46947C3.77223 9.4235 3.77912 9.37524 3.78602 9.32928C3.81589 9.14312 3.85266 8.95926 3.89863 8.7777C3.98367 8.43066 4.10318 8.10202 4.22958 7.76876C4.25026 7.7113 4.19281 7.8515 4.21809 7.79404C4.22728 7.77565 4.23418 7.75727 4.24337 7.73888C4.26176 7.69751 4.28014 7.65614 4.30083 7.61478C4.3399 7.53204 4.37897 7.4493 4.42034 7.36886C4.49848 7.21488 4.58121 7.06549 4.67085 6.91839C4.76278 6.76671 4.8593 6.61962 4.96042 6.47713C5.00639 6.41278 5.05235 6.32315 5.11211 6.27029C5.10522 6.27718 5.04546 6.35532 5.09602 6.29097C5.10751 6.27488 5.1213 6.25879 5.13279 6.24271C5.16497 6.20364 5.19714 6.16457 5.22932 6.1255C5.45455 5.8566 5.70047 5.6038 5.96245 5.36938C6.02221 5.31652 6.08426 5.26366 6.14631 5.2131C6.17619 5.18782 6.20836 5.16254 6.24054 5.13725C6.25663 5.12576 6.27271 5.11197 6.2888 5.10048C6.37154 5.03383 6.20606 5.16254 6.2911 5.09818C6.43129 4.99247 6.57608 4.88904 6.72316 4.79481C7.01504 4.60406 7.32299 4.43629 7.64015 4.29148C7.67692 4.27539 7.71369 4.257 7.75276 4.24092C7.76196 4.23632 7.85618 4.20185 7.78264 4.22713C7.71829 4.25011 7.78264 4.22713 7.79873 4.22023C7.88376 4.18576 7.9688 4.15358 8.05613 4.12141C8.2262 4.05935 8.39628 4.00419 8.57094 3.95593C8.74101 3.90767 8.91338 3.8686 9.08575 3.83413C9.17308 3.81574 9.26041 3.80195 9.34775 3.78816C9.39372 3.78126 9.44198 3.77667 9.48794 3.76747C9.47645 3.76977 9.37763 3.78126 9.46036 3.77207C9.49254 3.76747 9.52242 3.76518 9.55459 3.76058C9.92231 3.71921 10.2923 3.70772 10.6623 3.72151C10.8485 3.7284 11.0347 3.74449 11.2185 3.76748C11.2392 3.76978 11.2599 3.77437 11.2805 3.77437C11.2691 3.77437 11.1702 3.75828 11.253 3.76977C11.2943 3.77667 11.3357 3.78127 11.3771 3.78816C11.469 3.80425 11.5632 3.82034 11.6552 3.83872C12.0091 3.90997 12.3584 4.01109 12.6963 4.1352C12.7721 4.16278 12.8479 4.19495 12.9238 4.22483C12.9996 4.2547 12.9077 4.21563 12.8985 4.21334C12.9215 4.21793 12.9468 4.23402 12.9674 4.24321C13.0088 4.2616 13.0502 4.27999 13.0916 4.30067C13.2524 4.37421 13.411 4.45465 13.565 4.54199C13.719 4.62702 13.8707 4.71895 14.0177 4.81778C14.089 4.86374 14.1602 4.9143 14.2292 4.96257C14.2614 4.98555 14.2935 5.00853 14.328 5.03381C14.3441 5.0453 14.3602 5.05679 14.3763 5.07058C14.3878 5.07978 14.4705 5.14643 14.413 5.09816C14.3579 5.0522 14.4613 5.13723 14.4728 5.14642C14.5073 5.174 14.544 5.20388 14.5785 5.23146C14.6475 5.28891 14.7164 5.34867 14.7831 5.40842C14.9095 5.52334 15.0313 5.64284 15.1508 5.76465C15.2726 5.89106 15.3898 6.02206 15.5001 6.15766C15.53 6.19213 15.5576 6.2266 15.5851 6.26337C15.5943 6.27486 15.6173 6.29785 15.6219 6.31164C15.6196 6.30474 15.5553 6.2243 15.6058 6.29095C15.661 6.3645 15.7139 6.43574 15.7667 6.50928C15.9667 6.79427 16.1459 7.09532 16.3022 7.4056C16.3413 7.48374 16.378 7.55958 16.4148 7.64002C16.4309 7.67679 16.4493 7.71356 16.4654 7.75263C16.4723 7.76872 16.4861 7.7917 16.4907 7.80779C16.4631 7.69518 16.4792 7.78021 16.4907 7.81009C16.5573 7.97556 16.6194 8.14563 16.6722 8.31569C16.7802 8.65584 16.863 9.00747 16.9204 9.35909C16.925 9.39587 16.9434 9.44873 16.9388 9.4832C16.9526 9.38897 16.9319 9.42344 16.9365 9.47171C16.9388 9.49239 16.9411 9.51308 16.9434 9.53376C16.9526 9.62339 16.9618 9.71302 16.9687 9.80266C16.9848 9.98652 16.9894 10.1704 16.9894 10.3519C16.9894 10.5932 17.2008 10.8231 17.449 10.8116C17.6973 10.8001 17.9087 10.6093 17.9087 10.3519C17.9041 8.80292 17.4284 7.25849 16.5252 5.99686C15.6242 4.7374 14.3763 3.77906 12.9215 3.24585C11.4506 2.70574 9.79588 2.65291 8.29033 3.08037C6.83554 3.49176 5.50255 4.35361 4.53958 5.52342C3.53984 6.73921 2.93771 8.22156 2.81361 9.79108C2.6918 11.3401 3.07101 12.9259 3.87542 14.2567C4.65452 15.5437 5.82664 16.6055 7.20099 17.226C8.67187 17.8902 10.3105 18.0763 11.8939 17.7546C13.3717 17.4535 14.7553 16.6813 15.7987 15.5919C16.8536 14.4911 17.5775 13.0685 17.8073 11.5608C17.8694 11.1609 17.9039 10.761 17.9062 10.3565C17.9062 10.1152 17.6947 9.88538 17.4465 9.89685C17.2006 9.90375 16.9915 10.0945 16.9891 10.3519L16.9894 10.352Z" fill="#00255B"/>
<path d="M10.8118 3.25478V0.809418V0.460083C10.8118 0.218767 10.6004 -0.0110606 10.3521 0.000412259C10.1039 0.0118851 9.89246 0.202658 9.89246 0.460083V2.90544V3.25478C9.89246 3.49609 10.1039 3.72592 10.3521 3.71445C10.6004 3.70298 10.8118 3.5122 10.8118 3.25478Z" fill="#00255B"/>
<path d="M10.8118 20.246V17.8006V17.4513C10.8118 17.21 10.6004 16.9802 10.3521 16.9916C10.1039 17.0031 9.89246 17.1939 9.89246 17.4513V19.8967V20.246C9.89246 20.4873 10.1039 20.7171 10.3521 20.7057C10.6003 20.6942 10.8118 20.5034 10.8118 20.246Z" fill="#00255B"/>
<path d="M3.25478 9.89233H0.809417H0.460083C0.218766 9.89233 -0.0110606 10.1038 0.000412259 10.352C0.0118851 10.6002 0.202658 10.8117 0.460083 10.8117H2.90544H3.25478C3.49609 10.8117 3.72592 10.6002 3.71445 10.352C3.70298 10.1038 3.5122 9.89233 3.25478 9.89233Z" fill="#00255B"/>
<path d="M20.246 9.89233H17.8006H17.4513C17.21 9.89233 16.9802 10.1038 16.9916 10.352C17.0031 10.6002 17.1939 10.8117 17.4513 10.8117H19.8967H20.246C20.4873 10.8117 20.7171 10.6002 20.7057 10.352C20.6942 10.1038 20.5034 9.89233 20.246 9.89233Z" fill="#00255B"/>
<path d="M12.025 10.3521C12.025 10.4049 12.0227 10.4601 12.0181 10.5129C12.0158 10.5405 12.0135 10.5658 12.0112 10.5911C12.0066 10.66 12.0319 10.4739 12.0135 10.5773C11.9951 10.6784 11.9722 10.7795 11.94 10.8784C11.9331 10.8968 11.9078 11.014 11.8871 11.0232C11.894 11.0048 11.9032 10.9864 11.9101 10.9703C11.9009 10.9887 11.894 11.0071 11.8848 11.0255L11.8572 11.0806C11.809 11.1748 11.7515 11.2645 11.6941 11.3518C11.6596 11.4024 11.6895 11.4047 11.7033 11.3426C11.701 11.3518 11.6734 11.3794 11.6665 11.3886C11.6343 11.4277 11.6021 11.4644 11.5654 11.5012C11.5309 11.538 11.4941 11.5724 11.4574 11.6069C11.4436 11.6207 11.4275 11.6345 11.4114 11.646C11.3953 11.6598 11.3011 11.7149 11.3631 11.6851C11.4275 11.6552 11.3493 11.6943 11.3378 11.7034C11.3218 11.7149 11.3057 11.7264 11.2873 11.7379C11.2459 11.7655 11.2023 11.7908 11.1586 11.8161C11.1149 11.8413 11.069 11.8643 11.023 11.885C11.0115 11.8896 10.9219 11.9195 10.9954 11.8988C11.069 11.8781 10.9494 11.9149 10.9357 11.9195C10.8483 11.9494 10.7587 11.9746 10.6668 11.9953C10.6369 12.0022 10.6047 12.0068 10.5748 12.0137C10.5105 12.0252 10.5863 12.0275 10.6024 12.0114C10.5794 12.0344 10.4415 12.0252 10.4116 12.0252C10.3151 12.0275 10.2186 12.0206 10.1221 12.0137C10.0118 12.0045 10.2278 12.0344 10.1198 12.0137C10.0991 12.0091 10.0784 12.0068 10.0577 12.0022C9.99566 11.9907 9.93591 11.9746 9.87616 11.9585C9.83249 11.9448 9.78882 11.931 9.74516 11.9149C9.73137 11.9103 9.67851 11.8988 9.67391 11.8873C9.6877 11.9172 9.75894 11.9264 9.6854 11.8919C9.58887 11.8436 9.49694 11.7954 9.40731 11.7379C9.39122 11.7264 9.37284 11.7149 9.35675 11.7034C9.34756 11.6965 9.34066 11.692 9.33147 11.6851C9.2924 11.6552 9.2993 11.6621 9.35216 11.7034C9.31998 11.6965 9.27401 11.6391 9.24874 11.6161C9.1706 11.5449 9.09705 11.469 9.0304 11.3886C9.02581 11.384 8.99363 11.3518 8.99363 11.3426C9.00512 11.3587 9.01661 11.3725 9.0281 11.3886C9.01661 11.3725 9.00512 11.3564 8.99363 11.3403C8.96835 11.3035 8.94307 11.2645 8.92009 11.2277C8.8971 11.1886 8.87412 11.1496 8.85344 11.1082C8.83965 11.0806 8.82586 11.053 8.81207 11.0278L8.79828 11.0002C8.7776 10.9542 8.78219 10.9634 8.80977 11.0255C8.79139 11.0163 8.76381 10.9013 8.75691 10.8807C8.74083 10.8324 8.72704 10.7818 8.71554 10.7313C8.70405 10.6853 8.69486 10.6393 8.68797 10.5934C8.68107 10.5566 8.69026 10.4969 8.68797 10.6072C8.68797 10.5773 8.68107 10.5428 8.67877 10.5129C8.67188 10.4049 8.67188 10.2992 8.67877 10.1912C8.68107 10.1705 8.68337 10.1498 8.68337 10.1268C8.69256 10.0211 8.66958 10.2073 8.68107 10.1383C8.69256 10.0809 8.70176 10.0257 8.71554 9.97056C8.72704 9.92 8.74083 9.87174 8.75691 9.82117C8.76611 9.7936 8.78679 9.68787 8.80977 9.67639C8.79598 9.68328 8.7707 9.76142 8.79828 9.70167C8.81207 9.67409 8.82356 9.64651 8.83735 9.61893C8.86033 9.57296 8.88561 9.5293 8.91089 9.48563C8.93618 9.44196 8.96375 9.40059 8.99363 9.35922C9.00283 9.34543 9.0396 9.26729 9.01202 9.33394C8.98444 9.396 9.02121 9.32475 9.0327 9.30866C9.09705 9.23052 9.166 9.15928 9.23955 9.09263C9.26483 9.06965 9.31999 9.003 9.35446 8.9961C9.29241 9.00989 9.29471 9.03977 9.34527 9.00529C9.36595 8.9915 9.38664 8.97542 9.40732 8.96163C9.49236 8.90647 9.57969 8.85591 9.67162 8.81454C9.68082 8.80994 9.69001 8.80534 9.6992 8.80075C9.74517 8.78006 9.73597 8.78466 9.67392 8.81224C9.67622 8.80764 9.72218 8.79385 9.73138 8.78926C9.77964 8.77087 9.82791 8.75478 9.87847 8.74099C9.92903 8.72721 9.97729 8.71342 10.0279 8.70422C10.0485 8.69963 10.0692 8.69503 10.0899 8.69273C10.1106 8.68814 10.1313 8.68584 10.152 8.68354C10.0876 8.69273 10.0715 8.69503 10.1083 8.69043C10.2094 8.68124 10.3105 8.67435 10.4117 8.67894C10.4645 8.68124 10.5174 8.68584 10.5702 8.69043C10.6622 8.69733 10.5427 8.68584 10.5427 8.68584C10.5542 8.67664 10.6346 8.70192 10.6507 8.70422C10.7679 8.72721 10.8782 8.76398 10.9908 8.80305C11.0506 8.82373 10.9931 8.78696 10.9655 8.79156C10.9862 8.78696 11.0414 8.82603 11.0621 8.83752C11.1126 8.86281 11.1609 8.88808 11.2092 8.91796C11.262 8.95014 11.3103 8.98461 11.3608 9.01679C11.4045 9.04667 11.3838 9.0099 11.3402 8.99841C11.3631 9.003 11.3907 9.03977 11.4091 9.05586C11.4964 9.1317 11.5792 9.21215 11.6527 9.30178C11.6642 9.31557 11.6964 9.34314 11.701 9.35923C11.6619 9.30867 11.655 9.29948 11.6734 9.32706C11.6826 9.33855 11.6918 9.35234 11.6987 9.36383C11.7332 9.41439 11.7653 9.46495 11.7952 9.51552C11.8205 9.55918 11.8435 9.60285 11.8665 9.64882C11.8734 9.6649 11.9078 9.71546 11.9055 9.73155C11.8802 9.6741 11.8757 9.66031 11.8894 9.69248C11.894 9.70627 11.9009 9.72006 11.9055 9.73615C11.9446 9.84187 11.9745 9.95219 11.9975 10.0625C11.9998 10.074 12.0204 10.1452 12.0135 10.1544C12.0113 10.1337 12.009 10.1154 12.0067 10.0947C12.009 10.1154 12.0113 10.136 12.0135 10.1567C12.0227 10.2234 12.025 10.2877 12.025 10.3521C12.0273 10.5934 12.2342 10.8232 12.4847 10.8118C12.7329 10.8003 12.9467 10.6095 12.9444 10.3521C12.9352 9.25123 12.2388 8.28596 11.2115 7.90672C10.2256 7.5436 9.02818 7.86765 8.36629 8.68583C8.01235 9.12251 7.8055 9.63043 7.76415 10.1912C7.72508 10.7037 7.85838 11.2369 8.12267 11.6781C8.69035 12.6273 9.80498 13.1008 10.8852 12.8893C12.078 12.6572 12.9352 11.5517 12.9444 10.352C12.9467 10.1107 12.7307 9.8809 12.4847 9.89237C12.2342 9.90386 12.0274 10.0946 12.025 10.352L12.025 10.3521Z" fill="#00255B"/>
</svg>
