<svg width="24" height="24" viewBox="0 0 24 24" fill="none" xmlns="http://www.w3.org/2000/svg">
<circle cx="12" cy="12" r="12" fill="#00255B"/>
<path d="M16.6792 15.0534H17.5301V16.4351C17.5301 17.8063 16.4145 18.9221 15.043 18.9221H7.5819C6.30383 18.9221 5.24819 17.9533 5.11028 16.7114H4C4.14175 18.5637 5.69393 20.0275 7.58197 20.0275H15.0431C17.0238 20.0275 18.6355 18.4158 18.6355 16.4351V15.0534H19.4863L18.0828 13.0483L16.6792 15.0534Z" fill="white" stroke="white" stroke-width="0.5"/>
<path d="M7.32729 8.97408H6.47645V7.59239C6.47645 6.22119 7.59203 5.10535 8.96349 5.10535H16.4246C17.7027 5.10535 18.7583 6.07414 18.8962 7.31605H20.0065C19.8648 5.46374 18.3126 4 16.4245 4H8.96343C6.98267 4 5.37104 5.61163 5.37104 7.59239V8.97408H4.5202L5.92371 10.9791L7.32729 8.97408Z" fill="white" stroke="white" stroke-width="0.5"/>
<path d="M8.83197 14.3096V15.7784C8.83197 16.1017 9.09984 16.3696 9.4232 16.3696H14.7165C15.0399 16.3696 15.3078 16.1017 15.3078 15.7784V14.3096C15.3078 13.3673 14.541 12.5913 13.5895 12.5913H10.541C9.60797 12.6005 8.83197 13.3673 8.83197 14.3096Z" fill="white"/>
<path d="M14.2139 9.52662C14.2139 10.7476 13.2242 11.7373 12.0032 11.7373C10.7823 11.7373 9.79254 10.7476 9.79254 9.52662C9.79254 8.30568 10.7823 7.31592 12.0032 7.31592C13.2242 7.31592 14.2139 8.30568 14.2139 9.52662Z" fill="white"/>
</svg>
