<svg width="70" height="70" viewBox="0 0 70 70" fill="none" xmlns="http://www.w3.org/2000/svg">
<rect width="70" height="70" rx="5" fill="#256EF9"/>
<path d="M57.2922 55.4925H51.2322V52.8974C50.4775 53.1344 49.6687 53.1344 48.9144 52.8974V55.4925H39.7899V13.7726C39.7899 13.5677 39.7085 13.3711 39.5636 13.2263C39.4188 13.0814 39.2222 13 39.0173 13H19.0306C18.6036 13 18.258 13.3459 18.258 13.7726V55.4925H13.1589C12.5187 55.4925 12 56.0113 12 56.6514C12 57.2915 12.5187 57.8103 13.1589 57.8103H57.292C57.9321 57.8103 58.4508 57.2915 58.4508 56.6514C58.4508 56.0113 57.9324 55.4925 57.2922 55.4925ZM34.7449 17.768C34.7449 17.1278 35.264 16.6091 35.9038 16.6091C36.5439 16.6091 37.0627 17.1278 37.0627 17.768V19.2283C37.0627 19.8681 36.5439 20.3872 35.9038 20.3872C35.264 20.3872 34.7449 19.8681 34.7449 19.2283V17.768ZM34.7449 24.474C34.7449 23.8342 35.264 23.3151 35.9038 23.3151C36.5439 23.3151 37.0627 23.8342 37.0627 24.474V25.9343C37.0627 26.5745 36.5439 27.0932 35.9038 27.0932C35.264 27.0932 34.7449 26.5745 34.7449 25.9343V24.474ZM34.7449 31.1724C34.7449 30.5323 35.264 30.0135 35.9038 30.0135C36.5439 30.0135 37.0627 30.5323 37.0627 31.1724V32.6403C37.0627 33.2805 36.5439 33.7992 35.9038 33.7992C35.264 33.7992 34.7449 33.2805 34.7449 32.6403V31.1724ZM34.7449 37.8784C34.7449 37.2386 35.264 36.7195 35.9038 36.7195C36.5439 36.7195 37.0627 37.2386 37.0627 37.8784V39.3387C37.0627 39.9789 36.5439 40.4976 35.9038 40.4976C35.264 40.4976 34.7449 39.9789 34.7449 39.3387V37.8784ZM34.7449 44.5844C34.7449 43.9446 35.264 43.4255 35.9038 43.4255C36.5439 43.4255 37.0627 43.9446 37.0627 44.5844V46.0447C37.0627 46.6849 36.5439 47.2036 35.9038 47.2036C35.264 47.2036 34.7449 46.6849 34.7449 46.0447V44.5844ZM30.1635 17.768C30.1635 17.1278 30.6822 16.6091 31.3224 16.6091C31.9625 16.6091 32.4813 17.1278 32.4813 17.768V19.2283C32.4813 19.8681 31.9625 20.3872 31.3224 20.3872C30.6822 20.3872 30.1635 19.8681 30.1635 19.2283V17.768ZM30.1635 24.474C30.1635 23.8342 30.6822 23.3151 31.3224 23.3151C31.9625 23.3151 32.4813 23.8342 32.4813 24.474V25.9343C32.4813 26.5745 31.9625 27.0932 31.3224 27.0932C30.6822 27.0932 30.1635 26.5745 30.1635 25.9343V24.474ZM30.1635 31.1724C30.1635 30.5323 30.6822 30.0135 31.3224 30.0135C31.9625 30.0135 32.4813 30.5323 32.4813 31.1724V32.6403C32.4813 33.2805 31.9625 33.7992 31.3224 33.7992C30.6822 33.7992 30.1635 33.2805 30.1635 32.6403V31.1724ZM30.1635 37.8784C30.1635 37.2386 30.6822 36.7195 31.3224 36.7195C31.9625 36.7195 32.4813 37.2386 32.4813 37.8784V39.3387C32.4813 39.9789 31.9625 40.4976 31.3224 40.4976C30.6822 40.4976 30.1635 39.9789 30.1635 39.3387V37.8784ZM30.1635 44.5844C30.1635 43.9446 30.6822 43.4255 31.3224 43.4255C31.9625 43.4255 32.4813 43.9446 32.4813 44.5844V46.0447C32.4813 46.6849 31.9625 47.2036 31.3224 47.2036C30.6822 47.2036 30.1635 46.6849 30.1635 46.0447V44.5844ZM25.5741 17.768C25.5741 17.1278 26.0932 16.6091 26.733 16.6091C27.3732 16.6091 27.8919 17.1278 27.8919 17.768V19.2283C27.8919 19.8681 27.3732 20.3872 26.733 20.3872C26.0932 20.3872 25.5741 19.8681 25.5741 19.2283V17.768ZM25.5741 24.474C25.5741 23.8342 26.0932 23.3151 26.733 23.3151C27.3732 23.3151 27.8919 23.8342 27.8919 24.474V25.9343C27.8919 26.5745 27.3732 27.0932 26.733 27.0932C26.0932 27.0932 25.5741 26.5745 25.5741 25.9343V24.474ZM25.5741 31.1724C25.5741 30.5323 26.0932 30.0135 26.733 30.0135C27.3732 30.0135 27.8919 30.5323 27.8919 31.1724V32.6403C27.8919 33.2805 27.3732 33.7992 26.733 33.7992C26.0932 33.7992 25.5741 33.2805 25.5741 32.6403V31.1724ZM25.5741 37.8784C25.5741 37.2386 26.0932 36.7195 26.733 36.7195C27.3732 36.7195 27.8919 37.2386 27.8919 37.8784V39.3387C27.8919 39.9789 27.3732 40.4976 26.733 40.4976C26.0932 40.4976 25.5741 39.9789 25.5741 39.3387V37.8784ZM25.5741 44.5844C25.5741 43.9446 26.0932 43.4255 26.733 43.4255C27.3732 43.4255 27.8919 43.9446 27.8919 44.5844V46.0447C27.8919 46.6849 27.3732 47.2036 26.733 47.2036C26.0932 47.2036 25.5741 46.6849 25.5741 46.0447V44.5844ZM20.9851 17.768C20.9851 17.1278 21.5038 16.6091 22.144 16.6091C22.7838 16.6091 23.3029 17.1278 23.3029 17.768V19.2283C23.3029 19.8681 22.7838 20.3872 22.144 20.3872C21.5038 20.3872 20.9851 19.8681 20.9851 19.2283V17.768ZM20.9851 24.474C20.9851 23.8342 21.5038 23.3151 22.144 23.3151C22.7838 23.3151 23.3029 23.8342 23.3029 24.474V25.9343C23.3029 26.5745 22.7838 27.0932 22.144 27.0932C21.5038 27.0932 20.9851 26.5745 20.9851 25.9343V24.474ZM20.9851 31.1724C20.9851 30.5323 21.5038 30.0135 22.144 30.0135C22.7838 30.0135 23.3029 30.5323 23.3029 31.1724V32.6403C23.3029 33.2805 22.7838 33.7992 22.144 33.7992C21.5038 33.7992 20.9851 33.2805 20.9851 32.6403V31.1724ZM20.9851 37.8784C20.9851 37.2386 21.5038 36.7195 22.144 36.7195C22.7838 36.7195 23.3029 37.2386 23.3029 37.8784V39.3387C23.3029 39.9789 22.7838 40.4976 22.144 40.4976C21.5038 40.4976 20.9851 39.9789 20.9851 39.3387V37.8784ZM20.9851 44.5844C20.9851 43.9446 21.5038 43.4255 22.144 43.4255C22.7838 43.4255 23.3029 43.9446 23.3029 44.5844V46.0447C23.3029 46.6849 22.7838 47.2036 22.144 47.2036C21.5038 47.2036 20.9851 46.6849 20.9851 46.0447V44.5844ZM25.8293 50.7727C25.8293 50.1326 26.348 49.6142 26.9882 49.6142H31.0598C31.6999 49.6142 32.2183 50.1329 32.2183 50.7731V55.4928H29.9006V51.9282H28.1502V55.4928H25.8324L25.8293 50.7727ZM48.9143 45.7581L48.9144 52.8974C46.5735 52.179 44.8737 49.297 44.8737 45.7581C44.8737 41.6558 47.1604 38.4417 50.0732 38.4417C52.986 38.4417 55.2807 41.6555 55.2807 45.7581C55.2807 49.2965 53.5734 52.1786 51.2322 52.8974L51.2321 45.7581C51.2321 45.118 50.713 44.5992 50.0732 44.5992C49.4331 44.5992 48.9143 45.118 48.9143 45.7581Z" fill="white"/>
</svg>
