<svg width="50" height="50" viewBox="0 0 50 50" fill="none" xmlns="http://www.w3.org/2000/svg">
<rect width="50" height="50" fill="white"/>
<path d="M9.07163 27.0001H2.78587C2.35229 27.0001 2.00021 27.3443 2.00021 27.7693V31.6152H9.07159L9.07163 27.0001ZM12.9999 33.9233H13.0004C13.1701 33.9247 13.3351 33.9785 13.4716 34.0767L15.3573 35.4616V27.0001H10.6428V35.4616L12.5285 34.0772V34.0767C12.6655 33.9785 12.8304 33.9247 13.0002 33.9233L12.9999 33.9233ZM16.9281 31.6157H23.9995L24 27H16.9286L16.9281 31.6157ZM23.9995 47L2 46.9995V33.154H9.07138V36.9999C9.068 37.2908 9.23632 37.5575 9.50352 37.6846C9.76974 37.8173 10.0895 37.7903 10.3287 37.6152L13.0002 35.6536L15.6717 37.6152C15.8082 37.7138 15.9731 37.7677 16.1429 37.7691C16.2663 37.7714 16.3879 37.7422 16.4964 37.6846C16.7636 37.5575 16.9319 37.2908 16.9285 36.9999V33.154H23.9999L23.9995 47ZM8.28575 44.6919C8.28431 44.2674 7.93367 43.9237 7.50009 43.9227H4.35746C3.9234 43.9227 3.5718 44.267 3.5718 44.6919C3.5718 45.1169 3.9234 45.4611 4.35746 45.4611H7.50009C7.93367 45.4597 8.28431 45.1164 8.28575 44.6919ZM12.2145 42.3843C12.213 41.9598 11.8619 41.6161 11.4283 41.6151H4.35734C3.92327 41.6151 3.57167 41.9594 3.57167 42.3843C3.57167 42.8088 3.92327 43.1535 4.35734 43.1535H11.4287H11.4282C11.8618 43.1521 12.213 42.8084 12.2145 42.3843Z" fill="#00255B"/>
<path d="M33.0716 4.00012H26.7859C26.3523 4.00012 26.0002 4.34435 26.0002 4.76931V8.61522H33.0716L33.0716 4.00012ZM36.9999 10.9233H37.0004C37.1701 10.9247 37.3351 10.9785 37.4716 11.0767L39.3573 12.4616V4.00006H34.6428V12.4616L36.5285 11.0772V11.0767C36.6655 10.9785 36.8304 10.9247 37.0002 10.9233L36.9999 10.9233ZM40.9281 8.61566H47.9995L48 4H40.9286L40.9281 8.61566ZM47.9995 24L26 23.9995V10.154H33.0714V13.9999C33.068 14.2908 33.2363 14.5575 33.5035 14.6846C33.7697 14.8173 34.0895 14.7903 34.3287 14.6152L37.0002 12.6536L39.6717 14.6152C39.8082 14.7138 39.9731 14.7677 40.1429 14.7691C40.2663 14.7714 40.3879 14.7422 40.4964 14.6846C40.7636 14.5575 40.9319 14.2908 40.9285 13.9999V10.154H47.9999L47.9995 24ZM32.2858 21.6919C32.2843 21.2674 31.9337 20.9237 31.5001 20.9227H28.3575C27.9234 20.9227 27.5718 21.267 27.5718 21.6919C27.5718 22.1169 27.9234 22.4611 28.3575 22.4611H31.5001C31.9337 22.4597 32.2843 22.1164 32.2858 21.6919ZM36.2145 19.3843C36.213 18.9598 35.8619 18.6161 35.4283 18.6151H28.3573C27.9233 18.6151 27.5717 18.9594 27.5717 19.3843C27.5717 19.8088 27.9233 20.1535 28.3573 20.1535H35.4287H35.4282C35.8618 20.1521 36.213 19.8084 36.2145 19.3843Z" fill="#00255B"/>
<path d="M9.07163 4.00012H2.78587C2.35229 4.00012 2.00021 4.34435 2.00021 4.76931V8.61522H9.07159L9.07163 4.00012ZM12.9999 10.9233H13.0004C13.1701 10.9247 13.3351 10.9785 13.4716 11.0767L15.3573 12.4616V4.00006H10.6428V12.4616L12.5285 11.0772V11.0767C12.6655 10.9785 12.8304 10.9247 13.0002 10.9233L12.9999 10.9233ZM16.9281 8.61566H23.9995L24 4H16.9286L16.9281 8.61566ZM23.9995 24L2 23.9995V10.154H9.07138V13.9999C9.068 14.2908 9.23632 14.5575 9.50352 14.6846C9.76974 14.8173 10.0895 14.7903 10.3287 14.6152L13.0002 12.6536L15.6717 14.6152C15.8082 14.7138 15.9731 14.7677 16.1429 14.7691C16.2663 14.7714 16.3879 14.7422 16.4964 14.6846C16.7636 14.5575 16.9319 14.2908 16.9285 13.9999V10.154H23.9999L23.9995 24ZM8.28575 21.6919C8.28431 21.2674 7.93367 20.9237 7.50009 20.9227H4.35746C3.9234 20.9227 3.5718 21.267 3.5718 21.6919C3.5718 22.1169 3.9234 22.4611 4.35746 22.4611H7.50009C7.93367 22.4597 8.28431 22.1164 8.28575 21.6919ZM12.2145 19.3843C12.213 18.9598 11.8619 18.6161 11.4283 18.6151H4.35734C3.92327 18.6151 3.57167 18.9594 3.57167 19.3843C3.57167 19.8088 3.92327 20.1535 4.35734 20.1535H11.4287H11.4282C11.8618 20.1521 12.213 19.8084 12.2145 19.3843Z" fill="#00255B"/>
<path d="M33.0716 27.0001H26.7859C26.3523 27.0001 26.0002 27.3443 26.0002 27.7693V31.6152H33.0716L33.0716 27.0001ZM36.9999 33.9233H37.0004C37.1701 33.9247 37.3351 33.9785 37.4716 34.0767L39.3573 35.4616V27.0001H34.6428V35.4616L36.5285 34.0772V34.0767C36.6655 33.9785 36.8304 33.9247 37.0002 33.9233L36.9999 33.9233ZM40.9281 31.6157H47.9995L48 27H40.9286L40.9281 31.6157ZM47.9995 47L26 46.9995V33.154H33.0714V36.9999C33.068 37.2908 33.2363 37.5575 33.5035 37.6846C33.7697 37.8173 34.0895 37.7903 34.3287 37.6152L37.0002 35.6536L39.6717 37.6152C39.8082 37.7138 39.9731 37.7677 40.1429 37.7691C40.2663 37.7714 40.3879 37.7422 40.4964 37.6846C40.7636 37.5575 40.9319 37.2908 40.9285 36.9999V33.154H47.9999L47.9995 47ZM32.2858 44.6919C32.2843 44.2674 31.9337 43.9237 31.5001 43.9227H28.3575C27.9234 43.9227 27.5718 44.267 27.5718 44.6919C27.5718 45.1169 27.9234 45.4611 28.3575 45.4611H31.5001C31.9337 45.4597 32.2843 45.1164 32.2858 44.6919ZM36.2145 42.3843C36.213 41.9598 35.8619 41.6161 35.4283 41.6151H28.3573C27.9233 41.6151 27.5717 41.9594 27.5717 42.3843C27.5717 42.8088 27.9233 43.1535 28.3573 43.1535H35.4287H35.4282C35.8618 43.1521 36.213 42.8084 36.2145 42.3843Z" fill="#00255B"/>
</svg>
