<svg width="18" height="14" viewBox="0 0 18 14" fill="none" xmlns="http://www.w3.org/2000/svg">
<path d="M16.1104 3.25519H14.4169V2.20312C14.4169 1.88404 14.2901 1.57805 14.0646 1.35242C13.8389 1.12675 13.533 1 13.2139 1H2.20312C1.88404 1 1.57792 1.12677 1.35242 1.35242C1.12675 1.57808 1 1.88404 1 2.20312V9.54178C1 9.86086 1.12677 10.1668 1.35242 10.3925C1.57795 10.6181 1.88404 10.7449 2.20312 10.7449H4.11903V11.5745C4.11903 11.9525 4.26922 12.3151 4.53649 12.5825C4.80377 12.8498 5.16638 13 5.54454 13H16.1102C16.4882 13 16.8508 12.8498 17.1183 12.5825C17.3855 12.3151 17.5357 11.9525 17.5357 11.5745V4.68093C17.5357 4.3028 17.3855 3.94032 17.1183 3.67288C16.8508 3.40559 16.4882 3.25542 16.1102 3.25542L16.1104 3.25519ZM16.9657 4.6807V5.49895H4.68946V4.6807C4.68946 4.45389 4.77957 4.23623 4.93994 4.07589C5.10031 3.91552 5.31784 3.82541 5.54475 3.82541H16.1104C16.3372 3.82541 16.5549 3.91552 16.7152 4.07589C16.8756 4.23626 16.9657 4.45392 16.9657 4.6807H16.9657ZM16.9657 6.72769H4.68946V6.06915H16.9657V6.72769ZM1.5703 3.81393H4.42131C4.26985 4.00446 4.17146 4.23164 4.13621 4.47259H1.5703V3.81393ZM2.20325 1.57017H13.214C13.3818 1.57017 13.5428 1.63686 13.6615 1.75561C13.7801 1.87423 13.8468 2.03524 13.8468 2.2031V3.24374H1.57054V2.2031C1.57054 2.03523 1.63724 1.87421 1.75586 1.75561C1.87461 1.63686 2.03561 1.57017 2.20348 1.57017H2.20325ZM2.20325 10.1743V10.1745C2.03538 10.1745 1.87436 10.1078 1.75563 9.98903C1.63701 9.87041 1.57032 9.7094 1.57032 9.54153V5.04281H4.11918V10.1746L2.20325 10.1743ZM16.1103 12.4296H5.54464C5.3177 12.4296 5.10017 12.3395 4.93983 12.1791C4.77946 12.0187 4.68935 11.8011 4.68935 11.5743V7.29778H16.9656V11.5743C16.9656 11.8011 16.8755 12.0187 16.7151 12.1791C16.5548 12.3394 16.3371 12.4296 16.1103 12.4296H16.1103Z" fill="#B3B3B3" stroke="#B3B3B3" stroke-width="0.5"/>
</svg>
