<svg width="14" height="16" viewBox="0 0 14 16" fill="none" xmlns="http://www.w3.org/2000/svg">
<path d="M6.6025 15.1297H1.10878C1.04886 15.1297 1.00017 15.0811 1.00017 15.0211V13.9654C0.991261 12.9652 1.33196 11.9931 1.96339 11.2174C2.59471 10.4417 3.47731 9.91079 4.45845 9.71648C4.5047 9.70714 4.55147 9.72921 4.57364 9.77078C4.59719 9.81215 4.59104 9.86423 4.55837 9.89892L3.93924 10.5506L4.71257 10.9459L4.71268 10.946C4.76242 10.9704 4.78512 11.0291 4.76476 11.0806L4.46501 11.8801L6.65682 13.1487C6.69023 13.168 6.71092 13.2035 6.71113 13.2421V15.0212C6.71113 15.0501 6.69967 15.0776 6.67931 15.098C6.65894 15.1184 6.63136 15.1298 6.60251 15.1298L6.6025 15.1297ZM1.2174 14.9125H6.49388V13.3071L4.27598 12.0255C4.23047 11.9984 4.21128 11.9424 4.23037 11.893L4.528 11.0958L3.71117 10.6765C3.68083 10.6607 3.65919 10.632 3.65251 10.5984C3.64699 10.5645 3.65739 10.5301 3.68083 10.5049L4.15219 10.0075C3.29908 10.2583 2.55108 10.7804 2.02147 11.4947C1.49198 12.2088 1.20964 13.0763 1.21737 13.9654L1.2174 14.9125Z" fill="#212122" stroke="#B3B3B3" stroke-width="0.5"/>
<path d="M12.8914 15.1297H7.39768C7.33764 15.1297 7.28906 15.0812 7.28906 15.0211V13.2442C7.28927 13.2057 7.30996 13.1701 7.34337 13.1508L9.53518 11.8822L9.23543 11.0828C9.21507 11.0312 9.23776 10.9725 9.28751 10.9481L10.0608 10.5528L9.44172 9.9011H9.44182C9.40915 9.86631 9.403 9.81433 9.42655 9.77286C9.44872 9.73128 9.49549 9.70922 9.54174 9.71855C10.5226 9.91287 11.4047 10.4434 12.0361 11.2188C12.6675 11.9942 13.0084 12.9655 13 13.9654V15.0211C13 15.0499 12.9885 15.0775 12.9682 15.0979C12.9478 15.1182 12.9201 15.1297 12.8914 15.1297L12.8914 15.1297ZM7.50629 14.9125H12.7828V13.9654C12.7896 13.077 12.5068 12.2106 11.9773 11.4972C11.4478 10.7839 10.7003 10.2625 9.84796 10.0118L10.3193 10.5093C10.3428 10.5344 10.3532 10.5689 10.3476 10.6027C10.341 10.6364 10.3193 10.6651 10.289 10.6809L9.47226 11.0958L9.76989 11.893H9.76978C9.78888 11.9424 9.76968 11.9984 9.72417 12.0255L7.50627 13.3072L7.50629 14.9125Z" fill="#212122" stroke="#B3B3B3" stroke-width="0.5"/>
<path d="M7.39736 15.1298H6.60228C6.54235 15.1298 6.49367 15.0812 6.49367 15.0212V13.2443C6.49303 13.2054 6.51393 13.1695 6.54797 13.1509C6.5816 13.1315 6.62296 13.1315 6.65659 13.1509L6.99984 13.3507L7.34308 13.1509C7.37671 13.1315 7.41807 13.1315 7.4517 13.1509C7.48575 13.1695 7.50664 13.2054 7.50601 13.2443V15.0212C7.50601 15.0501 7.49455 15.0776 7.47418 15.098C7.45382 15.1184 7.42614 15.1298 7.39739 15.1298H7.39736ZM6.7109 14.9126H7.28875V13.4333L7.05635 13.5701H7.05625C7.02167 13.5887 6.98009 13.5887 6.94551 13.5701L6.71089 13.4333L6.7109 14.9126Z" fill="#212122" stroke="#B3B3B3" stroke-width="0.5"/>
<path d="M7.00003 13.5853C6.96376 13.5844 6.93024 13.5657 6.9103 13.5353C6.89036 13.505 6.88654 13.4669 6.90011 13.4332L8.75302 9.07125C8.76638 9.03689 8.79704 9.01207 8.83342 9.00613C8.86938 8.99987 8.90618 9.01207 8.93122 9.03869L10.3193 10.5093H10.3192C10.3436 10.5338 10.3541 10.5688 10.3475 10.6028C10.3416 10.6361 10.3208 10.6648 10.291 10.6809L9.47206 11.0959L9.76969 11.8931C9.78985 11.9424 9.77033 11.999 9.72408 12.0256L7.05434 13.57C7.03811 13.5803 7.01923 13.5856 7.00004 13.5853H7.00003ZM8.88775 9.30807L7.22809 13.2182L9.53509 11.8823L9.23534 11.0785C9.21699 11.0268 9.23916 10.9696 9.28742 10.9438L10.0629 10.5506L8.88775 9.30807Z" fill="#212122" stroke="#B3B3B3" stroke-width="0.5"/>
<path d="M6.99983 13.5853C6.98063 13.5854 6.96186 13.5801 6.94552 13.57L4.27578 12.0255C4.22954 11.999 4.21002 11.9424 4.23017 11.893L4.5278 11.0958L3.71097 10.6766C3.68063 10.6608 3.659 10.632 3.65231 10.5984C3.64574 10.5645 3.65624 10.5294 3.68063 10.5049L5.06875 9.03431H5.06865C5.09389 9.00705 5.13123 8.99454 5.16771 9.00111C5.20431 9.00779 5.23496 9.03251 5.24896 9.06687L7.09975 13.4288C7.11333 13.4626 7.10951 13.5006 7.08957 13.531C7.06963 13.5613 7.03611 13.58 6.99983 13.5809L6.99983 13.5853ZM4.4648 11.8843L6.7826 13.2203L5.12083 9.31016L3.94782 10.5549L4.72116 10.9481H4.72105C4.77016 10.9732 4.79254 11.0311 4.77324 11.0828L4.4648 11.8843Z" fill="#212122" stroke="#B3B3B3" stroke-width="0.5"/>
<path d="M7.00032 13.5831C6.95715 13.5827 6.91812 13.5573 6.90041 13.518L5.04527 9.15601C5.02788 9.12419 5.02788 9.08569 5.04527 9.05386C5.06479 9.02342 5.0982 9.00475 5.13437 9.00391H5.20384C5.22877 9.00412 5.25264 9.01345 5.2712 9.03C5.757 9.42351 6.36318 9.63819 6.98834 9.63819C7.61349 9.63819 8.21981 9.4235 8.70558 9.03C8.72404 9.01345 8.74801 9.00412 8.77294 9.00391H8.84029C8.87636 9.00475 8.90977 9.02342 8.92928 9.05386C8.95538 9.08091 8.96535 9.11973 8.95538 9.15601L7.10024 13.518C7.08391 13.5585 7.04403 13.5845 7.00033 13.5831H7.00032ZM5.37323 9.37319L7.00032 13.1964L8.62742 9.37319C8.14471 9.69437 7.57788 9.86568 6.9982 9.86568C6.41842 9.86568 5.85159 9.69438 5.36899 9.37319H5.37323Z" fill="#212122" stroke="#B3B3B3" stroke-width="0.5"/>
<path d="M7.00001 9.85548C6.21818 9.85548 5.46839 9.5449 4.91565 8.99208C4.36283 8.43926 4.05225 7.68944 4.05225 6.90761V5.15237C4.0532 5.11684 4.07091 5.08385 4.09998 5.06338C4.12989 5.04249 4.1685 5.03835 4.20212 5.05246C5.99521 5.78645 8.00471 5.78645 9.79793 5.05246C9.83134 5.03878 9.86942 5.04259 9.89944 5.06254C9.92956 5.08258 9.9477 5.11631 9.9478 5.15238V6.90761C9.94674 7.68912 9.63576 8.43818 9.08313 8.99081C8.5306 9.54333 7.78144 9.85432 7.00004 9.85548L7.00001 9.85548ZM4.26945 5.31106V6.90772C4.26998 7.63174 4.55785 8.32595 5.06985 8.83796C5.58175 9.34986 6.27596 9.63771 6.99998 9.63836C7.72379 9.6372 8.4177 9.34912 8.92949 8.83733C9.44139 8.32543 9.72946 7.63155 9.73052 6.90774V5.31109C7.9735 5.98993 6.0265 5.98993 4.26939 5.31109L4.26945 5.31106Z" fill="#212122" stroke="#B3B3B3" stroke-width="0.5"/>
<path d="M6.97589 5.8215C5.99625 5.81534 5.027 5.61986 4.12151 5.24587C4.07537 5.22741 4.04769 5.18 4.05416 5.13078C4.06063 5.08209 4.09892 5.04381 4.1476 5.03734C6.04007 4.77662 7.95942 4.77662 9.85203 5.03734C9.90071 5.04381 9.939 5.08209 9.94547 5.13078C9.95258 5.18074 9.92352 5.22879 9.876 5.24587C8.95384 5.61763 7.97014 5.81291 6.97599 5.8215H6.97589ZM4.61025 5.20459C6.15322 5.73471 7.82903 5.73471 9.3719 5.20459C7.78999 5.02215 6.19221 5.02215 4.61025 5.20459Z" fill="#212122" stroke="#B3B3B3" stroke-width="0.5"/>
<path d="M4.16281 4.71801C4.14616 4.71886 4.12971 4.71515 4.11508 4.70719C3.62759 4.43821 3.20722 4.06241 2.88554 3.60802C2.82179 3.52794 2.79644 3.42388 2.81606 3.32345C2.83377 3.21907 2.89646 3.12765 2.98757 3.07366C3.56703 2.75832 4.04306 2.28237 4.35829 1.70294C4.4145 1.60027 4.51771 1.53196 4.63417 1.5205L6.20473 1.35758C6.30359 1.34454 6.39884 1.31208 6.48496 1.26202L6.83689 1.04479C6.93649 0.985071 7.06091 0.985071 7.16062 1.04479L7.5169 1.26202H7.51679C7.60271 1.31038 7.69711 1.3421 7.7949 1.35536L9.36546 1.51828C9.48097 1.52931 9.58344 1.59687 9.63912 1.69859C9.95467 2.279 10.4305 2.75631 11.0098 3.07368C11.1019 3.1265 11.1662 3.21698 11.1858 3.32135C11.2034 3.42074 11.1773 3.52288 11.1141 3.60157C10.7924 4.05596 10.372 4.43166 9.88456 4.70075C9.85454 4.71581 9.81911 4.71581 9.78899 4.70075C7.89905 3.74932 6.02442 3.74932 4.21273 4.70075C4.19777 4.71061 4.18059 4.71655 4.16277 4.71804L4.16281 4.71801ZM6.9694 3.77527C7.96762 3.78662 8.9495 4.03057 9.83682 4.48772C10.2727 4.23125 10.6494 3.88557 10.9425 3.47329C10.9659 3.44317 10.9754 3.40445 10.9686 3.36691C10.9614 3.3249 10.9359 3.28831 10.8991 3.26699C10.2865 2.92925 9.78263 2.42449 9.44576 1.8115C9.42444 1.77173 9.38435 1.74553 9.33938 1.74203L7.76881 1.57911C7.63983 1.56404 7.51542 1.52183 7.40384 1.45522L7.04756 1.23799H7.04767C7.01659 1.22059 6.97872 1.22059 6.94764 1.23799L6.59359 1.45522C6.48126 1.52183 6.35621 1.56394 6.22647 1.57911L4.65591 1.74203C4.61051 1.74595 4.56989 1.77194 4.54729 1.8115C4.20967 2.42585 3.70404 2.93148 3.08969 3.26911C3.05447 3.28979 3.02997 3.32458 3.02233 3.36467C3.01491 3.40328 3.0253 3.44327 3.05055 3.47329C3.34351 3.88483 3.71942 4.23041 4.1541 4.48772C5.02122 4.02643 5.98718 3.78194 6.96938 3.77526L6.9694 3.77527Z" fill="#212122" stroke="#B3B3B3" stroke-width="0.5"/>
<path d="M9.83734 5.26112H9.82429C7.95048 5.00242 6.05022 5.00242 4.17635 5.26112C4.14538 5.26494 4.1143 5.25519 4.09096 5.2344C4.06774 5.21361 4.05448 5.1838 4.05469 5.15251V4.60944C4.05458 4.56966 4.07622 4.53296 4.11122 4.51387C5.98811 3.52988 7.93228 3.52988 9.88733 4.51387C9.92382 4.53275 9.94652 4.57062 9.94599 4.61167V5.15474C9.94663 5.1837 9.93528 5.2117 9.91481 5.23217C9.89434 5.25264 9.86633 5.26389 9.83738 5.26335L9.83734 5.26112ZM7.00033 4.85064C7.91275 4.85022 8.82419 4.90972 9.72873 5.02873V4.6768C7.88016 3.76661 6.03584 3.76661 4.27194 4.6768V5.02873C5.17648 4.90972 6.08795 4.85022 7.00033 4.85064Z" fill="#212122" stroke="#B3B3B3" stroke-width="0.5"/>
<path d="M9.83713 6.98368C9.7771 6.98368 9.72852 6.9351 9.72852 6.87506V5.40231C9.72852 5.34227 9.7771 5.29369 9.83713 5.29369C10.0695 5.28192 10.2966 5.36603 10.4653 5.5263C10.6339 5.68667 10.7294 5.90922 10.7294 6.14193C10.7294 6.37463 10.6339 6.59718 10.4653 6.75755C10.2966 6.91782 10.0695 7.00193 9.83713 6.99016V6.98368ZM9.94574 5.51304V6.76645C10.1422 6.73144 10.3106 6.60586 10.4 6.42746C10.4894 6.24916 10.4894 6.03903 10.4 5.86074C10.3106 5.68233 10.1422 5.55665 9.94574 5.52175V5.51304Z" fill="#212122" stroke="#B3B3B3" stroke-width="0.5"/>
<path d="M4.16325 6.98379C3.93086 6.99557 3.70376 6.91145 3.53511 6.75108C3.36646 6.59081 3.271 6.36827 3.271 6.13556C3.271 5.90285 3.36646 5.68031 3.53511 5.51994C3.70376 5.35956 3.93084 5.27545 4.16325 5.28722C4.1921 5.28722 4.21968 5.29868 4.24004 5.31904C4.26041 5.33941 4.27187 5.36709 4.27187 5.39584V6.87516C4.27187 6.90401 4.26041 6.93159 4.24004 6.95196C4.21968 6.97232 4.1921 6.98379 4.16325 6.98379ZM4.05464 5.51316C3.8582 5.54816 3.68975 5.67375 3.60036 5.85214C3.51094 6.03044 3.51094 6.24057 3.60036 6.41886C3.68977 6.59727 3.85821 6.72296 4.05464 6.75785V5.51316Z" fill="#212122" stroke="#B3B3B3" stroke-width="0.5"/>
</svg>
