<svg width="48" height="48" viewBox="0 0 48 48" fill="none" xmlns="http://www.w3.org/2000/svg">
<g filter="url(#filter0_d_26_1464)">
<circle cx="24" cy="24" r="20" fill="#00255B"/>
</g>
<path d="M14.8722 11.0001C14.5032 11.0001 14 11.302 14 11.671V34.1483C14 34.1817 14.235 34.5508 14.369 34.7186L15.9458 36.7316C16.0799 36.8994 16.2814 37 16.4826 37C16.6839 37 16.8851 36.8994 17.0195 36.7316L18.0931 35.3898L19.1668 36.7316C19.3009 36.8994 19.5024 37 19.7036 37C19.9049 37 20.1061 36.8994 20.2404 36.7316L21.3141 35.3898L22.3878 36.7316C22.6562 37.0672 23.193 37.0672 23.4277 36.7316L24.5014 35.3898L25.575 36.7316C25.8434 37.0672 26.3802 37.0672 26.6149 36.7316L27.6886 35.3898L28.7623 36.7316C28.8964 36.8994 29.0978 37 29.2991 37C29.5003 37 29.7016 36.8994 29.8359 36.7316L30.9096 35.3898L31.9832 36.7316C32.2517 37.0672 32.7885 37.0672 33.0232 36.7316L34.5999 34.7186C34.734 34.5508 34.969 33.8464 34.969 33.8127L34.9674 11.6709C34.9674 11.3019 34.4642 11 34.0952 11L14.8722 11.0001ZM19.032 15.6967H29.0965C29.4656 15.6967 29.7674 16.0323 29.7674 16.4013C29.7674 16.7704 29.4655 17.0723 29.0965 17.0723H19.032C18.663 17.0723 18.3611 16.7704 18.3611 16.4013C18.3611 16.0323 18.663 15.6967 19.032 15.6967ZM29.0965 29.4515H19.032C18.663 29.4515 18.3611 29.0824 18.3611 28.7134C18.3611 28.3444 18.663 28.0425 19.032 28.0425H29.0965C29.4656 28.0425 29.7674 28.3444 29.7674 28.7134C29.7676 29.0825 29.4655 29.4515 29.0965 29.4515ZM29.0965 25.0902H19.032C18.663 25.0902 18.3611 24.7211 18.3611 24.3521C18.3611 23.983 18.663 23.6812 19.032 23.6812H29.0965C29.4656 23.6812 29.7674 23.9831 29.7674 24.3521C29.7676 24.7211 29.4655 25.0902 29.0965 25.0902ZM29.7677 20.3935C29.7677 21.0644 29.0296 21.0982 29.0967 21.0644H19.0323C18.6632 21.0644 18.3614 20.7625 18.3614 20.3935C18.3614 20.0245 18.6633 19.7226 19.0323 19.7226H29.0967C29.4658 19.7224 29.7679 20.0245 29.7679 20.3935H29.7677Z" fill="white"/>
<defs>
<filter id="filter0_d_26_1464" x="0" y="0" width="48" height="48" filterUnits="userSpaceOnUse" color-interpolation-filters="sRGB">
<feFlood flood-opacity="0" result="BackgroundImageFix"/>
<feColorMatrix in="SourceAlpha" type="matrix" values="0 0 0 0 0 0 0 0 0 0 0 0 0 0 0 0 0 0 127 0" result="hardAlpha"/>
<feOffset/>
<feGaussianBlur stdDeviation="2"/>
<feComposite in2="hardAlpha" operator="out"/>
<feColorMatrix type="matrix" values="0 0 0 0 0 0 0 0 0 0 0 0 0 0 0 0 0 0 0.25 0"/>
<feBlend mode="normal" in2="BackgroundImageFix" result="effect1_dropShadow_26_1464"/>
<feBlend mode="normal" in="SourceGraphic" in2="effect1_dropShadow_26_1464" result="shape"/>
</filter>
</defs>
</svg>
