<svg width="18" height="18" viewBox="0 0 18 18" fill="none" xmlns="http://www.w3.org/2000/svg">
<path d="M13.6792 12.0534H14.5301V13.4351C14.5301 14.8063 13.4145 15.9221 12.043 15.9221H4.5819C3.30383 15.9221 2.24819 14.9533 2.11028 13.7114H1C1.14175 15.5637 2.69393 17.0275 4.58197 17.0275H12.0431C14.0238 17.0275 15.6355 15.4158 15.6355 13.4351V12.0534H16.4863L15.0828 10.0483L13.6792 12.0534Z" fill="#B3B3B3" stroke="#B3B3B3" stroke-width="0.5"/>
<path d="M4.32729 5.97408H3.47645V4.59239C3.47645 3.22119 4.59203 2.10535 5.96349 2.10535H13.4246C14.7027 2.10535 15.7583 3.07414 15.8962 4.31605H17.0065C16.8648 2.46374 15.3126 1 13.4245 1H5.96343C3.98267 1 2.37104 2.61163 2.37104 4.59239V5.97408H1.5202L2.92371 7.97912L4.32729 5.97408Z" fill="#B3B3B3" stroke="#B3B3B3" stroke-width="0.5"/>
<path d="M5.83197 11.3097V12.7785C5.83197 13.1019 6.09984 13.3697 6.4232 13.3697H11.7165C12.0399 13.3697 12.3078 13.1019 12.3078 12.7785V11.3097C12.3078 10.3674 11.541 9.59143 10.5895 9.59143H7.54099C6.60797 9.60065 5.83197 10.3674 5.83197 11.3097Z" fill="#B3B3B3"/>
<path d="M11.2139 6.52674C11.2139 7.74768 10.2242 8.73744 9.00324 8.73744C7.7823 8.73744 6.79254 7.74768 6.79254 6.52674C6.79254 5.3058 7.7823 4.31604 9.00324 4.31604C10.2242 4.31604 11.2139 5.3058 11.2139 6.52674Z" fill="#B3B3B3"/>
</svg>
