<svg width="24" height="24" viewBox="0 0 24 24" fill="none" xmlns="http://www.w3.org/2000/svg">
<path d="M12 0C5.37166 0 0 5.37166 0 12C0 18.6283 5.37166 24 12 24C18.6283 24 24 18.6283 24 12C24 5.37166 18.6283 0 12 0ZM13.7988 17.8152C8.59959 15.2526 7.24435 10.6448 7.04723 8.9692C6.8501 7.29364 9.7577 5.8152 9.7577 5.8152L11.5811 8.91992C11.5811 8.91992 9.60986 9.97947 9.8809 10.5462C11.3347 13.6016 13.2074 14.7351 13.2074 14.7351C13.8234 14.9569 15.1786 13.4538 15.1786 13.4538L17.7906 15.9179C17.8152 15.9179 15.6222 18.7023 13.7988 17.8152Z" fill="#00255B"/>
</svg>
