<svg width="24" height="24" viewBox="0 0 24 24" fill="none" xmlns="http://www.w3.org/2000/svg">
<path d="M20.8582 20.1004C21.1168 19.8144 21.3608 19.5155 21.5891 19.2047L21.6654 19.1173C21.8727 18.8223 22.0691 18.5274 22.2545 18.2215C22.2946 18.1695 22.3311 18.1147 22.3636 18.0576C22.5236 17.759 22.6764 17.4641 22.8218 17.1728C22.8218 17.0854 22.8982 17.0089 22.9418 16.9324C23.0618 16.6484 23.1818 16.3535 23.28 16.0585L23.4 15.7636C23.4873 15.4795 23.5636 15.1955 23.64 14.9005C23.64 14.7804 23.7054 14.6602 23.7273 14.551C23.7927 14.2451 23.8364 13.9501 23.88 13.6443C23.88 13.5241 23.88 13.4149 23.9345 13.2947C23.9787 12.8701 24.0005 12.4435 24 12.0166C24 8.82958 22.7357 5.77311 20.4853 3.51957C18.2348 1.26603 15.1826 0 12 0C8.81741 0 5.76516 1.26603 3.51473 3.51957C1.26429 5.77311 9.18993e-06 8.82958 9.18993e-06 12.0166C-0.000514376 12.4435 0.0213338 12.8701 0.0654636 13.2947C0.0654636 13.4149 0.0654638 13.5241 0.120009 13.6443C0.120009 13.9501 0.207282 14.2451 0.272736 14.551C0.272736 14.6602 0.338191 14.7804 0.360009 14.9005C0.436372 15.1955 0.512736 15.4795 0.600009 15.7636L0.720008 16.0585C0.81819 16.3535 0.93819 16.6484 1.05819 16.9324L1.17819 17.1728C1.32364 17.4714 1.47637 17.7663 1.63637 18.0576L1.74546 18.2215C1.93092 18.5274 2.12728 18.8223 2.33455 19.1173L2.41092 19.2047C2.63923 19.5155 2.88319 19.8144 3.14183 20.1004C3.41635 20.4008 3.70773 20.6853 4.01455 20.9525C6.19999 22.9148 9.03197 24 11.9673 24C14.9026 24 17.7346 22.9148 19.92 20.9525C20.2268 20.6853 20.5182 20.4008 20.7927 20.1004H20.8582ZM12 6.00828C12.7552 6.00828 13.4934 6.23252 14.1213 6.65265C14.7492 7.07278 15.2385 7.66992 15.5275 8.36856C15.8165 9.06721 15.8921 9.83598 15.7448 10.5777C15.5975 11.3193 15.2338 12.0006 14.6999 12.5353C14.1659 13.07 13.4855 13.4342 12.7449 13.5817C12.0042 13.7293 11.2365 13.6535 10.5388 13.3641C9.84117 13.0748 9.24485 12.5847 8.8253 11.9559C8.40575 11.3272 8.18182 10.5879 8.18182 9.83174C8.18182 8.81769 8.58409 7.84518 9.30014 7.12815C10.0162 6.41111 10.9874 6.00828 12 6.00828ZM4.70182 18.5711C5.62251 17.5465 6.74802 16.7273 8.00533 16.1665C9.26263 15.6058 10.6236 15.316 12 15.316C13.3764 15.316 14.7374 15.6058 15.9947 16.1665C17.252 16.7273 18.3775 17.5465 19.2982 18.5711C18.3831 19.6048 17.2594 20.4324 16.0014 20.9992C14.7433 21.5659 13.3795 21.859 12 21.859C10.6205 21.859 9.25668 21.5659 7.99862 20.9992C6.74057 20.4324 5.6169 19.6048 4.70182 18.5711Z" fill="#00255B"/>
</svg>
