<svg width="20" height="20" viewBox="0 0 20 20" fill="none" xmlns="http://www.w3.org/2000/svg">
<path fill-rule="evenodd" clip-rule="evenodd" d="M9.11113 10.0516C9.11099 10.0482 9.11099 10.0448 9.11099 10.0416V3.81931C9.11099 3.32842 9.50893 2.93037 9.99993 2.93037C10.4908 2.93037 10.8887 3.32842 10.8887 3.81931V9.17275H15.0924C15.5833 9.17275 15.9812 9.5708 15.9812 10.0617C15.9812 10.5526 15.5833 10.9505 15.0924 10.9505H10C9.509 10.9505 9.1111 10.5525 9.1111 10.0617C9.1111 10.0583 9.1111 10.0549 9.11124 10.0517L9.11113 10.0516ZM20 9.99982C20 4.47702 15.523 0 10.0002 0C4.47739 0 0 4.47702 0 9.99982C0 15.5226 4.47702 20 10.0002 20C15.523 20 20 15.523 20 9.99982ZM1.7781 9.99982C1.7781 5.45888 5.45924 1.77774 10.0002 1.77774C14.5411 1.77774 18.2223 5.45888 18.2223 9.99982C18.2223 14.5408 14.5411 18.2219 10.0002 18.2219C5.45924 18.2219 1.7781 14.5408 1.7781 9.99982Z" fill="#00255B"/>
</svg>
