<svg width="76" height="68" viewBox="0 0 76 68" fill="none" xmlns="http://www.w3.org/2000/svg">
<path d="M51.0493 0.000597446C48.1269 0.000597446 45.5134 0.725638 43.653 2.67713C41.4511 3.01688 39.9531 5.2918 39.6787 7.61804C39.3775 10.172 39.4767 12.5947 39.9373 15.7394C39.789 16.3471 39.6892 16.9746 39.6886 17.6261C39.6904 19.8041 40.6262 21.7212 42.1948 22.8123C43.8604 27.5939 47.1825 30.9166 51.1333 30.9166C55.086 30.9166 58.4123 27.5939 60.0754 22.8052C61.6412 21.7136 62.5798 19.8023 62.5816 17.6261C62.5804 16.9881 62.4824 16.374 62.3399 15.7768C62.4246 15.245 62.4999 14.7091 62.4999 14.1522V9.71847C62.4999 5.06524 57.9389 0 52.274 0L51.0493 0.000597446ZM51.1211 8.45582C52.7188 8.45582 56.9885 8.50778 58.48 9.99868C58.7222 10.2316 58.8682 10.5503 58.8682 10.935L58.8343 13.6186C58.8297 13.9262 58.9482 14.224 59.1647 14.4429C59.8005 15.0827 60.2885 16.2998 60.292 17.6268C60.2902 19.3862 59.4339 20.8386 58.5961 21.2431C58.3176 21.3757 58.1058 21.6179 58.0071 21.9104C56.5687 26.2161 53.8285 28.6249 51.1351 28.6289C48.4417 28.6289 45.695 26.2173 44.2566 21.9069C44.1586 21.6151 43.9478 21.374 43.6711 21.2397C42.8357 20.8328 41.9822 19.3869 41.9788 17.6338C41.9817 16.301 42.4738 15.0716 43.1131 14.433C43.3355 14.2106 43.4552 13.9064 43.447 13.5918L43.367 10.9386C43.367 10.5539 43.5124 10.2141 43.7552 9.97127C45.2526 8.47339 49.8047 8.46517 51.1211 8.45576L51.1211 8.45582ZM58.6196 31.0876C58.5016 31.087 58.3849 31.1284 58.2997 31.2102C58.2997 31.2102 55.1368 34.1319 51.0428 34.1319C46.9488 34.1319 43.786 31.2102 43.786 31.2102C43.5624 31.0041 43.2046 31.0695 43.0674 31.3427C42.4684 32.5435 42.0236 33.3491 41.4872 33.9206C40.9507 34.4915 40.3062 34.8686 39.1818 35.2177C38.768 35.3467 38.1959 35.5143 37.6599 35.6742C37.8712 35.7793 38.075 35.8879 38.3271 35.9807C39.6628 36.4745 39.8752 38.2743 38.6914 39.0659C40.347 39.9731 41.7381 40.8942 42.8321 41.8891C44.8823 43.7531 46.0043 45.9007 46.6224 48.2061C47.693 52.2007 48.0012 57.3064 48.0287 63.6451C49.0281 63.6743 49.9913 63.7198 51.0491 63.7198C65.9041 63.7198 75.1409 60.6516 75.1409 60.6516C75.3394 60.5856 75.4678 60.393 75.4544 60.1852C74.971 53.6932 74.7515 47.7486 72.9448 42.8213C70.8152 37.0151 65.4597 36.01 62.9093 35.2172C61.7844 34.8675 61.1381 34.4904 60.6006 33.92C60.0629 33.3485 59.6193 32.5429 59.0204 31.3421C58.9445 31.1886 58.7898 31.0894 58.6187 31.087L58.6196 31.0876Z" fill="#212122"/>
<path d="M23.1496 9.6702C14.6225 9.6702 9.76679 16.8487 9.82059 25.704C9.8346 28.0858 10.2508 30.342 11.0255 32.3741C11.2578 32.9836 12.0675 32.9871 12.8725 32.8195C12.8567 34.8095 11.2133 36.6438 8.57655 37.617C9.8188 38.0951 11.2414 38.349 12.6851 38.3502C12.9063 38.3502 13.1147 38.3187 13.3313 38.3046C4.99457 41.6683 2.48496 44.4867 1.36757 48.6542C0.322629 52.5538 0.000981251 57.8175 0.000981251 64.5505C-0.0124452 64.7537 0.113064 64.9405 0.306877 65.0041C0.306877 65.0041 8.65405 67.9988 23.1508 67.9988C37.6476 67.9988 45.9963 65.0047 45.9963 65.0047C46.1895 64.9399 46.3156 64.7537 46.3022 64.5511C46.3022 57.8185 45.9852 52.5548 44.9402 48.6548C43.8235 44.4873 41.308 41.6677 32.9707 38.3046C33.1884 38.3274 33.398 38.3502 33.621 38.3502C35.0647 38.349 36.4826 38.0951 37.7249 37.617C35.0875 36.6438 33.4489 34.8103 33.433 32.8195C34.238 32.9871 35.0472 32.9836 35.28 32.3741C36.0547 30.342 36.4703 28.0858 36.4849 25.704C36.5386 16.8495 31.5796 9.6702 23.1511 9.6702H23.1496ZM23.1496 16.6766C27.7952 16.6766 31.5488 19.3274 31.9469 22.133C31.8348 26.1785 30.7998 29.8242 29.2049 32.4131C27.5179 35.1521 25.3527 36.6303 23.1495 36.6303C20.9458 36.6303 18.7853 35.1522 17.0982 32.4131C15.5033 29.8242 14.4683 26.1785 14.3562 22.133C14.5057 20.2913 14.815 18.5749 15.5436 17.7636C16.275 16.9487 19.5629 17.965 23.1489 16.6767L23.1496 16.6766ZM18.0983 36.9605C19.5845 38.1111 21.2844 38.8111 23.1496 38.8111C25.0148 38.8111 26.7194 38.1112 28.2056 36.9605C28.9225 37.3849 29.7526 37.7329 30.6638 37.9734C30.1016 38.8385 27.6848 42.1508 23.1502 42.1508C18.6156 42.1508 16.1981 38.8391 15.6366 37.9734C16.5491 37.7334 17.3809 37.3855 18.099 36.9605H18.0983Z" fill="#212122"/>
</svg>
