<svg width="48" height="48" viewBox="0 0 48 48" fill="none" xmlns="http://www.w3.org/2000/svg">
<g filter="url(#filter0_d_26_1086)">
<circle cx="24" cy="24" r="20" fill="#00255B"/>
</g>
<path d="M35.0718 20.3557L35.0577 23.4281C35.0577 23.6244 34.9033 23.7788 34.707 23.7788C34.5106 23.7788 34.3563 23.6244 34.3563 23.4281L34.3703 20.7064L31.2838 22.2497V33.0942L39.0001 28.8434V18.3909L35.0718 20.3557Z" fill="white"/>
<path d="M22.8658 28.8432L30.5822 33.0941V22.2495L22.8658 18.3914V28.8432Z" fill="white"/>
<path d="M27.2012 15.8661L23.3011 17.8161L30.9332 21.6324L34.0056 20.1032L27.2012 15.8661Z" fill="white"/>
<path d="M38.5653 17.8159L30.9332 14L27.9309 15.501L34.7353 19.7381L38.5653 17.8159Z" fill="white"/>
<path d="M20.8479 22.957H8.44303C8.19857 22.957 8 23.2808 8 23.6794C8 24.0779 8.19857 24.4017 8.44303 24.4017H20.8479C21.0924 24.4017 21.291 24.0779 21.291 23.6794C21.291 23.2808 21.0926 22.957 20.8479 22.957Z" fill="white"/>
<path d="M20.8455 20.0675H11.0458C10.8 20.0675 10.6003 20.3913 10.6003 20.7898C10.6003 21.1884 10.8 21.5122 11.0458 21.5122H20.8455C21.0913 21.5122 21.2909 21.1884 21.2909 20.7898C21.2909 20.3913 21.0915 20.0675 20.8455 20.0675Z" fill="white"/>
<path d="M20.8757 17.4672H15.0609C14.8317 17.4672 14.6455 17.7262 14.6455 18.045C14.6455 18.3639 14.8317 18.6229 15.0609 18.6229H20.8757C21.1048 18.6229 21.291 18.3639 21.291 18.045C21.291 17.7262 21.105 17.4672 20.8757 17.4672Z" fill="white"/>
<path d="M20.8455 25.8463H11.0458C10.8 25.8463 10.6003 26.1701 10.6003 26.5686C10.6003 26.9672 10.8 27.291 11.0458 27.291H20.8455C21.0913 27.291 21.2909 26.9672 21.2909 26.5686C21.2909 26.1701 21.0915 25.8463 20.8455 25.8463Z" fill="white"/>
<path d="M20.8757 28.4467H15.0609C14.8317 28.4467 14.6455 28.7704 14.6455 29.169C14.6455 29.5676 14.8317 29.8913 15.0609 29.8913H20.8757C21.1048 29.8913 21.291 29.5676 21.291 29.169C21.291 28.7704 21.105 28.4467 20.8757 28.4467Z" fill="white"/>
<defs>
<filter id="filter0_d_26_1086" x="0" y="0" width="48" height="48" filterUnits="userSpaceOnUse" color-interpolation-filters="sRGB">
<feFlood flood-opacity="0" result="BackgroundImageFix"/>
<feColorMatrix in="SourceAlpha" type="matrix" values="0 0 0 0 0 0 0 0 0 0 0 0 0 0 0 0 0 0 127 0" result="hardAlpha"/>
<feOffset/>
<feGaussianBlur stdDeviation="2"/>
<feComposite in2="hardAlpha" operator="out"/>
<feColorMatrix type="matrix" values="0 0 0 0 0 0 0 0 0 0 0 0 0 0 0 0 0 0 0.25 0"/>
<feBlend mode="normal" in2="BackgroundImageFix" result="effect1_dropShadow_26_1086"/>
<feBlend mode="normal" in="SourceGraphic" in2="effect1_dropShadow_26_1086" result="shape"/>
</filter>
</defs>
</svg>
