<svg width="48" height="48" viewBox="0 0 48 48" fill="none" xmlns="http://www.w3.org/2000/svg">
<g filter="url(#filter0_d_26_1419)">
<circle cx="24" cy="24" r="20" fill="#00255B"/>
</g>
<path d="M34.4667 19.9H13V35.2334C13 35.655 13.345 36 13.7667 36H35.2333C35.655 36 36 35.655 36 35.2334V19.9H34.4667ZM24.0247 26.202L27.789 23.1966C27.8044 23.1737 27.8351 23.1506 27.858 23.1353C27.8886 23.1047 27.927 23.0816 27.9653 23.0664C28.0036 23.0434 28.042 23.028 28.088 23.0126C28.1186 22.9972 28.1493 22.9897 28.1876 22.982C28.2338 22.9743 28.2797 22.9666 28.3334 22.9666C28.3871 22.9666 28.433 22.9743 28.479 22.982C28.5174 22.9897 28.548 22.9974 28.5786 23.0126C28.6247 23.028 28.663 23.0433 28.7013 23.0664C28.7397 23.0818 28.778 23.1047 28.8086 23.1353C28.8316 23.1507 28.8624 23.1737 28.8776 23.1966L32.642 26.202C32.9793 26.4627 33.033 26.9458 32.7647 27.2754C32.6113 27.467 32.389 27.5666 32.1668 27.5666C31.998 27.5666 31.8295 27.5129 31.6913 27.3979L29.1001 25.3279V32.1666C29.1001 32.5882 28.7551 32.9332 28.3334 32.9332C27.9118 32.9332 27.5668 32.5882 27.5668 32.1666V25.3279L24.9755 27.3979C24.6459 27.6662 24.1705 27.6125 23.9022 27.2752C23.6339 26.9456 23.6874 26.4626 24.0247 26.202H24.0247Z" fill="white"/>
<path d="M33.9147 18.3667H35.678L32.8336 13.3833C32.6957 13.1456 32.4428 13 32.1667 13H16.8334C16.5573 13 16.3044 13.1456 16.1663 13.3833L13.3221 18.3667H33.9147Z" fill="white"/>
<defs>
<filter id="filter0_d_26_1419" x="0" y="0" width="48" height="48" filterUnits="userSpaceOnUse" color-interpolation-filters="sRGB">
<feFlood flood-opacity="0" result="BackgroundImageFix"/>
<feColorMatrix in="SourceAlpha" type="matrix" values="0 0 0 0 0 0 0 0 0 0 0 0 0 0 0 0 0 0 127 0" result="hardAlpha"/>
<feOffset/>
<feGaussianBlur stdDeviation="2"/>
<feComposite in2="hardAlpha" operator="out"/>
<feColorMatrix type="matrix" values="0 0 0 0 0 0 0 0 0 0 0 0 0 0 0 0 0 0 0.25 0"/>
<feBlend mode="normal" in2="BackgroundImageFix" result="effect1_dropShadow_26_1419"/>
<feBlend mode="normal" in="SourceGraphic" in2="effect1_dropShadow_26_1419" result="shape"/>
</filter>
</defs>
</svg>
