<svg width="13" height="13" viewBox="0 0 13 13" fill="none" xmlns="http://www.w3.org/2000/svg">
<path fill-rule="evenodd" clip-rule="evenodd" d="M6.486 0.000348387C6.36903 0.00605413 6.2678 0.0833783 6.23151 0.19474L4.81558 4.44282H0.281157C0.159466 4.44321 0.0518416 4.52152 0.0139771 4.63711C-0.0237993 4.7528 0.0167318 4.8796 0.114616 4.95181L3.79781 7.64501L2.38188 12.0412C2.344 12.1575 2.38562 12.2852 2.48478 12.357C2.58394 12.4287 2.71803 12.4283 2.81681 12.356L6.5 9.66277L10.1832 12.356C10.282 12.4283 10.4161 12.4287 10.5152 12.357C10.6144 12.2852 10.656 12.1576 10.6181 12.0413L9.20219 7.64511L12.8854 4.95191C12.9833 4.8797 13.0238 4.7528 12.986 4.63711C12.9481 4.52152 12.8405 4.44321 12.7188 4.44282H8.18442L6.76849 0.19474C6.72904 0.0736395 6.6132 -0.00594767 6.486 0.000348387Z" fill="#FFC93D"/>
</svg>
