<svg width="65" height="47" viewBox="0 0 65 47" fill="none" xmlns="http://www.w3.org/2000/svg">
<path d="M64.302 18.0187C64.2838 17.8869 64.2576 17.7558 64.2238 17.6273V14.4159C64.2238 12.6843 63.5417 11.023 62.3248 9.79104C61.1078 8.5596 59.4546 7.8572 57.723 7.83678H55.6087V6.19201C55.674 4.54505 55.0545 2.94524 53.8965 1.77279C52.7389 0.600248 51.1467 -0.0401569 49.4992 0.00438896H6.50081C4.81218 -0.0587894 3.16947 0.562281 1.94562 1.72728C0.721149 2.89233 0.0197372 4.50228 0 6.19201V32.5864C0 34.318 0.682114 35.9793 1.89902 37.2113C3.116 38.4427 4.76928 39.1451 6.50081 39.1655H7.83183V40.8103C7.83183 44.3349 11.0432 46.998 14.646 46.998H57.7238C59.4066 47.0398 61.0375 46.4118 62.2566 45.251C63.4757 44.0908 64.1835 42.4932 64.2247 40.8104V25.4592C64.2584 25.3302 64.2846 25.1996 64.3028 25.0679C64.2846 24.9356 64.2584 24.805 64.2247 24.6759V18.4101C64.2584 18.2816 64.2846 18.1504 64.3028 18.0187L64.302 18.0187ZM10.9649 19.5853H61.0906V23.5012H10.9649V19.5853ZM61.0906 14.4159V16.452H10.9649V14.4159C11.0249 13.4806 11.4387 12.6035 12.1224 11.9632C12.8067 11.3233 13.7088 10.9678 14.6458 10.9694H57.7237C58.6242 10.9903 59.4808 11.3619 60.11 12.006C60.7396 12.6501 61.0919 13.5153 61.0919 14.4159L61.0906 14.4159ZM6.49935 36.0323C5.5988 36.0114 4.74219 35.6398 4.11306 34.9958C3.48342 34.3517 3.13112 33.4864 3.13112 32.5859V6.19146C3.1504 5.3316 3.52197 4.51777 4.15857 3.94005C4.7957 3.36235 5.6416 3.07216 6.49935 3.13693H49.4977C50.3153 3.08821 51.113 3.39767 51.6843 3.98395C52.2556 4.57021 52.5436 5.37542 52.474 6.19136V7.83613H14.6443C12.8774 7.83506 11.1787 8.52039 9.90754 9.74804C8.63596 10.9757 7.89119 12.6489 7.8302 14.4152V36.0316L6.49935 36.0323ZM57.7216 43.8643H14.6437C12.7639 43.8643 10.9628 42.6109 10.9628 40.8098V26.6333H61.0885V40.8098C61.0479 41.6622 60.6699 42.4627 60.0381 43.036C59.4063 43.6089 58.5727 43.9071 57.7203 43.8643H57.7216Z" fill="#00255B"/>
<path d="M52.7104 30.2363C51.6321 30.2337 50.5742 30.5319 49.656 31.0978C48.7377 30.5319 47.6798 30.2337 46.6015 30.2363C44.6424 30.2363 42.8328 31.2809 41.8535 32.9776C40.8742 34.6738 40.8742 36.7635 41.8535 38.4602C42.8327 40.1564 44.6424 41.2015 46.6015 41.2015C47.6926 41.2133 48.7603 40.8845 49.656 40.2613C50.5517 40.8845 51.6193 41.2132 52.7104 41.2015C54.6695 41.2015 56.4792 40.1564 57.4585 38.4602C58.4377 36.7635 58.4377 34.6738 57.4585 32.9776C56.4792 31.2809 54.6695 30.2363 52.7104 30.2363ZM52.7104 38.147V38.1465C51.9893 38.1433 51.3039 37.8295 50.8306 37.285C50.5431 36.9407 50.1019 36.764 49.6559 36.8154C49.1874 36.7646 48.7227 36.9391 48.4025 37.285C47.9592 37.8156 47.2916 38.1058 46.6014 38.0683C45.9782 38.0683 45.3807 37.8209 44.94 37.3803C44.4994 36.9397 44.2515 36.3416 44.2515 35.7189C44.2296 35.0888 44.47 34.4784 44.9154 34.0329C45.3609 33.5874 45.9718 33.3471 46.6014 33.369C47.3055 33.3503 47.9752 33.671 48.4026 34.2305C48.7367 34.564 49.1843 34.76 49.656 34.7787C50.1132 34.7975 50.5512 34.5929 50.8307 34.2305C51.304 33.6865 51.9893 33.3722 52.7105 33.369C53.3337 33.369 53.9312 33.6164 54.3718 34.057C54.8125 34.4976 55.0604 35.0957 55.0604 35.7189C55.0604 36.3491 54.8157 36.9551 54.3772 37.4086C53.9387 37.8616 53.3406 38.1261 52.7105 38.1464L52.7104 38.147Z" fill="#00255B"/>
</svg>
