<svg width="59" height="56" viewBox="0 0 59 56" fill="none" xmlns="http://www.w3.org/2000/svg">
<path fill-rule="evenodd" clip-rule="evenodd" d="M56.3127 11.6706C56.3127 12.0252 56.0239 12.3144 55.6689 12.3144H53.5844C53.2285 12.3144 52.9406 12.0252 52.9406 11.6706L52.9402 2.45919C52.9402 2.10329 53.2281 1.8154 53.584 1.8154H55.6685C56.0235 1.8154 56.3122 2.10329 56.3122 2.45919L56.3127 11.6706ZM49.5356 10.7616C49.2233 10.7616 48.9337 10.922 48.7673 11.1864C47.3027 13.513 46.1306 14.7198 42.3757 15.0499V10.9883C42.8364 11.0687 43.3309 11.1337 43.8554 11.1337C45.2229 11.1337 46.7842 10.6944 48.4239 8.96067C48.7687 8.59664 48.7528 8.02045 48.388 7.67647C48.0239 7.3317 47.4482 7.34667 47.1038 7.71155C45.213 9.71094 43.6864 9.40421 42.0707 9.08039C41.924 9.05088 41.779 9.02179 41.6357 8.99399C41.3041 8.93153 40.9829 9.0573 40.7776 9.29556C38.8677 11.5225 35.7171 15.0075 34.6943 15.7817C34.1391 16.2026 33.6442 16.3878 33.0813 16.381C31.7685 16.369 31.7685 16.2869 31.7685 15.6534C31.7685 15.6405 31.7766 15.3411 32.4277 14.492C32.9042 13.8718 33.5416 13.1865 34.158 12.5247C34.8925 11.7359 35.5863 10.9916 35.9815 10.3795C36.1625 10.1002 36.1762 9.74511 36.0166 9.45209C35.8575 9.16035 35.5516 8.97728 35.2193 8.97728L26.0822 8.97813L29.8084 4.99655C30.8555 3.87924 32.1931 3.31287 33.7853 3.31287H51.1236V10.7607L49.5357 10.7603L49.5356 10.7616ZM37.608 23.2729C37.9618 21.8663 39.1176 20.7773 40.5579 20.5185V23.2729H37.608ZM16.2179 20.572C17.541 20.9056 18.5838 21.9494 18.9175 23.2729H16.2179V20.572ZM18.9171 10.7967C18.5834 12.1202 17.5406 13.1635 16.2175 13.4963V10.7967H18.9171ZM30.7713 13.6815C31.2713 12.9834 31.9792 12.2019 32.8297 11.2878C32.9854 11.1223 33.1381 10.9576 33.2857 10.7959H20.7701C20.3855 13.1229 18.544 14.964 16.2174 15.3499V18.719C18.544 19.1048 20.3855 20.945 20.7701 23.2729H35.754C36.1539 20.8629 38.1131 18.9743 40.5577 18.6839V12.3069C38.9198 14.1505 36.7519 16.5049 35.7903 17.2334C34.9173 17.8939 34.0267 18.2074 33.0612 18.2006C32.8499 18.1993 32.6026 18.1963 32.3412 18.1745C31.8425 19.8898 30.2529 21.1525 28.3866 21.1525C26.1168 21.1525 24.2693 19.305 24.2693 17.0348C24.2693 14.7651 26.1168 12.9184 28.3866 12.9184C29.249 12.9172 30.0815 13.1935 30.7706 13.6816L30.7713 13.6815ZM30.6301 17.5442C30.2276 17.1703 29.9525 16.5843 29.9525 15.6561C29.9525 15.5607 29.9606 15.4649 29.9748 15.3682C29.5504 14.9618 28.9905 14.7347 28.3882 14.7347C27.1203 14.7347 26.0881 15.7664 26.0881 17.0348C26.0881 18.3039 27.1203 19.3362 28.3882 19.3362C29.4764 19.3353 30.397 18.567 30.6302 17.5443L30.6301 17.5442ZM55.669 0H53.5845C52.5681 0 51.6937 0.618542 51.3187 1.4985L33.7865 1.49893C31.7007 1.49893 29.8674 2.28002 28.4831 3.7584L23.5946 8.98092H15.3092C15.0692 8.98092 14.837 9.07717 14.6667 9.24784C14.4969 9.41767 14.4011 9.64909 14.4011 9.88906V24.182C14.4011 24.6829 14.8074 25.0906 15.3096 25.0906H41.4666C41.9688 25.0906 42.3756 24.6829 42.3756 24.182L42.3752 16.8732C46.5703 16.5314 48.3198 15.1716 50.0304 12.5793H51.2979C51.6602 13.4879 52.5478 14.1317 53.5847 14.1317H55.6692C57.0261 14.1317 58.1293 13.0281 58.1293 11.6716V2.46019C58.1293 1.10328 57.0252 9.92128e-05 55.6683 9.92128e-05L55.669 0ZM38.8848 38.8237L27.6646 50.8093C26.6568 51.8868 25.3667 52.4331 23.8305 52.4331H6.84484V45.2706H8.56707C8.81559 45.2706 9.05386 45.1684 9.22497 44.9883L11.6842 42.3999C13.204 40.8005 14.5228 40.1199 15.9653 40.1956C16.6775 40.2319 17.2392 40.3124 17.8363 40.3975C19.0546 40.572 20.3148 40.7513 22.7864 40.5506C23.7151 40.6234 24.4076 41.3133 24.4076 42.1766C24.4076 43.0762 23.677 43.806 22.7787 43.806H22.777H16.2301C15.7292 43.806 15.3215 44.2136 15.3215 44.7145C15.3215 45.2167 15.7292 45.6231 16.2301 45.6231L22.7792 45.6227H22.7818C25.0518 45.6227 26.6158 45.2869 28.37 43.5142L33.7671 38.0606C35.8191 35.9877 37.6387 35.3221 38.6342 36.2803C39.319 36.9394 39.4465 38.2236 38.8844 38.8234L38.8848 38.8237ZM5.02833 53.3159C5.02833 53.6384 4.75542 53.9114 4.43374 53.9114H2.41256C2.08875 53.9114 1.81669 53.6384 1.81669 53.3159L1.81626 44.3885C1.81626 44.066 2.08832 43.7939 2.41213 43.7939L4.43287 43.7935C4.75541 43.7935 5.02747 44.0656 5.02747 44.3881V53.3159L5.02833 53.3159ZM9.92157 28.6745H17.3472V30.7996H9.92157V28.6745ZM11.0492 32.6164V40.4731C12.2336 39.3776 13.8981 38.2679 16.0604 38.3805C16.5391 38.4053 16.9566 38.4477 17.3472 38.4973L17.3467 32.6164L11.0492 32.6164ZM21.3591 28.6745H19.1633V38.7385C19.7746 38.8031 20.4582 38.8407 21.3591 38.8134V28.6745ZM30.601 30.7996H23.1758V28.6745H30.6014L30.601 30.7996ZM27.0788 42.2355L29.4742 39.8165V32.6164H23.1758V38.7667C24.912 39.0204 26.2254 40.4569 26.2254 42.176C26.2254 42.4768 26.1869 42.7689 26.1137 43.0465C26.4303 42.8374 26.746 42.5709 27.0788 42.2355ZM32.4754 36.7819L31.291 37.9797V32.5155C31.9463 32.279 32.4172 31.6527 32.4172 30.9174V28.5591C32.4172 27.6215 31.6546 26.8579 30.7181 26.8579H9.80549C8.86783 26.8579 8.10429 27.6215 8.10429 28.5591V30.9174C8.10429 31.6531 8.57568 32.2794 9.23189 32.5155V42.3434L8.1766 43.4547H6.65674C6.29014 42.5871 5.43157 41.9763 4.43243 41.9763L2.41256 41.9767C1.08182 41.9767 0 43.059 0 44.3881V53.3163C0 54.6459 1.08139 55.7277 2.41256 55.7277L4.43286 55.7281C5.43212 55.7281 6.29066 55.1173 6.65718 54.2498H23.8301C25.8603 54.2498 27.6436 53.4901 28.9902 52.0515L40.2104 40.0659C41.4445 38.7467 41.293 36.3196 39.8934 34.9716C39.2184 34.321 36.686 32.5291 32.4752 36.7819L32.4754 36.7819Z" fill="#00255B"/>
</svg>
