<svg width="29" height="29" viewBox="0 0 29 29" fill="none" xmlns="http://www.w3.org/2000/svg">
<path d="M29 6.65119V6.64537C29 6.57634 28.9843 6.5106 28.9623 6.44739C28.9573 6.43323 28.9525 6.41982 28.9464 6.40592C28.9193 6.34371 28.8842 6.28555 28.8377 6.23549C28.8316 6.22892 28.8238 6.22386 28.8172 6.21754C28.7916 6.1925 28.7664 6.16697 28.7363 6.14648C28.711 6.12929 28.6829 6.11816 28.6559 6.10501C28.6485 6.10147 28.644 6.0949 28.6366 6.09161L14.7407 0.0500636C14.5867 -0.0166879 14.4127 -0.0166879 14.2587 0.0500636L9.43795 2.14601C9.43795 2.14601 9.43769 2.14601 9.43769 2.14627L5.45313 3.87862C5.45262 3.87887 5.45212 3.87913 5.45161 3.87938L0.363106 6.09191C0.355774 6.0952 0.351223 6.10177 0.343889 6.10531C0.31658 6.11846 0.288767 6.12959 0.263227 6.14678C0.23339 6.16701 0.208104 6.19255 0.182564 6.21759C0.17599 6.22391 0.168404 6.22871 0.162336 6.23529C0.11581 6.28535 0.0806639 6.34351 0.053606 6.40596C0.0475374 6.41987 0.0427328 6.43302 0.0376759 6.44743C0.0156775 6.5109 0 6.57664 0 6.64542V6.65124V6.652V22.9579C0 23.2068 0.152476 23.43 0.384093 23.5205L14.2645 28.9522L14.2797 28.958C14.3505 28.9858 14.4251 28.9997 14.4997 28.9997C14.5743 28.9997 14.6489 28.9858 14.7197 28.958L14.7348 28.9522L28.6153 23.5205C28.8469 23.43 28.9994 23.2067 28.9994 22.9579V6.65264V6.65163L29 6.65119ZM14.5001 1.26253L26.8127 6.61604L23.57 7.88491L11.2043 2.69549L14.5001 1.26253ZM14.5001 11.4345L2.18744 6.61623L5.71002 5.08468L18.2738 9.95775L14.5001 11.4345ZM9.67121 3.36243L21.9547 8.51747L19.9369 9.30713L7.28507 4.39988L9.67121 3.36243ZM20.5416 10.3677L22.9582 9.42203V14.7303L20.5416 15.9387V10.3677ZM1.20882 7.53115L13.8963 12.4955V27.5107L1.20882 22.5458V7.53115ZM27.7916 22.5457L15.1042 27.5106V12.4954L19.3332 10.8407V16.9166C19.3332 17.126 19.4417 17.3204 19.6197 17.4304C19.7168 17.4901 19.8273 17.5204 19.9375 17.5204C20.0298 17.5204 20.1224 17.4992 20.2079 17.4567L23.8328 15.6442C24.0374 15.5421 24.1666 15.3327 24.1666 15.1039V8.9493L27.7916 7.53103V22.5457Z" fill="#B3B3B3"/>
</svg>
