<svg width="25" height="27" viewBox="0 0 25 27" fill="none" xmlns="http://www.w3.org/2000/svg">
<path d="M23.8065 26.2137C23.4856 26.2137 23.1913 26.0799 22.9505 25.8392L16.5843 19.3125C16.1296 18.8311 16.1296 18.082 16.611 17.6273C17.0923 17.1726 17.8415 17.1726 18.2962 17.654L24.6624 24.2074C25.1171 24.6888 25.1171 25.4379 24.6357 25.8926C24.4217 26.1066 24.1006 26.2135 23.8063 26.2135L23.8065 26.2137Z" fill="#B3B3B3"/>
<path d="M10.8868 21.5594C4.86836 21.5594 0.000107057 16.7179 0.000107057 10.7797C-0.0263879 4.8415 4.86836 0 10.8868 0C16.9052 0 21.7735 4.8415 21.7735 10.7797C21.7735 16.7179 16.8785 21.5594 10.8868 21.5594ZM10.8868 2.38063C6.17909 2.38063 2.35399 6.15204 2.35399 10.7797C2.35399 15.4072 6.17895 19.1788 10.8868 19.1788C15.5678 19.1788 19.3929 15.4072 19.3929 10.7797C19.3931 6.15204 15.5679 2.38063 10.8868 2.38063Z" fill="#B3B3B3"/>
</svg>
