<svg width="13" height="13" viewBox="0 0 13 13" fill="none" xmlns="http://www.w3.org/2000/svg">
<path d="M0.238846 5.45382C0.0222569 5.25687 -0.0564356 4.96158 0.0418978 4.68593C0.120596 4.41029 0.356958 4.21336 0.652231 4.1937L4.17661 3.859C4.29473 3.859 4.3932 3.7803 4.43262 3.68183L5.85025 0.433165C5.94872 0.157521 6.20459 0 6.49999 0C6.77564 0 7.03164 0.177172 7.14974 0.433165L8.56737 3.68183C8.60679 3.7803 8.70526 3.83936 8.82337 3.859L12.3478 4.1937C12.643 4.21334 12.8596 4.41029 12.9581 4.68593C13.0566 4.94194 12.9777 5.23723 12.7611 5.43416L10.0834 7.79684C10.0047 7.87554 9.96528 7.97401 9.98492 8.09213L10.7528 11.5574C10.8119 11.833 10.7134 12.1087 10.4772 12.2859C10.359 12.3844 10.2015 12.4238 10.0636 12.4238C9.9455 12.4238 9.82739 12.3844 9.70928 12.3253L6.6574 10.5533C6.61799 10.5139 6.55893 10.5139 6.49987 10.5139C6.44081 10.5139 6.4014 10.5335 6.34234 10.5533L3.29046 12.3451C3.03446 12.483 2.73916 12.483 2.50296 12.3057C2.26673 12.1481 2.16826 11.8529 2.22732 11.5772L2.9952 8.11192C3.01484 8.01345 2.97556 7.89533 2.89673 7.81664L0.238846 5.45382ZM6.9529 10.002L10.0048 11.7938C10.0638 11.8332 10.1032 11.8134 10.1229 11.7938C10.1425 11.7938 10.1819 11.7544 10.1623 11.6953L9.39442 8.23005C9.33537 7.91499 9.43384 7.56065 9.68971 7.34407L12.3478 5.001C12.3873 4.98136 12.3675 4.92231 12.3675 4.90253C12.3675 4.86311 12.3478 4.82383 12.2888 4.82383L8.76439 4.48913C8.44933 4.44971 8.15406 4.2529 8.01616 3.93783L6.59853 0.689167C6.57889 0.63011 6.51984 0.63011 6.50006 0.63011V9.86439C6.65759 9.86425 6.81512 9.92331 6.95288 10.002L6.9529 10.002Z" fill="#FFC93D"/>
</svg>
