<svg width="49" height="49" viewBox="0 0 49 49" fill="none" xmlns="http://www.w3.org/2000/svg">
<path d="M3.26669 40.8143V8.18568C3.26669 5.4677 5.46695 3.26669 8.18568 3.26669H40.8143C43.5323 3.26669 45.7333 5.46695 45.7333 8.18568V40.8143C45.7333 43.5279 43.5367 45.7333 40.8501 45.7333H8.19622C7.29423 45.7333 6.56288 46.4647 6.56288 47.3667C6.56288 48.2686 7.29423 49 8.19622 49H40.8501C45.3439 49 49 45.329 49 40.8143V8.18568C49 3.66262 45.3359 0 40.8143 0H8.18568C3.66262 0 0 3.66411 0 8.18568V40.8143C0 41.7163 0.731356 42.4477 1.63335 42.4477C2.53534 42.4477 3.26669 41.7163 3.26669 40.8143Z" fill="#00255B"/>
<path fill-rule="evenodd" clip-rule="evenodd" d="M24.5002 11.4326C25.4022 11.4326 26.1335 12.3346 26.1335 13.066V35.9328C26.1335 36.8348 25.4022 37.5662 24.5002 37.5662C23.5982 37.5662 22.8668 36.6642 22.8668 35.9328V13.066C22.8668 12.164 23.5982 11.4326 24.5002 11.4326Z" fill="#00255B"/>
<path fill-rule="evenodd" clip-rule="evenodd" d="M35.9317 22.8667C36.8345 22.8667 37.5666 23.6243 37.5666 24.5C37.5666 25.402 36.8126 26.1334 35.9317 26.1334H13.0677C12.165 26.1334 11.4329 25.3758 11.4329 24.5C11.4329 23.5981 12.1868 22.8667 13.0677 22.8667H35.9317Z" fill="#00255B"/>
</svg>
