<svg width="60" height="60" viewBox="0 0 60 60" fill="none" xmlns="http://www.w3.org/2000/svg">
<circle cx="30" cy="30" r="29.5" stroke="#B3B3B3"/>
<path d="M44.9826 34.7599L40.0865 29.8185C40.0379 29.7639 39.9668 29.7348 39.8937 29.7393C39.8198 29.7421 39.7503 29.7747 39.7012 29.8299L36.4371 33.2865C36.0108 33.7401 35.4163 33.9984 34.7938 34.0004C34.1712 33.9984 33.577 33.7401 33.1504 33.2865L26.1465 25.8182C26.0433 25.7259 25.8872 25.7259 25.7837 25.8182L14.8811 34.3182L13.4761 32.4935L24.3334 23.9935C24.8317 23.606 25.4571 23.4193 26.0862 23.4696C26.7154 23.5197 27.303 23.8038 27.7334 24.2655L34.7263 31.7337L37.9677 28.2771H37.9674C38.4397 27.7702 39.0994 27.4792 39.7921 27.4726C40.4691 27.4694 41.1185 27.739 41.5941 28.2204L46.4901 33.1618L44.9826 34.7599Z" fill="#B3B3B3"/>
<path d="M42.5572 47H17.4428C16.2644 47 15.1343 46.532 14.3013 45.6987C13.468 44.8657 13 43.7356 13 42.5572V17.4428C13 16.2644 13.468 15.1343 14.3013 14.3013C15.1343 13.468 16.2644 13 17.4428 13H42.5572C43.7356 13 44.8657 13.468 45.6987 14.3013C46.532 15.1343 47 16.2644 47 17.4428V42.5572C47 43.7356 46.532 44.8657 45.6987 45.6987C44.8657 46.532 43.7356 47 42.5572 47ZM17.4428 15.2669C16.8655 15.2669 16.312 15.4961 15.9039 15.9041C15.4959 16.3122 15.2667 16.8657 15.2667 17.443V42.5575C15.2667 43.1348 15.4959 43.6883 15.9039 44.0963C16.3119 44.5044 16.8655 44.7336 17.4428 44.7336H42.5572C43.1345 44.7336 43.688 44.5044 44.0961 44.0963C44.5041 43.6883 44.7333 43.1348 44.7333 42.5575V17.443C44.7333 16.8657 44.5041 16.3122 44.0961 15.9041C43.688 15.4961 43.1345 15.2669 42.5572 15.2669H17.4428Z" fill="#B3B3B3"/>
<path d="M45.4812 15.9127C44.1777 14.9558 42.6532 14.3438 41.0499 14.1333H17.4431L14.3489 16.2866L14.1337 33.3998L25.0363 24.8999C25.5121 24.7607 26.0196 24.7747 26.4873 24.9393C26.9548 25.104 27.359 25.4114 27.6429 25.8179L33.9214 32.5272C33.9214 32.5272 34.59 33.57 36.6981 31.3144C38.8061 29.0591 38.7609 27.6764 40.0981 28.6397C41.4353 29.603 44.5519 33.4224 44.9486 33.173C45.4123 32.5755 45.727 31.8763 45.8666 31.133C45.8666 30.9177 45.4813 15.9128 45.4813 15.9128L45.4812 15.9127ZM34.9076 25.274L34.9074 25.2738C34.3063 25.2738 33.7298 25.0349 33.3048 24.61C32.8796 24.185 32.6407 23.6084 32.6407 23.0071C32.6407 22.406 32.8796 21.8295 33.3048 21.4045C33.7298 20.9793 34.3063 20.7405 34.9074 20.7405C35.5087 20.7405 36.0853 20.9793 36.5102 21.4045C36.9352 21.8295 37.174 22.4061 37.174 23.0071C37.174 23.6084 36.9352 24.185 36.5102 24.61C36.0852 25.0349 35.5087 25.2738 34.9074 25.2738L34.9076 25.274Z" fill="#B3B3B3"/>
</svg>
