<svg width="50" height="44" viewBox="0 0 50 44" fill="none" xmlns="http://www.w3.org/2000/svg">
<path fill-rule="evenodd" clip-rule="evenodd" d="M47.7544 11.935H31.4673V15.6034C31.4673 17.2124 30.1691 18.52 28.5726 18.52L21.4275 18.5196C19.8305 18.5196 18.5324 17.2115 18.5324 15.603V11.9347L2.24529 11.935V40.1667C2.24529 42.2755 3.95679 43.9995 6.04936 43.9995H18.5317V39.2168C18.5317 37.6078 19.8291 36.3003 21.4268 36.3003H28.5723C30.1688 36.3003 31.467 37.6075 31.467 39.2168V43.9995H43.9493C46.0423 43.9995 47.7542 42.2751 47.7542 40.1667V11.935H47.7544ZM31.4673 10.1395H47.9875C49.0947 10.1395 50 9.22721 50 8.11286V2.02771C50 0.91217 49.0946 0 47.9875 0H31.4673V10.1395ZM29.6863 39.2174V44H20.3136V39.2174C20.3136 38.5989 20.8136 38.0955 21.427 38.0955H28.5725C29.1863 38.0955 29.6863 38.5993 29.6863 39.2174ZM20.3136 0.000405078H29.6859V15.6038C29.6859 16.2222 29.1859 16.7256 28.5725 16.7256H21.4274C20.8136 16.7256 20.314 16.2218 20.314 15.6038L20.3136 0.000405078ZM2.0121 10.1395H18.5323V0.000405078H2.0121C0.904928 0.000405078 0 0.912647 0 2.02811V8.11327C0 9.22799 0.905008 10.1399 2.0121 10.1399V10.1395Z" fill="#00255B"/>
</svg>
