<svg width="29" height="29" viewBox="0 0 29 29" fill="none" xmlns="http://www.w3.org/2000/svg">
<path d="M12.5897 1H3.52852C2.85821 1.00123 2.21584 1.26804 1.74193 1.74193C1.26804 2.21582 1.00121 2.85821 1 3.52852V12.5897C1 12.9706 1.30868 13.2793 1.6896 13.2793H10.7508C11.4215 13.2793 12.0647 13.0129 12.5388 12.5388C13.0129 12.0647 13.2793 11.4214 13.2793 10.7508V1.6896C13.2793 1.30868 12.9706 1 12.5897 1ZM11.9001 10.751C11.9001 11.056 11.779 11.3483 11.5635 11.5638C11.348 11.7793 11.0557 11.9004 10.7508 11.9004H2.37892V3.52853C2.37892 3.22375 2.50001 2.9313 2.71551 2.71578C2.931 2.50026 3.22347 2.37919 3.52826 2.37919H11.9001V10.751Z" fill="#222121" stroke="#222121"/>
<path d="M25.5956 1H16.5344C16.1535 1 15.8448 1.30868 15.8448 1.6896V10.7508C15.8448 11.4215 16.1112 12.0647 16.5854 12.5388C17.0595 13.0129 17.7027 13.2793 18.3734 13.2793H27.4345C27.8155 13.2793 28.1241 12.9706 28.1241 12.5897V3.52852C28.1229 2.85821 27.8561 2.21584 27.3822 1.74193C26.9083 1.26804 26.2659 1.00121 25.5956 1ZM26.7449 11.9001H18.3731C18.0681 11.9001 17.7759 11.779 17.5604 11.5635C17.3449 11.348 17.2238 11.0557 17.2238 10.7508V2.37892H25.5956C25.9004 2.37892 26.1928 2.50001 26.4084 2.71551C26.6239 2.931 26.7449 3.22347 26.7449 3.52826V11.9001Z" fill="#222121" stroke="#222121"/>
<path d="M10.7508 15.8446H1.6896C1.30868 15.8446 1 16.1533 1 16.5342V25.5954C1.00123 26.2657 1.26804 26.908 1.74193 27.382C2.21582 27.8559 2.85821 28.1227 3.52852 28.1239H12.5897C12.9706 28.1239 13.2793 27.8152 13.2793 27.4343V18.3731C13.2793 17.7024 13.0129 17.0592 12.5388 16.5851C12.0647 16.111 11.4214 15.8446 10.7508 15.8446ZM11.9001 26.7447H3.52826C3.22348 26.7447 2.93103 26.6236 2.71551 26.4081C2.49998 26.1926 2.37892 25.9001 2.37892 25.5954V17.2235H10.7508C11.0557 17.2235 11.348 17.3446 11.5635 17.5601C11.779 17.7756 11.9001 18.0679 11.9001 18.3729V26.7447Z" fill="#222121" stroke="#222121"/>
<path d="M27.4345 15.8446H18.3734C17.7026 15.8446 17.0594 16.111 16.5854 16.5851C16.1113 17.0592 15.8448 17.7024 15.8448 18.3731V27.4343C15.8448 27.8152 16.1535 28.1239 16.5344 28.1239H25.5956C26.2659 28.1227 26.9083 27.8558 27.3822 27.382C27.8561 26.9081 28.1229 26.2657 28.1241 25.5954V16.5342C28.1241 16.1533 27.8155 15.8446 27.4345 15.8446ZM26.7449 25.5956C26.7449 25.9004 26.6238 26.1929 26.4084 26.4084C26.1929 26.6239 25.9004 26.745 25.5956 26.745H17.2238V18.3731C17.2238 18.0682 17.3449 17.7759 17.5604 17.5604C17.7759 17.3449 18.0681 17.2238 18.3731 17.2238H26.7449V25.5956Z" fill="#222121" stroke="#222121"/>
</svg>
