<svg width="61" height="73" viewBox="0 0 61 73" fill="none" xmlns="http://www.w3.org/2000/svg">
<path d="M19.0951 51.9457L17.5793 55.7347L28.7942 61.9482V60.5843L17.8823 39.8218C16.9729 40.4282 15.9119 40.8828 14.6996 41.034L11.2141 46.6417L18.3369 49.9761C19.095 50.2785 19.398 51.1878 19.095 51.9459L19.0951 51.9457Z" fill="#00255B"/>
<path d="M40.6148 37.5471C37.7351 40.2751 34.0978 41.942 30.1576 41.942C26.3686 41.942 22.7313 40.4263 20.0033 37.6983L30.3093 57.0981L40.6148 37.5471Z" fill="#00255B"/>
<path d="M42.2828 49.9749L49.4057 46.6405L45.9201 41.0328C44.7079 40.8811 43.6468 40.4264 42.7375 39.8206L31.8256 60.5843V61.9483L43.0404 55.7348L41.5247 51.9457C41.2218 51.1876 41.5247 50.2783 42.2828 49.9754L42.2828 49.9749Z" fill="#00255B"/>
<path d="M49.5574 41.3364L52.8918 46.6406C53.1947 46.9436 53.1947 47.3982 53.0435 47.8529C52.8918 48.3076 52.5888 48.6105 52.2859 48.7622L44.8596 52.0966L46.2236 55.8856C46.5265 56.492 46.2236 57.2496 45.6172 57.7043L31.22 65.8882C30.7653 66.1911 30.1589 66.1911 29.7042 65.8882L15.1551 57.7043C14.5487 57.4013 14.2457 56.6432 14.5487 55.8856L15.9127 52.0966L8.48633 48.7622C8.03167 48.6105 7.72874 48.3076 7.72874 47.8529C7.57701 47.3982 7.72874 46.9436 7.88046 46.6406L11.2148 41.3364C4.84956 42.2458 0 47.247 0 53.0059V63.9178C8.48685 69.5255 18.9438 72.7081 30.3104 72.7081C41.6769 72.7081 52.1342 69.5255 60.6208 63.9178V53.0059C60.6208 47.247 55.7712 42.2458 49.5577 41.3364H49.5574Z" fill="#00255B"/>
<path d="M30.3096 38.9111C37.1295 38.9111 42.7372 31.4847 42.7372 22.5432C43.1918 21.9368 43.9494 20.2699 43.9494 20.2699V17.5419C39.5545 15.875 20.7617 15.875 16.5177 17.5419V20.2699C16.8207 20.1182 17.1241 20.1182 17.427 19.967L17.8817 20.4216C17.8817 21.028 17.73 21.6339 17.73 22.392C17.7305 31.4853 23.3376 38.9105 30.3093 38.9105L30.3096 38.9111ZM20.4587 21.6339C22.2774 21.9368 24.2478 21.6339 25.9147 20.7246C26.824 20.2699 27.7333 19.5123 28.6426 18.7542H32.2799C33.9469 18.7542 36.3719 18.7542 38.9482 19.0571C39.5545 19.9665 40.0092 21.0275 40.1604 22.2398C40.1604 29.969 35.7655 36.1823 30.3096 36.1823C24.8536 36.1823 20.4587 29.9688 20.4587 22.2398V21.6339V21.6339Z" fill="#00255B"/>
<path d="M12.5778 14.0566L15.6087 16.3299C20.1553 14.5113 40.1604 14.5113 44.7071 16.3299L47.738 14.0566C49.102 12.9955 49.4049 11.1769 48.3444 9.81291L44.4041 4.96335C44.1012 4.50869 43.6465 4.20575 43.0401 4.05403L31.0672 0.113795C30.4608 -0.0379318 29.8549 -0.0379318 29.2486 0.113795L17.2756 4.05403C16.8209 4.20575 16.2146 4.50869 15.9116 4.96335L12.1231 9.81291C11.0621 11.1769 11.3655 12.9955 12.5778 14.0566ZM26.2176 4.20575C26.6723 4.50869 27.2787 4.81164 28.188 4.81164C29.0973 4.81164 29.8549 4.5087 30.3096 4.05404C30.7643 4.5087 31.5219 4.81164 32.4312 4.81164C33.1888 4.81164 33.9469 4.5087 34.4016 4.20525V7.38788C34.4016 9.50947 30.3096 12.3892 30.3096 12.3892C30.3096 12.3892 26.2176 9.50947 26.2176 7.38788V4.20575Z" fill="#00255B"/>
<path d="M31.8256 8.14608C31.8256 8.98284 31.1466 9.6618 30.3099 9.6618C29.4731 9.6618 28.7942 8.98284 28.7942 8.14608C28.7942 7.30932 29.4731 6.63037 30.3099 6.63037C31.1466 6.63037 31.8256 7.30932 31.8256 8.14608Z" fill="#00255B"/>
</svg>
