<svg width="24" height="24" viewBox="0 0 24 24" fill="none" xmlns="http://www.w3.org/2000/svg">
<path d="M6.93729 7.35986C5.35516 7.35986 4.06689 8.64706 4.06689 10.2303C4.06689 11.8135 5.35516 13.1009 6.93729 13.1009C8.52183 13.1009 9.80849 11.8137 9.80849 10.2303C9.80823 8.64706 8.52183 7.35986 6.93729 7.35986Z" fill="#00255B"/>
<path d="M15.3714 9.40918C14.6053 9.40918 13.884 9.70811 13.3429 10.2497C12.2242 11.37 12.2242 13.1905 13.3429 14.3094C13.884 14.8524 14.6053 15.1508 15.3714 15.1508C16.1402 15.1508 16.8594 14.8524 17.4021 14.3094C18.5208 13.1908 18.5208 11.3702 17.4021 10.25C16.8594 9.70811 16.1394 9.40918 15.3714 9.40918Z" fill="#00255B"/>
<path d="M12 0C5.37253 0 0 5.3728 0 12C0 18.6277 5.37253 24 12 24C18.6277 24 24 18.6277 24 12C24 5.3728 18.6277 0 12 0ZM7.50373 14.1904V15.1475H8.6128C8.92453 15.1475 9.17947 15.4003 9.17947 15.7141C9.17947 16.0256 8.92453 16.2808 8.6128 16.2808H7.50373V17.2075C7.50373 17.5213 7.25093 17.7741 6.93707 17.7741C6.6232 17.7741 6.3704 17.5213 6.3704 17.2075V16.2808H5.264C4.95013 16.2808 4.69733 16.0256 4.69733 15.7141C4.69733 15.4003 4.95013 15.1475 5.264 15.1475H6.3704V14.1904C4.43173 13.9128 2.93333 12.2459 2.93333 10.2301C2.93333 8.02267 4.72827 6.2264 6.93707 6.2264C9.14587 6.2264 10.9413 8.02267 10.9413 10.2301C10.9413 12.2459 9.44453 13.9131 7.50373 14.1904ZM20.5 10.3376C20.1861 10.3376 19.9333 10.0845 19.9333 9.77093V8.5208L18.5723 9.88187C19.7493 11.4493 19.6285 13.6867 18.2027 15.1123C17.4483 15.8669 16.4419 16.2845 15.3712 16.2845C14.3027 16.2845 13.2968 15.8675 12.5421 15.1125C10.9795 13.5515 10.9792 11.0101 12.5419 9.44907C13.2968 8.69227 14.3027 8.276 15.3712 8.276C16.2504 8.276 17.0827 8.56133 17.7717 9.07973L19.1328 7.72H17.8819C17.568 7.72 17.3152 7.46587 17.3152 7.15333C17.3152 6.83947 17.5683 6.58667 17.8819 6.58667L20.5003 6.58693C20.8141 6.58693 21.0669 6.83973 21.0669 7.1536V9.77067C21.0667 10.0843 20.8139 10.3376 20.5 10.3376Z" fill="#00255B"/>
</svg>
