<svg width="18" height="16" viewBox="0 0 18 16" fill="none" xmlns="http://www.w3.org/2000/svg">
<path d="M16.724 2.77521H11.8303V1.8512C11.8303 1.3808 11.4551 1 10.9972 1H7.00268C6.54475 1 6.16958 1.3808 6.16958 1.8512V2.77521H1.27586C1.12138 2.77521 1 2.89841 1 3.05521V14.72C1 14.8768 1.12138 15 1.27586 15H16.7241C16.8786 15 17 14.8768 17 14.72V3.05521C17 2.89841 16.8785 2.77521 16.724 2.77521ZM7.62054 8.81204V8.18484H10.3792V9.34404H7.62054V8.81204ZM6.72123 1.85128C6.72123 1.68888 6.84813 1.56008 7.00261 1.56008H10.9971C11.1516 1.56008 11.2785 1.68888 11.2785 1.85128V2.77528H6.72123V1.85128ZM1.5515 3.33529H16.4481V7.44571L10.9308 8.47611V7.90491C10.9308 7.74811 10.8094 7.62491 10.655 7.62491H7.34461C7.19012 7.62491 7.06874 7.74811 7.06874 7.90491V8.47611L1.5515 7.44571V3.33529ZM16.4481 14.4401H1.5515V8.01691L7.06874 9.04732V9.62412C7.06874 9.78092 7.19012 9.90412 7.34461 9.90412H10.655C10.8094 9.90412 10.9308 9.78092 10.9308 9.62412V9.04732L16.4481 8.01691V14.4401Z" fill="#B3B3B3" stroke="#B3B3B3" stroke-width="0.75"/>
</svg>
