<svg width="50" height="50" viewBox="0 0 50 50" fill="none" xmlns="http://www.w3.org/2000/svg">
<circle cx="25" cy="25" r="25" fill="#256EF9"/>
<path d="M33.8953 11.7467C33.8734 11.7101 33.8369 11.6883 33.8091 11.656C33.7609 11.5989 33.7201 11.5333 33.6529 11.4922C33.6428 11.4863 33.6294 11.488 33.6193 11.4821C33.6105 11.4762 33.6062 11.4661 33.5958 11.4615L24.8264 7.07683C24.6202 6.97439 24.3778 6.97439 24.1729 7.07683L15.4035 11.4615C15.3951 11.4661 15.3905 11.4762 15.3817 11.4821C15.3699 11.488 15.3585 11.4866 15.3468 11.4925C15.2809 11.5333 15.2401 11.5992 15.1918 11.656C15.1641 11.6883 15.1259 11.7101 15.1057 11.7467C15.0398 11.8579 15.0003 11.9819 15.0003 12.115V23.8075C15.0003 24.0734 15.1452 24.3191 15.3787 24.4476L24.1289 29.2779H24.1302L24.1478 29.2881C24.2575 29.3494 24.3788 29.3801 24.5002 29.3801C24.6216 29.3801 24.7429 29.3494 24.8525 29.2881L24.8702 29.2779H24.8715C24.8728 29.2779 24.8715 29.2779 24.8715 29.2779L33.6216 24.4476C33.8556 24.3191 34.0001 24.0734 34.0001 23.8075V12.115C34.0001 11.9819 33.9606 11.8579 33.8947 11.7467L33.8953 11.7467ZM24.5003 15.6828L22.0492 14.4564L28.407 10.5001L31.6355 12.115L24.5003 15.6828ZM24.5003 8.54716L26.8724 9.73404L20.5146 13.6904L17.3651 12.115L24.5003 8.54716ZM16.4617 13.2973L19.8247 14.9794L19.8406 17.9655C19.8439 18.3674 20.1698 18.692 20.5731 18.692H20.5773C20.9805 18.6891 21.3068 18.3602 21.3038 17.957L21.2921 15.7121L23.7696 16.9512V27.4102L16.4617 23.3762L16.4617 13.2973ZM25.2311 27.4101V16.9512L32.5389 13.2973V23.3762L25.2311 27.4101Z" fill="white"/>
<path d="M24.6633 32.0107C24.3496 32.0107 24.0948 32.2655 24.0948 32.5792V43.9477C24.0948 44.2614 24.3496 44.5161 24.6633 44.5161C24.9769 44.5161 25.2317 44.2614 25.2317 43.9477V32.5792C25.2317 32.2655 24.9769 32.0107 24.6633 32.0107Z" fill="white"/>
<path d="M21.8212 30.3055C21.5076 30.3055 21.2528 30.5476 21.2528 30.8455V40.5657C21.2528 40.8636 21.5076 41.1057 21.8212 41.1057C22.1349 41.1057 22.3897 40.8636 22.3897 40.5657V30.8455C22.3897 30.5476 22.1349 30.3055 21.8212 30.3055Z" fill="white"/>
<path d="M18.4105 29.1687C18.0968 29.1687 17.842 29.4076 17.842 29.7016V37.1622C17.842 37.4563 18.0968 37.6951 18.4105 37.6951C18.7241 37.6951 18.9789 37.4563 18.9789 37.1622V29.7016C18.9789 29.4076 18.7241 29.1687 18.4105 29.1687Z" fill="white"/>
<path d="M15.5684 27.4634C15.2548 27.4634 15 27.6969 15 27.9844V33.195C15 33.4825 15.2548 33.7161 15.5684 33.7161C15.8821 33.7161 16.1369 33.4825 16.1369 33.195V27.9844C16.1369 27.6969 15.8821 27.4634 15.5684 27.4634Z" fill="white"/>
<path d="M27.5053 30.3055C27.1916 30.3055 26.9368 30.5476 26.9368 30.8455V40.5657C26.9368 40.8636 27.1916 41.1057 27.5053 41.1057C27.8189 41.1057 28.0737 40.8636 28.0737 40.5657V30.8455C28.0737 30.5476 27.8189 30.3055 27.5053 30.3055Z" fill="white"/>
<path d="M30.3476 29.1687C30.034 29.1687 29.7792 29.4076 29.7792 29.7016V37.1622C29.7792 37.4563 30.034 37.6951 30.3476 37.6951C30.6613 37.6951 30.916 37.4563 30.916 37.1622V29.7016C30.916 29.4076 30.6613 29.1687 30.3476 29.1687Z" fill="white"/>
<path d="M33.1896 27.4634C32.8759 27.4634 32.6212 27.6969 32.6212 27.9844V33.195C32.6212 33.4825 32.8759 33.7161 33.1896 33.7161C33.5032 33.7161 33.758 33.4825 33.758 33.195V27.9844C33.758 27.6969 33.5032 27.4634 33.1896 27.4634Z" fill="white"/>
</svg>
