<svg width="51" height="60" viewBox="0 0 51 60" fill="none" xmlns="http://www.w3.org/2000/svg">
<path d="M23.8768 58.6965H1.4442C1.1995 58.6965 1.0007 58.4981 1.0007 58.253V53.9422C0.964315 49.8579 2.3555 45.8889 4.93383 42.7214C7.51172 39.5537 11.1157 37.3859 15.122 36.5925C15.3108 36.5544 15.5018 36.6445 15.5923 36.8143C15.6885 36.9832 15.6634 37.1958 15.53 37.3375L13.0019 39.9985L16.1596 41.6128L16.1601 41.6132C16.3632 41.7128 16.4559 41.9523 16.3727 42.1628L15.1488 45.4271L24.0986 50.6072C24.2351 50.686 24.3195 50.8311 24.3204 50.9888V58.2534C24.3204 58.3712 24.2736 58.4838 24.1905 58.567C24.1073 58.6501 23.9947 58.6969 23.8769 58.6969L23.8768 58.6965ZM1.88771 57.8094H23.4333V51.2543L14.3769 46.021C14.1911 45.9101 14.1127 45.6815 14.1906 45.4801L15.406 42.2248L12.0706 40.5128C11.9467 40.4482 11.8583 40.3309 11.831 40.1936C11.8085 40.0554 11.851 39.9147 11.9467 39.812L13.8714 37.7807C10.3879 38.8051 7.33355 40.9369 5.17101 43.8535C3.00891 46.7696 1.85601 50.3116 1.88761 53.9424L1.88771 57.8094Z" fill="#212122" stroke="#212122"/>
<path d="M49.5559 58.6965H27.1233C26.8782 58.6965 26.6798 58.4981 26.6798 58.253V50.9971C26.6807 50.8398 26.7651 50.6947 26.9016 50.6159L35.8514 45.4359L34.6275 42.1715C34.5443 41.9606 34.637 41.7211 34.8401 41.6215L37.9979 40.0072L35.4698 37.3462H35.4702C35.3368 37.2041 35.3117 36.9919 35.4079 36.8226C35.4984 36.6528 35.6894 36.5627 35.8782 36.6008C39.8832 37.3943 43.4854 39.5607 46.0637 42.7267C48.6416 45.8928 50.0336 49.8592 49.9994 53.9419V58.2527C49.9994 58.3705 49.9526 58.4831 49.8695 58.5663C49.7863 58.6495 49.6733 58.6962 49.5559 58.6962L49.5559 58.6965ZM27.5668 57.8094H49.1124V53.9422C49.1401 50.3144 47.9855 46.7768 45.8234 43.8637C43.6613 40.951 40.6092 38.8218 37.1286 37.7984L39.0533 39.8297C39.1491 39.9323 39.1915 40.0731 39.169 40.2112C39.1417 40.3485 39.0533 40.4659 38.9295 40.5304L35.5945 42.2247L36.8098 45.48H36.8094C36.8874 45.6814 36.809 45.9101 36.6232 46.0209L27.5667 51.2542L27.5668 57.8094Z" fill="#212122" stroke="#212122"/>
<path d="M27.1233 58.6965H23.8767C23.632 58.6965 23.4332 58.4981 23.4332 58.253V50.9971C23.4306 50.8386 23.5159 50.6917 23.655 50.6159C23.7923 50.5367 23.9612 50.5367 24.0985 50.6159L25.5001 51.4319L26.9017 50.6159C27.039 50.5367 27.2079 50.5367 27.3452 50.6159C27.4842 50.6917 27.5695 50.8386 27.5669 50.9971V58.253C27.5669 58.3708 27.5202 58.4834 27.437 58.5665C27.3538 58.6497 27.2408 58.6965 27.1234 58.6965H27.1233ZM24.3202 57.8095H26.6798V51.7689L25.7309 52.3276H25.7304C25.5892 52.4034 25.4194 52.4034 25.2783 52.3276L24.3202 51.7689L24.3202 57.8095Z" fill="#212122" stroke="#212122"/>
<path d="M25.5 52.3898C25.3519 52.3859 25.215 52.3097 25.1336 52.1858C25.0522 52.0619 25.0366 51.9065 25.092 51.7687L32.658 33.9575C32.7126 33.8172 32.8378 33.7158 32.9863 33.6915C33.1332 33.666 33.2835 33.7158 33.3857 33.8245L39.0538 39.8296H39.0534C39.153 39.9297 39.1959 40.0726 39.169 40.2112C39.1448 40.3472 39.0599 40.4646 38.9382 40.5304L35.5941 42.2247L36.8095 45.4799C36.8917 45.6813 36.8121 45.9126 36.6232 46.0209L25.7218 52.3274C25.6555 52.3695 25.5784 52.3911 25.5 52.3898H25.5ZM33.2082 34.9245L26.4313 50.8908L35.8515 45.4357L34.6275 42.1535C34.5526 41.9426 34.6431 41.7092 34.8402 41.6035L38.0067 39.998L33.2082 34.9245Z" fill="#212122" stroke="#212122"/>
<path d="M25.5 52.3898C25.4216 52.3902 25.345 52.3686 25.2783 52.3274L14.3769 46.0209C14.188 45.9126 14.1083 45.6813 14.1906 45.4799L15.4059 42.2247L12.0705 40.5126C11.9467 40.4481 11.8583 40.3307 11.831 40.1934C11.8042 40.0548 11.8471 39.9119 11.9467 39.8118L17.6148 33.8067H17.6144C17.7175 33.6954 17.8699 33.6443 18.0189 33.6712C18.1683 33.6985 18.2935 33.7994 18.3507 33.9397L25.908 51.751C25.9635 51.8887 25.9479 52.0442 25.8665 52.1681C25.785 52.2919 25.6482 52.3682 25.5 52.372L25.5 52.3898ZM15.1487 45.4444L24.613 50.8994L17.8275 34.9331L13.0377 40.0157L16.1955 41.6212H16.195C16.3956 41.7239 16.487 41.9603 16.4081 42.1713L15.1487 45.4444Z" fill="#212122" stroke="#212122"/>
<path d="M25.5001 52.3809C25.3238 52.3792 25.1644 52.2757 25.0921 52.115L17.517 34.3038C17.4459 34.1738 17.4459 34.0166 17.517 33.8867C17.5966 33.7624 17.7331 33.6861 17.8808 33.6827H18.1645C18.2662 33.6835 18.3637 33.7217 18.4395 33.7892C20.4232 35.3961 22.8984 36.2726 25.4511 36.2726C28.0038 36.2726 30.4796 35.396 32.4632 33.7892C32.5386 33.7217 32.6364 33.6835 32.7382 33.6827H33.0132C33.1605 33.6861 33.2969 33.7624 33.3766 33.8867C33.4832 33.9971 33.5239 34.1556 33.4832 34.3038L25.9081 52.115C25.8414 52.2805 25.6785 52.3866 25.5001 52.3809H25.5001ZM18.8561 35.1906L25.5001 50.8021L32.144 35.1906C30.173 36.502 27.8584 37.2016 25.4914 37.2016C23.124 37.2016 20.8094 36.5021 18.8388 35.1906H18.8561Z" fill="#212122" stroke="#212122"/>
<path d="M25.5001 37.1597C22.3076 37.1597 19.2459 35.8915 16.9889 33.6342C14.7316 31.3768 13.4634 28.3151 13.4634 25.1226V17.9554C13.4673 17.8103 13.5396 17.6756 13.6583 17.592C13.7804 17.5067 13.9381 17.4898 14.0754 17.5474C21.3971 20.5446 29.6026 20.5446 36.9249 17.5474C37.0613 17.4916 37.2168 17.5072 37.3394 17.5886C37.4624 17.6704 37.5364 17.8082 37.5369 17.9554V25.1226C37.5325 28.3138 36.2627 31.3724 34.0061 33.629C31.75 35.8851 28.6909 37.155 25.5002 37.1597L25.5001 37.1597ZM14.3503 18.6034V25.1231C14.3524 28.0795 15.5279 30.9142 17.6186 33.0049C19.7089 35.0951 22.5435 36.2705 25.4999 36.2732C28.4555 36.2684 31.2889 35.0921 33.3787 33.0023C35.469 30.9121 36.6453 28.0787 36.6496 25.1232V18.6035C29.4751 21.3754 21.5249 21.3754 14.3501 18.6035L14.3503 18.6034Z" fill="#212122" stroke="#212122"/>
<path d="M25.4025 20.6879C21.4023 20.6628 17.4446 19.8645 13.7472 18.3374C13.5588 18.2621 13.4457 18.0685 13.4721 17.8675C13.4986 17.6687 13.6549 17.5123 13.8537 17.4859C21.5813 16.4213 29.4186 16.4213 37.1467 17.4859C37.3455 17.5123 37.5019 17.6687 37.5283 17.8675C37.5573 18.0715 37.4386 18.2677 37.2446 18.3374C33.4791 19.8554 29.4624 20.6529 25.4029 20.6879H25.4025ZM15.7428 18.1689C22.0433 20.3335 28.8862 20.3335 35.1862 18.1689C28.7267 17.4239 22.2025 17.4239 15.7428 18.1689Z" fill="#212122" stroke="#212122"/>
<path d="M13.9155 16.1819C13.8475 16.1853 13.7804 16.1702 13.7206 16.1377C11.7301 15.0393 10.0136 13.5048 8.70002 11.6494C8.43972 11.3224 8.33622 10.8975 8.41634 10.4874C8.48867 10.0612 8.74463 9.68787 9.11668 9.46741C11.4828 8.1798 13.4266 6.23635 14.7137 3.87035C14.9433 3.4511 15.3647 3.17217 15.8403 3.12539L22.2534 2.46013C22.657 2.40685 23.046 2.27432 23.3976 2.0699L24.8347 1.18288C25.2414 0.93904 25.7494 0.93904 26.1566 1.18288L27.6114 2.0699H27.6109C27.9618 2.26739 28.3472 2.39689 28.7466 2.45103L35.1597 3.1163C35.6313 3.16134 36.0497 3.43723 36.2771 3.85258C37.5656 6.22258 39.5086 8.17157 41.8741 9.4675C42.2501 9.68319 42.5126 10.0526 42.5927 10.4788C42.6646 10.8847 42.558 11.3017 42.2999 11.6231C40.9862 13.4785 39.2699 15.0126 37.2793 16.1114C37.1567 16.1729 37.0121 16.1729 36.8891 16.1114C29.1718 12.2263 21.5171 12.2263 14.1194 16.1114C14.0583 16.1516 13.9882 16.1759 13.9154 16.182L13.9155 16.1819ZM25.3758 12.3323C29.4518 12.3787 33.4611 13.3748 37.0844 15.2415C38.8641 14.1942 40.4025 12.7827 41.5992 11.0993C41.6949 10.9763 41.7334 10.8182 41.7057 10.6648C41.6763 10.4933 41.5723 10.3439 41.422 10.2568C38.9208 8.87776 36.8631 6.81667 35.4876 4.31363C35.4005 4.15121 35.2368 4.04423 35.0531 4.02994L28.64 3.36468C28.1134 3.30317 27.6053 3.13079 27.1497 2.8588L25.6949 1.97178H25.6953C25.5684 1.90075 25.4138 1.90075 25.2869 1.97178L23.8412 2.8588C23.3825 3.13079 22.8719 3.30274 22.3421 3.36468L15.929 4.02994C15.7437 4.04596 15.5778 4.15208 15.4855 4.31363C14.1069 6.82222 12.0422 8.88685 9.53365 10.2655C9.38985 10.35 9.28981 10.492 9.25862 10.6557C9.2283 10.8134 9.27074 10.9767 9.37383 11.0992C10.5701 12.7797 12.1051 14.1908 13.88 15.2415C17.4207 13.3579 21.3651 12.3596 25.3757 12.3323L25.3758 12.3323Z" fill="#212122" stroke="#212122"/>
<path d="M37.0844 18.3994H37.0311C29.3797 17.343 21.6203 17.343 13.9687 18.3994C13.8422 18.415 13.7153 18.3751 13.6201 18.2903C13.5252 18.2054 13.4711 18.0837 13.4719 17.9559V15.7384C13.4715 15.5759 13.5599 15.4261 13.7028 15.3481C21.3667 11.3302 29.3054 11.3302 37.2885 15.3481C37.4375 15.4252 37.5302 15.5798 37.528 15.7475V17.965C37.5306 18.0832 37.4843 18.1976 37.4007 18.2812C37.3171 18.3648 37.2028 18.4107 37.0845 18.4085L37.0844 18.3994ZM25.5 16.7233C29.2256 16.7215 32.9473 16.9645 36.6409 17.4505V16.0134C29.0926 12.2968 21.5616 12.2968 14.359 16.0134V17.4505C18.0526 16.9645 21.7744 16.7215 25.5 16.7233Z" fill="#212122" stroke="#212122"/>
<path d="M37.0846 25.4334C36.8394 25.4334 36.6411 25.2351 36.6411 24.9899V18.9762C36.6411 18.731 36.8394 18.5327 37.0846 18.5327C38.0335 18.4846 38.9608 18.8281 39.6495 19.4825C40.3381 20.1374 40.7279 21.0461 40.7279 21.9963C40.7279 22.9465 40.3381 23.8553 39.6495 24.5101C38.9608 25.1645 38.0336 25.508 37.0846 25.4599V25.4334ZM37.5281 19.4283V24.5464C38.3302 24.4035 39.018 23.8907 39.383 23.1622C39.7482 22.4342 39.7482 21.5761 39.383 20.8481C39.0179 20.1196 38.3301 19.6064 37.5281 19.4639V19.4283Z" fill="#212122" stroke="#212122"/>
<path d="M13.9156 25.4334C12.9667 25.4815 12.0394 25.138 11.3507 24.4832C10.6621 23.8287 10.2723 22.92 10.2723 21.9698C10.2723 21.0196 10.6621 20.1108 11.3507 19.456C12.0394 18.8011 12.9667 18.4577 13.9156 18.5058C14.0335 18.5058 14.1461 18.5525 14.2292 18.6357C14.3124 18.7189 14.3592 18.8319 14.3592 18.9493V24.9898C14.3592 25.1076 14.3124 25.2203 14.2292 25.3034C14.1461 25.3866 14.0335 25.4333 13.9156 25.4333V25.4334ZM13.4721 19.4283C12.67 19.5713 11.9822 20.0841 11.6172 20.8125C11.2521 21.5406 11.2521 22.3986 11.6172 23.1266C11.9823 23.8551 12.6701 24.3683 13.4721 24.5108V19.4283Z" fill="#212122" stroke="#212122"/>
</svg>
