<svg width="24" height="23" viewBox="0 0 24 23" fill="none" xmlns="http://www.w3.org/2000/svg">
<path d="M18.0299 20.1748C18.0299 20.5857 17.7217 20.8939 17.3108 20.8939H2.82526C2.41438 20.8939 2.10618 20.5857 2.10618 20.1748V5.68927C2.10618 5.27839 2.41438 4.97019 2.82526 4.97019H10.068V2.86401H2.82526C1.28424 2.86401 0 4.14825 0 5.68927V20.1748C0 21.7159 1.28424 23.0001 2.82526 23.0001H17.3108C18.8518 23.0001 20.1361 21.7159 20.1361 20.1748V12.9321H18.0301L18.0299 20.1748Z" fill="#212121"/>
<path d="M21.3687 0.500875C20.7008 -0.166958 19.6221 -0.166958 18.9545 0.500875L17.7731 1.68226L21.3688 5.27803L22.5502 4.09664C23.2181 3.42881 23.2181 2.3501 22.5502 1.68244L21.3687 0.500875Z" fill="#212121"/>
<path d="M16.2321 3.17212L8.7841 10.6205L8.73267 10.6718L7.70538 15.2948L12.3284 14.2675L19.7764 6.76807L16.2321 3.17212Z" fill="#212121"/>
</svg>
