<svg width="24" height="24" viewBox="0 0 24 24" fill="none" xmlns="http://www.w3.org/2000/svg">
<circle cx="12" cy="12" r="12" fill="#00255B"/>
<path d="M15.3923 14.2891C15.2027 14.621 14.9972 14.9371 14.7917 15.2374C16.1193 15.5377 16.9095 16.0593 16.9095 16.4544C16.9095 17.0391 15.1552 17.9241 12.5 17.9241C9.84483 17.9241 8.09052 17.0391 8.09052 16.4544C8.09052 16.0593 8.88075 15.5535 10.2083 15.2374C10.0028 14.9371 9.79741 14.621 9.6077 14.2891C8.0904 14.6842 7 15.3954 7 16.4543C7 18.1295 9.7658 19.0146 12.5 19.0146C15.2342 19.0146 18 18.1296 18 16.4543C18 15.3955 16.9095 14.6842 15.3923 14.2891Z" fill="white"/>
<path d="M12.99 16.0115C14.1122 14.352 16.7989 10.1954 16.7989 8.31466C16.7989 5.92819 14.8708 4 12.5001 4C10.1294 4 8.18542 5.92816 8.18542 8.31466C8.18542 10.1954 10.8881 14.352 12.0101 16.0115C12.2472 16.3434 12.753 16.3433 12.99 16.0115ZM10.4929 8.31466C10.4929 7.20836 11.3938 6.30744 12.5001 6.30744C13.6064 6.30744 14.5073 7.20836 14.5073 8.31466C14.5073 9.42095 13.6064 10.3061 12.5001 10.3061C11.3938 10.3061 10.4929 9.40517 10.4929 8.31466Z" fill="white"/>
</svg>
