<svg width="21" height="21" viewBox="0 0 21 21" fill="none" xmlns="http://www.w3.org/2000/svg">
<path d="M16.3938 20.037L15.5105 20.025L15.256 19.9769C15.0556 19.9389 14.8434 19.9007 14.6411 19.8507C13.4812 19.5623 12.3234 19.0294 10.9953 18.178C9.36678 17.1324 7.76224 15.7962 5.94519 13.9714V13.9715C4.51672 12.5781 3.22787 11.0485 2.09733 9.40427C1.13781 7.97595 0.56294 6.80012 0.230415 5.56607C0.162368 5.31763 0.116256 5.07129 0.0721003 4.83291C0.052119 4.73077 0.0340938 4.63254 0.0139727 4.52844L0 4.40226V3.68907L0.0480687 3.57295C0.400608 2.71949 1.00158 2.11654 1.59054 1.57368C2.01922 1.17309 2.47197 0.808511 2.89661 0.469976C3.41221 0.0475585 4.09926 -0.101534 4.74356 0.0693786C5.15703 0.167609 5.51614 0.422476 5.74514 0.780466L6.29401 1.60781C6.86691 2.48112 7.45781 3.38265 8.0588 4.25403C8.28753 4.56981 8.42448 4.9429 8.45449 5.33177C8.48453 5.72063 8.40657 6.11021 8.22897 6.45744C8.12277 6.69176 8.00065 6.90822 7.88244 7.11848L7.73223 7.38886C7.62003 7.58923 7.50992 7.78946 7.39367 7.98984L7.77023 8.44063C8.10879 8.84123 8.46132 9.27187 8.82182 9.66059H8.82196C9.81138 10.7481 10.888 11.753 12.041 12.6653C12.4657 12.419 12.9105 12.1706 13.3971 11.9062V11.906C13.8842 11.6099 14.4653 11.5091 15.0237 11.6236C15.2219 11.6689 15.4104 11.749 15.5805 11.8599C16.8212 12.6759 18.0585 13.4952 19.2925 14.3178C19.9374 14.7484 20.196 15.6258 19.9254 16.4552C19.8645 16.6534 19.7726 16.8407 19.653 17.0101C19.0103 17.9207 18.2438 18.7373 17.3754 19.4359C17.1862 19.5783 16.9851 19.7042 16.7745 19.8125C16.6984 19.8546 16.6243 19.8947 16.5501 19.9367L16.3938 20.037ZM15.6948 18.753H16.0513L16.1595 18.6949C16.3077 18.6195 16.4497 18.5325 16.5841 18.4344C17.3585 17.8042 18.0415 17.0694 18.6133 16.251C18.6523 16.1888 18.682 16.1213 18.7015 16.0506C18.749 15.9397 18.7625 15.817 18.7404 15.6984C18.7184 15.5796 18.6615 15.47 18.5772 15.3835C17.3447 14.5622 16.11 13.7449 14.8735 12.9317C14.8311 12.9047 14.7842 12.885 14.7353 12.8736C14.481 12.8301 14.2199 12.8845 14.0042 13.0259C13.4654 13.3164 12.9826 13.5887 12.5278 13.8571C12.3602 13.9662 12.1621 14.0189 11.9624 14.0073C11.7628 13.9959 11.572 13.9207 11.418 13.7931C10.148 12.8089 8.96576 11.7164 7.88441 10.5279C7.49776 10.1132 7.13519 9.67655 6.78474 9.25388C6.59849 9.03562 6.41012 8.81919 6.23395 8.60289C6.10498 8.46092 6.02715 8.27983 6.01303 8.08854C5.99878 7.89725 6.04908 7.70665 6.15584 7.54722C6.31415 7.28676 6.46031 7.02239 6.60662 6.75997L6.76284 6.48149C6.87295 6.28112 6.97523 6.10493 7.05725 5.92257V5.92271C7.14207 5.77795 7.18175 5.61139 7.17141 5.44399C7.16107 5.27673 7.10113 5.11618 6.99912 4.98316C6.39814 4.0998 5.79715 3.19029 5.21827 2.31294L4.68354 1.4916C4.63002 1.40385 4.54199 1.34279 4.44111 1.32337C4.18484 1.24582 3.90666 1.30143 3.69997 1.47162C3.29937 1.79817 2.86061 2.14876 2.46198 2.5172C1.98927 2.95189 1.54453 3.39051 1.28405 3.94746V4.33604C1.30207 4.42211 1.31814 4.50833 1.33407 4.5944C1.37613 4.81881 1.41623 5.02909 1.47031 5.22948C1.76276 6.31323 2.28563 7.37894 3.16298 8.68501H3.16312C4.24812 10.2614 5.48457 11.728 6.85502 13.0637C8.6138 14.8285 10.1422 16.1006 11.6905 17.0962C12.8925 17.8714 13.934 18.3501 14.9517 18.6045C15.128 18.6486 15.3083 18.6807 15.4885 18.7127L15.6948 18.753Z" fill="#00255B"/>
</svg>
