<svg width="10" height="10" viewBox="0 0 10 10" fill="none" xmlns="http://www.w3.org/2000/svg">
<path d="M3.46777 8.06912C3.46777 8.06912 5.2783 9.64345 7.2987 9.9321C7.2987 9.9321 8.71561 10.247 9.68646 9.09245C9.68646 9.09245 10.3555 8.60705 9.7389 7.83292L8.217 6.33728C8.217 6.33728 7.84966 5.91741 7.2593 6.28484L6.35402 7.17693C6.35402 7.17693 3.86129 5.89123 2.8642 3.64776L3.55954 2.95242C3.55954 2.95242 4.25488 2.33579 3.57263 1.64045L2.05083 0.144819C2.05083 0.144819 1.5129 -0.235603 0.974971 0.236701C0.974971 0.236701 -0.33699 1.33872 0.0828841 3.18861C0.0828841 3.18861 0.122236 5.13029 3.46774 8.06911L3.46777 8.06912Z" fill="#00255B"/>
</svg>
