<svg width="15" height="18" viewBox="0 0 15 18" fill="none" xmlns="http://www.w3.org/2000/svg">
<path d="M0 13.365V16.6698C0 17.3973 0.602697 18 1.33025 18H13.2402C13.9678 18 14.5704 17.3973 14.5704 16.6698V13.365C14.5704 11.2448 12.8453 9.4989 10.7044 9.4989H3.84527C1.746 9.51963 0 11.2448 0 13.365ZM3.86605 10.351H10.7252C12.388 10.351 13.7599 11.702 13.7599 13.3857V16.6905C13.7599 16.9608 13.5313 17.1894 13.261 17.1894H1.33029C1.06004 17.1894 0.831409 16.9608 0.831409 16.6905V13.365C0.831409 11.7021 2.20327 10.351 3.86613 10.351H3.86605Z" fill="#00255B"/>
<path d="M7.29568 8.18938C9.56123 8.18938 11.3904 6.36024 11.3904 4.09469C11.3904 1.82914 9.56123 0 7.29568 0C5.03013 0 3.20099 1.82914 3.20099 4.09469C3.20099 6.36024 5.03013 8.18938 7.29568 8.18938ZM7.29568 0.831409C9.10396 0.831409 10.559 2.28634 10.559 4.09476C10.559 5.90304 9.10411 7.35812 7.29568 7.35812C5.4874 7.35812 4.03232 5.90319 4.03232 4.09476C4.03232 2.28634 5.4874 0.831409 7.29568 0.831409Z" fill="#00255B"/>
</svg>
