<svg width="50" height="50" viewBox="0 0 50 50" fill="none" xmlns="http://www.w3.org/2000/svg">
<circle cx="25" cy="25" r="25" fill="#FFACAC"/>
<path d="M20.0602 40.857H29.1422C32.9148 40.857 36.1284 37.5037 36.1284 33.312V19.8985C36.1284 19.0601 35.5695 18.5012 34.7312 18.5012C33.8928 18.5012 33.3339 19.0601 33.3339 19.8985V33.312C33.3339 35.827 31.5175 38.0626 29.1422 38.0626H20.0602C17.8246 38.0626 15.8684 35.9667 15.8684 33.312V19.8985C15.8684 19.0601 15.3095 18.5012 14.4712 18.5012C13.6329 18.5012 13.074 19.0601 13.074 19.8985V33.312C13.2137 37.5037 16.2876 40.857 20.0602 40.857Z" fill="#FF2929"/>
<path d="M11.3973 14.3095H18.8026C19.2218 11.3753 21.5971 9 24.671 9C27.745 9 30.1203 11.3753 30.5394 14.3095H37.9448C38.7831 14.3095 39.342 14.8684 39.342 15.7067C39.342 16.5451 38.7831 17.104 37.9448 17.104H11.3973C10.5589 17.104 10 16.5451 10 15.7067C10 14.8684 10.5589 14.3095 11.3973 14.3095ZM24.671 11.9342C23.1341 11.9342 21.8766 13.052 21.5971 14.4492H27.745C27.4655 12.9123 26.208 11.9342 24.671 11.9342Z" fill="#FF2929"/>
</svg>
