<svg width="28" height="27" viewBox="0 0 28 27" fill="none" xmlns="http://www.w3.org/2000/svg">
<path d="M0 14C0 12.8954 0.895431 12 2 12H16C17.1046 12 18 12.8954 18 14C18 15.1046 17.1046 16 16 16H2C0.89543 16 0 15.1046 0 14Z" fill="white"/>
<path d="M0 2C0 0.895431 0.895431 0 2 0H26C27.1046 0 28 0.895431 28 2C28 3.10457 27.1046 4 26 4H2C0.895431 4 0 3.10457 0 2Z" fill="white"/>
<path d="M0 25C0 23.8954 0.895431 23 2 23H25C26.1046 23 27 23.8954 27 25C27 26.1046 26.1046 27 25 27H2C0.895431 27 0 26.1046 0 25Z" fill="white"/>
</svg>
