<svg width="18" height="22" viewBox="0 0 18 22" fill="none" xmlns="http://www.w3.org/2000/svg">
<path d="M0 16.3349V20.3741C0 21.2634 0.736631 22 1.62587 22H16.1825C17.0717 22 17.8084 21.2634 17.8084 20.3741V16.3349C17.8084 13.7436 15.6998 11.6097 13.0832 11.6097H4.69978C2.134 11.6351 0 13.7436 0 16.3349ZM4.72518 12.6512H13.1086C15.141 12.6512 16.8177 14.3024 16.8177 16.3603V20.3995C16.8177 20.7298 16.5382 21.0093 16.2079 21.0093H1.62592C1.29561 21.0093 1.01617 20.7298 1.01617 20.3995V16.3349C1.01617 14.3025 2.69289 12.6512 4.72527 12.6512H4.72518Z" fill="#5690FF"/>
<path d="M8.91698 10.0093C11.686 10.0093 13.9216 7.77364 13.9216 5.00463C13.9216 2.23562 11.686 0 8.91698 0C6.14797 0 3.91235 2.23562 3.91235 5.00463C3.91235 7.77364 6.14797 10.0093 8.91698 10.0093ZM8.91698 1.01617C11.1271 1.01617 12.9055 2.79442 12.9055 5.00472C12.9055 7.21484 11.1273 8.99327 8.91698 8.99327C6.70686 8.99327 4.92843 7.21502 4.92843 5.00472C4.92843 2.79442 6.70686 1.01617 8.91698 1.01617Z" fill="#5690FF"/>
</svg>
