<svg width="12" height="10" viewBox="0 0 12 10" fill="none" xmlns="http://www.w3.org/2000/svg">
<path d="M11.0438 0H0.95625C0.429407 0 0 0.429407 0 0.95625V8.08875C0 8.61559 0.429407 9.045 0.95625 9.045H11.0438C11.5706 9.045 12 8.61559 12 8.08875V0.95625C12 0.429407 11.5706 0 11.0438 0ZM0.673179 2.3475H11.3287V8.08886C11.3287 8.24446 11.2013 8.37195 11.0457 8.37195H0.956229C0.800621 8.37195 0.673136 8.24447 0.673136 8.08886L0.673179 2.3475Z" fill="#00255B"/>
<path d="M6.2512 4.39136H10.6518C10.813 4.39136 10.9442 4.26011 10.9442 4.0989V3.28329C10.9442 3.12392 10.813 2.99268 10.6518 2.99268H6.2512C6.08998 2.99268 5.95874 3.12393 5.95874 3.28329V4.0989C5.95866 4.26012 6.08991 4.39136 6.2512 4.39136Z" fill="#00255B"/>
<path d="M6.13497 5.70745H9.70862C9.89428 5.70745 10.0443 5.55745 10.0443 5.37179C10.0443 5.18613 9.89427 5.03613 9.70862 5.03613L6.13497 5.03622C5.94931 5.03622 5.79932 5.18622 5.79932 5.37187C5.79932 5.55745 5.95124 5.70745 6.13497 5.70745V5.70745Z" fill="#00255B"/>
<path d="M6.13497 6.64714H9.70862C9.89428 6.64714 10.0443 6.49714 10.0443 6.31149C10.0443 6.12583 9.89427 5.97583 9.70862 5.97583L6.13497 5.97591C5.94931 5.97591 5.79932 6.12591 5.79932 6.31157C5.79932 6.4953 5.95124 6.64714 6.13497 6.64714V6.64714Z" fill="#00255B"/>
<path d="M6.13497 7.5844H8.29305C8.4787 7.5844 8.6287 7.4344 8.6287 7.24874C8.6287 7.06308 8.4787 6.91309 8.29305 6.91309L6.13497 6.91317C5.94931 6.91317 5.79932 7.06317 5.79932 7.24883C5.79932 7.4344 5.95124 7.5844 6.13497 7.5844V7.5844Z" fill="#00255B"/>
<path d="M1.56174 7.51868C1.75861 7.63118 1.98363 7.69304 2.20863 7.69304H4.13803C4.3668 7.69304 4.58988 7.63302 4.78492 7.51868C4.83363 7.49055 4.8749 7.45866 4.90863 7.41932C5.44118 6.80811 4.82987 5.90618 4.80551 5.86868C4.66304 5.65683 4.47922 5.48991 4.26176 5.36998C4.12867 5.29498 3.98428 5.24994 3.82867 5.23312C3.79301 5.22751 3.75551 5.23128 3.71993 5.24249C3.56056 5.2856 3.39741 5.30628 3.23059 5.30628C3.05062 5.30628 2.8668 5.28192 2.68123 5.23128C2.6531 5.22375 2.62314 5.22006 2.59308 5.2219C2.43187 5.22944 2.27995 5.26878 2.13931 5.33624C1.89741 5.45628 1.69308 5.63624 1.53747 5.86502C1.51119 5.90436 0.901812 6.80629 1.43434 7.41749C1.4736 7.45684 1.51487 7.49057 1.56174 7.5187L1.56174 7.51868Z" fill="#00255B"/>
<path d="M4.23554 3.92449C4.23554 4.5106 3.76034 4.98578 3.17424 4.98578C2.58813 4.98578 2.11304 4.51058 2.11304 3.92449C2.11304 3.33837 2.58815 2.86328 3.17424 2.86328C3.76036 2.86328 4.23554 3.3384 4.23554 3.92449Z" fill="#00255B"/>
</svg>
