<svg width="50" height="50" viewBox="0 0 50 50" fill="none" xmlns="http://www.w3.org/2000/svg">
<rect width="50" height="50" fill="white"/>
<path d="M39.9999 27.6301C39.9997 27.9855 39.8816 28.3306 39.6642 28.6119C39.447 28.8929 39.1426 29.094 38.7989 29.1837L28.6204 31.8393C28.3539 31.9084 28.0746 31.9084 27.8082 31.8393L17.6296 29.1837C17.286 29.094 16.9815 28.8929 16.7644 28.6119C16.547 28.3306 16.4288 27.9855 16.4286 27.6301V26.0713H39.9999L39.9999 27.6301ZM33.3871 10L32.2162 13.9038C32.1483 14.1305 31.9395 14.2857 31.703 14.2857H24.4644V13.2143C24.4644 12.4488 24.056 11.7413 23.393 11.3585C22.7301 10.9758 21.9131 10.9758 21.2502 11.3585C20.5872 11.7414 20.1788 12.4488 20.1788 13.2143V14.2857H11.8688C11.6323 14.2857 11.4237 14.1308 11.3556 13.9043L10.1847 10L33.3871 10ZM23.3929 16.7261C23.0695 16.5314 22.6991 16.4283 22.3215 16.4283C21.9438 16.4283 21.5734 16.5314 21.25 16.7261V15.3569H23.3929V16.7261ZM22.3215 14.2855C22.0373 14.2855 21.7647 14.1726 21.5638 13.9717C21.3629 13.7709 21.25 13.4982 21.25 13.2141C21.25 12.93 21.3629 12.6573 21.5638 12.4564C21.7647 12.2556 22.0373 12.1427 22.3215 12.1427C22.6056 12.1427 22.8782 12.2556 23.0791 12.4564C23.28 12.6573 23.3929 12.93 23.3929 13.2141C23.3929 13.4982 23.28 13.7709 23.0791 13.9717C22.8782 14.1726 22.6056 14.2855 22.3215 14.2855ZM23.3929 18.5712C23.3929 18.8553 23.28 19.128 23.0791 19.3289C22.8782 19.5298 22.6056 19.6426 22.3215 19.6426C22.0373 19.6426 21.7647 19.5298 21.5638 19.3289C21.3629 19.128 21.25 18.8553 21.25 18.5712C21.25 18.2871 21.3629 18.0145 21.5638 17.8136C21.7647 17.6127 22.0373 17.4998 22.3215 17.4998C22.6056 17.4998 22.8782 17.6127 23.0791 17.8136C23.28 18.0145 23.3929 18.2871 23.3929 18.5712ZM10.0001 13.1151L10.3289 14.2116C10.427 14.5436 10.63 14.8346 10.9077 15.0413C11.1854 15.2477 11.5226 15.3586 11.8686 15.357H20.1786V18.5712C20.1786 19.3368 20.587 20.0442 21.25 20.4271C21.9129 20.8097 22.7299 20.8097 23.3928 20.4271C24.0558 20.0442 24.4643 19.3367 24.4643 18.5712V15.357H31.7028C32.0488 15.3586 32.3861 15.2477 32.6637 15.0413C32.9414 14.8346 33.1444 14.5436 33.2425 14.2116L33.5713 13.1144V24.9998H15.8928C15.597 24.9998 15.3571 25.2397 15.3571 25.5355V39.9997H10L10.0001 13.1151ZM34.1071 39.9999H16.4286V29.7632C16.7058 29.9758 17.0222 30.1317 17.3597 30.2224L27.5382 32.878V32.8777C27.9816 32.9927 28.447 32.9927 28.8904 32.8777L39.0689 30.2221V30.2224C39.4064 30.1317 39.7228 29.9758 39.9999 29.7632V39.9999H34.1071Z" fill="#00255B"/>
</svg>
