<svg width="28" height="26" viewBox="0 0 28 26" fill="none" xmlns="http://www.w3.org/2000/svg">
<path d="M12.9759 4.53968L19.9517 0.100328C20.1604 -0.0334427 20.428 -0.0334427 20.6365 0.100328L27.6123 4.53968H27.6125C27.7939 4.65604 27.9039 4.8567 27.9043 5.07244V10.7801C27.9039 10.9956 27.7939 11.1963 27.6125 11.3126L20.6367 15.752L19.0257 16.7795C18.9238 16.8453 18.8049 16.8805 18.6834 16.8808C18.3984 16.8846 18.146 16.6979 18.0662 16.4244C17.9863 16.151 18.0986 15.8577 18.3409 15.7076L19.1144 15.2192L12.9757 11.3126H12.9759C12.7944 11.1962 12.6844 10.9956 12.6842 10.7801V5.07241C12.6844 4.85667 12.7944 4.65601 12.9759 4.53965L12.9759 4.53968ZM20.2941 1.38776L14.4979 5.07245L16.6858 6.46136L22.1967 2.61805L20.2941 1.38776ZM23.3951 3.3538L17.8462 7.20325L20.2943 8.75693L26.0905 5.07245L23.3951 3.3538ZM26.6358 6.22654L20.9282 9.86051V14.0653L26.6358 10.4313V6.22654ZM19.66 14.065V9.8603L13.9524 6.22632V10.4311L19.66 14.065Z" fill="#5690FF"/>
<path d="M-4.3869e-05 17.1216C-4.3869e-05 15.5356 0.846102 14.0701 2.21974 13.2772C3.59316 12.4841 5.28545 12.4841 6.65888 13.2772C8.03252 14.0701 8.87866 15.5356 8.87866 17.1216C8.87866 19.5189 7.50252 22.0935 6.34186 23.8055V23.8057C6.52553 23.9219 6.6368 24.1242 6.6368 24.3417C6.6368 24.5589 6.52553 24.7613 6.34186 24.8774L4.73741 25.8985H4.62954C4.57242 25.9429 4.50808 25.9773 4.43929 26C4.35648 25.999 4.27452 25.9818 4.19828 25.9493C4.12609 25.9132 4.06154 25.8637 4.00803 25.8034C3.80503 25.5877 -4.3869e-05 21.1042 -4.3869e-05 17.1213V17.1216ZM4.43931 13.9507C3.59822 13.9507 2.79176 14.2848 2.19724 14.8795C1.6025 15.4741 1.26847 16.2807 1.26847 17.1216C1.26847 19.8486 3.44368 23.032 4.43931 24.3448C5.43494 23.0321 7.61015 19.8485 7.61015 17.1216C7.61015 16.2807 7.27615 15.474 6.68138 14.8795C6.08681 14.2848 5.2804 13.9507 4.43931 13.9507Z" fill="#5690FF"/>
<path d="M2.53664 17.1215C2.53664 16.617 2.73709 16.1331 3.09381 15.7764C3.45075 15.4194 3.93469 15.219 4.43919 15.219C4.94369 15.219 5.42764 15.4194 5.78456 15.7764C6.14129 16.1331 6.34174 16.617 6.34174 17.1215C6.34174 17.6263 6.14129 18.1102 5.78456 18.4669C5.42762 18.8236 4.94369 19.0241 4.43919 19.0241C3.93469 19.0241 3.45073 18.8236 3.09381 18.4669C2.73709 18.1102 2.53664 17.6263 2.53664 17.1215ZM5.07344 17.1215C5.07344 16.865 4.91886 16.6338 4.68189 16.5357C4.44492 16.4376 4.17207 16.4918 3.99072 16.6731C3.80939 16.8546 3.75503 17.1273 3.85334 17.3643C3.95144 17.6012 4.18268 17.7558 4.43916 17.7558C4.78931 17.7558 5.07342 17.4719 5.07342 17.1216L5.07344 17.1215Z" fill="#5690FF"/>
<path d="M8.24428 22.1952L10.7811 20.5717C11.0641 20.4763 11.3754 20.5916 11.5283 20.8483C11.681 21.1051 11.634 21.4336 11.4151 21.637L8.87832 23.2541H8.87853C8.73945 23.3894 8.54644 23.4535 8.35427 23.4285C8.16211 23.4032 7.99181 23.2917 7.89223 23.1253C7.79264 22.959 7.77459 22.7564 7.84318 22.5751C7.91176 22.3938 8.05955 22.2538 8.24428 22.1952L8.24428 22.1952Z" fill="#5690FF"/>
<path d="M13.3177 18.948L15.8545 17.3308C15.9933 17.1958 16.1866 17.1316 16.3787 17.1567C16.5709 17.1818 16.741 17.2934 16.8406 17.4597C16.9402 17.626 16.9582 17.8288 16.8896 18.0099C16.821 18.1912 16.6735 18.3311 16.4887 18.39L13.9519 20.0135C13.8099 20.1033 13.6377 20.1332 13.4735 20.0963C13.3094 20.0596 13.1667 19.9589 13.0767 19.8169C12.9926 19.6699 12.9707 19.4954 13.0159 19.3321C13.0612 19.1688 13.1699 19.0306 13.3177 18.948L13.3177 18.948Z" fill="#5690FF"/>
</svg>
