<svg width="48" height="48" viewBox="0 0 48 48" fill="none" xmlns="http://www.w3.org/2000/svg">
<g filter="url(#filter0_d_26_1445)">
<circle cx="24" cy="24" r="20" fill="#00255B"/>
</g>
<path d="M19.4678 28.4314C19.6011 28.7876 19.6686 29.1651 19.6671 29.5454C19.6671 30.7796 19.0063 31.92 17.9338 32.5371C16.8613 33.1542 15.5397 33.1542 14.4672 32.5371C13.3947 31.92 12.7339 30.7796 12.7339 29.5454C12.7295 29.1437 12.8032 28.7448 12.9506 28.3708C13.2763 27.4761 13.9583 26.7552 14.8352 26.3779C15.7121 26.0006 16.7064 26.0006 17.5831 26.3779C18.46 26.7551 19.1419 27.4761 19.4679 28.3708L19.4678 28.4314ZM30.9333 26.0908C30.2224 26.093 29.5293 26.3127 28.948 26.7207C28.3667 27.1286 27.9252 27.7046 27.6834 28.3709C27.536 28.7449 27.4623 29.1437 27.4667 29.5455C27.4667 30.7796 28.1276 31.9201 29.2 32.5372C30.2725 33.1543 31.5941 33.1543 32.6666 32.5372C33.7391 31.9201 34.3999 30.7796 34.3999 29.5455C34.4045 29.1564 34.337 28.7699 34.2007 28.4054C33.9637 27.7298 33.522 27.1444 32.9367 26.7297C32.3515 26.3153 31.6514 26.0918 30.9333 26.0909L30.9333 26.0908ZM36.7488 21.1594L33.2822 17.7048C33.1185 17.5432 32.8972 17.453 32.6668 17.4544H28.3336V25.0545C29.6761 24.2845 31.2931 24.1511 32.7444 24.6905C34.1956 25.2299 35.33 26.3859 35.8387 27.8439C36.0378 28.3891 36.1376 28.9653 36.1334 29.5454C36.3632 29.5454 36.5837 29.4544 36.7462 29.2925C36.9087 29.1306 37 28.9108 37 28.6818V21.7726C36.9905 21.553 36.9011 21.3442 36.7487 21.1854L36.7488 21.1594ZM11.0004 28.682C10.9972 28.762 11.0121 28.8416 11.0438 28.9152C11.0916 28.5389 11.1877 28.1701 11.3297 27.8183C11.5404 27.1791 11.8828 26.5907 12.3351 26.091H11.0005L11.0004 28.682ZM25.7334 14H11.8671C11.6373 14 11.4167 14.091 11.2543 14.2529C11.0918 14.4149 11.0004 14.6346 11.0004 14.8636V17.4546H20.5336C20.8433 17.4546 21.1294 17.6192 21.2841 17.8864C21.4389 18.1536 21.4389 18.4829 21.2841 18.75C21.1294 19.0172 20.8433 19.1819 20.5336 19.1819H11.0004V20.9092H17.9336C18.2433 20.9092 18.5294 21.0738 18.6842 21.341C18.8389 21.6082 18.8389 21.9374 18.6842 22.2046C18.5294 22.4718 18.2433 22.6365 17.9336 22.6365H11.0004V24.3637H13.6004C13.884 24.3641 14.1494 24.5029 14.3111 24.735C14.9127 24.4973 15.5531 24.3715 16.2003 24.3637C17.2761 24.3632 18.3255 24.6951 19.2042 25.314C20.0826 25.9326 20.7469 26.8076 21.1056 27.8183C21.3077 28.3716 21.4076 28.9569 21.4002 29.5456H25.7334C25.7396 28.9549 25.8511 28.3701 26.0627 27.8183C26.1908 27.4218 26.3714 27.0443 26.6001 26.6956V14.8636C26.6001 14.6346 26.5088 14.4149 26.3463 14.2529C26.1838 14.091 25.9633 14 25.7335 14H25.7334Z" fill="white"/>
<defs>
<filter id="filter0_d_26_1445" x="0" y="0" width="48" height="48" filterUnits="userSpaceOnUse" color-interpolation-filters="sRGB">
<feFlood flood-opacity="0" result="BackgroundImageFix"/>
<feColorMatrix in="SourceAlpha" type="matrix" values="0 0 0 0 0 0 0 0 0 0 0 0 0 0 0 0 0 0 127 0" result="hardAlpha"/>
<feOffset/>
<feGaussianBlur stdDeviation="2"/>
<feComposite in2="hardAlpha" operator="out"/>
<feColorMatrix type="matrix" values="0 0 0 0 0 0 0 0 0 0 0 0 0 0 0 0 0 0 0.25 0"/>
<feBlend mode="normal" in2="BackgroundImageFix" result="effect1_dropShadow_26_1445"/>
<feBlend mode="normal" in="SourceGraphic" in2="effect1_dropShadow_26_1445" result="shape"/>
</filter>
</defs>
</svg>
