<svg width="16" height="21" viewBox="0 0 16 21" fill="none" xmlns="http://www.w3.org/2000/svg">
<path d="M13.5784 2.31103C12.814 1.54737 11.906 0.949178 10.9089 0.552752C9.91185 0.156169 8.8463 -0.0303632 7.77668 0.00401831C5.71804 0.0807414 3.76598 0.956943 2.32042 2.45308C0.874808 3.94921 0.0450859 5.95227 0.00101544 8.05212C-0.0271461 9.84087 0.531164 11.5879 1.58727 13.0167C1.73348 13.2402 5.52143 18.6091 6.78204 20.3904C7.05188 20.7706 7.48338 20.9971 7.9438 21H7.95048C8.40804 20.9994 8.83812 20.7776 9.11004 20.4024C9.69619 19.59 14.2645 13.2238 14.385 13.069C14.3921 13.0604 14.3983 13.0519 14.4045 13.0427C15.4337 11.6289 15.9929 9.91674 16 8.15618C16.0036 7.06569 15.7909 5.98591 15.3747 4.98142C14.9586 3.97692 14.3476 3.06867 13.5784 2.31103ZM13.2616 12.175C13.1057 12.3787 8.54704 18.7299 7.93812 19.5404C6.46738 17.4628 2.92134 12.4336 2.74987 12.1766C1.87131 10.9971 1.40543 9.55153 1.42661 8.0708C1.45652 5.6861 2.7273 3.4974 4.76334 2.32311C6.79938 1.14895 9.2942 1.16614 11.3144 2.36836C13.3347 3.57059 14.5762 5.77687 14.5745 8.16173C14.5668 9.60791 14.1068 11.0136 13.2616 12.175ZM8.00003 11.9054C7.0548 11.9054 6.14838 11.5226 5.47999 10.8412C4.81161 10.1598 4.43611 9.2357 4.43611 8.27206C4.43611 7.30842 4.8116 6.38436 5.47999 5.70295C6.14839 5.02155 7.0548 4.63875 8.00003 4.63875C8.94526 4.63875 9.85168 5.02154 10.5201 5.70295C11.1885 6.38436 11.564 7.30842 11.564 8.27206C11.5628 9.23537 11.187 10.1588 10.5188 10.8399C9.85075 11.5211 8.94494 11.9043 8.00003 11.9054ZM8.00003 6.09207C7.43282 6.09207 6.88902 6.32175 6.48791 6.7305C6.08697 7.13941 5.86168 7.6938 5.86168 8.27206C5.86168 8.85032 6.08697 9.4047 6.48791 9.81362C6.88901 10.2224 7.43282 10.452 8.00003 10.452C8.56724 10.452 9.11104 10.2224 9.51215 9.81362C9.9131 9.40471 10.1384 8.85032 10.1384 8.27206C10.1377 7.69414 9.9123 7.13988 9.51134 6.73133C9.11056 6.32258 8.56688 6.09274 8.00003 6.09207Z" fill="#00255B"/>
</svg>
