<svg width="32" height="32" viewBox="0 0 32 32" fill="none" xmlns="http://www.w3.org/2000/svg">
<path d="M16.0057 0C7.1701 0 0 7.16947 0 16.0057C0 24.8413 7.16947 32 16.0057 32C24.8413 32 32 24.8419 32 16.0057C32 7.1701 24.8419 0 16.0057 0ZM10.6741 8.21806C10.7151 8.21831 10.7551 8.21707 10.7958 8.22917L13.694 9.10293C14.0715 9.21626 14.3144 9.71919 14.3023 10.0984L14.2359 12.2442C14.2505 12.9822 13.9317 13.1136 13.3288 13.262L12.0898 13.4279L12.2446 14.2905C12.4473 15.6663 12.911 16.7022 13.7932 17.9184C14.7818 19.0537 15.6773 19.7341 16.9898 20.2635L17.8193 20.6284L18.2949 19.4892C18.5892 18.9532 18.7845 18.6863 19.5116 18.8809L21.6574 19.3455C22.0359 19.427 22.467 19.7781 22.4869 20.164L22.6418 23.1174C22.659 23.451 22.2857 23.7139 21.6685 23.7589C17.9932 24.0267 14.2588 22.5078 11.8128 19.4339V19.423C9.36726 16.3491 8.76775 12.4274 9.93239 9.00352C10.1035 8.50034 10.3869 8.21641 10.6736 8.21812L10.6741 8.21806Z" fill="#256EF9"/>
</svg>
