<svg width="50" height="50" viewBox="0 0 50 50" fill="none" xmlns="http://www.w3.org/2000/svg">
<rect width="50" height="50" fill="white"/>
<path d="M9.07163 29.0001H2.78587C2.35229 29.0001 2.00021 29.3443 2.00021 29.7693V33.6152H9.07159L9.07163 29.0001ZM12.9999 35.9233H13.0004C13.1701 35.9247 13.3351 35.9785 13.4716 36.0767L15.3573 37.4616V29.0001H10.6428V37.4616L12.5285 36.0772V36.0767C12.6655 35.9785 12.8304 35.9247 13.0002 35.9233L12.9999 35.9233ZM16.9281 33.6157H23.9995L24 29H16.9286L16.9281 33.6157ZM23.9995 49L2 48.9995V35.154H9.07138V38.9999C9.068 39.2908 9.23632 39.5575 9.50352 39.6846C9.76974 39.8173 10.0895 39.7903 10.3287 39.6152L13.0002 37.6536L15.6717 39.6152C15.8082 39.7138 15.9731 39.7677 16.1429 39.7691C16.2663 39.7714 16.3879 39.7422 16.4964 39.6846C16.7636 39.5575 16.9319 39.2908 16.9285 38.9999V35.154H23.9999L23.9995 49ZM8.28575 46.6919C8.28431 46.2674 7.93367 45.9237 7.50009 45.9227H4.35746C3.9234 45.9227 3.5718 46.267 3.5718 46.6919C3.5718 47.1169 3.9234 47.4611 4.35746 47.4611H7.50009C7.93367 47.4597 8.28431 47.1164 8.28575 46.6919ZM12.2145 44.3843C12.213 43.9598 11.8619 43.6161 11.4283 43.6151H4.35734C3.92327 43.6151 3.57167 43.9594 3.57167 44.3843C3.57167 44.8088 3.92327 45.1535 4.35734 45.1535H11.4287H11.4282C11.8618 45.1521 12.213 44.8084 12.2145 44.3843Z" fill="#00255B"/>
<path d="M21.0716 8.00012H14.7859C14.3523 8.00012 14.0002 8.34435 14.0002 8.76931V12.6152H21.0716L21.0716 8.00012ZM24.9999 14.9233H25.0004C25.1701 14.9247 25.3351 14.9785 25.4716 15.0767L27.3573 16.4616V8.00006H22.6428V16.4616L24.5285 15.0772V15.0767C24.6655 14.9785 24.8304 14.9247 25.0002 14.9233L24.9999 14.9233ZM28.9281 12.6157H35.9995L36 8H28.9286L28.9281 12.6157ZM35.9995 28L14 27.9995V14.154H21.0714V17.9999C21.068 18.2908 21.2363 18.5575 21.5035 18.6846C21.7697 18.8173 22.0895 18.7903 22.3287 18.6152L25.0002 16.6536L27.6717 18.6152C27.8082 18.7138 27.9731 18.7677 28.1429 18.7691C28.2663 18.7714 28.3879 18.7422 28.4964 18.6846C28.7636 18.5575 28.9319 18.2908 28.9285 17.9999V14.154H35.9999L35.9995 28ZM20.2858 25.6919C20.2843 25.2674 19.9337 24.9237 19.5001 24.9227H16.3575C15.9234 24.9227 15.5718 25.267 15.5718 25.6919C15.5718 26.1169 15.9234 26.4611 16.3575 26.4611H19.5001C19.9337 26.4597 20.2843 26.1164 20.2858 25.6919ZM24.2145 23.3843C24.213 22.9598 23.8619 22.6161 23.4283 22.6151H16.3573C15.9233 22.6151 15.5717 22.9594 15.5717 23.3843C15.5717 23.8088 15.9233 24.1535 16.3573 24.1535H23.4287H23.4282C23.8618 24.1521 24.213 23.8084 24.2145 23.3843Z" fill="#00255B"/>
<path d="M33.0716 29.0001H26.7859C26.3523 29.0001 26.0002 29.3443 26.0002 29.7693V33.6152H33.0716L33.0716 29.0001ZM36.9999 35.9233H37.0004C37.1701 35.9247 37.3351 35.9785 37.4716 36.0767L39.3573 37.4616V29.0001H34.6428V37.4616L36.5285 36.0772V36.0767C36.6655 35.9785 36.8304 35.9247 37.0002 35.9233L36.9999 35.9233ZM40.9281 33.6157H47.9995L48 29H40.9286L40.9281 33.6157ZM47.9995 49L26 48.9995V35.154H33.0714V38.9999C33.068 39.2908 33.2363 39.5575 33.5035 39.6846C33.7697 39.8173 34.0895 39.7903 34.3287 39.6152L37.0002 37.6536L39.6717 39.6152C39.8082 39.7138 39.9731 39.7677 40.1429 39.7691C40.2663 39.7714 40.3879 39.7422 40.4964 39.6846C40.7636 39.5575 40.9319 39.2908 40.9285 38.9999V35.154H47.9999L47.9995 49ZM32.2858 46.6919C32.2843 46.2674 31.9337 45.9237 31.5001 45.9227H28.3575C27.9234 45.9227 27.5718 46.267 27.5718 46.6919C27.5718 47.1169 27.9234 47.4611 28.3575 47.4611H31.5001C31.9337 47.4597 32.2843 47.1164 32.2858 46.6919ZM36.2145 44.3843C36.213 43.9598 35.8619 43.6161 35.4283 43.6151H28.3573C27.9233 43.6151 27.5717 43.9594 27.5717 44.3843C27.5717 44.8088 27.9233 45.1535 28.3573 45.1535H35.4287H35.4282C35.8618 45.1521 36.213 44.8084 36.2145 44.3843Z" fill="#00255B"/>
</svg>
