<svg width="20" height="20" viewBox="0 0 20 20" fill="none" xmlns="http://www.w3.org/2000/svg">
<path d="M11.5 14.6567H1.89548V13.5821C1.89548 12.7313 3.88803 11.7462 5.32087 11.3209C5.88057 11.1866 6.59707 11.0075 6.59707 10.1792V8.65686C6.99998 8.85832 7.44786 8.94795 7.91793 8.94795H7.96275C8.27617 8.94795 8.56727 8.90313 8.83589 8.81365L8.83573 10.179C8.83573 11.0073 9.55223 11.1864 10.1119 11.3208C10.2687 11.3656 12.0597 11.9253 13.0224 12.7536C13.1119 12.8208 13.2016 12.8656 13.3135 12.8656C13.4478 12.8656 13.5598 12.8208 13.6493 12.7088C13.8061 12.5297 13.7836 12.2385 13.6045 12.0819C12.4627 11.0968 10.4477 10.4923 10.3582 10.47H10.3359C10.1791 10.4251 9.77619 10.3357 9.73137 10.2685V10.2014V8.41027C10.5597 7.85056 11.097 6.91026 11.097 5.83571V4.13426C11.097 2.41033 9.68655 1 7.96279 1H7.91797C6.19404 1 4.78371 2.41049 4.78371 4.13426V5.83571C4.78371 6.70885 5.14196 7.49248 5.70166 8.05218C5.67902 8.07451 5.67902 8.11933 5.67902 8.16399V10.1788V10.2683C5.6342 10.3355 5.2313 10.4251 5.09697 10.4698H5.07464C4.64922 10.6041 1 11.7235 1 13.5817V15.1044C1 15.3506 1.20146 15.5521 1.44772 15.5521H11.5C11.7463 15.5521 11.9477 15.3506 11.9477 15.1044C11.9477 14.8581 11.7463 14.6566 11.5 14.6566V14.6567ZM5.67908 5.81337V4.13426C5.67908 2.90287 6.6865 1.89545 7.91789 1.89545H7.96271C9.19409 1.89545 10.2015 2.90287 10.2015 4.13426V5.83572C10.2015 7.0671 9.19409 8.07453 7.96271 8.07453H7.91789C6.66419 8.0522 5.67908 7.0446 5.67908 5.81337Z" fill="#B3B3B3" stroke="#B3B3B3" stroke-width="0.5"/>
<path d="M15.3283 6.03736V4.35826C15.3283 2.63433 13.9178 1.224 12.1941 1.224H12.1493C11.903 1.224 11.7015 1.42546 11.7015 1.67172C11.7015 1.91799 11.903 2.11944 12.1493 2.11944H12.1941C13.4255 2.11944 14.4329 3.12687 14.4329 4.35826V6.05971C14.4329 7.2911 13.4255 8.29853 12.1941 8.29853H12.1493C11.903 8.29853 11.7015 8.49998 11.7015 8.74625C11.7015 8.99252 11.903 9.19397 12.1493 9.19397H12.1941C12.6643 9.19397 13.112 9.082 13.5149 8.90288L13.5148 10.1792C13.5148 11.0076 14.2313 11.1867 14.791 11.321C14.903 11.3658 15.9552 11.6792 16.873 12.1941C16.9402 12.239 17.0073 12.2613 17.0969 12.2613C17.2537 12.2613 17.4104 12.1718 17.4775 12.0373C17.5895 11.8134 17.5223 11.5448 17.2984 11.4328C16.2462 10.8508 15.0819 10.4925 15.0372 10.4702H15.0149C14.8581 10.4254 14.4552 10.3359 14.4104 10.2688V10.2016V8.27622C14.9701 7.6717 15.3283 6.91055 15.3283 6.03741L15.3283 6.03736Z" fill="#B3B3B3" stroke="#B3B3B3" stroke-width="0.5"/>
<path d="M18.7985 14.8582L17.1418 14.6119L16.403 13.1119C16.3358 12.9551 16.179 12.8656 16.0001 12.8656C15.8209 12.8656 15.6643 12.9551 15.5972 13.1119L14.8584 14.6119L13.2016 14.8582C13.0225 14.8805 12.8882 14.9925 12.8433 15.1716C12.7985 15.3507 12.8433 15.5073 12.9553 15.6193L14.1642 16.8059L13.8284 18.4626C13.8061 18.6418 13.8733 18.7984 14.0076 18.9104C14.1419 18.9998 14.321 19.0223 14.4778 18.9552L15.9778 18.1715L17.4778 18.9552C17.545 19 17.6121 19 17.6793 19C17.7687 19 17.8584 18.9777 17.9479 18.9105C18.0822 18.821 18.1493 18.6419 18.127 18.4628L17.8359 16.806L19.0448 15.6195C19.1568 15.5075 19.2016 15.3284 19.1568 15.1717C19.1121 15.0149 18.9555 14.903 18.7987 14.8582L18.7985 14.8582ZM17.03 16.3358C16.918 16.4478 16.8732 16.5821 16.8957 16.7387L17.0748 17.7461L16.1793 17.2759C16.1122 17.2311 16.045 17.2311 15.9779 17.2311C15.9107 17.2311 15.8436 17.2534 15.7764 17.2759L14.881 17.7461L15.0601 16.7387C15.0824 16.6044 15.0378 16.4476 14.9258 16.3358L14.1867 15.6193L15.1941 15.485C15.3509 15.4627 15.4627 15.373 15.5299 15.2387L15.9776 14.3208L16.4253 15.2387C16.4925 15.373 16.6268 15.4627 16.7611 15.485L17.7685 15.6193L17.03 16.3358Z" fill="#B3B3B3" stroke="#B3B3B3" stroke-width="0.5"/>
</svg>
