<svg width="22" height="16" viewBox="0 0 22 16" fill="none" xmlns="http://www.w3.org/2000/svg">
<path fill-rule="evenodd" clip-rule="evenodd" d="M1.83325 8.91658H12.8333V7.08325H1.83325V8.91658Z" fill="#FC2525"/>
<path fill-rule="evenodd" clip-rule="evenodd" d="M4.39332 4.14355L1.18499 7.3519C0.827008 7.70986 0.827008 8.29029 1.18499 8.64825L4.39332 11.8566L5.68968 10.5602L3.12953 8.00007L5.68968 5.43992L4.39332 4.14355Z" fill="#FC2525"/>
<path fill-rule="evenodd" clip-rule="evenodd" d="M13.3791 2.04159C11.1062 2.04159 9.12766 3.35333 8.15142 5.28526L6.51514 4.4584C7.78693 1.9416 10.3791 0.208252 13.3791 0.208252C17.645 0.208252 21.0832 3.7078 21.0832 7.99992C21.0832 12.292 17.645 15.7916 13.3791 15.7916C10.3791 15.7916 7.78693 14.0583 6.51514 11.5415L8.15142 10.7146C9.12766 12.6465 11.1062 13.9583 13.3791 13.9583C16.6105 13.9583 19.2499 11.3018 19.2499 7.99992C19.2499 4.69811 16.6105 2.04159 13.3791 2.04159Z" fill="#FC2525"/>
</svg>
