<svg width="17" height="18" viewBox="0 0 17 18" fill="none" xmlns="http://www.w3.org/2000/svg">
<path d="M12.6459 17.9999H10.3702C10.0716 17.9999 9.82938 17.7515 9.82938 17.4449V11.6018H7.17053V17.4449C7.17053 17.7514 6.92848 17.9999 6.62972 17.9999H4.35401C3.26072 17.9999 2.37113 17.0869 2.37113 15.9649L2.37125 9.4743H0.540904C0.323379 9.4743 0.12699 9.34061 0.0424942 9.13479C-0.0420012 8.92909 0.00175615 8.69151 0.153771 8.53162L8.11308 0.160663C8.31664 -0.0535544 8.68378 -0.0535544 8.88725 0.160663L16.8462 8.53195C16.9982 8.69158 17.042 8.92914 16.9575 9.13512C16.873 9.3411 16.6766 9.47463 16.4591 9.47463L14.6287 9.4745V15.9651C14.6287 17.0871 13.7393 18 12.646 18L12.6459 17.9999ZM10.9109 16.8899H12.6459C13.1428 16.8899 13.5472 16.4749 13.5472 15.9649V8.9193C13.5472 8.61281 13.7892 8.36426 14.088 8.36426H15.1759L8.49992 1.34282L1.8243 8.36426H2.91206C3.21068 8.36426 3.45286 8.61268 3.45286 8.9193V15.9649C3.45286 16.4749 3.85721 16.8899 4.35414 16.8899H6.08905L6.08918 11.0468C6.08918 10.7403 6.33122 10.4918 6.62998 10.4918H10.3703C10.6689 10.4918 10.9111 10.7402 10.9111 11.0468L10.9109 16.8899Z" fill="#256EF9"/>
</svg>
