<svg width="20" height="23" viewBox="0 0 20 23" fill="none" xmlns="http://www.w3.org/2000/svg">
<path d="M9.32649 21.9999H1.16168C1.07261 21.9999 1.00025 21.9277 1.00025 21.8385V20.2695C0.987012 18.7829 1.49336 17.3383 2.4318 16.1854C3.37008 15.0325 4.6818 14.2435 6.13999 13.9547C6.20872 13.9408 6.27824 13.9736 6.31118 14.0354C6.34618 14.0969 6.33704 14.1743 6.28848 14.2258L5.36833 15.1944L6.51766 15.7819L6.51782 15.7821C6.59175 15.8183 6.62549 15.9055 6.59522 15.9821L6.14974 17.1702L9.40723 19.0556C9.45688 19.0843 9.48762 19.1371 9.48794 19.1945V21.8386C9.48794 21.8815 9.47091 21.9225 9.44065 21.9528C9.41038 21.983 9.36939 22.0001 9.32651 22.0001L9.32649 21.9999ZM1.3231 21.677H9.16507V19.2912L5.86879 17.3864C5.80117 17.346 5.77263 17.2628 5.80101 17.1895L6.24335 16.0047L5.02936 15.3816C4.98428 15.3581 4.95212 15.3154 4.94219 15.2654C4.93399 15.2151 4.94944 15.1639 4.98428 15.1265L5.68481 14.3872C4.41691 14.76 3.30523 15.5359 2.51812 16.5975C1.73118 17.6589 1.31156 18.948 1.32306 20.2695L1.3231 21.677Z" fill="#00255B" stroke="#00255B" stroke-width="0.5"/>
<path d="M18.6729 21.9998H10.5081C10.4189 21.9998 10.3467 21.9276 10.3467 21.8384V19.1974C10.347 19.1402 10.3777 19.0874 10.4274 19.0587L13.6849 17.1733L13.2394 15.9852C13.2091 15.9084 13.2429 15.8213 13.3168 15.785L14.4661 15.1975L13.546 14.2289H13.5461C13.4976 14.1772 13.4884 14.1 13.5234 14.0383C13.5564 13.9765 13.6259 13.9437 13.6946 13.9576C15.1523 14.2464 16.4634 15.0349 17.4019 16.1873C18.3401 17.3397 18.8468 18.7833 18.8343 20.2693V21.8383C18.8343 21.8812 18.8173 21.9222 18.787 21.9524C18.7568 21.9827 18.7156 21.9997 18.6729 21.9997L18.6729 21.9998ZM10.6695 21.6769H18.5115V20.2694C18.5216 18.949 18.1013 17.6614 17.3144 16.6011C16.5274 15.541 15.4166 14.766 14.1497 14.3935L14.8503 15.1328C14.8851 15.1702 14.9006 15.2214 14.8924 15.2717C14.8824 15.3217 14.8503 15.3644 14.8052 15.3879L13.5914 16.0046L14.0337 17.1894H14.0336C14.0619 17.2627 14.0334 17.3459 13.9658 17.3863L10.6695 19.291L10.6695 21.6769Z" fill="#00255B" stroke="#00255B" stroke-width="0.5"/>
<path d="M10.508 21.9999H9.32636C9.2373 21.9999 9.16494 21.9277 9.16494 21.8385V19.1976C9.16399 19.1399 9.19505 19.0865 9.24565 19.0589C9.29562 19.03 9.3571 19.03 9.40707 19.0589L9.91721 19.3559L10.4274 19.0589C10.4773 19.03 10.5388 19.03 10.5888 19.0589C10.6394 19.0865 10.6704 19.1399 10.6695 19.1976V21.8385C10.6695 21.8814 10.6525 21.9224 10.6222 21.9527C10.5919 21.9829 10.5508 21.9999 10.5081 21.9999H10.508ZM9.48779 21.6771H10.3466V19.4785L10.0012 19.6819H10.0011C9.94966 19.7095 9.88787 19.7095 9.83648 19.6819L9.48778 19.4785L9.48779 21.6771Z" fill="#00255B" stroke="#00255B" stroke-width="0.5"/>
<path d="M9.91726 19.7044C9.86335 19.703 9.81353 19.6752 9.7839 19.6301C9.75426 19.585 9.74858 19.5285 9.76876 19.4783L12.5226 12.9955C12.5424 12.9445 12.588 12.9076 12.6421 12.8988C12.6955 12.8895 12.7502 12.9076 12.7874 12.9472L14.8504 15.1328H14.8503C14.8865 15.1692 14.9021 15.2213 14.8924 15.2717C14.8835 15.3212 14.8526 15.3639 14.8084 15.3879L13.5912 16.0046L14.0336 17.1894C14.0635 17.2627 14.0345 17.3469 13.9658 17.3863L9.99798 19.6817C9.97386 19.697 9.9458 19.7049 9.91727 19.7044H9.91726ZM12.7228 13.3475L10.2562 19.1588L13.6849 17.1733L13.2394 15.9787C13.2121 15.9019 13.2451 15.8169 13.3168 15.7785L14.4693 15.1941L12.7228 13.3475Z" fill="#00255B" stroke="#00255B" stroke-width="0.5"/>
<path d="M9.91718 19.7044C9.88865 19.7045 9.86075 19.6967 9.83647 19.6817L5.86867 17.3863C5.79994 17.3469 5.77094 17.2627 5.80089 17.1894L6.24323 16.0046L5.02924 15.3814C4.98416 15.3579 4.952 15.3152 4.94207 15.2653C4.93229 15.2148 4.9479 15.1628 4.98416 15.1264L7.04719 12.9407H7.04704C7.08455 12.9002 7.14004 12.8816 7.19427 12.8914C7.24866 12.9013 7.29422 12.938 7.31502 12.9891L10.0657 19.4719C10.0859 19.522 10.0802 19.5786 10.0505 19.6237C10.0209 19.6688 9.9711 19.6965 9.91719 19.6979L9.91718 19.7044ZM6.14959 17.1764L9.59433 19.1619L7.12459 13.3507L5.38126 15.2006L6.53059 15.7849H6.53044C6.60342 15.8223 6.63668 15.9084 6.608 15.9851L6.14959 17.1764Z" fill="#00255B" stroke="#00255B" stroke-width="0.5"/>
<path d="M9.91731 19.7011C9.85316 19.7005 9.79515 19.6628 9.76882 19.6043L7.0117 13.1216C6.98585 13.0743 6.98585 13.017 7.0117 12.9698C7.04071 12.9245 7.09036 12.8968 7.14411 12.8955H7.24737C7.28441 12.8958 7.31988 12.9097 7.34747 12.9343C8.06948 13.5191 8.97039 13.8382 9.8995 13.8382C10.8286 13.8382 11.7297 13.5191 12.4517 12.9343C12.4791 12.9097 12.5147 12.8958 12.5518 12.8955H12.6519C12.7055 12.8968 12.7552 12.9245 12.7842 12.9698C12.8229 13.01 12.8378 13.0677 12.8229 13.1216L10.0658 19.6043C10.0415 19.6646 9.98227 19.7032 9.91732 19.7011H9.91731ZM7.49911 13.4443L9.91731 19.1265L12.3355 13.4443C11.6181 13.9217 10.7757 14.1763 9.91417 14.1763C9.05249 14.1763 8.21006 13.9217 7.49281 13.4443H7.49911Z" fill="#00255B" stroke="#00255B" stroke-width="0.5"/>
<path d="M9.91725 14.1611C8.75529 14.1611 7.64094 13.6995 6.81945 12.8779C5.99785 12.0563 5.53625 10.9419 5.53625 9.77993V7.17128C5.53767 7.11847 5.564 7.06945 5.60719 7.03902C5.65165 7.00797 5.70903 7.00182 5.759 7.02279C8.4239 8.11365 11.4104 8.11365 14.0755 7.02279C14.1252 7.00245 14.1818 7.00813 14.2264 7.03776C14.2712 7.06756 14.2981 7.11769 14.2983 7.17129V9.77993C14.2967 10.9414 13.8345 12.0547 13.0132 12.876C12.192 13.6972 11.0786 14.1594 9.91729 14.1611L9.91725 14.1611ZM5.85906 7.40712V9.78009C5.85985 10.8561 6.28768 11.8879 7.04863 12.6488C7.80942 13.4096 8.84116 13.8374 9.91721 13.8384C10.9929 13.8367 12.0242 13.4085 12.7849 12.6479C13.5457 11.8871 13.9738 10.8559 13.9754 9.78013V7.40716C11.3641 8.41606 8.47041 8.41606 5.85898 7.40716L5.85906 7.40712Z" fill="#00255B" stroke="#00255B" stroke-width="0.5"/>
<path d="M9.88191 8.16588C8.42595 8.15673 6.98545 7.8662 5.6397 7.31037C5.57112 7.28294 5.52998 7.21248 5.53959 7.13933C5.54921 7.06697 5.60612 7.01007 5.67848 7.00045C8.49108 6.61297 11.3436 6.61297 14.1564 7.00045C14.2288 7.01007 14.2857 7.06697 14.2953 7.13933C14.3059 7.21358 14.2627 7.28499 14.1921 7.31037C12.8215 7.86288 11.3596 8.15312 9.88206 8.16588H9.88191ZM6.36606 7.24903C8.65925 8.0369 11.1499 8.0369 13.4429 7.24903C11.0918 6.97789 8.7172 6.97789 6.36606 7.24903Z" fill="#00255B" stroke="#00255B" stroke-width="0.5"/>
<path d="M5.70089 6.52575C5.67614 6.52701 5.65171 6.52149 5.62996 6.50967C4.90545 6.1099 4.2807 5.55138 3.8026 4.87606C3.70785 4.75704 3.67018 4.6024 3.69934 4.45313C3.72567 4.29801 3.81883 4.16213 3.95425 4.08189C4.81544 3.61324 5.52292 2.90588 5.99142 2.04472C6.07496 1.89213 6.22835 1.7906 6.40143 1.77358L8.73562 1.53144C8.88254 1.51205 9.0241 1.46381 9.15209 1.38941L9.67515 1.06656C9.82317 0.977812 10.0081 0.977812 10.1563 1.06656L10.6858 1.38941H10.6856C10.8133 1.46129 10.9536 1.50843 11.0989 1.52813L13.4331 1.77027C13.6048 1.78666 13.7571 1.88708 13.8398 2.03826C14.3088 2.90087 15.016 3.61024 15.877 4.08192C16.0138 4.16043 16.1094 4.29489 16.1385 4.45001C16.1647 4.59772 16.1259 4.74953 16.032 4.86649C15.5538 5.5418 14.9291 6.10017 14.2046 6.50009C14.16 6.52248 14.1073 6.52248 14.0626 6.50009C11.2537 5.08606 8.46764 5.08606 5.77509 6.50009C5.75286 6.51475 5.72732 6.52358 5.70084 6.52579L5.70089 6.52575ZM9.87208 5.12463C11.3556 5.1415 12.8149 5.50407 14.1337 6.18349C14.7814 5.80232 15.3414 5.28856 15.7769 4.67583C15.8118 4.63106 15.8258 4.57352 15.8157 4.51772C15.805 4.45529 15.7672 4.40091 15.7124 4.36922C14.8021 3.86727 14.0531 3.1171 13.5525 2.20606C13.5208 2.14695 13.4612 2.10801 13.3944 2.10281L11.0602 1.86067C10.8685 1.83829 10.6836 1.77555 10.5178 1.67655L9.98824 1.3537H9.9884C9.94221 1.32785 9.88593 1.32785 9.83974 1.3537L9.31354 1.67655C9.1466 1.77555 8.96074 1.83813 8.76793 1.86067L6.43374 2.10281C6.36627 2.10864 6.3059 2.14726 6.27232 2.20606C5.77053 3.11912 5.01907 3.87058 4.10601 4.37237C4.05367 4.40311 4.01726 4.45482 4.00591 4.5144C3.99487 4.57178 4.01032 4.63121 4.04784 4.67583C4.48324 5.28746 5.04193 5.80107 5.68795 6.18348C6.97668 5.49792 8.4123 5.13455 9.87205 5.12462L9.87208 5.12463Z" fill="#00255B" stroke="#00255B" stroke-width="0.5"/>
<path d="M14.1335 7.33288H14.1142C11.3293 6.94839 8.50508 6.94839 5.72012 7.33288C5.67409 7.33855 5.6279 7.32405 5.59322 7.29315C5.5587 7.26225 5.53899 7.21795 5.53931 7.17145V6.36433C5.53915 6.30522 5.57131 6.25068 5.62333 6.2223C8.41277 4.75988 11.3022 4.75988 14.2078 6.2223C14.2621 6.25036 14.2958 6.30664 14.295 6.36765V7.17477C14.296 7.2178 14.2791 7.25942 14.2487 7.28984C14.2183 7.32027 14.1766 7.33698 14.1336 7.33619L14.1335 7.33288ZM9.91716 6.72282C11.2732 6.72218 12.6278 6.81062 13.9721 6.98749V6.46444C11.2248 5.11171 8.48371 5.11171 5.86219 6.46444V6.98749C7.20653 6.81062 8.56116 6.72219 9.91716 6.72282Z" fill="#00255B" stroke="#00255B" stroke-width="0.5"/>
<path d="M14.1337 9.89305C14.0445 9.89305 13.9723 9.82085 13.9723 9.73163V7.5428C13.9723 7.45358 14.0445 7.38138 14.1337 7.38138C14.4791 7.36388 14.8166 7.48889 15.0673 7.72708C15.3179 7.96543 15.4598 8.29618 15.4598 8.64203C15.4598 8.98788 15.3179 9.31864 15.0673 9.55698C14.8166 9.79518 14.4791 9.92019 14.1337 9.90269V9.89305ZM14.2951 7.70737V9.5702C14.5871 9.51818 14.8374 9.33154 14.9703 9.0664C15.1032 8.80141 15.1032 8.48911 14.9703 8.22413C14.8374 7.95898 14.5871 7.77219 14.2951 7.72033V7.70737Z" fill="#00255B" stroke="#00255B" stroke-width="0.5"/>
<path d="M5.70071 9.89308C5.35532 9.91057 5.01781 9.78556 4.76716 9.54721C4.51651 9.30902 4.37463 8.97828 4.37463 8.63243C4.37463 8.28656 4.51651 7.95582 4.76716 7.71748C5.01781 7.47913 5.35531 7.35412 5.70071 7.37161C5.74359 7.37161 5.78458 7.38864 5.81484 7.41891C5.84511 7.44917 5.86214 7.49032 5.86214 7.53304V9.73163C5.86214 9.77451 5.84511 9.81549 5.81484 9.84576C5.78458 9.87603 5.74359 9.89305 5.70071 9.89305V9.89308ZM5.53929 7.7074C5.24734 7.75942 4.99699 7.94607 4.86413 8.2112C4.73124 8.4762 4.73124 8.78849 4.86413 9.05347C4.99703 9.31862 5.24736 9.50542 5.53929 9.55727V7.7074Z" fill="#00255B" stroke="#00255B" stroke-width="0.5"/>
</svg>
