<svg width="69" height="59" viewBox="0 0 69 59" fill="none" xmlns="http://www.w3.org/2000/svg">
<path d="M67.8097 7.48124H46.7055V3.58722C46.7055 1.60481 45.0876 0 43.1128 0H25.8866C23.9118 0 22.2938 1.60481 22.2938 3.58722V7.48124H1.18966C0.523448 7.48124 0 8.00044 0 8.66125V57.82C0 58.4808 0.523448 59 1.18966 59H67.8103C68.4765 59 69 58.4808 69 57.82V8.66125C69 8.00044 68.4759 7.48124 67.8097 7.48124ZM28.5511 32.9222V30.279H40.4476V35.1642H28.5511V32.9222ZM24.6728 3.58753C24.6728 2.90313 25.2201 2.36033 25.8863 2.36033H43.1125C43.7787 2.36033 44.3259 2.90313 44.3259 3.58753V7.48155H24.6728V3.58753ZM2.37836 9.84157H66.6197V27.1641L42.8266 31.5065V29.0993C42.8266 28.4385 42.3032 27.9193 41.637 27.9193H27.3611C26.6949 27.9193 26.1715 28.4385 26.1715 29.0993V31.5065L2.37836 27.1641V9.84157ZM66.6197 56.6403H2.37836V29.5713L26.1715 33.9137V36.3445C26.1715 37.0053 26.6949 37.5245 27.3611 37.5245H41.637C42.3032 37.5245 42.8266 37.0053 42.8266 36.3445V33.9137L66.6197 29.5713V56.6403Z" fill="#212122"/>
</svg>
