<svg width="21" height="17" viewBox="0 0 21 17" fill="none" xmlns="http://www.w3.org/2000/svg">
<path d="M10.8103 0.745473H13.0471V6.70992H10.8103V16.4019H9.31939V6.70992H7.08264V0.745473H9.31939V0H10.8103V0.745473ZM8.57385 5.21864H11.5558V2.23642H8.57385V5.21864Z" fill="black"/>
<path d="M3.7277 9.69201H5.96418V15.6565H3.7277V16.4019H2.23648V15.6565H0V9.69201H2.23648V0H3.7277V9.69201ZM1.49094 11.1832V14.1654H4.47317V11.1832H1.49094Z" fill="black"/>
<path d="M17.8929 6.33702H20.1294V12.3015H17.8929V16.4018H16.4017V12.3015H14.1652V6.33702H16.4017V0H17.8929V6.33702ZM15.6562 10.8102H18.6384V7.82796H15.6562V10.8102Z" fill="black"/>
</svg>
