<svg width="50" height="50" viewBox="0 0 50 50" fill="none" xmlns="http://www.w3.org/2000/svg">
<rect width="50" height="50" fill="white"/>
<path d="M19.6431 11.0002H11.0716C10.4804 11.0002 10.0003 11.4821 10.0003 12.077V17.4613H19.6431L19.6431 11.0002ZM24.9998 20.6926H25.0005C25.232 20.6945 25.4569 20.7699 25.643 20.9074L28.2145 22.8463V11.0001H21.7856V22.8463L24.3571 20.9081V20.9074C24.5439 20.7699 24.7688 20.6946 25.0003 20.6926L24.9998 20.6926ZM30.3566 17.4619H39.9993L40 11H30.3572L30.3566 17.4619ZM39.9993 39L10 38.9993V19.6156H19.6428V24.9998C19.6382 25.4071 19.8677 25.7806 20.2321 25.9584C20.5951 26.1442 21.0311 26.1065 21.3574 25.8612L25.0003 23.1151L28.6432 25.8612C28.8293 25.9994 29.0542 26.0747 29.2857 26.0767C29.4541 26.08 29.6199 26.039 29.7678 25.9584C30.1322 25.7806 30.3617 25.4071 30.3571 24.9998V19.6156H39.9999L39.9993 39ZM18.5715 35.7687C18.5695 35.1744 18.0914 34.6931 17.5001 34.6918H13.2147C12.6228 34.6918 12.1434 35.1737 12.1434 35.7687C12.1434 36.3636 12.6228 36.8456 13.2147 36.8456H17.5001C18.0914 36.8436 18.5695 36.363 18.5715 35.7687ZM23.9289 32.5381C23.9269 31.9438 23.4481 31.4625 22.8568 31.4612H13.2146C12.6226 31.4612 12.1432 31.9431 12.1432 32.5381C12.1432 33.1324 12.6226 33.6149 13.2146 33.6149H22.8573H22.8567C23.4479 33.613 23.9269 33.1317 23.9289 32.5381Z" fill="#00255B"/>
</svg>
