<svg width="50" height="50" viewBox="0 0 50 50" fill="none" xmlns="http://www.w3.org/2000/svg">
<rect width="50" height="50" fill="white"/>
<path d="M20.6788 25.0002H12.9645C12.4324 25.0002 12.0003 25.4304 12.0003 25.9616V30.769H20.6788L20.6788 25.0002ZM25.4999 33.6541H25.5004C25.7088 33.6558 25.9112 33.7231 26.0787 33.8459L28.393 35.577V25.0001H22.6071V35.577L24.9214 33.8465V33.8459C25.0895 33.7231 25.2919 33.6558 25.5003 33.6541L25.4999 33.6541ZM30.3209 30.7696H38.9994L39 25H30.3215L30.3209 30.7696ZM38.9994 50L12 49.9994V32.6925H20.6785V37.4999C20.6744 37.8634 20.8809 38.1969 21.2089 38.3557C21.5356 38.5216 21.928 38.4879 22.2216 38.2689L25.5003 35.8171L28.7789 38.2689C28.9464 38.3923 29.1488 38.4596 29.3572 38.4614C29.5087 38.4643 29.6579 38.4277 29.791 38.3557C30.119 38.1969 30.3255 37.8634 30.3214 37.4999V32.6925H38.9999L38.9994 50ZM19.7143 47.1149C19.7126 46.5843 19.2822 46.1546 18.7501 46.1534H14.8932C14.3605 46.1534 13.929 46.5837 13.929 47.1149C13.929 47.6461 14.3605 48.0764 14.8932 48.0764H18.7501C19.2822 48.0746 19.7126 47.6455 19.7143 47.1149ZM24.536 44.2304C24.5342 43.6998 24.1033 43.2701 23.5712 43.2689H14.8931C14.3604 43.2689 13.9289 43.6992 13.9289 44.2304C13.9289 44.761 14.3604 45.1919 14.8931 45.1919H23.5716H23.571C24.1031 45.1901 24.5342 44.7604 24.536 44.2304Z" fill="#00255B"/>
<path d="M21.0716 3.00012H14.7859C14.3523 3.00012 14.0002 3.34435 14.0002 3.76931V7.61522H21.0716L21.0716 3.00012ZM24.9999 9.92325H25.0004C25.1701 9.92467 25.3351 9.9785 25.4716 10.0767L27.3573 11.4616V3.00006H22.6428V11.4616L24.5285 10.0772V10.0767C24.6655 9.97851 24.8304 9.92468 25.0002 9.92327L24.9999 9.92325ZM28.9281 7.61566H35.9995L36 3H28.9286L28.9281 7.61566ZM35.9995 23L14 22.9995V9.15399H21.0714V12.9999C21.068 13.2908 21.2363 13.5575 21.5035 13.6846C21.7697 13.8173 22.0895 13.7903 22.3287 13.6152L25.0002 11.6536L27.6717 13.6152C27.8082 13.7138 27.9731 13.7677 28.1429 13.7691C28.2663 13.7714 28.3879 13.7422 28.4964 13.6846C28.7636 13.5575 28.9319 13.2908 28.9285 12.9999V9.15398H35.9999L35.9995 23ZM20.2858 20.6919C20.2843 20.2674 19.9337 19.9237 19.5001 19.9227H16.3575C15.9234 19.9227 15.5718 20.267 15.5718 20.6919C15.5718 21.1169 15.9234 21.4611 16.3575 21.4611H19.5001C19.9337 21.4597 20.2843 21.1164 20.2858 20.6919ZM24.2145 18.3843C24.213 17.9598 23.8619 17.6161 23.4283 17.6151H16.3573C15.9233 17.6151 15.5717 17.9594 15.5717 18.3843C15.5717 18.8088 15.9233 19.1535 16.3573 19.1535H23.4287H23.4282C23.8618 19.1521 24.213 18.8084 24.2145 18.3843Z" fill="#00255B"/>
</svg>
