<svg width="60" height="53" viewBox="0 0 60 53" fill="none" xmlns="http://www.w3.org/2000/svg">
<path d="M45.7345 20.7977L49.7958 20.621C50.5022 20.4444 51.2086 19.7383 51.2086 18.8553V13.9112H7.41697C6.53425 13.9112 5.82783 13.2048 5.82783 12.4984C5.82783 11.6157 6.53423 10.9093 7.41697 10.9093H15.5396L21.1901 8.26076H4.94462C3.88525 8.26076 3.00213 9.14348 3.00213 10.2032V47.6379C3.00213 48.6973 3.88486 49.5804 4.94462 49.5804H49.2663C50.3256 49.5804 51.2088 48.6977 51.2088 47.6379V38.9855C51.2088 37.9261 50.326 37.043 49.2663 37.043H43.2625C40.614 37.043 38.4948 34.9242 38.4948 32.099V25.5654C38.4948 21.151 42.2031 20.7977 45.7344 20.7977L45.7345 20.7977ZM22.426 10.9092H41.8499L38.1415 3.49302L22.4261 10.9092H22.426ZM45.2044 10.9092H51.2082V10.2028C51.2082 9.14347 50.3255 8.26036 49.2657 8.26036H43.7916L45.2044 10.9089V10.9092ZM42.3792 5.25879H49.2657C51.9142 5.25879 54.0334 7.55433 54.0334 10.2028V18.8552C54.0334 19.5616 54.0334 20.0913 53.6804 20.7977H54.7398C57.3883 20.7977 59.6838 22.9166 59.6838 25.5654V32.099C59.6838 34.7475 57.3883 37.0431 54.7398 37.0431H53.6804C54.0334 37.5728 54.0334 38.2792 54.0334 38.9856V47.638C54.0334 50.2865 51.9146 52.4057 49.2657 52.4057H4.94406C2.29554 52.4057 0 50.2868 0 47.638V10.2033C0 7.5548 2.29554 5.25925 4.94406 5.25925H27.3694L38.3171 0.138482C39.0235 -0.214532 39.9063 0.138481 40.2596 0.844882L42.3784 5.25925L42.3792 5.25879ZM54.74 23.7996H43.2623C42.2029 23.7996 41.4965 24.506 41.4965 25.5653V32.0989C41.4965 33.1583 42.2029 34.0414 43.2623 34.0414H54.74C55.7994 34.0414 56.6825 33.1587 56.6825 32.0989V25.5653C56.6825 24.506 55.7998 23.7996 54.74 23.7996Z" fill="#00255B"/>
<path fill-rule="evenodd" clip-rule="evenodd" d="M49.089 28.9205C49.089 30.1881 48.061 31.2161 46.7935 31.2161C45.5255 31.2161 44.4979 30.1881 44.4979 28.9205C44.4979 27.6526 45.5255 26.625 46.7935 26.625C48.061 26.625 49.089 27.6526 49.089 28.9205Z" fill="#00255B"/>
</svg>
