<svg width="24" height="24" viewBox="0 0 24 24" fill="none" xmlns="http://www.w3.org/2000/svg">
<rect x="0.5" y="0.5" width="23" height="23" rx="4.5" fill="white" stroke="#00255B"/>
<path d="M17.7543 3C19.3294 3 20.6398 4.23686 20.6398 5.88007C20.6398 6.28122 20.5503 6.80219 20.4148 7.16817C19.6425 8.82819 18.8625 10.4914 18.0861 12.1519C18.0286 12.2752 17.896 12.3601 17.7599 12.3601H12.7199C11.8161 12.3601 11.1 13.0764 11.1 13.98C11.1 14.8838 11.8163 15.6 12.7199 15.6H15.4199C16.9095 15.6 18.1199 16.8104 18.1199 18.3C18.1199 19.7896 16.9095 21 15.4199 21H6.23988C6.10377 21 5.97118 20.9152 5.91369 20.7918C5.03741 18.9221 4.1216 17.0658 3.25313 15.1951C3.10522 14.8016 3 14.2441 3 13.8002C3 11.972 4.46765 10.5601 6.24579 10.5601C8.02394 10.5601 9.48002 11.9731 9.48002 13.8002C9.48002 14.2445 9.37367 14.8026 9.22689 15.1951C8.42483 16.8893 7.61473 18.5852 6.80813 20.2801H15.4202C16.5233 20.2801 17.4003 19.4033 17.4003 18.3C17.4003 17.1969 16.5235 16.32 15.4202 16.32H12.7202C11.4301 16.32 10.3801 15.2701 10.3801 13.9799C10.3801 12.6898 11.4301 11.6399 12.7202 11.6399H17.1919C16.4981 10.1485 15.7865 8.66227 15.1049 7.16817C14.9705 6.80318 14.8799 6.2816 14.8799 5.88007C14.8799 4.23802 16.179 3 17.7543 3L17.7543 3ZM17.7543 3.71994C16.5457 3.71994 15.5999 4.60853 15.5999 5.87991C15.5999 6.14609 15.698 6.68927 15.78 6.91488C16.4359 8.32554 17.0994 9.73542 17.7601 11.1449C18.405 9.72848 19.0728 8.35874 19.7401 6.91488C19.8222 6.69001 19.9202 6.14673 19.9202 5.87991C19.9202 4.60953 18.9631 3.71994 17.7545 3.71994H17.7543ZM17.7598 4.61994C18.4514 4.61994 19.0197 5.18836 19.0197 5.87991C19.0197 6.57147 18.4513 7.13988 17.7598 7.13988C17.0682 7.13988 16.4998 6.57147 16.4998 5.87991C16.4998 5.18836 17.0682 4.61994 17.7598 4.61994ZM17.7598 5.33988C17.4573 5.33988 17.2197 5.57743 17.2197 5.87991C17.2197 6.18239 17.4573 6.41994 17.7598 6.41994C18.0623 6.41994 18.2998 6.18239 18.2998 5.87991C18.2998 5.57743 18.0623 5.33988 17.7598 5.33988ZM6.24521 11.2799C4.84172 11.2799 3.71961 12.3504 3.71961 13.7998C3.71961 14.1073 3.82722 14.6658 3.92779 14.9362C4.69433 16.5567 5.4684 18.1768 6.2397 19.7962C6.99506 18.1694 7.80265 16.5295 8.55162 14.9362C8.65194 14.6652 8.75979 14.1068 8.75979 13.7998C8.75979 12.3493 7.64887 11.2799 6.24535 11.2799H6.24521ZM6.23969 12.18C7.13014 12.18 7.85963 12.9096 7.85963 13.8C7.85963 14.6904 7.13001 15.4199 6.23969 15.4199C5.34923 15.4199 4.61975 14.6903 4.61975 13.8C4.61975 12.9095 5.34936 12.18 6.23969 12.18ZM6.23969 12.9C5.73832 12.9 5.33969 13.2986 5.33969 13.8C5.33969 14.3013 5.73832 14.7 6.23969 14.7C6.74105 14.7 7.13969 14.3013 7.13969 13.8C7.13969 13.2986 6.74105 12.9 6.23969 12.9Z" fill="#00255B"/>
</svg>
