<svg width="60" height="60" viewBox="0 0 60 60" fill="none" xmlns="http://www.w3.org/2000/svg">
<circle cx="30" cy="30" r="29.5" stroke="#B3B3B3"/>
<path d="M17.4269 43.3654C14.9883 43.3654 13 41.3771 13 38.9385V24.4509C13 22.0123 14.9883 20.024 17.4269 20.024H21.7154L23.124 16.5154L23.1238 16.5157C23.2422 16.208 23.5364 16.0037 23.866 16H35.134H35.1338C35.4633 16.0036 35.7575 16.208 35.876 16.5157L37.2846 20.0243H41.5731C44.0117 20.0243 46 22.0126 46 24.4512V38.9387C46 41.3773 44.0117 43.3656 41.5731 43.3656H17.4272L17.4269 43.3654ZM17.4269 41.7558H41.5728C43.1473 41.7558 44.3898 40.5133 44.3898 38.9388V24.4513C44.3898 22.8768 43.1473 21.6343 41.5728 21.6343H36.7437V21.634C36.4172 21.6324 36.1242 21.4336 36.0018 21.131L34.5931 17.6097H24.4066L22.9979 21.131C22.8755 21.4336 22.5825 21.6324 22.256 21.634H17.4269C15.8524 21.634 14.6099 22.8765 14.6099 24.451V38.9385C14.6099 40.5131 15.8524 41.7555 17.4269 41.7555V41.7558ZM29.4998 39.341C25.2866 39.341 21.8536 35.9082 21.8536 31.6948C21.8536 27.4816 25.2865 24.0486 29.4998 24.0486C33.7134 24.0486 37.1461 27.4815 37.1461 31.6948C37.1461 35.9082 33.7132 39.341 29.4998 39.341ZM29.4998 37.7315C32.8431 37.7315 35.5363 35.0383 35.5363 31.695C35.5363 28.3517 32.8431 25.6585 29.4998 25.6585C26.1566 25.6585 23.4634 28.3517 23.4634 31.695C23.4634 35.0383 26.1566 37.7315 29.4998 37.7315Z" fill="#B3B3B3"/>
</svg>
