<svg width="24" height="24" viewBox="0 0 24 24" fill="none" xmlns="http://www.w3.org/2000/svg">
<circle cx="12" cy="12" r="12" fill="#00255B"/>
<path d="M3.46875 15.53V8.9668C3.46875 8.26225 4.04406 7.6875 4.74939 7.6875H16.9244C17.6297 7.6875 18.2051 8.26221 18.2051 8.9668V9.35621H17.3513C16.9058 9.35621 16.5533 9.70851 16.5533 10.1534V10.3573C15.9593 10.2461 15.4953 9.72699 15.4953 9.09666C15.4953 8.98544 15.5138 8.87422 15.5325 8.78149H6.06712C6.08563 8.8556 6.08563 8.92983 6.08563 9.02255C6.08563 9.72711 5.51032 10.3203 4.7865 10.3203C4.71232 10.3203 4.63801 10.3203 4.56382 10.3018V14.2138C4.63801 14.1953 4.71232 14.1953 4.7865 14.1953C5.49179 14.1953 6.08563 14.77 6.08563 15.4931C6.08563 15.5672 6.08563 15.6599 6.06712 15.7342H13.992V16.6983C13.992 16.7354 13.992 16.791 14.0105 16.8281L4.73079 16.8279C4.02562 16.8094 3.46881 16.2345 3.46881 15.5301L3.46875 15.53ZM19.0216 16.0491H17.3327C17.2585 16.0491 17.2027 16.1048 17.2027 16.179V16.6796C17.2027 16.7537 17.2584 16.8095 17.3327 16.8095H19.0216C19.0958 16.8095 19.1516 16.7538 19.1516 16.6796V16.179C19.1515 16.1048 19.0958 16.0491 19.0216 16.0491ZM19.0216 15.0479H17.3327C17.2585 15.0479 17.2027 15.1035 17.2027 15.1778V15.6784C17.2027 15.7525 17.2584 15.8082 17.3327 15.8082H19.0216C19.0958 15.8082 19.1516 15.7526 19.1516 15.6784V15.1778C19.1515 15.1035 19.0958 15.0479 19.0216 15.0479ZM19.0216 14.0468H17.3327C17.2585 14.0468 17.2027 14.1024 17.2027 14.1767V14.6587C17.2027 14.7328 17.2584 14.7885 17.3327 14.7885H19.0216C19.0958 14.7885 19.1516 14.7329 19.1516 14.6587V14.158C19.1515 14.1024 19.0958 14.0468 19.0216 14.0468ZM19.0216 13.0456H17.3327C17.2585 13.0456 17.2027 13.1012 17.2027 13.1754V13.676C17.2027 13.7501 17.2584 13.8059 17.3327 13.8059H19.0216C19.0958 13.8059 19.1516 13.7503 19.1516 13.676V13.1754C19.1515 13.1013 19.0958 13.0456 19.0216 13.0456ZM19.0216 12.0445H17.3327C17.2585 12.0445 17.2027 12.1001 17.2027 12.1743V12.6749C17.2027 12.749 17.2584 12.8048 17.3327 12.8048H19.0216C19.0958 12.8048 19.1516 12.7492 19.1516 12.6749V12.1743C19.1515 12.1001 19.0958 12.0445 19.0216 12.0445ZM19.0216 11.0247H17.3327C17.2585 11.0247 17.2027 11.0803 17.2027 11.1546V11.6552C17.2027 11.7293 17.2584 11.785 17.3327 11.785H19.0216C19.0958 11.785 19.1516 11.7294 19.1516 11.6552V11.1546C19.1515 11.0803 19.0958 11.0247 19.0216 11.0247ZM19.0216 10.0236H17.3327C17.2585 10.0236 17.2027 10.0792 17.2027 10.1535V10.6541C17.2027 10.7282 17.2584 10.7839 17.3327 10.7839H19.0216C19.0958 10.7839 19.1516 10.7283 19.1516 10.6541V10.1535C19.1515 10.0792 19.0958 10.0236 19.0216 10.0236ZM21.6199 16.0492H19.9309C19.8568 16.0492 19.801 16.1048 19.801 16.179V16.6796C19.801 16.7537 19.8566 16.8095 19.9309 16.8095H21.6199C21.6941 16.8095 21.7499 16.7539 21.7499 16.6796V16.179C21.7312 16.1048 21.6756 16.0492 21.6199 16.0492ZM21.6199 15.0479H19.9309C19.8568 15.0479 19.801 15.1036 19.801 15.1778V15.6784C19.801 15.7525 19.8566 15.8082 19.9309 15.8082H21.6199C21.6941 15.8082 21.7499 15.7526 21.7499 15.6784V15.1778C21.7312 15.1036 21.6756 15.0479 21.6199 15.0479ZM21.6199 14.0468H19.9309C19.8568 14.0468 19.801 14.1025 19.801 14.1767L19.8011 14.6587C19.8011 14.7328 19.8568 14.7885 19.9311 14.7885H21.62C21.6942 14.7885 21.75 14.7329 21.75 14.6587V14.1581C21.7312 14.1025 21.6756 14.0468 21.6199 14.0468ZM16.4418 16.0492H14.7528C14.6787 16.0492 14.6229 16.1048 14.6229 16.179V16.6796C14.6229 16.7537 14.6785 16.8095 14.7528 16.8095H16.4418C16.516 16.8095 16.5718 16.7539 16.5718 16.6796V16.179C16.5716 16.1048 16.516 16.0492 16.4418 16.0492ZM16.5716 15.1778C16.5716 15.1037 16.516 15.0479 16.4417 15.0479H14.7527C14.6785 15.0479 14.6227 15.1036 14.6227 15.1778V15.6784C14.6227 15.7525 14.6784 15.8083 14.7527 15.8083H16.4417C16.5158 15.8083 16.5716 15.7526 16.5716 15.6784V15.1778ZM16.5716 14.1766C16.5716 14.1025 16.516 14.0467 16.4417 14.0467H14.7527C14.6785 14.0467 14.6227 14.1023 14.6227 14.1766L14.6229 14.6587C14.6229 14.7328 14.6785 14.7885 14.7528 14.7885H16.4418C16.516 14.7885 16.5718 14.7329 16.5718 14.6587L16.5716 14.1766ZM16.5716 13.1569C16.5716 13.0828 16.516 13.0271 16.4417 13.0271H14.7527C14.6785 13.0271 14.6227 13.0827 14.6227 13.1569V13.6576C14.6227 13.7317 14.6784 13.7874 14.7527 13.7874H16.4417C16.5158 13.7874 16.5716 13.7318 16.5716 13.6576V13.1569ZM16.5716 12.1557C16.5716 12.0816 16.516 12.0259 16.4417 12.0259H14.7527C14.6785 12.0259 14.6227 12.0815 14.6227 12.1557V12.6563C14.6227 12.7304 14.6784 12.7862 14.7527 12.7862H16.4417C16.5158 12.7862 16.5716 12.7306 16.5716 12.6563V12.1557ZM10.8182 9.44891C12.3586 9.44891 13.6206 10.6911 13.6206 12.2484C13.6206 13.7873 12.3772 15.048 10.8182 15.048C9.25922 15.048 8.03426 13.7873 8.03426 12.2484C8.03426 10.7096 9.27784 9.44891 10.8182 9.44891ZM5.97415 12.2484C5.97415 12.6748 6.32682 13.0271 6.75365 13.0271C7.18049 13.0271 7.53315 12.6748 7.53315 12.2484C7.53315 11.8221 7.18049 11.4698 6.75365 11.4698C6.32682 11.4698 5.97415 11.8221 5.97415 12.2484Z" fill="white"/>
<circle cx="11" cy="12" r="3" fill="white"/>
<path d="M12.81 11.6918V12.0469H9.18781V11.6918H12.81ZM12.81 12.4588V12.8139H9.18781V12.4588H12.81ZM12.5206 10.3636V14H11.8565L10.2762 11.7113H10.2478V14H9.48078V10.3636H10.1537L11.7251 12.6506H11.7553V10.3636H12.5206Z" fill="#00255B"/>
</svg>
