<svg width="24" height="24" viewBox="0 0 24 24" fill="none" xmlns="http://www.w3.org/2000/svg">
<path d="M12 0C9.62663 0 7.30655 0.703788 5.33316 2.02236C3.35977 3.34094 1.8217 5.21509 0.913451 7.4078C0.00519939 9.60051 -0.232441 12.0133 0.230582 14.3411C0.693605 16.6689 1.83649 18.8071 3.51472 20.4853C5.19295 22.1635 7.33115 23.3064 9.65892 23.7694C11.9867 24.2324 14.3995 23.9948 16.5922 23.0866C18.7849 22.1783 20.6591 20.6402 21.9776 18.6668C23.2962 16.6935 24 14.3734 24 12C24 8.8174 22.7357 5.76516 20.4853 3.51472C18.2349 1.26428 15.1826 0 12 0V0ZM16.9512 16.2312H7.03681C6.805 16.2443 6.57604 16.1748 6.39062 16.0351C6.20519 15.8954 6.07529 15.6944 6.02401 15.468C6.00811 15.389 6.00087 15.3085 6.00241 15.228V8.7888C5.99476 8.65025 6.01687 8.51168 6.06724 8.38239C6.11761 8.2531 6.19508 8.13609 6.29444 8.03923C6.3938 7.94237 6.51274 7.86791 6.64327 7.82085C6.7738 7.77379 6.9129 7.75523 7.05121 7.7664H16.9656C17.1019 7.75561 17.239 7.77407 17.3676 7.82054C17.4962 7.86701 17.6134 7.94043 17.7114 8.03587C17.8093 8.13131 17.8857 8.24657 17.9355 8.37394C17.9853 8.50131 18.0073 8.63784 18 8.7744C18 10.9248 18 13.0744 18 15.2232C18.0055 15.3606 17.9819 15.4975 17.9306 15.6251C17.8792 15.7526 17.8015 15.8678 17.7023 15.9631C17.6032 16.0584 17.485 16.1315 17.3555 16.1777C17.2261 16.224 17.0882 16.2422 16.9512 16.2312Z" fill="#00255B"/>
<path d="M16.5406 9.84014C16.5694 9.81134 16.5982 9.78494 16.6246 9.75614C16.6817 9.69497 16.7211 9.61947 16.7387 9.53767C16.7564 9.45587 16.7515 9.37083 16.7247 9.29157C16.6979 9.21231 16.6501 9.1418 16.5864 9.08753C16.5227 9.03326 16.4455 8.99725 16.363 8.98334C16.2757 8.96596 16.1853 8.97189 16.1011 9.00055C16.0168 9.0292 15.9416 9.07955 15.883 9.14654L12.3382 12.5833C12.3001 12.6378 12.2495 12.6823 12.1906 12.713C12.1317 12.7437 12.0662 12.7597 11.9998 12.7597C11.9333 12.7597 11.8679 12.7437 11.809 12.713C11.75 12.6823 11.6994 12.6378 11.6614 12.5833L8.15977 9.18734C8.12254 9.14925 8.08328 9.1132 8.04217 9.07934C7.97945 9.0268 7.90434 8.99116 7.82397 8.97581C7.74361 8.96046 7.66065 8.96591 7.58298 8.99164C7.50531 9.01737 7.43551 9.06252 7.3802 9.12282C7.32489 9.18311 7.28591 9.25654 7.26697 9.33614C7.24693 9.42363 7.25183 9.51498 7.2811 9.59983C7.31037 9.68467 7.36285 9.75961 7.43257 9.81614L9.57337 11.9017L9.67417 12.0001L9.56617 12.1081L7.42777 14.1769C7.36507 14.2282 7.31635 14.2944 7.28614 14.3695C7.25593 14.4446 7.2452 14.5262 7.25497 14.6065C7.26539 14.6946 7.30141 14.7777 7.35857 14.8455C7.41573 14.9134 7.49152 14.9629 7.57657 14.9881C7.66759 15.0222 7.76681 15.0278 7.86109 15.0042C7.95536 14.9806 8.04027 14.929 8.10457 14.8561L10.2646 12.7681L10.3606 12.6793C10.627 12.9481 10.891 13.2001 11.1502 13.4401C11.2585 13.5574 11.3899 13.6509 11.5361 13.7149C11.6823 13.7788 11.8402 13.8118 11.9998 13.8118C12.1594 13.8118 12.3172 13.7788 12.4634 13.7149C12.6097 13.6509 12.7411 13.5574 12.8494 13.4401C13.111 13.2001 13.3798 12.9601 13.6798 12.6745C13.6965 12.7118 13.7183 12.7465 13.7446 12.7777C14.319 13.3377 14.8958 13.8977 15.475 14.4577C15.6262 14.6041 15.7774 14.7553 15.9334 14.8969C15.9983 14.9588 16.0792 15.0013 16.167 15.0195C16.2548 15.0378 16.346 15.0311 16.4302 15.0001C16.513 14.9748 16.5868 14.9264 16.6429 14.8604C16.6991 14.7945 16.7352 14.7139 16.747 14.6281C16.7577 14.5442 16.746 14.4589 16.7131 14.3809C16.6802 14.303 16.6273 14.2351 16.5598 14.1841C15.8462 13.4961 15.1334 12.8065 14.4214 12.1153L14.3086 12.0001C14.3527 11.9687 14.3951 11.9351 14.4358 11.8993L16.5406 9.84014Z" fill="#00255B"/>
</svg>
