<svg width="17" height="17" viewBox="0 0 17 17" fill="none" xmlns="http://www.w3.org/2000/svg">
<path d="M4.98962 12.0106C4.72475 12.0106 4.526 12.2314 4.526 12.4742C4.526 12.7391 4.7468 12.9379 4.98962 12.9379H12.0107C12.2756 12.9379 12.4743 12.7171 12.4743 12.4742C12.4743 12.2094 12.2535 12.0106 12.0107 12.0106H4.98962Z" fill="#B3B3B3"/>
<path d="M8.49998 6.00525L7.15315 8.7872L3.86346 6.11571L5.25451 11.5251H11.7455L13.1365 6.11571L9.84682 8.7872L8.49998 6.00525Z" fill="#B3B3B3"/>
<path d="M3.04651 4.83504C3.24527 4.813 3.37764 4.63627 3.37764 4.43766C3.37764 4.21686 3.20105 4.04028 2.98026 4.04028C2.75946 4.04028 2.58289 4.21687 2.58289 4.43766C2.58289 4.65846 2.75947 4.83504 2.98026 4.83504H3.04652H3.04651Z" fill="#B3B3B3"/>
<path d="M8.89748 4.43766C8.89748 4.65707 8.71964 4.83504 8.5001 4.83504C8.28055 4.83504 8.10272 4.65707 8.10272 4.43766C8.10272 4.21811 8.28055 4.04028 8.5001 4.04028C8.71964 4.04028 8.89748 4.21811 8.89748 4.43766Z" fill="#B3B3B3"/>
<path d="M8.5 0C3.79706 0 0 3.79741 0 8.5C0 13.2026 3.79741 17 8.5 17C13.2026 17 17 13.2026 17 8.5C17 3.79741 13.2026 0 8.5 0ZM13.9974 5.32071C13.9312 5.32071 13.8871 5.32071 13.8208 5.29867L12.2091 11.5469C12.6285 11.6352 12.9378 12.0105 12.9378 12.4742C12.9378 13.0041 12.5183 13.4235 11.9884 13.4235H4.98938C4.45947 13.4235 4.04006 13.0041 4.04006 12.4742C4.04006 12.0326 4.34915 11.6573 4.76871 11.5469L3.15699 5.29867C3.11277 5.32071 3.04666 5.32071 2.9804 5.32071C2.49471 5.32071 2.11937 4.92333 2.11937 4.45967C2.11937 3.97398 2.51675 3.59864 2.9804 3.59864C3.4661 3.59864 3.84144 3.99601 3.84144 4.45967C3.84144 4.76876 3.68689 5.03379 3.44406 5.18832L6.97659 8.05859L8.30125 5.29881C7.90388 5.21052 7.61682 4.85722 7.61682 4.45981C7.61682 3.97412 8.01419 3.59878 8.47785 3.59878C8.94151 3.59878 9.33889 3.99615 9.33889 4.45981C9.33889 4.87922 9.05184 5.23253 8.65445 5.29881L9.97911 8.05859L13.5116 5.18832C13.291 5.01159 13.1364 4.74673 13.1364 4.43764C13.1364 3.95194 13.5338 3.5766 13.9975 3.5766C14.4832 3.5766 14.8585 3.97398 14.8585 4.43764C14.8806 4.92333 14.4832 5.32071 13.9975 5.32071H13.9974Z" fill="#B3B3B3"/>
<path d="M13.9974 4.06238C13.7766 4.06238 13.6 4.23896 13.6 4.45975C13.6 4.65852 13.7546 4.81306 13.9312 4.85713H13.9754C14.1962 4.85713 14.3728 4.68055 14.3728 4.45975C14.3948 4.23895 14.2182 4.06238 13.9974 4.06238H13.9974Z" fill="#B3B3B3"/>
</svg>
