<svg width="23" height="19" viewBox="0 0 23 19" fill="none" xmlns="http://www.w3.org/2000/svg">
<path d="M10.7028 8.81437L10.7273 8.76524C12.1017 6.48275 11.7581 3.56195 9.86818 1.67208C7.63482 -0.561451 3.95312 -0.561451 1.69509 1.69673C-0.194823 3.58665 -0.538436 6.50732 0.835973 8.78989L5.79382 15.7849L10.7028 8.81437ZM2.75063 2.72751C4.41952 1.05862 7.16851 1.05862 8.83749 2.72751C10.2366 4.12659 10.5064 6.28632 9.50021 7.97988L5.79401 13.2323L2.08794 8.00443C1.0816 6.31086 1.35159 4.15114 2.75067 2.72751H2.75063Z" fill="#5690FF"/>
<path d="M8.19941 5.91818C8.19941 4.54378 7.0703 3.41467 5.69589 3.41467C4.32149 3.41467 3.19238 4.54378 3.19238 5.91818C3.19238 7.29259 4.32149 8.4217 5.69589 8.4217C7.07048 8.44635 8.19941 7.31727 8.19941 5.91818ZM5.69607 6.97366C5.13161 6.97366 4.66523 6.50728 4.66523 5.94282C4.66523 5.37835 5.13161 4.91198 5.69607 4.91198C6.26053 4.91198 6.72691 5.37835 6.72691 5.94282C6.72691 6.50728 6.26053 6.97366 5.69607 6.97366Z" fill="#5690FF"/>
<path d="M21.1828 1.69643C18.9248 -0.561733 15.2432 -0.561733 12.9852 1.69643L14.016 2.72727C15.6849 1.05838 18.4339 1.05838 20.1029 2.72727C21.502 4.12635 21.7718 6.28607 20.7656 7.97964L17.0841 13.232L13.3779 7.97964L12.1753 8.81409L17.0841 15.7845L21.9928 8.81409L22.0173 8.76495C23.4164 6.50692 23.0728 3.58621 21.1829 1.69634L21.1828 1.69643Z" fill="#5690FF"/>
<path d="M16.9859 8.44635C18.3603 8.44635 19.4894 7.31725 19.4894 5.94284C19.4894 4.56843 18.3603 3.43933 16.9859 3.43933C15.6115 3.43933 14.4824 4.56843 14.4824 5.94284C14.4826 7.31725 15.6115 8.44635 16.9859 8.44635ZM15.9551 5.91817C15.9551 5.3537 16.4215 4.88733 16.9859 4.88733C17.5504 4.88733 18.0168 5.3537 18.0168 5.91817C18.0168 6.48263 17.5504 6.94901 16.9859 6.94901C16.4215 6.97366 15.9551 6.50731 15.9551 5.91817Z" fill="#5690FF"/>
<path d="M5.54856 17.0366C5.0086 17.0366 4.56689 17.4783 4.56689 18.0183C4.56689 18.5582 5.0086 18.9999 5.54856 18.9999C6.08852 18.9999 6.53022 18.5582 6.53022 18.0183C6.53022 17.4783 6.08852 17.0366 5.54856 17.0366ZM5.54856 18.5092C5.27857 18.5092 5.05773 18.2883 5.05773 18.0183C5.05773 17.7483 5.27858 17.5275 5.54856 17.5275C5.81855 17.5275 6.03939 17.7484 6.03939 18.0183C6.03939 18.2883 5.81854 18.5092 5.54856 18.5092Z" fill="#5690FF"/>
<path d="M8.49387 17.0366C7.95391 17.0366 7.51221 17.4783 7.51221 18.0183C7.51221 18.5582 7.95391 18.9999 8.49387 18.9999C9.03383 18.9999 9.47554 18.5582 9.47554 18.0183C9.47554 17.4783 9.03383 17.0366 8.49387 17.0366ZM8.49387 18.5092C8.22388 18.5092 8.00304 18.2883 8.00304 18.0183C8.00304 17.7483 8.22389 17.5275 8.49387 17.5275C8.76386 17.5275 8.9847 17.7484 8.9847 18.0183C8.9847 18.2883 8.76385 18.5092 8.49387 18.5092Z" fill="#5690FF"/>
<path d="M11.4392 17.0366C10.8992 17.0366 10.4575 17.4783 10.4575 18.0183C10.4575 18.5582 10.8992 18.9999 11.4392 18.9999C11.9791 18.9999 12.4208 18.5582 12.4208 18.0183C12.4208 17.4783 11.9791 17.0366 11.4392 17.0366ZM11.4392 18.5092C11.1692 18.5092 10.9484 18.2883 10.9484 18.0183C10.9484 17.7483 11.1692 17.5275 11.4392 17.5275C11.7092 17.5275 11.93 17.7484 11.93 18.0183C11.93 18.2883 11.7092 18.5092 11.4392 18.5092Z" fill="#5690FF"/>
<path d="M14.3845 17.0366C13.8445 17.0366 13.4028 17.4783 13.4028 18.0183C13.4028 18.5582 13.8445 18.9999 14.3845 18.9999C14.9245 18.9999 15.3662 18.5582 15.3662 18.0183C15.3663 17.4783 14.9245 17.0366 14.3845 17.0366ZM14.3845 18.5092C14.1145 18.5092 13.8937 18.2883 13.8937 18.0183C13.8937 17.7483 14.1145 17.5275 14.3845 17.5275C14.6545 17.5275 14.8753 17.7484 14.8753 18.0183C14.8753 18.2883 14.6545 18.5092 14.3845 18.5092Z" fill="#5690FF"/>
<path d="M17.3298 17.0366C16.7898 17.0366 16.3481 17.4783 16.3481 18.0183C16.3481 18.5582 16.7898 18.9999 17.3298 18.9999C17.8698 18.9999 18.3115 18.5582 18.3115 18.0183C18.3116 17.4783 17.8698 17.0366 17.3298 17.0366ZM17.3298 18.5092C17.0598 18.5092 16.839 18.2883 16.839 18.0183C16.839 17.7483 17.0598 17.5275 17.3298 17.5275C17.5998 17.5275 17.8206 17.7484 17.8206 18.0183C17.8208 18.2883 17.5998 18.5092 17.3298 18.5092Z" fill="#5690FF"/>
</svg>
