<svg width="15" height="14" viewBox="0 0 15 14" fill="none" xmlns="http://www.w3.org/2000/svg">
<path fill-rule="evenodd" clip-rule="evenodd" d="M7.486 1.00035C7.36903 1.00605 7.2678 1.08338 7.23151 1.19474L5.81558 5.44282H1.28116C1.15947 5.44321 1.05184 5.52152 1.01398 5.63711C0.976201 5.7528 1.01673 5.8796 1.11462 5.95181L4.79781 8.64501L3.38188 13.0412C3.344 13.1575 3.38562 13.2852 3.48478 13.357C3.58394 13.4287 3.71803 13.4283 3.81681 13.356L7.5 10.6628L11.1832 13.356C11.282 13.4283 11.4161 13.4287 11.5152 13.357C11.6144 13.2852 11.656 13.1576 11.6181 13.0413L10.2022 8.64511L13.8854 5.95191C13.9833 5.8797 14.0238 5.7528 13.986 5.63711C13.9481 5.52152 13.8405 5.44321 13.7188 5.44282H9.18442L7.76849 1.19474C7.72904 1.07364 7.6132 0.994052 7.486 1.00035Z" stroke="#FFC93D"/>
</svg>
