<svg width="19" height="18" viewBox="0 0 19 18" fill="none" xmlns="http://www.w3.org/2000/svg">
<path d="M11.5 14.6567H1.89548V13.5821C1.89548 12.7313 3.88803 11.7462 5.32087 11.3209C5.88057 11.1866 6.59707 11.0075 6.59707 10.1792V8.65686C6.99998 8.85832 7.44786 8.94795 7.91793 8.94795H7.96275C8.27617 8.94795 8.56727 8.90313 8.83589 8.81365L8.83573 10.179C8.83573 11.0073 9.55223 11.1864 10.1119 11.3208C10.2687 11.3656 12.0597 11.9253 13.0224 12.7536C13.1119 12.8208 13.2016 12.8656 13.3135 12.8656C13.4478 12.8656 13.5598 12.8208 13.6493 12.7088C13.8061 12.5297 13.7836 12.2385 13.6045 12.0819C12.4627 11.0968 10.4477 10.4923 10.3582 10.47H10.3359C10.1791 10.4251 9.77619 10.3357 9.73137 10.2685V10.2014V8.41027C10.5597 7.85056 11.097 6.91026 11.097 5.83571V4.13426C11.097 2.41033 9.68655 1 7.96279 1H7.91797C6.19404 1 4.78371 2.41049 4.78371 4.13426V5.83571C4.78371 6.70885 5.14196 7.49248 5.70166 8.05218C5.67902 8.07451 5.67902 8.11933 5.67902 8.16399V10.1788V10.2683C5.6342 10.3355 5.2313 10.4251 5.09697 10.4698H5.07464C4.64922 10.6041 1 11.7235 1 13.5817V15.1044C1 15.3506 1.20146 15.5521 1.44772 15.5521H11.5C11.7463 15.5521 11.9477 15.3506 11.9477 15.1044C11.9477 14.8581 11.7463 14.6566 11.5 14.6566V14.6567ZM5.67908 5.81337V4.13426C5.67908 2.90287 6.6865 1.89545 7.91789 1.89545H7.96271C9.19409 1.89545 10.2015 2.90287 10.2015 4.13426V5.83572C10.2015 7.0671 9.19409 8.07453 7.96271 8.07453H7.91789C6.66419 8.0522 5.67908 7.0446 5.67908 5.81337Z" fill="#B3B3B3" stroke="#B3B3B3" stroke-width="0.5"/>
<path d="M15.3285 6.03736V4.35826C15.3285 2.63433 13.918 1.224 12.1942 1.224H12.1494C11.9031 1.224 11.7017 1.42546 11.7017 1.67172C11.7017 1.91799 11.9031 2.11944 12.1494 2.11944H12.1942C13.4256 2.11944 14.433 3.12687 14.433 4.35826V6.05971C14.433 7.2911 13.4256 8.29853 12.1942 8.29853H12.1494C11.9031 8.29853 11.7017 8.49998 11.7017 8.74625C11.7017 8.99252 11.9031 9.19397 12.1494 9.19397H12.1942C12.6644 9.19397 13.1122 9.082 13.5151 8.90288L13.5149 10.1792C13.5149 11.0076 14.2314 11.1867 14.7911 11.321C14.9031 11.3658 15.9553 11.6792 16.8731 12.1941C16.9403 12.239 17.0074 12.2613 17.0971 12.2613C17.2539 12.2613 17.4105 12.1718 17.4776 12.0373C17.5896 11.8134 17.5225 11.5448 17.2985 11.4328C16.2463 10.8508 15.0821 10.4925 15.0374 10.4702H15.015C14.8582 10.4254 14.4553 10.3359 14.4105 10.2688V10.2016V8.27622C14.9702 7.6717 15.3285 6.91055 15.3285 6.03741L15.3285 6.03736Z" fill="#B3B3B3" stroke="#B3B3B3" stroke-width="0.5"/>
<path fill-rule="evenodd" clip-rule="evenodd" d="M13.4896 13.4657C14.1307 12.8448 15.1615 12.8448 15.8026 13.4657L16 13.6569L16.1974 13.4657C16.8385 12.8448 17.8693 12.8448 18.5104 13.4657C19.1634 14.0981 19.1634 15.1323 18.5104 15.7647L16.348 17.8591C16.1541 18.047 15.8462 18.047 15.6522 17.8591L13.4898 15.7647C12.8369 15.1324 12.8366 14.0982 13.4896 13.4657Z" fill="#B3B3B3"/>
</svg>
