<svg width="74" height="68" viewBox="0 0 74 68" fill="none" xmlns="http://www.w3.org/2000/svg">
<path d="M12.1872 14.8264V53.0958C12.1872 54.5708 13.3514 55.8129 14.9044 55.8129H58.918C60.393 55.8129 61.6351 54.6488 61.6351 53.0958L61.6346 14.8264C61.6346 13.3514 60.4704 12.1093 58.9174 12.1093H14.8262C13.3512 12.1872 12.1871 13.3514 12.1871 14.8264H12.1872ZM41.2191 21.3468C43.1597 21.3468 44.7121 22.8992 44.7121 24.8398C44.7121 26.7805 43.1597 28.3328 41.2191 28.3328C39.2785 28.3328 37.7261 26.7805 37.7261 24.8398C37.7261 22.8997 39.2785 21.3468 41.2191 21.3468ZM21.7351 44.4016L29.3423 27.2464C29.8859 26.0042 31.6712 26.0042 32.2143 27.2464L37.6485 39.4338C37.8039 39.8221 38.425 39.8995 38.6578 39.5112L42.3062 34.4659C42.9272 33.612 44.2468 33.612 44.8678 34.4659L51.8538 44.0916C52.6303 45.1009 51.8538 46.5759 50.6117 46.5759L23.2099 46.5753C22.0452 46.6533 21.2693 45.4886 21.7349 44.4018L21.7351 44.4016Z" fill="#00255B"/>
<path d="M3.02739 19.6392C4.73515 19.6392 6.05478 18.2423 6.05478 16.6118V6.05478H16.6118C18.3196 6.05478 19.6392 4.6578 19.6392 3.02739C19.6392 1.39698 18.2423 0 16.6118 0H3.02739C1.31963 0 0 1.39698 0 3.02739V16.6118C0 18.3196 1.39698 19.6392 3.02739 19.6392Z" fill="#00255B"/>
<path d="M16.6118 61.9452H6.05478V51.3881C6.05478 49.6803 4.6578 48.3607 3.02739 48.3607C1.39698 48.3607 0 49.7577 0 51.3881V64.9726C0 66.6803 1.39698 68 3.02739 68H16.6118C18.3196 68 19.6392 66.603 19.6392 64.9726C19.6392 63.2648 18.3197 61.9452 16.6118 61.9452Z" fill="#00255B"/>
<path d="M70.7168 48.3607C69.009 48.3607 67.6894 49.7577 67.6894 51.3881V61.9452H57.1323C55.4246 61.9452 54.1049 63.3421 54.1049 64.9726C54.1049 66.6803 55.5019 68 57.1323 68H70.7168C72.4245 68 73.7442 66.603 73.7442 64.9726V51.3881C73.7442 49.6803 72.3472 48.3607 70.7168 48.3607Z" fill="#00255B"/>
<path d="M70.7168 0H57.1323C55.4246 0 54.1049 1.39698 54.1049 3.02739C54.1049 4.6578 55.5019 6.05478 57.1323 6.05478H67.6894V16.6118C67.6894 18.3196 69.0863 19.6392 70.7168 19.6392C72.4245 19.6392 73.7442 18.2423 73.7442 16.6118V3.02739C73.7442 1.31963 72.3472 0 70.7168 0Z" fill="#00255B"/>
</svg>
