<svg width="12" height="9" viewBox="0 0 12 9" fill="none" xmlns="http://www.w3.org/2000/svg">
<path fill-rule="evenodd" clip-rule="evenodd" d="M8.93791 0.198628C9.4179 0.281395 9.81513 0.711708 9.88135 0.794473L10.6096 2.16824L11.7186 2.31723C11.851 2.33377 12 2.44962 12 2.58207V2.86345C12 2.99584 11.8842 3.09515 11.7683 3.09515H11.1228C11.2386 3.21099 11.7683 3.57514 11.7848 4.84953C11.8014 5.92537 11.8014 6.98465 11.8014 8.06052C11.8014 8.2426 11.6358 8.40813 11.4538 8.40813H9.86481C9.66619 8.40813 9.50066 8.24259 9.50066 8.06052V7.63021C7.16686 7.7792 4.83305 7.7792 2.48279 7.63021V8.06052C2.48279 8.2426 2.3338 8.40813 2.13519 8.40813H0.546217C0.347602 8.40813 0.198615 8.24259 0.198615 8.06052V4.84953C0.215155 3.57507 0.761375 3.21093 0.877225 3.09515H0.2317C0.0993127 3.09515 0 2.99584 0 2.86345V2.58207C0 2.44968 0.148994 2.33377 0.264837 2.31723L1.37381 2.16824L2.11865 0.794473C2.18487 0.711707 2.56556 0.281393 3.04555 0.198628C4.88273 -0.0662093 7.11728 -0.0662093 8.93783 0.198628H8.93791ZM7.64691 6.02474C7.74622 6.02474 7.82898 5.94197 7.82898 5.84267C7.82898 5.72682 7.74621 5.64405 7.64691 5.64405H4.35311C4.23727 5.64405 4.1545 5.72682 4.1545 5.84267C4.1545 5.94197 4.23726 6.02474 4.35311 6.02474H7.64691ZM7.64691 5.29645C7.74622 5.29645 7.82898 5.19714 7.82898 5.09783C7.82898 4.98199 7.74621 4.89922 7.64691 4.89922H4.35311C4.23727 4.89922 4.1545 4.98199 4.1545 5.09783C4.1545 5.19714 4.23726 5.29645 4.35311 5.29645H7.64691ZM10.0138 2.46619C9.79864 2.03588 9.60003 1.62205 9.38482 1.20828C9.23582 0.97658 9.05381 0.910358 8.88828 0.860678C6.9683 0.628978 5.03186 0.628978 3.11188 0.860678C2.92981 0.910365 2.76428 0.976525 2.61534 1.20828C2.40018 1.62205 2.18503 2.03588 1.96982 2.46619H10.0138ZM1.07595 4.86617H2.31732L2.81385 6.07445H1.07593L1.07595 4.86617ZM10.9076 4.86617H9.68279L9.16971 6.07445H10.9076L10.9076 4.86617Z" fill="#00255B"/>
</svg>
