<svg width="63" height="21" viewBox="0 0 63 21" fill="none" xmlns="http://www.w3.org/2000/svg">
<path d="M58.234 20.3174L57.6477 17.3862H51.0974L50.0551 20.2966L44.8049 20.307C47.3044 14.2964 49.8092 8.28794 52.3194 2.28177C52.7467 1.263 53.5049 0.744494 54.6227 0.749705C55.4773 0.757521 56.8713 0.75752 58.8072 0.752309L62.8666 20.3096L58.234 20.3174ZM52.5721 13.371H56.7931L55.2167 6.02335L52.5721 13.371ZM18.7285 0.747098L24.0074 0.752309L15.8468 20.32L10.5028 20.3148C9.15898 15.1462 7.83187 9.9733 6.52151 4.79613C6.26095 3.76433 5.74505 3.04259 4.75234 2.70126C3.86905 2.39641 2.39691 1.92742 0.333313 1.28905V0.754915H8.7675C10.2266 0.754915 11.0786 1.46102 11.3522 2.90971C11.6284 4.361 12.3215 8.05568 13.4367 13.9937L18.7285 0.747098ZM31.2613 0.752309L27.0872 20.3148L22.0636 20.3096L26.2325 0.747098L31.2613 0.752309ZM41.449 0.390137C42.9524 0.390137 44.8466 0.859137 45.9357 1.28905L45.0551 5.3459C44.0702 4.94986 42.4495 4.41572 41.0868 4.43396C39.1066 4.46783 37.882 5.299 37.882 6.0963C37.882 7.39387 40.0081 8.04786 42.1968 9.46529C44.6955 11.0807 45.0238 12.532 44.9925 14.1084C44.9587 17.381 42.1968 20.6092 36.3708 20.6092C33.7131 20.5702 32.7542 20.3461 30.5864 19.5774L31.5036 15.3434C33.7105 16.2684 34.6459 16.5628 36.5323 16.5628C38.2598 16.5628 39.7423 15.8645 39.7554 14.6477C39.7658 13.7827 39.2343 13.3528 37.2957 12.2845C35.3572 11.2136 32.637 9.73105 32.6735 6.75551C32.7178 2.94619 36.3265 0.390137 41.4516 0.390137H41.449Z" fill="white"/>
</svg>
