<svg width="375" height="812" viewBox="0 0 375 812" fill="none" xmlns="http://www.w3.org/2000/svg">
<g clip-path="url(#clip0_26_2)">
<rect width="375" height="812" fill="white"/>
<g opacity="0.5" clip-path="url(#clip1_26_2)">
<path d="M319.256 733.354L282.487 718.45L282.252 667.206L319.829 679.686L319.256 733.354Z" fill="url(#paint0_linear_26_2)"/>
<path d="M319.829 679.686L282.252 667.206L321.914 660.035L359.491 672.54L319.829 679.686Z" fill="#F0D7A5"/>
<path d="M359.491 672.54L358.944 723.174L319.256 733.354L319.829 679.686L359.491 672.54Z" fill="#E3B989"/>
<path d="M339.634 666.227C339.634 666.227 339.035 666.373 338.019 666.594C336.976 666.814 335.517 667.206 333.745 667.524C330.175 668.209 325.432 669.114 320.689 670.02C315.947 670.925 311.204 671.855 307.634 672.54C305.862 672.908 304.35 673.079 303.308 673.25C302.266 673.421 301.666 673.495 301.666 673.495C301.666 673.495 302.266 673.348 303.282 673.128C304.324 672.908 305.784 672.516 307.556 672.198C311.126 671.513 315.868 670.607 320.611 669.702C325.354 668.796 330.097 667.866 333.667 667.206C335.439 666.838 336.95 666.667 337.993 666.496C339.035 666.325 339.634 666.227 339.634 666.227Z" fill="#C09A6E"/>
<path opacity="0.3" d="M336.116 664.807L343.465 667.206L306.018 675.037L296.793 672.027L336.116 664.807Z" fill="url(#paint1_linear_26_2)"/>
<path d="M296.898 678.12L305.601 682.109L306.018 675.037L296.793 672.027L296.898 678.12Z" fill="url(#paint2_linear_26_2)"/>
<g filter="url(#filter0_d_26_2)">
<path d="M230.629 784.158L147.241 755.085L150.446 635.392L233.835 664.465L230.629 784.158Z" fill="url(#paint3_linear_26_2)"/>
<path d="M216.245 658.322L150.446 635.392V749.555L215.281 778.799L216.245 658.322Z" fill="url(#paint4_linear_26_2)"/>
<path d="M216.245 658.322L150.446 635.392V749.555L215.281 778.799L216.245 658.322Z" fill="url(#paint5_linear_26_2)"/>
<path d="M233.835 664.465L150.446 635.392L239.177 620.708L322.566 649.757L233.835 664.465Z" fill="url(#paint6_linear_26_2)"/>
<path d="M322.566 649.757L319.361 763.406L230.63 784.158L233.835 664.465L322.566 649.757Z" fill="url(#paint7_linear_26_2)"/>
<path opacity="0.7" d="M277.041 742.335C276.78 741.65 275.972 741.895 275.712 742.702L272.819 752.1C272.611 752.785 272.949 753.397 273.497 753.25L275.269 752.76V764.899L269.249 766.538L269.275 754.4L271.047 753.911C271.568 753.764 271.933 752.956 271.725 752.369L268.728 744.562C268.467 743.877 267.659 744.122 267.399 744.929L264.506 754.327C264.298 755.012 264.637 755.624 265.184 755.477L266.956 754.987L266.93 767.126L265.939 767.395C265.288 767.566 264.767 768.398 264.767 769.23C264.767 770.062 265.288 770.601 265.939 770.429L278.682 766.979C279.334 766.807 279.855 765.975 279.855 765.143C279.855 764.311 279.334 763.748 278.682 763.944L277.666 764.213L277.692 752.075L279.464 751.586C279.985 751.439 280.35 750.631 280.142 750.044L277.041 742.335Z" fill="#4D3C34"/>
<path opacity="0.55" d="M249.939 687.934L250.043 686.294L250.096 685.633C250.304 682.892 250.565 680.934 250.903 679.809C251.32 678.414 251.841 677.386 252.467 676.774C253.301 675.893 254.317 675.33 255.516 675.086C255.802 675.037 256.011 675.061 256.141 675.159C256.272 675.257 256.324 675.428 256.324 675.6C256.298 675.795 256.245 675.967 256.115 676.138C255.985 676.309 255.855 676.432 255.672 676.456L254.369 676.725C253.978 676.799 253.64 677.117 253.327 677.68C253.014 678.218 252.78 678.879 252.597 679.613C252.258 681.008 252.076 682.158 252.024 683.039V683.186L251.529 688.619C251.451 689.769 251.451 690.528 251.555 690.944C251.633 691.36 251.737 691.678 251.868 691.922C251.972 692.167 252.128 692.363 252.284 692.485C252.675 692.803 253.197 692.901 253.848 692.755C254.056 692.706 254.265 692.583 254.473 692.387C254.682 692.339 254.89 692.363 255.047 692.412C255.203 692.485 255.281 692.608 255.281 692.828C255.229 693.562 254.682 694.052 253.666 694.247C253.249 694.345 252.832 694.37 252.363 694.345C251.92 694.321 251.581 694.247 251.372 694.149C250.122 693.562 249.679 691.506 249.939 687.934Z" fill="#27273D"/>
<path opacity="0.55" d="M259.347 677.166L258.956 683.871C258.825 684.14 258.747 684.483 258.721 684.85L258.669 685.413L258.252 689.891C258.148 691.188 258.434 691.751 259.06 691.629L260.207 691.36C261.197 691.164 261.666 691.335 261.64 691.874C261.614 692.069 261.536 692.265 261.353 692.436C261.171 692.608 260.962 692.73 260.754 692.803C260.102 692.73 259.268 692.779 258.304 692.999C257.991 693.244 257.705 693.391 257.418 693.44C257.132 693.489 256.923 693.44 256.793 693.293C256.662 693.122 256.584 692.95 256.61 692.706C256.715 691.311 256.923 689.231 257.236 686.416C257.548 683.602 257.757 681.522 257.861 680.127L257.887 679.931C257.861 678.781 257.861 677.924 257.913 677.337C258.044 675.575 258.434 674.621 259.06 674.474C259.242 674.425 259.399 674.474 259.529 674.572C259.659 674.67 259.711 674.841 259.711 675.012L259.347 677.166Z" fill="#27273D"/>
<path opacity="0.55" d="M263.255 683.382L263.36 682.305C263.36 682.207 263.36 682.183 263.334 682.183L263.36 681.669C263.568 678.732 263.881 676.603 264.298 675.306C264.663 674.205 264.975 673.495 265.236 673.201C265.523 672.908 265.783 672.736 266.044 672.663C268.181 672.222 269.588 673.005 270.239 675.012C270.63 676.162 270.734 677.68 270.604 679.515L270.578 679.711L270.396 682.868C270.005 688.227 268.598 691.188 266.122 691.678C265.106 691.898 264.35 691.482 263.907 690.454C263.464 689.475 263.229 688.447 263.177 687.42C263.177 685.927 263.177 684.556 263.255 683.382ZM265.184 679.221L264.871 681.84C264.689 684.556 264.715 686.857 265.027 688.79C265.392 689.867 265.783 690.479 266.2 690.601C266.539 690.528 266.852 690.332 267.138 690.014C267.425 689.695 267.659 689.279 267.868 688.79C268.05 688.301 268.233 687.787 268.363 687.248C268.493 686.734 268.624 686.171 268.702 685.584C268.858 684.581 268.962 683.724 269.014 683.015C269.067 682.305 269.093 681.253 269.067 679.833C269.041 678.414 269.067 677.337 269.119 676.627L269.145 676.138C269.171 675.453 268.988 674.89 268.624 674.449C268.233 674.009 267.712 673.862 267.06 673.984C266.435 674.107 265.992 674.572 265.731 675.33C265.523 675.967 265.366 676.725 265.314 677.606L265.184 679.221Z" fill="#27273D"/>
<path opacity="0.55" d="M274.278 689.084L274.383 686.955C274.383 686.955 274.409 686.612 274.487 686C274.435 685.78 274.435 683.7 274.487 679.784C274.539 675.844 274.591 673.446 274.643 672.565C274.617 672.565 274.565 672.589 274.539 672.589C273.054 672.883 272.324 672.761 272.35 672.222C272.35 672.051 272.48 671.88 272.689 671.733C272.897 671.586 273.106 671.488 273.288 671.439L277.041 670.925L277.484 670.827C278.057 670.705 278.344 670.876 278.291 671.317C278.265 671.537 278.161 671.757 277.979 671.929C277.77 672.1 277.562 672.222 277.327 672.271L276.076 672.345L275.998 672.638C275.868 674.4 275.842 677.019 275.894 680.494C275.946 683.969 275.92 686.588 275.79 688.35C275.764 688.57 275.659 688.79 275.451 688.986C275.242 689.206 275.008 689.328 274.773 689.377L274.278 689.084Z" fill="#27273D"/>
<path opacity="0.55" d="M281.236 671.488L280.637 678.487C280.976 678.512 281.471 678.438 282.148 678.316L283.138 678.12C283.191 678.022 283.243 677.729 283.269 677.215C283.295 676.701 283.321 675.575 283.321 673.838C283.321 672.1 283.347 670.778 283.425 669.897C283.451 669.677 283.529 669.506 283.712 669.31C283.894 669.139 284.05 669.041 284.181 668.992C284.337 668.968 284.441 668.943 284.52 668.968C284.598 668.968 284.702 668.992 284.806 669.016C284.91 669.041 284.989 669.065 285.067 669.065C284.884 671.488 284.728 675.012 284.572 679.637C284.415 684.263 284.337 686.661 284.311 686.808C284.311 686.955 284.181 687.126 283.998 687.322C283.79 687.517 283.581 687.64 283.321 687.689C283.086 687.738 282.904 687.591 282.774 687.273C282.643 686.955 282.591 686.441 282.591 685.755C282.591 685.07 282.591 684.483 282.617 683.969C282.617 683.749 282.643 683.504 282.669 683.21C282.695 682.819 282.721 682.378 282.774 681.889C282.852 681.008 282.904 680.518 282.904 680.372V680.274L283.008 679.466L282.852 679.246V679.221C282.695 679.295 282.539 679.344 282.357 679.368L280.585 679.491L280.35 682.696L280.194 687.273C280.168 687.542 280.089 687.787 279.933 688.007C279.777 688.227 279.594 688.374 279.334 688.447C278.969 688.521 278.734 688.227 278.63 687.591C278.526 686.93 278.526 686.025 278.63 684.85L279.021 680.567C279.073 679.686 279.099 679.197 279.073 679.124V678.977C279.203 677.998 279.282 677.435 279.308 677.313L279.568 671.023C279.594 670.803 279.673 670.583 279.829 670.387C279.985 670.191 280.194 670.069 280.402 670.02C281.054 669.873 281.314 670.362 281.236 671.488Z" fill="#27273D"/>
<path opacity="0.55" d="M287.36 672.908L287.386 670.583C287.49 669.261 287.907 668.527 288.689 668.356C289.184 668.258 289.862 668.233 290.695 668.282C291.529 668.331 291.946 668.552 291.92 668.919C291.894 669.31 291.608 669.653 291.034 669.971C290.2 669.849 289.523 669.824 288.976 669.873C288.976 670.265 288.95 670.656 288.923 671.072L288.507 675.11C288.507 675.135 288.533 675.257 288.559 675.526L289.549 675.281C290.435 675.086 290.878 675.257 290.826 675.771C290.8 675.967 290.722 676.162 290.539 676.358C290.357 676.554 290.148 676.652 289.914 676.701C289.653 676.75 289.393 676.799 289.106 676.823L288.402 676.97C288.402 677.68 288.376 678.365 288.324 679.075L287.829 684.165C287.751 685.217 287.725 685.731 287.777 685.731L289.836 685.242C290.539 685.095 290.878 685.242 290.852 685.707C290.826 686 290.695 686.22 290.435 686.392C290.174 686.563 289.914 686.685 289.601 686.759L287.256 687.248C287.021 687.297 286.787 687.248 286.604 687.126C286.422 687.004 286.318 686.808 286.344 686.588L286.396 685.853L286.552 681.155L287.36 672.908Z" fill="#27273D"/>
<path opacity="0.55" d="M292.389 684.63L293.536 684.605C293.901 684.532 294.213 684.312 294.5 683.945C294.787 683.577 294.995 683.161 295.178 682.672C295.49 681.718 295.673 680.91 295.725 680.225C295.777 679.54 295.699 678.879 295.542 678.243C295.36 677.606 295.126 677.043 294.839 676.529C294.552 676.016 294.266 675.502 293.979 674.963C293.301 673.691 293.015 672.394 293.119 671.023C293.171 670.191 293.38 669.408 293.692 668.698C294.292 667.377 295.047 666.643 295.907 666.471C296.22 666.398 296.533 666.447 296.819 666.594C297.106 666.741 297.236 666.936 297.21 667.181C297.184 667.622 296.95 667.866 296.481 667.964C296.272 668.013 296.09 667.989 295.907 667.915C295.308 668.062 294.865 668.796 294.578 670.142C294.5 670.436 294.474 670.778 294.448 671.146C294.422 671.513 294.474 671.978 294.604 672.492C294.735 673.005 294.891 673.47 295.126 673.838C295.334 674.229 295.569 674.645 295.829 675.11C296.064 675.575 296.298 676.04 296.533 676.456C297.028 677.484 297.21 678.732 297.106 680.2C297.028 681.326 296.689 682.452 296.116 683.602C295.829 684.165 295.438 684.654 294.943 685.07C294.448 685.486 293.901 685.755 293.327 685.902V685.976C292.572 686.025 292.181 685.755 292.155 685.144L292.389 684.63Z" fill="#27273D"/>
</g>
<g filter="url(#filter1_d_26_2)">
<path d="M89.6501 735.336L36.3073 713.091L97.989 701.687L155.605 724.911L89.6501 735.336Z" fill="url(#paint8_linear_26_2)"/>
<path d="M89.1028 781.442L36.8545 754.057L36.3073 713.091L89.6501 735.336L89.1028 781.442Z" fill="url(#paint9_linear_26_2)"/>
<path d="M89.6501 735.336L155.606 724.911L155.084 768.912L89.1029 781.442L89.6501 735.336Z" fill="url(#paint10_linear_26_2)"/>
<mask id="mask0_26_2" style="mask-type:alpha" maskUnits="userSpaceOnUse" x="89" y="724" width="67" height="58">
<path d="M89.6501 735.336L155.606 724.911L155.084 768.912L89.1029 781.442L89.6501 735.336Z" fill="url(#paint11_linear_26_2)"/>
</mask>
<g mask="url(#mask0_26_2)">
<path d="M89.6501 735.336L155.606 724.911L155.084 768.912L89.1029 781.442L89.6501 735.336Z" fill="url(#paint12_linear_26_2)"/>
</g>
<path d="M128.895 713.238C128.895 713.238 127.905 713.434 126.133 713.801C125.247 713.972 124.204 714.192 122.98 714.461C121.755 714.731 120.4 715 118.862 715.245C112.817 716.297 104.764 717.692 96.7381 719.111C88.6859 720.506 80.6336 721.925 74.614 722.978C73.1026 723.271 71.7215 723.467 70.4706 723.638C69.2459 723.81 68.1514 723.957 67.2654 724.103C65.4934 724.348 64.4771 724.495 64.4771 724.495C64.4771 724.495 65.4673 724.299 67.2393 723.932C68.1253 723.761 69.1677 723.541 70.3925 723.271C71.6172 723.002 72.9723 722.733 74.5098 722.488C80.5555 721.436 88.6077 720.041 96.6339 718.622C104.686 717.227 112.738 715.807 118.758 714.755C120.269 714.461 121.651 714.266 122.901 714.094C124.126 713.923 125.221 713.776 126.107 713.629C127.879 713.36 128.895 713.238 128.895 713.238Z" fill="#C09A6E"/>
<path opacity="0.6" d="M118.862 712.185L127.462 714.877L67.3436 726.33L58.275 722.855L118.862 712.185Z" fill="url(#paint13_linear_26_2)"/>
<path opacity="0.6" d="M58.0665 734.333L66.666 739.986L67.0569 726.502L58.275 722.855L58.0665 734.333Z" fill="url(#paint14_linear_26_2)"/>
<g opacity="0.7">
<path opacity="0.7" d="M111.409 770.723L109.611 771.066V768.202C111.097 767.64 112.217 766.098 112.217 762.916C112.217 762.867 112.217 759.295 112.217 759.221L105.676 760.469C105.676 760.518 105.676 764.091 105.676 764.164C105.676 767.419 106.823 768.496 108.36 768.472V771.335L106.536 771.677C106.198 771.751 105.911 772.118 105.911 772.509C105.911 772.901 106.198 773.146 106.536 773.097L111.409 772.167C111.748 772.093 112.035 771.726 112.035 771.335C112.035 770.919 111.748 770.65 111.409 770.723Z" fill="#4D3C34"/>
<path opacity="0.7" d="M101.715 761.864C101.559 761.521 101.09 761.619 100.934 762.011L99.2399 766.636C99.1096 766.979 99.318 767.297 99.6307 767.224L100.673 767.028V773.097L97.1551 773.758V767.688L98.1975 767.493C98.5102 767.444 98.7187 767.028 98.5884 766.734L96.8424 762.77C96.6861 762.427 96.217 762.525 96.0607 762.916L94.3668 767.542C94.2365 767.884 94.445 768.202 94.7577 768.129L95.8001 767.933V774.002L95.2268 774.1C94.8359 774.174 94.5492 774.565 94.5492 774.981C94.5492 775.397 94.862 775.691 95.2268 775.618L102.68 774.198C103.044 774.125 103.357 773.733 103.357 773.317C103.357 772.901 103.044 772.607 102.68 772.681L102.08 772.803V766.734L103.123 766.538C103.435 766.489 103.644 766.073 103.514 765.78L101.715 761.864Z" fill="#4D3C34"/>
</g>
</g>
<path d="M142.42 739.986L96.712 720.653L97.4156 656.536L144.218 672.834L142.42 739.986Z" fill="url(#paint15_linear_26_2)"/>
<path d="M144.218 672.834L97.4156 656.536L147.214 648.289L194.017 664.587L144.218 672.834Z" fill="url(#paint16_linear_26_2)"/>
<path d="M194.016 664.587L192.218 731.763L142.42 739.986L144.218 672.834L194.016 664.587Z" fill="url(#paint17_linear_26_2)"/>
<path d="M169.286 656.34C169.286 656.34 168.557 656.487 167.254 656.78C166.602 656.927 165.821 657.099 164.908 657.294C163.996 657.49 162.98 657.71 161.86 657.882C157.377 658.665 151.436 659.742 145.468 660.794C139.501 661.846 133.559 662.898 129.077 663.706C127.957 663.926 126.94 664.073 126.028 664.195C125.116 664.318 124.309 664.44 123.657 664.538C122.354 664.734 121.598 664.832 121.598 664.832C121.598 664.832 122.328 664.685 123.631 664.391C124.282 664.244 125.064 664.073 125.976 663.902C126.888 663.706 127.905 663.486 129.025 663.314C133.507 662.531 139.449 661.455 145.416 660.402C151.384 659.35 157.325 658.298 161.807 657.49C162.928 657.27 163.944 657.123 164.856 657.001C165.768 656.878 166.576 656.756 167.228 656.658C168.531 656.438 169.286 656.34 169.286 656.34Z" fill="#C09A6E"/>
<path opacity="0.3" d="M164.882 654.504L174.029 657.637L127.019 666.765L115.553 662.849L164.882 654.504Z" fill="url(#paint18_linear_26_2)"/>
<path d="M115.553 670.46L126.367 675.6L127.019 666.765L115.553 662.849V670.46Z" fill="url(#paint19_linear_26_2)"/>
<g opacity="0.55">
<path opacity="0.55" d="M104.634 699.925L104.947 701.075C104.973 701.222 105.077 701.613 105.259 702.176C105.442 702.764 105.546 703.155 105.572 703.326V703.351C105.624 703.645 105.572 703.84 105.416 703.963C105.233 704.012 105.051 704.036 104.947 703.963C104.816 703.914 104.738 703.767 104.712 703.498C104.634 702.959 104.452 702.176 104.165 701.173L102.758 701.32C102.732 701.785 102.732 702.274 102.758 702.788C102.784 703.302 102.81 703.694 102.784 703.938C102.784 704.452 102.654 704.721 102.445 704.795C102.341 704.819 102.237 704.819 102.132 704.746C102.028 704.672 101.95 704.575 101.95 704.428V704.256C102.08 700.708 102.054 697.282 101.898 694.003C101.898 693.905 101.872 693.66 101.82 693.219C101.715 692.265 101.715 691.629 101.82 691.335L102.289 691.188C102.419 691.139 102.523 691.164 102.627 691.213C102.732 691.262 102.81 691.384 102.836 691.531C102.992 692.51 103.279 693.954 103.774 695.814C104.191 697.698 104.504 699.068 104.634 699.925ZM103.956 700.537C103.904 700.365 103.852 700.023 103.774 699.558C103.696 699.093 103.592 698.505 103.461 697.82C103.331 697.135 103.149 696.352 102.94 695.446C102.732 694.541 102.575 693.88 102.497 693.489C102.549 696.866 102.627 699.24 102.706 700.61C102.862 700.708 103.279 700.684 103.956 700.537Z" fill="#27273D"/>
<path opacity="0.55" d="M105.233 695.079L104.973 693.219C104.868 692.436 104.738 691.849 104.608 691.457C104.608 690.993 104.686 690.723 104.869 690.65L105.468 690.454C105.989 690.283 106.432 690.479 106.719 691.017C106.979 691.506 107.188 692.118 107.292 692.828C107.422 693.733 107.5 694.296 107.5 694.492C107.5 694.712 107.5 694.908 107.474 695.104C107.474 695.3 107.448 695.471 107.396 695.593C107.37 695.716 107.318 695.862 107.24 696.034C107.188 696.205 107.11 696.327 107.005 696.474C106.797 696.744 106.562 697.013 106.25 697.257L106.562 699.338L107.214 702.984C107.24 703.131 107.214 703.302 107.136 703.424C107.057 703.571 106.953 703.645 106.823 703.694L106.484 703.547C106.276 702.862 106.067 701.932 105.885 700.757L105.442 697.282C105.364 697.135 105.311 696.988 105.285 696.841V696.768C105.416 696.499 105.364 695.936 105.233 695.079ZM105.624 692.681L106.198 696.45V696.474C106.745 696.205 106.849 695.03 106.536 692.95C106.458 692.338 106.328 691.947 106.198 691.751C106.041 691.555 105.859 691.506 105.598 691.58C105.598 691.555 105.546 691.555 105.442 691.604L105.624 692.681Z" fill="#27273D"/>
<path opacity="0.55" d="M108.517 694.052L108.256 692.192C108.152 691.409 108.022 690.821 107.891 690.43C107.891 689.965 107.97 689.695 108.152 689.622L108.751 689.426C109.272 689.255 109.715 689.451 110.002 689.989C110.263 690.479 110.471 691.09 110.575 691.8C110.706 692.706 110.784 693.268 110.784 693.464C110.784 693.684 110.784 693.88 110.758 694.076C110.758 694.272 110.732 694.443 110.68 694.565C110.654 694.688 110.601 694.835 110.523 695.006C110.471 695.177 110.393 695.3 110.289 695.446C110.08 695.716 109.846 695.985 109.533 696.23L109.846 698.31L110.497 701.956C110.523 702.103 110.497 702.274 110.419 702.397C110.341 702.543 110.237 702.617 110.106 702.666L109.768 702.519C109.559 701.834 109.351 700.904 109.168 699.729L108.725 696.254C108.647 696.107 108.595 695.96 108.569 695.814V695.74C108.673 695.471 108.647 694.908 108.517 694.052ZM108.882 691.653L109.455 695.422V695.446C110.002 695.177 110.106 694.003 109.794 691.922C109.715 691.311 109.585 690.919 109.455 690.723C109.299 690.528 109.116 690.479 108.856 690.552C108.856 690.528 108.803 690.528 108.699 690.576L108.882 691.653Z" fill="#27273D"/>
<path opacity="0.55" d="M112.139 690.307L112.869 694.957C112.843 695.153 112.843 695.373 112.895 695.642L112.947 696.034L113.338 699.142C113.468 700.023 113.703 700.414 113.989 700.316L114.563 700.096C115.058 699.949 115.344 700.047 115.396 700.439C115.422 700.586 115.396 700.708 115.318 700.83C115.24 700.953 115.162 701.026 115.058 701.1C114.693 701.051 114.276 701.1 113.781 701.271C113.65 701.442 113.52 701.54 113.39 701.589C113.26 701.638 113.129 701.589 113.051 701.491C112.947 701.393 112.895 701.246 112.869 701.1C112.738 700.145 112.556 698.701 112.321 696.744C112.087 694.81 111.905 693.342 111.774 692.387L111.748 692.241C111.566 691.457 111.462 690.846 111.409 690.454C111.227 689.231 111.305 688.57 111.618 688.472C111.722 688.447 111.8 688.472 111.878 688.545C111.957 688.619 112.009 688.717 112.035 688.863L112.139 690.307Z" fill="#27273D"/>
<path opacity="0.55" d="M116.595 693.513L117.273 697.6L117.351 698.187L117.429 698.726L117.611 698.677L118.002 698.53C118.393 698.408 118.602 698.505 118.654 698.824C118.68 698.995 118.654 699.142 118.576 699.289C118.497 699.435 118.393 699.533 118.289 699.558L117.69 699.754C117.273 699.876 116.986 699.949 116.882 699.974C116.804 699.998 116.752 700.023 116.725 700.047C116.387 700.145 116.204 700.047 116.178 699.778C116.152 699.656 116.178 699.533 116.204 699.411C116.23 699.289 116.282 699.215 116.335 699.191L116.725 699.068V698.799L116.022 694.712L115.449 690.381C115.344 689.647 115.214 688.961 115.084 688.325L114.823 688.398L114.51 688.521C114.38 688.57 114.276 688.57 114.172 688.521C114.093 688.472 114.015 688.349 113.989 688.154C113.937 687.86 114.146 687.64 114.615 687.493L116.256 686.979C116.621 686.857 116.83 686.93 116.882 687.199C116.908 687.322 116.882 687.444 116.804 687.566C116.725 687.689 116.647 687.762 116.543 687.811L115.839 688.031C115.944 688.545 116.048 689.133 116.152 689.818L116.595 693.513Z" fill="#27273D"/>
<path opacity="0.55" d="M121.937 694.468L122.25 695.618C122.276 695.765 122.38 696.156 122.563 696.719C122.745 697.306 122.849 697.698 122.875 697.869V697.894C122.927 698.187 122.875 698.383 122.719 698.505C122.537 698.554 122.354 698.579 122.25 698.505C122.12 698.457 122.041 698.31 122.015 698.041C121.937 697.502 121.755 696.719 121.468 695.716L120.061 695.862C120.035 696.327 120.035 696.817 120.061 697.331C120.087 697.845 120.113 698.236 120.087 698.481C120.087 698.995 119.957 699.264 119.748 699.338C119.644 699.362 119.54 699.362 119.436 699.289C119.331 699.215 119.253 699.117 119.253 698.97V698.799C119.383 695.251 119.357 691.825 119.201 688.545C119.201 688.447 119.175 688.203 119.123 687.762C119.019 686.808 119.019 686.171 119.123 685.878L119.592 685.731C119.722 685.682 119.826 685.707 119.931 685.755C120.035 685.804 120.113 685.927 120.139 686.074C120.296 687.052 120.582 688.496 121.077 690.356C121.494 692.265 121.807 693.611 121.937 694.468ZM121.26 695.079C121.208 694.908 121.155 694.565 121.077 694.1C120.999 693.636 120.895 693.048 120.765 692.363C120.634 691.678 120.452 690.895 120.243 689.989C120.035 689.084 119.879 688.423 119.8 688.031C119.853 691.409 119.931 693.782 120.009 695.153C120.165 695.251 120.582 695.226 121.26 695.079Z" fill="#27273D"/>
<path opacity="0.55" d="M122.484 690.209L122.041 686.563C121.963 685.976 122.041 685.437 122.328 684.972L122.354 685.095C122.38 685.046 122.406 685.021 122.458 685.021C122.667 684.948 123.032 685.388 123.501 686.318C123.97 687.248 124.439 688.325 124.882 689.475C125.325 690.65 125.768 691.825 126.211 692.999C126.654 694.198 126.941 694.884 127.019 695.079C126.81 692.314 126.419 689.01 125.846 685.168L125.742 684.654C125.69 684.263 125.768 684.042 126.002 683.969C126.133 683.92 126.237 683.969 126.341 684.091C126.419 684.214 126.498 684.385 126.524 684.581L126.732 686.049C126.941 687.566 127.201 689.622 127.488 692.192C127.774 694.761 127.879 696.23 127.774 696.597C127.54 696.792 127.358 696.89 127.279 696.915C127.175 696.939 127.097 696.915 127.045 696.841C126.967 696.768 126.915 696.646 126.862 696.45C126.81 696.279 126.758 696.156 126.732 696.107V696.009C126.654 695.52 126.107 694.1 125.064 691.751C124.022 689.402 123.292 687.787 122.849 686.906L124.283 696.646C124.283 696.67 124.309 696.695 124.361 696.768C124.439 696.89 124.491 697.013 124.517 697.135C124.543 697.257 124.517 697.38 124.439 697.527C124.361 697.673 124.283 697.771 124.178 697.796C123.866 697.894 123.657 697.551 123.553 696.768L122.484 690.209Z" fill="#27273D"/>
<path opacity="0.55" d="M128.426 691.629L128.243 690.503L128.165 690.038C127.879 688.129 127.748 686.783 127.774 686C127.8 685.021 127.931 684.312 128.165 683.871C128.478 683.259 128.947 682.843 129.546 682.672C129.703 682.623 129.807 682.647 129.885 682.721C129.963 682.794 130.015 682.892 130.042 683.039C130.068 683.161 130.042 683.308 130.015 683.431C129.963 683.553 129.911 683.626 129.833 683.675L129.182 683.871C128.999 683.92 128.843 684.165 128.765 684.532C128.686 684.923 128.634 685.364 128.66 685.878C128.686 686.857 128.739 687.64 128.843 688.252L128.869 688.349L129.364 692.094C129.468 692.877 129.599 693.415 129.703 693.709C129.807 694.003 129.911 694.223 129.989 694.394C130.094 694.565 130.172 694.688 130.302 694.786C130.563 695.006 130.849 695.055 131.162 694.957C131.266 694.933 131.371 694.835 131.423 694.688C131.527 694.663 131.631 694.663 131.735 694.688C131.84 694.737 131.892 694.835 131.918 694.957C131.996 695.471 131.787 695.814 131.266 695.96C131.058 696.034 130.823 696.058 130.589 696.034C130.354 696.009 130.172 695.985 130.042 695.911C129.338 695.544 128.791 694.125 128.426 691.629Z" fill="#27273D"/>
<path opacity="0.55" d="M131.371 685.388L131.058 683.773C130.928 682.868 131.058 682.329 131.449 682.207C131.709 682.134 132.048 682.109 132.491 682.134C132.934 682.158 133.195 682.305 133.221 682.55C133.247 682.819 133.143 683.064 132.908 683.284C132.439 683.21 132.074 683.21 131.814 683.235C131.866 683.504 131.918 683.773 131.944 684.067L132.283 686.857C132.283 686.881 132.309 686.955 132.361 687.15L132.856 686.955C133.299 686.808 133.56 686.93 133.612 687.273C133.638 687.42 133.612 687.542 133.534 687.664C133.455 687.787 133.377 687.885 133.247 687.909C133.117 687.958 132.986 687.982 132.83 688.007L132.465 688.129C132.569 688.619 132.647 689.108 132.726 689.573L133.195 693.097C133.299 693.831 133.351 694.174 133.377 694.174L134.393 693.807C134.758 693.684 134.941 693.807 134.993 694.125C135.019 694.321 134.993 694.492 134.863 694.614C134.758 694.737 134.628 694.835 134.472 694.884L133.299 695.251C133.169 695.3 133.064 695.275 132.934 695.177C132.83 695.104 132.752 694.957 132.726 694.81L132.647 694.296L132.074 691.041L131.371 685.388Z" fill="#27273D"/>
<path opacity="0.55" d="M135.67 693.415L136.27 693.366C136.452 693.317 136.582 693.146 136.687 692.901C136.791 692.657 136.843 692.338 136.869 691.996C136.895 691.335 136.869 690.772 136.817 690.307C136.739 689.842 136.608 689.377 136.452 688.937C136.27 688.496 136.061 688.105 135.853 687.762C135.618 687.42 135.41 687.052 135.175 686.685C134.654 685.829 134.315 684.923 134.159 683.969C134.081 683.382 134.055 682.843 134.133 682.354C134.263 681.448 134.55 680.91 134.993 680.788C135.149 680.739 135.331 680.763 135.488 680.861C135.644 680.959 135.748 681.106 135.774 681.253C135.827 681.546 135.722 681.742 135.514 681.815C135.41 681.84 135.305 681.84 135.201 681.791C134.915 681.913 134.784 682.427 134.81 683.357C134.81 683.553 134.836 683.798 134.888 684.042C134.915 684.312 135.019 684.605 135.149 684.972C135.279 685.339 135.436 685.633 135.618 685.902C135.774 686.171 135.957 686.441 136.165 686.759C136.374 687.077 136.556 687.395 136.713 687.689C137.13 688.374 137.39 689.231 137.547 690.258C137.677 691.041 137.651 691.825 137.494 692.632C137.416 693.024 137.286 693.366 137.077 693.66C136.869 693.954 136.634 694.149 136.322 694.247V694.296C135.931 694.345 135.696 694.149 135.592 693.733L135.67 693.415Z" fill="#27273D"/>
</g>
<g filter="url(#filter2_d_26_2)">
<path d="M337.367 791.965L295.725 773.782L297.445 717.887L338.957 732.375L337.367 791.965Z" fill="url(#paint20_linear_26_2)"/>
<path d="M338.957 732.375L297.445 717.888L341.641 707.56L383.153 722.023L338.957 732.375Z" fill="url(#paint21_linear_26_2)"/>
<path d="M298.067 717.073L297.755 717.852L339.025 732.423L339.337 731.644L298.067 717.073Z" fill="#EFD6A5"/>
<path d="M339.857 706.885L339.547 707.665L380.706 722.102L381.016 721.322L339.857 706.885Z" fill="#EFD6A5"/>
<path d="M296.793 694.419L297.445 717.887L341.641 707.56L340.286 685.682L296.793 694.419Z" fill="url(#paint22_linear_26_2)"/>
<path d="M305.732 719.919C302.396 734.21 312.038 748.331 327.256 751.439C342.475 754.571 357.511 745.517 360.82 731.225C364.156 716.933 354.514 702.813 339.296 699.705C324.077 696.572 309.067 705.627 305.732 719.919Z" fill="url(#paint23_radial_26_2)"/>
<path d="M314.748 749.946C309.015 742.286 308.207 731.714 312.689 722.341C315.191 717.104 319.386 711.965 324.233 708.196C333.849 700.708 347.087 701.858 355.921 706.312L355.374 707.291C346.879 703.033 334.214 701.907 325.015 709.053C320.298 712.724 316.207 717.716 313.784 722.806C309.484 731.812 310.24 741.968 315.738 749.31L314.748 749.946Z" fill="#313A42"/>
<path d="M355.087 743.216C345.836 737.172 338.175 731.959 330.826 726.233C323.556 720.579 315.321 714.192 309.953 706.508L310.943 705.896C316.233 713.458 324.39 719.796 331.582 725.376C338.905 731.078 346.54 736.266 355.765 742.286L355.087 743.216Z" fill="#313A42"/>
<path d="M329.523 754.816L328.377 754.498C330.149 748.796 327.439 742.874 325.067 737.637C324.676 736.804 324.26 735.948 323.817 735.067C321.471 730.344 318.787 724.984 322.018 719.894C325.38 714.559 332.181 714.094 337.289 714.657C347.348 715.734 356.885 719.992 364.13 726.624L363.296 727.432C356.234 720.971 346.957 716.835 337.159 715.758C332.416 715.244 326.084 715.636 323.061 720.457C320.168 725.058 322.566 729.903 324.911 734.602C325.354 735.483 325.771 736.364 326.162 737.196C328.637 742.629 331.426 748.747 329.523 754.816Z" fill="#313A42"/>
<path d="M304.924 717.031L304.767 715.93C312.689 714.853 318.292 709.175 319.386 701.124L320.559 701.271C319.413 709.836 313.419 715.881 304.924 717.031Z" fill="#313A42"/>
<mask id="mask1_26_2" style="mask-type:alpha" maskUnits="userSpaceOnUse" x="305" y="699" width="57" height="54">
<path d="M305.732 719.919C302.396 734.21 312.038 748.331 327.256 751.439C342.475 754.571 357.511 745.517 360.82 731.225C364.156 716.933 354.514 702.813 339.296 699.705C324.077 696.572 309.067 705.627 305.732 719.919Z" fill="url(#paint24_radial_26_2)"/>
</mask>
<g mask="url(#mask1_26_2)">
<path opacity="0.5" d="M305.732 719.919C302.396 734.21 312.038 748.331 327.256 751.439C342.475 754.571 357.511 745.517 360.82 731.225C364.156 716.933 354.514 702.813 339.296 699.705C324.077 696.572 309.067 705.627 305.732 719.919Z" fill="url(#paint25_radial_26_2)"/>
</g>
<path d="M297.263 694.415L296.378 694.437L297.02 717.898L297.906 717.877L297.263 694.415Z" fill="#B78C64"/>
<path d="M340.188 685.266L296.689 693.997L296.874 694.811L340.374 686.08L340.188 685.266Z" fill="#EFD6A5"/>
<path d="M338.957 732.375L351.726 712.137L395.896 701.785L383.153 722.023L338.957 732.375Z" fill="url(#paint26_linear_26_2)"/>
<path d="M351.31 711.905L338.559 732.144L339.321 732.568L352.073 712.328L351.31 711.905Z" fill="#B78C64"/>
<path d="M395.822 701.391L351.348 711.72L351.561 712.528L396.035 702.198L395.822 701.391Z" fill="#EFD6A5"/>
<path d="M383.153 722.023L382.632 777.575L337.367 791.965L338.957 732.375L383.153 722.023Z" fill="#E3B989"/>
<g opacity="0.55">
<path opacity="0.55" d="M306.227 766.514L306.409 764.507C306.409 764.507 306.461 764.189 306.565 763.602C306.513 763.381 306.617 761.424 306.852 757.704C307.087 754.009 307.243 751.733 307.321 750.901C307.295 750.901 307.243 750.901 307.217 750.901C305.705 750.901 304.976 750.656 305.028 750.166C305.054 749.995 305.158 749.873 305.393 749.75C305.601 749.628 305.81 749.579 306.018 749.579L309.823 749.75L310.292 749.726C310.891 749.701 311.152 749.922 311.1 750.338C311.074 750.558 310.943 750.729 310.735 750.852C310.526 750.998 310.292 751.047 310.057 751.072L308.78 750.925L308.702 751.194C308.494 752.834 308.337 755.306 308.259 758.609C308.155 761.889 307.999 764.36 307.816 766.024C307.79 766.22 307.66 766.416 307.451 766.563C307.217 766.734 307.008 766.807 306.748 766.807L306.227 766.514Z" fill="#27273D"/>
<path opacity="0.55" d="M311.126 758.854L311.282 757.851C311.282 757.777 311.282 757.728 311.256 757.728L311.308 757.263C311.647 754.522 312.064 752.565 312.533 751.414C312.95 750.436 313.289 749.824 313.575 749.579C313.862 749.334 314.149 749.212 314.409 749.212C316.598 749.163 317.979 750.166 318.553 752.173C318.891 753.348 318.943 754.792 318.735 756.505L318.709 756.7L318.396 759.662C317.771 764.678 316.207 767.199 313.706 767.272C312.663 767.297 311.934 766.783 311.517 765.731C311.126 764.727 310.917 763.724 310.917 762.745C310.917 761.228 310.995 759.955 311.126 758.854ZM313.237 755.257L312.794 757.679C312.481 760.2 312.429 762.402 312.637 764.287C312.976 765.364 313.341 766.024 313.732 766.196C314.07 766.196 314.383 766.049 314.696 765.804C315.009 765.535 315.269 765.192 315.478 764.752C315.686 764.311 315.895 763.871 316.051 763.381C316.207 762.916 316.364 762.402 316.468 761.864C316.676 760.934 316.807 760.151 316.911 759.49C316.989 758.83 317.067 757.826 317.093 756.48C317.145 755.134 317.198 754.131 317.276 753.47L317.328 753.005C317.38 752.369 317.224 751.806 316.859 751.317C316.494 750.827 315.973 750.582 315.295 750.607C314.644 750.631 314.175 750.974 313.888 751.635C313.653 752.198 313.471 752.907 313.367 753.715L313.237 755.257Z" fill="#27273D"/>
<path opacity="0.55" d="M322.852 765.192C322.696 766.367 322.331 766.954 321.706 766.954C321.367 766.954 321.132 766.783 321.002 766.391C321.263 766 321.549 764.532 321.862 761.962C321.914 761.497 321.94 760.836 321.966 759.98C321.966 759.123 321.992 758.511 322.018 758.144L322.097 757.459C322.07 757.386 321.862 756.7 321.471 755.403C320.585 752.516 320.168 750.778 320.246 750.215L320.272 750.068L320.95 749.628C321.523 749.628 322.044 750.949 322.513 753.641C322.722 754.816 322.826 755.403 322.826 755.403C322.93 755.208 323.165 754.547 323.504 753.446C324.416 750.607 325.171 749.187 325.797 749.163C325.979 749.163 326.136 749.212 326.266 749.31C326.396 749.408 326.448 749.53 326.422 749.701C326.318 750.558 325.901 751.83 325.145 753.495C324.39 755.159 323.973 756.431 323.842 757.288L322.852 765.192Z" fill="#27273D"/>
<path opacity="0.55" d="M325.979 765.413L327.126 765.584C327.491 765.584 327.803 765.437 328.116 765.119C328.429 764.825 328.663 764.458 328.846 764.018C329.211 763.186 329.419 762.427 329.497 761.791C329.575 761.154 329.549 760.518 329.393 759.882C329.237 759.246 329.028 758.683 328.768 758.144C328.507 757.606 328.246 757.068 327.986 756.505C327.36 755.183 327.126 753.911 327.282 752.614C327.387 751.83 327.621 751.145 327.96 750.533C328.637 749.408 329.419 748.82 330.279 748.796C330.618 748.796 330.905 748.869 331.191 749.065C331.478 749.261 331.582 749.457 331.556 749.701C331.504 750.093 331.243 750.313 330.8 750.313C330.592 750.313 330.409 750.264 330.227 750.166C329.628 750.215 329.132 750.827 328.794 752.051C328.716 752.32 328.663 752.614 328.611 752.981C328.559 753.323 328.585 753.764 328.689 754.278C328.794 754.792 328.95 755.257 329.132 755.648C329.341 756.04 329.549 756.48 329.784 756.97C330.018 757.459 330.227 757.924 330.435 758.365C330.878 759.417 331.035 760.616 330.852 761.986C330.722 763.039 330.331 764.067 329.68 765.021C329.367 765.51 328.95 765.902 328.429 766.22C327.908 766.538 327.36 766.71 326.761 766.71V766.783C326.005 766.685 325.615 766.367 325.615 765.804L325.979 765.413Z" fill="#27273D"/>
</g>
<path d="M333.146 743.216C333.406 742.629 333.667 742.042 333.875 741.43L333.432 748.943L326.344 745.884L326.709 739.741C326.865 739.301 326.996 738.86 327.178 738.444C327.23 738.567 327.308 738.689 327.361 738.811C327.361 738.836 327.387 738.836 327.387 738.811C327.413 738.567 327.413 738.297 327.361 738.028C327.439 737.881 327.517 737.734 327.621 737.612C327.673 737.563 327.699 737.49 327.751 737.441L327.83 737.465C327.908 738.199 327.934 738.909 327.83 739.57C327.83 739.619 327.908 739.668 327.908 739.619C328.09 739.08 328.273 738.395 328.351 737.686L328.716 737.832C328.742 737.93 328.768 738.028 328.768 738.102C328.846 738.542 328.898 738.983 328.95 739.423C328.95 739.448 328.976 739.448 328.976 739.423C328.976 738.934 329.028 738.469 329.028 738.004V737.979L329.211 738.053C329.289 738.811 329.315 739.57 329.289 740.329C329.289 740.402 329.367 740.426 329.367 740.377C329.393 739.937 329.523 739.301 329.576 738.64C329.706 738.762 329.862 738.836 329.992 738.86C330.279 738.885 330.331 739.178 330.618 739.203C330.748 739.203 330.878 739.203 331.009 739.178C331.139 739.496 331.4 739.619 331.582 739.521C331.582 739.619 331.608 739.717 331.634 739.839C331.686 740.01 331.817 740.231 331.973 740.231C332.338 740.206 332.572 739.961 332.755 739.668C332.729 740.182 332.65 740.696 332.572 741.21C332.572 741.234 332.598 741.234 332.598 741.234C332.807 740.818 332.989 740.377 333.172 739.937C333.146 740.059 333.146 740.206 333.12 740.329C333.015 741.063 332.885 741.772 332.833 742.531C332.833 742.556 332.859 742.556 332.859 742.556C333.041 741.821 333.328 741.087 333.589 740.353C333.458 741.356 333.276 742.311 333.015 743.216C333.12 743.216 333.146 743.216 333.146 743.216Z" fill="#E8EBEB"/>
<path d="M329.888 742.482C329.732 742.947 329.575 743.412 329.497 743.926C329.523 743.681 329.549 743.436 329.549 743.192C329.654 742.947 329.758 742.702 329.888 742.482Z" fill="#EDE8ED"/>
<path d="M332.286 745.027C332.338 744.734 332.364 744.44 332.416 744.146C332.468 744.195 332.52 744.22 332.572 744.244C332.572 744.513 332.572 744.782 332.598 745.052C332.598 745.076 332.598 745.125 332.572 745.174C332.572 745.198 332.598 745.198 332.598 745.198V745.174C332.624 745.761 332.651 746.349 332.677 746.936C332.677 746.96 332.703 746.96 332.703 746.936C332.911 745.835 333.172 744.807 333.511 743.779C333.563 743.583 333.641 743.388 333.719 743.167L333.797 743.216L333.276 752.149C333.25 752.711 332.833 753.005 332.364 752.785L326.996 750.46C326.527 750.264 326.162 749.628 326.214 749.09L326.735 740.157L326.761 740.182C326.813 740.475 326.891 740.769 326.944 741.112C327.204 742.409 327.256 743.583 327.178 744.807C327.152 745.076 327.491 745.198 327.517 744.954C327.647 744.073 327.777 743.216 327.882 742.311V742.335C327.882 742.458 327.934 742.58 327.986 742.678C327.83 743.314 327.777 744.048 328.116 744.538C328.168 744.611 328.247 744.611 328.299 744.587C328.481 744.489 328.611 744.293 328.716 744.073C328.716 744.244 328.716 744.415 328.69 744.587C328.69 744.611 328.716 744.611 328.716 744.587C328.716 744.415 328.716 744.22 328.716 744.048C328.898 743.706 329.028 743.29 329.185 742.996C329.133 743.436 329.054 743.853 329.028 744.293C329.028 744.317 329.054 744.317 329.054 744.293C329.185 743.926 329.341 743.583 329.497 743.241C329.497 743.559 329.445 743.877 329.419 744.22C329.367 744.513 329.341 744.807 329.341 745.125C329.341 745.443 329.706 745.615 329.758 745.296C329.888 744.244 330.227 743.29 330.722 742.555C330.748 742.531 330.748 742.507 330.774 742.482C330.592 743.143 330.514 743.901 330.514 744.562C330.514 744.636 330.592 744.685 330.618 744.611C330.879 743.853 331.035 743.02 331.295 742.262C331.295 742.262 331.295 742.262 331.295 742.286C331.426 743.388 331.504 744.562 331.348 745.566L331.374 745.59C331.817 744.954 331.973 743.999 332.077 743.094C332.103 742.972 332.129 742.874 332.129 742.751C332.129 742.678 332.155 742.604 332.181 742.507L332.364 742.58C332.338 742.923 332.312 743.241 332.234 743.559C332.181 743.73 332.286 743.95 332.39 744.097C332.364 744.44 332.338 744.734 332.286 745.027C332.286 745.052 332.286 745.052 332.286 745.027Z" fill="#CDC9CA"/>
<path d="M329.888 742.482C329.732 742.947 329.575 743.412 329.497 743.926C329.523 743.681 329.549 743.436 329.549 743.192C329.654 742.947 329.758 742.702 329.888 742.482Z" fill="#83B8D8"/>
<path d="M332.286 745.027C332.338 744.734 332.364 744.44 332.416 744.146C332.468 744.195 332.52 744.22 332.572 744.244C332.572 744.513 332.572 744.782 332.598 745.052C332.598 745.076 332.598 745.125 332.572 745.174C332.572 745.198 332.598 745.199 332.598 745.199V745.174C332.624 745.761 332.651 746.349 332.677 746.936C332.677 746.96 332.703 746.96 332.703 746.936C332.755 746.618 332.833 746.3 332.911 746.006L332.598 751.39C332.572 751.733 332.338 751.904 332.051 751.782L327.439 749.775C327.152 749.652 326.944 749.285 326.97 748.943L327.204 744.782C327.204 745.052 327.517 745.174 327.543 744.929C327.673 744.048 327.804 743.192 327.908 742.286V742.311C327.908 742.433 327.96 742.556 328.012 742.653C327.856 743.29 327.804 744.024 328.142 744.513C328.194 744.587 328.273 744.587 328.325 744.562C328.507 744.464 328.637 744.269 328.742 744.048C328.742 744.22 328.742 744.391 328.716 744.562C328.716 744.587 328.742 744.587 328.742 744.562C328.742 744.391 328.742 744.195 328.742 744.024C328.924 743.681 329.054 743.265 329.211 742.972C329.159 743.412 329.08 743.828 329.054 744.269C329.054 744.293 329.08 744.293 329.08 744.269C329.211 743.901 329.367 743.559 329.523 743.216C329.523 743.534 329.471 743.853 329.445 744.195C329.393 744.489 329.367 744.782 329.367 745.101C329.367 745.419 329.732 745.59 329.784 745.272C329.914 744.22 330.253 743.265 330.748 742.531C330.774 742.507 330.774 742.482 330.8 742.458C330.618 743.118 330.54 743.877 330.54 744.538C330.54 744.611 330.618 744.66 330.644 744.587C330.905 743.828 331.061 742.996 331.322 742.237C331.322 742.237 331.322 742.237 331.322 742.262C331.452 743.363 331.53 744.538 331.374 745.541L331.4 745.566C331.843 744.929 331.999 743.975 332.103 743.069C332.129 742.947 332.155 742.849 332.155 742.727C332.155 742.653 332.181 742.58 332.208 742.482L332.39 742.556C332.364 742.898 332.338 743.216 332.26 743.534C332.208 743.706 332.312 743.926 332.416 744.073C332.364 744.44 332.338 744.734 332.286 745.027C332.286 745.052 332.286 745.052 332.286 745.027Z" fill="#CF6254"/>
<path d="M331.869 750.582C331.869 750.705 331.765 750.754 331.686 750.729L327.856 749.065C327.752 749.016 327.673 748.894 327.673 748.771L327.934 744.097C327.986 744.244 328.038 744.391 328.116 744.513C328.168 744.587 328.247 744.587 328.299 744.562C328.481 744.464 328.611 744.269 328.716 744.048C328.716 744.22 328.716 744.391 328.69 744.562C328.69 744.587 328.716 744.587 328.716 744.562C328.716 744.391 328.716 744.195 328.716 744.024C328.898 743.681 329.028 743.265 329.185 742.972C329.133 743.412 329.054 743.828 329.028 744.269C329.028 744.293 329.054 744.293 329.054 744.269C329.185 743.901 329.341 743.559 329.497 743.216C329.497 743.534 329.445 743.853 329.419 744.195C329.367 744.489 329.341 744.782 329.341 745.101C329.341 745.419 329.706 745.59 329.758 745.272C329.888 744.22 330.227 743.265 330.722 742.531C330.748 742.507 330.748 742.482 330.774 742.458C330.592 743.118 330.514 743.877 330.514 744.538C330.514 744.611 330.592 744.66 330.618 744.587C330.879 743.828 331.035 742.996 331.296 742.237C331.296 742.237 331.296 742.237 331.296 742.262C331.426 743.363 331.504 744.538 331.348 745.541L331.374 745.566C331.817 744.929 331.973 743.975 332.077 743.069C332.103 742.947 332.129 742.849 332.129 742.727C332.129 742.653 332.155 742.58 332.181 742.482L332.338 742.556L332.312 743.167C332.286 743.29 332.286 743.412 332.234 743.534C332.208 743.632 332.234 743.755 332.26 743.853L331.869 750.582Z" fill="#D7DEDC"/>
<path d="M329.888 742.482C329.732 742.947 329.575 743.412 329.497 743.926C329.523 743.681 329.549 743.436 329.549 743.192C329.654 742.947 329.758 742.702 329.888 742.482Z" fill="#EDE8ED"/>
<path d="M331.113 742.898L331.009 744.513L330.905 744.464L330.957 743.363C331.035 743.192 331.061 743.045 331.113 742.898Z" fill="#9FA4A1"/>
<path d="M330.696 742.629L330.67 742.923C330.566 743.363 330.54 743.853 330.514 744.293H330.488L330.566 742.825C330.618 742.751 330.644 742.678 330.696 742.629Z" fill="#9FA4A1"/>
<path d="M331.217 744.587L331.139 744.562L331.217 743.02L331.321 743.069L331.217 744.587Z" fill="#9FA4A1"/>
<path d="M330.462 743.045L330.383 744.244L330.279 744.195L330.331 743.265C330.383 743.167 330.409 743.118 330.462 743.045Z" fill="#9FA4A1"/>
<path d="M331.921 744.146L331.869 744.856L331.765 744.807V744.66C331.843 744.513 331.869 744.342 331.921 744.146Z" fill="#9FA4A1"/>
<path d="M331.426 744.685L331.348 744.636L331.4 743.534C331.426 743.926 331.452 744.317 331.426 744.685Z" fill="#9FA4A1"/>
<path d="M329.575 743.118L329.549 743.632C329.523 743.706 329.523 743.779 329.497 743.853C329.523 743.632 329.523 743.412 329.549 743.192C329.549 743.167 329.575 743.143 329.575 743.118Z" fill="#9FA4A1"/>
<path d="M329.784 747.058L329.706 747.034L329.784 745.272L329.888 745.321L329.784 747.058Z" fill="#9FA4A1"/>
<path d="M330.383 748.135L330.279 748.086L330.436 745.541L330.54 745.59L330.383 748.135Z" fill="#9FA4A1"/>
<path d="M330.54 748.967L330.462 748.918L330.514 747.719L330.618 747.768L330.54 748.967Z" fill="#9FA4A1"/>
<path d="M330.618 747.572L330.54 747.548L330.644 745.639L330.748 745.688L330.618 747.572Z" fill="#9FA4A1"/>
<path d="M329.654 749.334L329.576 749.285L329.68 747.156L329.784 747.205L329.654 749.334Z" fill="#9FA4A1"/>
<path d="M330.045 746.202L329.966 746.177L330.019 745.37L330.097 745.394L330.045 746.202Z" fill="#9FA4A1"/>
<path d="M330.071 749.506L329.992 749.457L330.227 745.468L330.305 745.492L330.071 749.506Z" fill="#9FA4A1"/>
<path d="M329.862 749.408L329.784 749.383L329.94 746.447L330.045 746.471L329.862 749.408Z" fill="#9FA4A1"/>
<path d="M329.654 745.468L329.445 749.236L329.341 749.187L329.55 745.468C329.602 745.492 329.628 745.492 329.654 745.468Z" fill="#9FA4A1"/>
<path d="M331.139 749.971L331.061 749.922L331.217 746.887L331.322 746.936L331.139 749.971Z" fill="#9FA4A1"/>
<path d="M331.452 748.306L331.374 748.258L331.504 746.006L331.582 746.055L331.452 748.306Z" fill="#9FA4A1"/>
<path d="M331.321 746.789L331.243 746.74L331.269 745.908L331.374 745.957L331.321 746.789Z" fill="#9FA4A1"/>
<path d="M331.374 749.677L331.295 749.628L331.348 748.478L331.452 748.502L331.374 749.677Z" fill="#9FA4A1"/>
<path d="M331.061 747.597L330.957 747.548L331.061 745.835L331.165 745.859L331.061 747.597Z" fill="#9FA4A1"/>
<path d="M330.722 749.775L330.618 749.75L330.852 745.737L330.957 745.761L330.722 749.775Z" fill="#9FA4A1"/>
<path d="M330.983 749.212L330.879 749.163L330.957 747.67L331.061 747.719L330.983 749.212Z" fill="#9FA4A1"/>
<path d="M328.768 748.209L328.846 748.258L328.82 748.967L328.716 748.918L328.768 748.209Z" fill="#9FA4A1"/>
<path d="M328.872 746.422L328.95 746.471L328.846 748.135L328.768 748.086L328.872 746.422Z" fill="#9FA4A1"/>
<path d="M329.159 745.003L329.263 745.027L329.106 747.67L329.002 747.646L329.159 745.003Z" fill="#9FA4A1"/>
<path d="M328.95 744.905L329.054 744.954L328.976 745.884L328.898 745.859L328.95 744.905Z" fill="#9FA4A1"/>
<path d="M331.582 748.062L331.686 748.111L331.608 749.285L331.53 749.236L331.582 748.062Z" fill="#9FA4A1"/>
<path d="M331.478 750.117L331.504 749.408L331.608 749.457L331.556 750.142L331.478 750.117Z" fill="#9FA4A1"/>
<path d="M329.002 747.719L329.107 747.768L329.028 749.041L328.924 749.016L329.002 747.719Z" fill="#9FA4A1"/>
<path d="M331.712 746.104L331.791 746.128L331.712 747.768L331.608 747.719L331.712 746.104Z" fill="#9FA4A1"/>
<path d="M328.559 747.768L328.663 747.817L328.585 748.869L328.507 748.82L328.559 747.768Z" fill="#9FA4A1"/>
<path d="M328.299 744.636L328.403 744.66L328.247 747.303L328.142 747.254L328.299 744.636Z" fill="#9FA4A1"/>
<path d="M329.445 745.419L329.341 747.083L329.237 747.034L329.341 745.272C329.393 745.321 329.419 745.37 329.445 745.419Z" fill="#9FA4A1"/>
<path d="M329.263 748.404L329.185 748.38L329.263 747.132L329.341 747.156L329.263 748.404Z" fill="#9FA4A1"/>
<path d="M328.142 747.425L328.247 747.474L328.168 748.674L328.064 748.625L328.142 747.425Z" fill="#9FA4A1"/>
<path d="M328.742 744.807L328.82 744.856L328.768 745.884L328.663 745.859L328.742 744.807Z" fill="#9FA4A1"/>
<path d="M328.663 745.933L328.768 745.982L328.663 747.597L328.585 747.548L328.663 745.933Z" fill="#9FA4A1"/>
<path d="M328.533 744.734L328.611 744.758L328.533 746.275L328.429 746.226L328.533 744.734Z" fill="#9FA4A1"/>
<path d="M328.403 746.593L328.507 746.642L328.429 748.111L328.325 748.086L328.403 746.593Z" fill="#9FA4A1"/>
</g>
<path d="M207.75 610.87L146.876 592.688L212.857 584L273.731 602.183L207.75 610.87Z" fill="#F0D7A5"/>
<path d="M206.316 659.888L146.407 637.765L146.876 592.688L207.75 610.87L206.316 659.888Z" fill="url(#paint27_linear_26_2)"/>
<path d="M207.75 610.87L273.731 602.183L272.298 649.17L206.316 659.888L207.75 610.87Z" fill="#DBB484"/>
<path d="M241.496 592.688C241.496 592.688 240.48 592.834 238.708 593.128C237.822 593.275 236.753 593.446 235.529 593.642C234.304 593.838 232.923 594.058 231.385 594.229C225.287 594.988 217.183 596.016 209.079 597.019C200.974 598.047 192.844 599.05 186.772 599.809C185.261 600.029 183.853 600.152 182.603 600.274C181.352 600.396 180.283 600.494 179.397 600.568C177.625 600.739 176.583 600.837 176.583 600.837C176.583 600.837 177.599 600.69 179.371 600.396C180.257 600.25 181.326 600.078 182.551 599.907C183.775 599.711 185.156 599.491 186.694 599.32C192.792 598.561 200.896 597.533 209 596.53C217.105 595.502 225.235 594.499 231.307 593.74C232.818 593.52 234.226 593.397 235.476 593.275C236.727 593.153 237.796 593.055 238.682 592.981C240.48 592.786 241.496 592.688 241.496 592.688Z" fill="#C09A6E"/>
<path opacity="0.6" d="M236.519 591.072L246.551 594.058L181.847 603.137L169.729 599.515L236.519 591.072Z" fill="url(#paint28_linear_26_2)"/>
<path d="M169.443 607.518L181.404 611.36L181.847 603.137L169.729 599.589L169.443 607.518Z" fill="url(#paint29_linear_26_2)"/>
<g opacity="0.6">
<path opacity="0.6" d="M189.56 636.224V636.028C189.56 635.636 189.3 635.245 188.961 635.098C188.622 634.976 188.362 635.171 188.362 635.563V635.759C185.99 635.147 184.114 636.444 184.114 638.842C184.114 638.891 184.114 638.916 184.114 638.965L188.362 640.506V647.701C188.362 648.093 188.622 648.484 188.961 648.607C189.3 648.729 189.56 648.509 189.56 648.117V640.947L193.704 642.464C193.704 642.415 193.704 642.391 193.704 642.342C193.704 640.017 191.906 637.398 189.56 636.224Z" fill="#4D3C34"/>
<path opacity="0.6" d="M200.766 651.421L199.046 650.809V647.921C200.479 648.142 201.547 647.212 201.547 644.03C201.547 643.981 201.547 640.408 201.547 640.335L195.215 637.961C195.215 638.01 195.215 641.632 195.215 641.681C195.215 644.96 196.336 646.698 197.821 647.481V650.344L196.049 649.708C195.71 649.586 195.424 649.806 195.424 650.197C195.424 650.589 195.71 651.005 196.049 651.127L200.766 652.791C201.104 652.914 201.365 652.694 201.365 652.302C201.365 651.935 201.104 651.519 200.766 651.421Z" fill="#4D3C34"/>
<path opacity="0.6" d="M180.466 632.7C180.309 632.259 179.814 632.063 179.658 632.406L177.886 636.248C177.756 636.542 177.964 636.982 178.303 637.105L179.371 637.496V643.81L175.671 642.513V636.15L176.765 636.542C177.104 636.664 177.313 636.371 177.182 635.979L175.332 630.791C175.176 630.326 174.655 630.155 174.498 630.497L172.7 634.364C172.57 634.658 172.778 635.098 173.117 635.22L174.212 635.612V641.999L173.612 641.779C173.221 641.632 172.883 641.877 172.883 642.317C172.883 642.758 173.195 643.223 173.612 643.37L181.404 646.111C181.795 646.257 182.107 646.013 182.107 645.572C182.107 645.132 181.795 644.667 181.404 644.544L180.804 644.324V638.01L181.873 638.402C182.186 638.524 182.394 638.23 182.264 637.839L180.466 632.7Z" fill="#4D3C34"/>
</g>
<g opacity="0.55">
<path opacity="0.55" d="M213.509 635.098L213.587 626.606C213.587 626.019 213.535 625.162 213.43 623.988C213.326 622.813 213.274 622.079 213.274 621.736C213.274 621.418 213.378 621.149 213.587 620.929C213.795 620.708 214.004 620.586 214.238 620.561C216.088 620.292 217.6 621.149 218.746 623.131C219.424 624.257 219.737 625.529 219.737 626.9L219.685 628.27V629.763C219.685 631.574 219.606 632.773 219.45 633.409C219.294 634.046 219.111 634.56 218.955 635C218.772 635.441 218.564 635.808 218.329 636.175C217.756 636.982 217.053 637.668 216.167 638.23L214.212 638.524C213.743 638.598 213.509 637.447 213.509 635.098ZM215.385 636.346V636.982C216.948 636.762 217.886 635.049 218.199 631.843C218.277 631.109 218.303 630.399 218.303 629.714C218.303 624.306 217.261 621.638 215.176 621.687C215.046 622.421 214.968 623.4 214.968 624.648C214.968 625.896 215.046 627.805 215.176 630.424C215.307 633.042 215.385 635.025 215.385 636.346Z" fill="#27273D"/>
<path opacity="0.55" d="M224.323 627.928L224.453 633.63V634.437L224.427 635.196L224.792 635.147L225.574 635C226.304 634.902 226.668 635.049 226.668 635.514C226.668 635.734 226.59 635.955 226.408 636.15C226.225 636.346 226.017 636.444 225.782 636.493L224.61 636.664C223.802 636.787 223.281 636.836 223.046 636.836C222.916 636.884 222.786 636.909 222.707 636.909C222.056 637.007 221.743 636.86 221.743 636.444C221.743 636.273 221.795 636.101 221.9 635.955C222.004 635.783 222.108 635.685 222.212 635.661L222.968 635.538L223.02 635.171L222.838 629.494L222.994 623.474C222.994 622.446 222.942 621.491 222.864 620.61L222.343 620.684L221.717 620.806C221.457 620.855 221.248 620.831 221.092 620.757C220.935 620.684 220.857 620.488 220.857 620.219C220.857 619.803 221.3 619.534 222.186 619.411L225.391 618.946C226.121 618.848 226.486 618.971 226.486 619.362C226.486 619.534 226.408 619.705 226.251 619.852C226.095 620.023 225.913 620.121 225.704 620.145L224.323 620.341C224.401 621.075 224.427 621.883 224.427 622.813L224.323 627.928Z" fill="#27273D"/>
<path opacity="0.55" d="M228.049 635.196L229.17 635.22C229.509 635.171 229.821 634.976 230.056 634.633C230.317 634.29 230.499 633.899 230.629 633.434C230.864 632.528 230.994 631.77 230.994 631.109C230.994 630.448 230.89 629.812 230.655 629.2C230.447 628.588 230.16 628.026 229.848 627.512C229.535 626.998 229.222 626.484 228.883 625.945C228.128 624.697 227.763 623.4 227.763 622.103C227.763 621.296 227.893 620.561 228.18 619.901C228.675 618.677 229.352 617.992 230.212 617.87C230.525 617.821 230.838 617.87 231.124 618.041C231.411 618.212 231.541 618.408 231.541 618.628C231.541 619.044 231.333 619.289 230.89 619.338C230.707 619.362 230.499 619.338 230.317 619.264C229.743 619.387 229.352 620.072 229.17 621.345C229.118 621.614 229.092 621.932 229.092 622.299C229.092 622.666 229.17 623.107 229.326 623.621C229.483 624.134 229.691 624.575 229.926 624.966C230.16 625.358 230.421 625.774 230.707 626.239C230.994 626.704 231.255 627.145 231.489 627.585C232.036 628.588 232.323 629.812 232.323 631.231C232.323 632.308 232.089 633.385 231.567 634.462C231.333 635 230.968 635.441 230.525 635.808C230.082 636.175 229.561 636.419 228.988 636.517V636.591C228.258 636.591 227.841 636.297 227.789 635.734L228.049 635.196Z" fill="#27273D"/>
<path opacity="0.55" d="M235.476 619.02L235.372 625.75C235.685 625.799 236.18 625.75 236.832 625.652L237.796 625.505C237.848 625.431 237.874 625.138 237.874 624.624C237.874 624.134 237.822 623.033 237.691 621.369C237.561 619.68 237.509 618.432 237.509 617.576C237.509 617.38 237.587 617.184 237.744 617.037C237.9 616.891 238.056 616.793 238.187 616.768C238.317 616.744 238.447 616.744 238.525 616.768C238.604 616.793 238.708 616.793 238.812 616.842C238.916 616.866 238.994 616.891 239.073 616.891C239.073 619.216 239.151 622.617 239.333 627.071C239.516 631.525 239.594 633.825 239.594 633.972C239.594 634.119 239.49 634.29 239.307 634.462C239.125 634.633 238.916 634.731 238.682 634.78C238.447 634.804 238.265 634.682 238.134 634.339C238.004 634.021 237.9 633.532 237.848 632.871C237.796 632.21 237.77 631.623 237.744 631.133C237.744 630.913 237.744 630.693 237.744 630.399C237.744 630.032 237.744 629.616 237.77 629.127C237.796 628.295 237.796 627.805 237.796 627.683V627.585L237.848 626.802L237.691 626.582V626.557C237.535 626.606 237.379 626.655 237.196 626.68H235.45V629.763L235.607 634.168C235.607 634.413 235.529 634.657 235.398 634.878C235.268 635.098 235.086 635.22 234.825 635.245C234.46 635.294 234.226 635 234.095 634.364C233.965 633.728 233.887 632.847 233.887 631.721L233.965 627.609C233.965 626.753 233.939 626.288 233.913 626.215V626.092C233.991 625.138 234.017 624.624 234.017 624.502L233.835 618.457C233.835 618.237 233.913 618.041 234.069 617.87C234.226 617.674 234.408 617.576 234.616 617.551C235.19 617.454 235.476 617.967 235.476 619.02Z" fill="#27273D"/>
<path opacity="0.55" d="M241.6 620.733L241.444 618.481C241.444 617.209 241.809 616.524 242.564 616.401C243.034 616.328 243.711 616.352 244.545 616.45C245.379 616.548 245.796 616.768 245.796 617.135C245.796 617.502 245.535 617.821 245.014 618.09C244.18 617.943 243.503 617.87 242.981 617.87C243.007 618.261 243.033 618.628 243.033 619.02L242.903 622.911C242.903 622.935 242.929 623.058 242.981 623.327L243.946 623.156C244.806 623.033 245.249 623.204 245.249 623.694C245.249 623.89 245.17 624.061 245.014 624.232C244.858 624.404 244.649 624.502 244.415 624.526C244.18 624.55 243.92 624.575 243.633 624.599L242.955 624.697C243.007 625.383 243.033 626.043 243.033 626.728L242.903 631.623C242.903 632.626 242.929 633.14 242.955 633.116L244.936 632.749C245.613 632.651 245.952 632.822 245.952 633.263C245.952 633.532 245.822 633.752 245.587 633.899C245.353 634.046 245.092 634.168 244.779 634.193L242.512 634.535C242.278 634.56 242.069 634.511 241.861 634.388C241.678 634.266 241.574 634.07 241.548 633.85V633.14L241.366 628.613L241.6 620.733Z" fill="#27273D"/>
<path opacity="0.55" d="M247.385 632.333L248.506 632.357C248.845 632.308 249.157 632.112 249.392 631.77C249.652 631.427 249.835 631.036 249.965 630.571C250.2 629.69 250.33 628.907 250.33 628.246C250.33 627.585 250.226 626.949 249.991 626.337C249.783 625.725 249.496 625.162 249.183 624.648C248.871 624.134 248.558 623.621 248.219 623.082C247.463 621.834 247.099 620.537 247.099 619.24C247.099 618.432 247.229 617.698 247.516 617.037C248.011 615.814 248.688 615.129 249.548 615.006C249.861 614.957 250.174 615.006 250.46 615.178C250.747 615.349 250.877 615.545 250.877 615.765C250.877 616.181 250.669 616.426 250.226 616.475C250.043 616.499 249.835 616.475 249.652 616.401C249.079 616.524 248.688 617.209 248.506 618.481C248.454 618.751 248.428 619.069 248.428 619.436C248.428 619.803 248.506 620.243 248.662 620.757C248.819 621.271 249.027 621.712 249.262 622.103C249.496 622.495 249.757 622.911 250.043 623.376C250.33 623.841 250.591 624.281 250.825 624.722C251.372 625.725 251.659 626.949 251.659 628.368C251.659 629.445 251.424 630.522 250.903 631.598C250.669 632.137 250.304 632.577 249.861 632.944C249.418 633.312 248.897 633.556 248.323 633.654V633.728C247.594 633.728 247.177 633.434 247.125 632.871L247.385 632.333Z" fill="#27273D"/>
</g>
<path d="M262.213 628.001L259.008 623.425H256.115L242.877 635.465C242.356 635.93 242.304 636.713 242.747 637.252L246.708 642.024C247.229 642.66 248.245 642.709 248.845 642.146L262.031 629.69C262.5 629.225 262.578 628.539 262.213 628.001Z" fill="#E1DBDE"/>
<path d="M248.558 641.192L261.014 629.469C261.327 629.176 261.405 628.735 261.223 628.466L257.965 623.841C257.757 623.547 257.34 623.547 257.027 623.841L244.05 635.685C243.711 636.003 243.633 636.468 243.841 636.762L247.568 641.289C247.802 641.534 248.245 641.485 248.558 641.192Z" fill="#83B8D8"/>
<path d="M248.48 640.041L260.05 629.176C260.154 629.078 260.18 628.907 260.128 628.809L257.418 624.991C257.34 624.893 257.184 624.893 257.079 624.991L245.144 635.93C245.014 636.052 244.988 636.224 245.066 636.322L248.115 640.066C248.219 640.164 248.376 640.139 248.48 640.041Z" fill="#D1DEE1"/>
<path d="M255.125 627.512L251.034 631.256L250.956 631.158L255.047 627.414L255.125 627.512ZM255.307 627.169L255.386 627.267L257.236 625.578L257.158 625.48L255.307 627.169ZM253.483 629.2L251.112 631.378L251.19 631.476L253.561 629.298L253.483 629.2ZM254.057 628.711L254.135 628.809L256.428 626.704L256.35 626.606L254.057 628.711ZM256.532 626.41L256.61 626.508L257.392 625.799L257.314 625.701L256.532 626.41ZM252.91 630.106L251.294 631.598L251.373 631.696L252.988 630.204L252.91 630.106ZM253.04 629.983L253.118 630.081L255.62 627.781L255.542 627.683L253.04 629.983ZM255.881 627.365L255.959 627.463L257.549 625.994L257.47 625.896L255.881 627.365ZM253.822 629.616L253.9 629.714L256.454 627.365L256.376 627.267L253.822 629.616ZM252.936 630.448L251.451 631.819L251.529 631.917L253.014 630.546L252.936 630.448ZM256.584 627.096L256.662 627.193L257.705 626.215L257.627 626.117L256.584 627.096ZM255.829 628.123L255.907 628.221L257.861 626.41L257.783 626.312L255.829 628.123ZM255.698 628.246L251.607 632.014L251.685 632.112L255.75 628.344L255.698 628.246ZM254.812 629.42L251.789 632.21L251.868 632.308L254.89 629.518L254.812 629.42ZM254.943 629.323L255.021 629.42L256.923 627.658L256.845 627.561L254.943 629.323ZM256.975 627.438L257.053 627.536L258.018 626.655L257.939 626.557L256.975 627.438ZM252.024 632.528L258.174 626.851L258.096 626.753L251.946 632.431L252.024 632.528ZM254.812 630.155L252.102 632.651L252.18 632.749L254.89 630.252L254.812 630.155ZM255.021 629.959L255.099 630.057L258.304 627.071L258.226 626.973L255.021 629.959ZM253.926 631.329L254.004 631.427L258.461 627.291L258.382 627.193L253.926 631.329ZM253.509 631.696L252.259 632.847L252.337 632.944L253.588 631.794L253.509 631.696ZM252.493 633.165L258.617 627.487L258.539 627.389L252.415 633.067L252.493 633.165ZM256.48 629.665L252.571 633.287L252.649 633.385L256.558 629.763L256.48 629.665ZM256.636 629.518L256.715 629.616L257.679 628.711L257.601 628.613L256.636 629.518ZM257.731 628.515L257.809 628.613L258.773 627.707L258.695 627.609L257.731 628.515ZM255.672 630.766L252.754 633.483L252.832 633.581L255.75 630.864L255.672 630.766ZM255.959 630.497L256.037 630.595L257.835 628.907L257.757 628.809L255.959 630.497ZM257.861 628.711L257.939 628.809L258.904 627.903L258.825 627.805L257.861 628.711ZM252.962 633.801L259.034 628.123L258.956 628.026L252.858 633.703L252.962 633.801ZM255.724 631.427L253.066 633.899L253.145 633.997L255.803 631.525L255.724 631.427ZM258.148 629.176L255.907 631.28L255.985 631.378L258.226 629.274L258.148 629.176ZM258.278 629.029L258.356 629.127L259.216 628.319L259.138 628.221L258.278 629.029ZM254.5 632.92L253.223 634.119L253.301 634.217L254.578 633.018L254.5 632.92ZM254.708 632.724L254.786 632.822L259.373 628.539L259.294 628.442L254.708 632.724ZM258.878 629.2L257.132 630.815L257.21 630.913L258.956 629.298L258.878 629.2ZM256.819 631.109L253.379 634.315L253.457 634.413L256.897 631.207L256.819 631.109ZM256.011 632.21L253.535 634.511L253.614 634.609L256.089 632.308L256.011 632.21ZM256.532 631.745L256.61 631.843L258.382 630.179L258.304 630.081L256.532 631.745ZM258.539 629.836L258.617 629.934L259.659 628.955L259.581 628.858L258.539 629.836Z" fill="#9FA4A1"/>
<path d="M249.783 638.035L252.337 635.661L252.415 635.759L249.861 638.133L249.783 638.035ZM249.679 638.304L249.6 638.206L248.402 639.307L248.48 639.405L249.679 638.304ZM250.773 636.909L252.232 635.539L252.154 635.441L250.695 636.811L250.773 636.909ZM250.408 637.227L250.33 637.129L248.871 638.5L248.949 638.598L250.408 637.227ZM248.819 638.72L248.74 638.622L248.245 639.087L248.324 639.185L248.819 638.72ZM251.06 636.273L252.076 635.343L251.998 635.245L250.982 636.175L251.06 636.273ZM250.982 636.346L250.903 636.248L249.314 637.717L249.392 637.814L250.982 636.346ZM249.183 638.01L249.105 637.912L248.063 638.867L248.141 638.965L249.183 638.01ZM250.434 636.493L250.356 636.395L248.714 637.912L248.793 638.01L250.434 636.493ZM250.982 635.979L251.894 635.122L251.815 635.025L250.903 635.881L250.982 635.979ZM248.688 638.133L248.61 638.035L247.933 638.671L248.011 638.769L248.688 638.133ZM249.079 637.398L249.001 637.301L247.724 638.475L247.802 638.573L249.079 637.398ZM249.183 637.325L251.763 634.927L251.685 634.829L249.105 637.227L249.183 637.325ZM249.679 636.493L251.581 634.731L251.503 634.633L249.6 636.395L249.679 636.493ZM249.6 636.566L249.522 636.468L248.297 637.619L248.376 637.717L249.6 636.566ZM248.297 637.79L248.219 637.692L247.594 638.279L247.672 638.377L248.297 637.79ZM251.346 634.413L247.411 638.059L247.49 638.157L251.425 634.511L251.346 634.413ZM249.548 635.881L251.268 634.29L251.19 634.193L249.47 635.783L249.548 635.881ZM249.418 636.003L249.34 635.906L247.255 637.863L247.333 637.961L249.418 636.003ZM250.043 635.049L249.965 634.951L247.073 637.643L247.151 637.741L250.043 635.049ZM250.304 634.804L251.086 634.07L251.008 633.972L250.226 634.706L250.304 634.804ZM250.851 633.776L246.89 637.447L246.968 637.545L250.929 633.874L250.851 633.776ZM248.271 635.979L250.773 633.654L250.695 633.556L248.193 635.881L248.271 635.979ZM248.167 636.077L248.089 635.979L247.464 636.566L247.542 636.664L248.167 636.077ZM247.464 636.738L247.385 636.64L246.734 637.227L246.812 637.325L247.464 636.738ZM248.74 635.171L250.617 633.434L250.539 633.336L248.662 635.074L248.74 635.171ZM248.558 635.367L248.48 635.269L247.307 636.371L247.385 636.468L248.558 635.367ZM247.281 636.517L247.203 636.419L246.552 637.007L246.63 637.105L247.281 636.517ZM250.382 633.165L246.421 636.836L246.499 636.933L250.46 633.263L250.382 633.165ZM248.584 634.609L250.304 633.042L250.226 632.944L248.506 634.511L248.584 634.609ZM246.968 636.077L248.454 634.706L248.376 634.609L246.89 635.979L246.968 636.077ZM246.89 636.175L246.812 636.077L246.239 636.615L246.317 636.713L246.89 636.175ZM249.288 633.581L250.122 632.822L250.043 632.724L249.21 633.483L249.288 633.581ZM249.157 633.703L249.079 633.605L246.056 636.395L246.135 636.493L249.157 633.703ZM246.369 635.93L247.542 634.853L247.464 634.755L246.291 635.832L246.369 635.93ZM247.724 634.658L249.965 632.602L249.887 632.504L247.646 634.56L247.724 634.658ZM248.193 633.874L249.783 632.406L249.705 632.308L248.115 633.776L248.193 633.874ZM247.854 634.193L247.776 634.095L246.578 635.196L246.656 635.294L247.854 634.193ZM246.499 635.416L246.421 635.318L245.718 635.955L245.796 636.052L246.499 635.416Z" fill="#9FA4A1"/>
<mask id="mask2_26_2" style="mask-type:alpha" maskUnits="userSpaceOnUse" x="242" y="623" width="21" height="20">
<path d="M262.213 628.001L259.008 623.425H256.115L242.877 635.465C242.356 635.93 242.304 636.713 242.747 637.252L246.708 642.024C247.229 642.66 248.245 642.709 248.845 642.146L262.031 629.69C262.5 629.225 262.578 628.539 262.213 628.001Z" fill="url(#paint30_linear_26_2)"/>
</mask>
<g mask="url(#mask2_26_2)">
<path d="M262.213 628.001L259.008 623.425H256.115L242.877 635.465C242.356 635.93 242.304 636.713 242.747 637.252L246.708 642.024C247.229 642.66 248.245 642.709 248.845 642.146L262.031 629.69C262.5 629.225 262.578 628.539 262.213 628.001Z" fill="url(#paint31_linear_26_2)"/>
<path d="M259.008 623.425C259.294 623.523 259.112 623.963 258.695 624.085C258.46 624.159 257.757 623.988 257.548 623.865C256.949 623.572 256.402 623.449 256.141 623.425H259.008Z" fill="white"/>
</g>
<g filter="url(#filter3_d_26_2)">
<path d="M201.391 817L139.579 789.053L141.924 707.413L202.772 730.662L201.391 817Z" fill="url(#paint32_linear_26_2)"/>
<path d="M202.772 730.662L141.924 707.413L206.681 696.695L267.555 717.912L202.772 730.662Z" fill="url(#paint33_linear_26_2)"/>
<path d="M171.84 718.842L141.924 707.413L206.681 696.695L234.486 706.386L171.84 718.842Z" fill="url(#paint34_linear_26_2)"/>
<path d="M142.591 706.715L142.255 707.485L173.119 719.364L173.455 718.594L142.591 706.715Z" fill="#EFD6A5"/>
<path d="M206.028 696.441L205.721 697.221L234.928 707.363L235.235 706.582L206.028 696.441Z" fill="#E5C796"/>
<path d="M200.557 729.805L172.596 719.356L172.935 718.597L200.557 729.805Z" fill="#AF8260"/>
<path d="M153.625 679.882L141.924 707.413L206.681 696.695L219.268 671.341L153.625 679.882Z" fill="url(#paint35_linear_26_2)"/>
<path d="M267.555 717.912L266.278 800.212L201.391 817L202.772 730.662L267.555 717.912Z" fill="#DBB484"/>
<path d="M219.234 670.894L153.57 679.46L153.692 680.284L219.356 671.718L219.234 670.894Z" fill="#EFD6A5"/>
<g opacity="0.55">
<path opacity="0.55" d="M213.248 756.652L213.066 755.306V755.159C213.066 754.792 213.118 754.473 213.222 754.229C213.326 753.984 213.639 753.813 214.134 753.715C214.629 753.617 215.124 753.641 215.619 753.788C216.114 753.935 216.505 754.204 216.792 754.596C217.365 755.354 217.678 756.26 217.704 757.361C217.73 758.462 217.678 759.368 217.522 760.029C217.365 760.714 217.105 761.375 216.714 762.011C217.443 762.525 217.913 763.528 218.043 765.021C218.069 765.364 218.095 765.78 218.121 766.245C218.147 766.734 218.121 767.199 218.043 767.688C217.965 768.178 217.834 768.643 217.626 769.108C217.417 769.573 217.183 769.989 216.87 770.38C216.219 771.188 215.307 771.726 214.186 771.971C213.795 772.045 213.535 771.947 213.43 771.629C213.352 771.384 213.3 771.09 213.274 770.748L213.378 765.045L213.248 756.652ZM214.629 757.728L214.733 761.668C215.698 761.448 216.167 760.224 216.088 757.997C216.036 755.795 215.619 754.718 214.838 754.792C214.681 755.306 214.603 756.284 214.629 757.728ZM214.785 769.181L214.812 769.304L214.838 770.503C215.463 770.234 215.906 769.793 216.219 769.157C216.505 768.521 216.662 767.958 216.636 767.468C216.61 766.979 216.61 766.587 216.584 766.318C216.557 766.024 216.505 765.706 216.427 765.29C216.349 764.899 216.245 764.556 216.114 764.262C215.828 763.553 215.385 763.21 214.812 763.21C214.759 764.36 214.759 765.706 214.812 767.248L214.785 769.181Z" fill="#27273D"/>
<path opacity="0.55" d="M219.528 762.451V761.448C219.528 761.35 219.502 761.326 219.476 761.326L219.45 760.836C219.372 758.046 219.476 756.04 219.789 754.792C220.049 753.739 220.284 753.079 220.545 752.785C220.805 752.491 221.066 752.32 221.3 752.271C223.437 751.83 224.948 752.54 225.834 754.449C226.33 755.55 226.616 756.97 226.668 758.707V758.903L226.799 761.889C226.955 766.979 225.782 769.769 223.333 770.282C222.317 770.503 221.509 770.111 220.935 769.157C220.388 768.227 220.049 767.272 219.893 766.294C219.685 764.85 219.554 763.577 219.528 762.451ZM221.04 758.487L220.988 760.959C221.066 763.528 221.352 765.706 221.821 767.517C222.317 768.545 222.76 769.108 223.203 769.206C223.541 769.132 223.828 768.937 224.089 768.618C224.349 768.3 224.558 767.909 224.714 767.444C224.87 766.979 224.975 766.489 225.079 765.975C225.157 765.486 225.235 764.948 225.261 764.409C225.313 763.455 225.339 762.647 225.313 761.962C225.287 761.301 225.209 760.298 225.053 758.952C224.896 757.606 224.792 756.603 224.792 755.917L224.766 755.452C224.74 754.816 224.479 754.278 224.062 753.862C223.619 753.446 223.072 753.299 222.421 753.446C221.795 753.568 221.378 754.008 221.196 754.743C221.04 755.354 220.988 756.064 220.988 756.896L221.04 758.487Z" fill="#27273D"/>
<path opacity="0.55" d="M228.336 760.616V759.613C228.336 759.515 228.31 759.49 228.284 759.49L228.258 759.001C228.18 756.211 228.284 754.204 228.597 752.956C228.857 751.904 229.092 751.243 229.353 750.949C229.613 750.656 229.874 750.485 230.108 750.436C232.245 749.995 233.756 750.705 234.643 752.614C235.138 753.715 235.424 755.134 235.476 756.872V757.068L235.607 760.053C235.763 765.143 234.59 767.933 232.141 768.447C231.125 768.667 230.317 768.276 229.743 767.321C229.196 766.391 228.857 765.437 228.701 764.458C228.493 762.99 228.362 761.717 228.336 760.616ZM229.874 756.627L229.822 759.099C229.9 761.668 230.186 763.846 230.655 765.657C231.151 766.685 231.594 767.248 232.037 767.346C232.375 767.272 232.662 767.077 232.923 766.759C233.183 766.44 233.392 766.049 233.548 765.584C233.704 765.119 233.809 764.629 233.913 764.116C233.991 763.626 234.069 763.088 234.095 762.549C234.147 761.595 234.173 760.787 234.147 760.102C234.121 759.441 234.043 758.438 233.887 757.092C233.73 755.746 233.626 754.743 233.626 754.057L233.6 753.592C233.574 752.956 233.313 752.418 232.897 752.002C232.454 751.586 231.906 751.439 231.255 751.586C230.629 751.708 230.212 752.149 230.03 752.883C229.874 753.495 229.822 754.204 229.822 755.036L229.874 756.627Z" fill="#27273D"/>
<path opacity="0.55" d="M241.105 754.106V755.697C241.131 756.456 241.496 757.802 242.174 759.759C242.877 761.717 243.45 762.965 243.893 763.553C243.946 763.626 244.076 763.748 244.258 763.944C244.441 764.14 244.597 764.336 244.675 764.483C244.753 764.654 244.805 764.825 244.832 765.021C244.832 765.217 244.753 765.413 244.597 765.559C244.441 765.731 244.258 765.829 244.05 765.878C243.607 765.975 243.164 765.633 242.669 764.85C242.173 764.067 241.73 763.088 241.34 761.889C240.662 759.857 240.141 758.071 239.802 756.529C239.177 757.949 238.89 759.539 238.942 761.35L239.072 766.245C239.072 766.661 238.89 766.905 238.525 766.979C238.239 767.028 238.03 767.003 237.848 766.881C237.665 766.759 237.587 766.587 237.587 766.318L237.353 758.267C237.327 757.312 237.379 755.868 237.483 753.911C237.613 751.977 237.639 750.533 237.613 749.579C237.77 749.212 238.004 748.992 238.317 748.918C238.629 748.845 238.864 748.894 239.046 749.016C239.229 749.139 239.307 749.31 239.307 749.53V749.604C239.072 750.068 238.994 751.684 239.072 754.498L239.099 755.452C239.125 755.403 239.437 754.694 240.063 753.299C241.548 749.922 242.486 748.209 242.851 748.135C243.112 748.086 243.372 748.086 243.607 748.16C243.841 748.233 243.945 748.38 243.945 748.625C243.945 748.649 243.737 749.041 243.32 749.824C242.017 752.295 241.287 753.715 241.105 754.106Z" fill="#27273D"/>
<path opacity="0.55" d="M246.265 763.871L247.411 763.822C247.776 763.748 248.063 763.528 248.323 763.186C248.584 762.843 248.766 762.427 248.871 761.962C249.079 761.057 249.183 760.298 249.183 759.637C249.157 758.976 249.027 758.365 248.792 757.777C248.558 757.19 248.245 756.652 247.907 756.162C247.568 755.673 247.229 755.183 246.864 754.694C246.056 753.519 245.613 752.271 245.587 750.974C245.561 750.191 245.691 749.457 245.952 748.771C246.447 747.523 247.125 746.814 247.985 746.618C248.297 746.544 248.61 746.593 248.923 746.716C249.209 746.863 249.366 747.034 249.392 747.279C249.392 747.695 249.183 747.939 248.74 748.037C248.532 748.086 248.349 748.062 248.141 748.013C247.568 748.16 247.177 748.869 246.994 750.142C246.968 750.411 246.942 750.729 246.942 751.096C246.942 751.463 247.047 751.879 247.229 752.369C247.411 752.858 247.62 753.274 247.88 753.641C248.141 754.009 248.428 754.4 248.714 754.841C249.001 755.281 249.288 755.697 249.574 756.113C250.174 757.068 250.512 758.242 250.538 759.637C250.591 760.714 250.356 761.791 249.861 762.867C249.626 763.406 249.288 763.871 248.819 764.287C248.35 764.678 247.828 764.972 247.229 765.094V765.168C246.473 765.217 246.03 764.972 245.952 764.409L246.265 763.871Z" fill="#27273D"/>
</g>
<path d="M266.956 755.942L249.235 738.983L256.193 728.802L267.242 739.374L266.956 755.942Z" fill="#EDE8ED"/>
<path d="M251.529 738.248L256.063 731.592C256.35 731.2 256.897 731.176 257.314 731.592L267.19 741.038L266.982 754.229L251.789 739.692C251.372 739.301 251.268 738.664 251.529 738.248Z" fill="#83B8D8"/>
<path d="M253.04 738.738L256.793 733.232C256.897 733.085 257.105 733.085 257.236 733.232L267.164 742.727L267.008 752.54L253.118 739.252C252.988 739.129 252.936 738.885 253.04 738.738Z" fill="#EDE8ED"/>
<path d="M259.946 736.609L265.288 741.723L265.184 741.87L259.842 736.756L259.946 736.609ZM257.158 733.917L257.053 734.064L259.503 736.413L259.607 736.266L257.158 733.917ZM261.9 739.227L264.975 742.164L265.079 742.017L262.004 739.08L261.9 739.227ZM258.252 735.508L258.148 735.654L261.171 738.542L261.275 738.395L258.252 735.508ZM256.923 734.235L256.819 734.382L257.861 735.385L257.965 735.238L256.923 734.235ZM262.656 740.451L264.767 742.482L264.871 742.335L262.76 740.304L262.656 740.451ZM259.294 737L259.19 737.147L262.5 740.304L262.604 740.157L259.294 737ZM256.714 734.529L256.61 734.675L258.747 736.731L258.851 736.584L256.714 734.529ZM258.174 736.437L258.07 736.584L261.457 739.839L261.561 739.692L258.174 736.437ZM262.656 740.94L264.584 742.776L264.689 742.629L262.76 740.794L262.656 740.94ZM256.506 734.847L256.402 734.994L257.809 736.34L257.913 736.193L256.506 734.847ZM256.298 735.14L256.193 735.287L258.799 737.783L258.903 737.637L256.298 735.14ZM259.008 737.955L264.376 743.094L264.48 742.947L259.112 737.808L259.008 737.955ZM260.18 739.57L264.167 743.363L264.272 743.216L260.285 739.423L260.18 739.57ZM257.574 736.853L257.47 737L259.998 739.423L260.102 739.276L257.574 736.853ZM256.089 735.459L255.985 735.605L257.288 736.853L257.392 736.707L256.089 735.459ZM264.037 743.559L255.881 735.752L255.776 735.899L263.933 743.706L264.037 743.559ZM260.18 740.598L263.75 743.999L263.855 743.853L260.285 740.451L260.18 740.598ZM255.672 736.07L255.568 736.217L259.868 740.353L259.972 740.206L255.672 736.07ZM255.464 736.364L255.359 736.511L261.327 742.237L261.431 742.091L255.464 736.364ZM261.9 742.727L263.542 744.293L263.646 744.146L262.004 742.58L261.9 742.727ZM263.412 744.464L255.255 736.658L255.151 736.805L263.307 744.611L263.412 744.464ZM257.939 739.961L263.125 744.905L263.229 744.758L258.043 739.815L257.939 739.961ZM256.532 738.395L256.428 738.542L257.731 739.79L257.835 739.643L256.532 738.395ZM255.047 736.976L254.942 737.123L256.245 738.371L256.35 738.224L255.047 736.976ZM259.034 741.528L262.89 745.223L262.995 745.076L259.138 741.381L259.034 741.528ZM256.324 738.689L256.219 738.836L258.643 741.161L258.747 741.014L256.324 738.689ZM254.838 737.27L254.734 737.416L256.037 738.664L256.141 738.518L254.838 737.27ZM262.786 745.394L254.63 737.588L254.526 737.734L262.682 745.541L262.786 745.394ZM258.956 742.458L262.474 745.835L262.578 745.688L259.06 742.311L258.956 742.458ZM255.698 739.325L258.747 742.237L258.851 742.091L255.802 739.178L255.698 739.325ZM254.421 737.881L254.317 738.028L255.49 739.129L255.594 738.983L254.421 737.881ZM260.571 744.513L262.265 746.153L262.369 746.006L260.675 744.366L260.571 744.513ZM254.213 738.199L254.109 738.346L260.285 744.269L260.389 744.122L254.213 738.199ZM254.708 739.399L257.079 741.65L257.184 741.503L254.812 739.252L254.708 739.399ZM257.47 742.042L262.057 746.422L262.161 746.275L257.574 741.895L257.47 742.042ZM258.565 743.608L261.848 746.765L261.952 746.618L258.669 743.461L258.565 743.608ZM255.542 740.475L255.438 740.622L257.861 742.923L257.965 742.776L255.542 740.475ZM253.796 738.811L253.692 738.958L255.125 740.329L255.229 740.182L253.796 738.811Z" fill="#9FA4A1"/>
<path d="M265.288 748.502L264.089 747.352L264.193 747.205L265.392 748.355L265.288 748.502Z" fill="#9FA4A1"/>
<path d="M267.06 749.701L264.298 747.034L264.402 746.912L267.06 749.481V749.701Z" fill="#9FA4A1"/>
<path d="M265.21 748.918L263.881 747.646L263.985 747.523L265.288 748.771L265.21 748.918Z" fill="#9FA4A1"/>
<path d="M267.086 748.209L264.923 746.128L265.027 745.982L267.086 747.988V748.209Z" fill="#9FA4A1"/>
<path d="M265.574 749.799L263.672 747.964L263.776 747.817L265.679 749.652L265.574 749.799Z" fill="#9FA4A1"/>
<path d="M266.982 749.114L264.506 746.74L264.61 746.593L267.06 748.967L266.982 749.114Z" fill="#9FA4A1"/>
<path d="M265.392 748.869L267.06 750.46V750.68L265.288 749.016L265.392 748.869Z" fill="#9FA4A1"/>
<path d="M266.096 749.041L267.06 749.971V750.191L266.018 749.187L266.096 749.041Z" fill="#9FA4A1"/>
<path d="M266.122 750.093L267.034 750.974V751.194L266.044 750.215L266.122 750.093Z" fill="#9FA4A1"/>
<path d="M267.086 748.698L264.715 746.447L264.819 746.3L267.086 748.478V748.698Z" fill="#9FA4A1"/>
<path d="M263.542 748.135L266.877 751.317L266.773 751.463L263.464 748.282L263.542 748.135Z" fill="#9FA4A1"/>
<path d="M267.112 746.202L265.757 744.905L265.861 744.782L267.138 745.982L267.112 746.202Z" fill="#9FA4A1"/>
<path d="M267.112 747.205L265.34 745.517L265.444 745.394L267.112 746.985V747.205Z" fill="#9FA4A1"/>
<path d="M267.112 746.716L265.548 745.223L265.653 745.076L267.112 746.496V746.716Z" fill="#9FA4A1"/>
<path d="M266.148 746.789L265.131 745.835L265.236 745.688L266.252 746.667L266.148 746.789Z" fill="#9FA4A1"/>
<path d="M267.138 745.712L265.965 744.611L266.07 744.464L267.138 745.492V745.712Z" fill="#9FA4A1"/>
<path d="M225.079 674.498L191.28 713.434L191.306 677.141L218.277 671.855C218.694 672.124 221.014 673.299 225.079 674.498Z" fill="url(#paint36_linear_26_2)"/>
<path d="M225.053 710.424L198.056 718.597L198.082 680.151L225.079 674.498L225.053 710.424Z" fill="url(#paint37_linear_26_2)"/>
<path d="M191.28 713.899L198.056 718.597L198.082 680.151L191.306 677.141L191.28 713.899Z" fill="url(#paint38_linear_26_2)"/>
<path d="M197.508 718.475L198.056 718.597L198.082 680.151L197.534 680.029L197.508 718.475Z" fill="url(#paint39_linear_26_2)"/>
<path d="M231.854 680.274L199.854 720.066L199.88 682.452L225.105 677.459C225.496 678.585 228.128 679.442 231.854 680.274Z" fill="url(#paint40_linear_26_2)"/>
<path d="M231.828 716.199L205.743 724.373L206.655 685.095L231.854 680.274L231.828 716.199Z" fill="url(#paint41_linear_26_2)"/>
<path d="M199.854 720.531L205.743 724.373L206.655 685.095L199.88 682.452L199.854 720.531Z" fill="url(#paint42_linear_26_2)"/>
<path d="M205.196 724.25L205.743 724.373L206.655 685.095L206.108 684.972L205.196 724.25Z" fill="#7A4B45"/>
<path d="M196.101 684.042L168.244 713.458L169.573 685.046L190.889 681.767C191.176 681.987 192.974 682.966 196.101 684.042Z" fill="url(#paint43_linear_26_2)"/>
<path d="M194.798 712.161L173.378 717.716L174.759 687.615L196.101 684.042L194.798 712.161Z" fill="url(#paint44_linear_26_2)"/>
<path d="M168.218 713.825L173.378 717.716L174.759 687.615L169.573 685.046L168.218 713.825Z" fill="url(#paint45_linear_26_2)"/>
<path d="M172.935 717.594L173.378 717.716L174.759 687.615L174.342 687.518L172.935 717.594Z" fill="url(#paint46_linear_26_2)"/>
<path d="M201.209 688.766L174.707 718.915L176.062 689.475L195.997 686.367C196.284 687.248 198.316 688.007 201.209 688.766Z" fill="url(#paint47_linear_26_2)"/>
<path d="M199.906 716.909L179.189 722.488L181.3 691.751L201.209 688.766L199.906 716.909Z" fill="url(#paint48_linear_26_2)"/>
<path d="M174.707 719.282L179.189 722.488L181.3 691.751L176.088 689.475L174.707 719.282Z" fill="url(#paint49_linear_26_2)"/>
<path d="M178.746 722.366L179.189 722.488L181.3 691.751L180.883 691.653L178.746 722.366Z" fill="#7A4B45"/>
</g>
<g filter="url(#filter4_d_26_2)">
<path d="M34.8219 802.194L-1.94742 787.266L-2.20801 736.021L35.3691 748.527L34.8219 802.194Z" fill="url(#paint50_linear_26_2)"/>
<path d="M35.3691 748.527L-2.20801 736.021L37.4538 728.876L75.057 741.356L35.3691 748.527Z" fill="#F0D7A5"/>
<path d="M75.057 741.356L74.4837 792.014L34.8219 802.194L35.3691 748.527L75.057 741.356Z" fill="#E3B989"/>
<path d="M55.2001 735.043C55.2001 735.043 54.6007 735.189 53.5844 735.41C52.542 735.63 51.0827 736.021 49.3107 736.34C45.7406 737.025 40.9979 737.93 36.2551 738.836C31.5124 739.741 26.7697 740.671 23.1996 741.356C21.4276 741.723 19.9161 741.895 18.8738 742.066C17.8314 742.237 17.2321 742.311 17.2321 742.311C17.2321 742.311 17.8314 742.164 18.8477 741.944C19.8901 741.723 21.3494 741.332 23.1214 741.014C26.6915 740.329 31.4342 739.423 36.177 738.518C40.9197 737.612 45.6624 736.682 49.2325 736.021C51.0045 735.654 52.516 735.483 53.5583 735.312C54.6007 735.14 55.2001 735.043 55.2001 735.043Z" fill="#C09A6E"/>
<path opacity="0.3" d="M51.656 733.623L59.0047 736.021L21.5578 743.877L12.359 740.867L51.656 733.623Z" fill="url(#paint51_linear_26_2)"/>
<path d="M12.4632 746.961L21.167 750.925L21.5578 743.877L12.359 740.867L12.4632 746.961Z" fill="url(#paint52_linear_26_2)"/>
</g>
</g>
</g>
<defs>
<filter id="filter0_d_26_2" x="144.241" y="620.708" width="181.325" height="169.45" filterUnits="userSpaceOnUse" color-interpolation-filters="sRGB">
<feFlood flood-opacity="0" result="BackgroundImageFix"/>
<feColorMatrix in="SourceAlpha" type="matrix" values="0 0 0 0 0 0 0 0 0 0 0 0 0 0 0 0 0 0 127 0" result="hardAlpha"/>
<feOffset dy="3"/>
<feGaussianBlur stdDeviation="1.5"/>
<feComposite in2="hardAlpha" operator="out"/>
<feColorMatrix type="matrix" values="0 0 0 0 0 0 0 0 0 0 0 0 0 0 0 0 0 0 0.25 0"/>
<feBlend mode="normal" in2="BackgroundImageFix" result="effect1_dropShadow_26_2"/>
<feBlend mode="normal" in="SourceGraphic" in2="effect1_dropShadow_26_2" result="shape"/>
</filter>
<filter id="filter1_d_26_2" x="33.3073" y="701.687" width="125.298" height="85.755" filterUnits="userSpaceOnUse" color-interpolation-filters="sRGB">
<feFlood flood-opacity="0" result="BackgroundImageFix"/>
<feColorMatrix in="SourceAlpha" type="matrix" values="0 0 0 0 0 0 0 0 0 0 0 0 0 0 0 0 0 0 127 0" result="hardAlpha"/>
<feOffset dy="3"/>
<feGaussianBlur stdDeviation="1.5"/>
<feComposite in2="hardAlpha" operator="out"/>
<feColorMatrix type="matrix" values="0 0 0 0 0 0 0 0 0 0 0 0 0 0 0 0 0 0 0.25 0"/>
<feBlend mode="normal" in2="BackgroundImageFix" result="effect1_dropShadow_26_2"/>
<feBlend mode="normal" in="SourceGraphic" in2="effect1_dropShadow_26_2" result="shape"/>
</filter>
<filter id="filter2_d_26_2" x="292.725" y="685.266" width="106.31" height="112.699" filterUnits="userSpaceOnUse" color-interpolation-filters="sRGB">
<feFlood flood-opacity="0" result="BackgroundImageFix"/>
<feColorMatrix in="SourceAlpha" type="matrix" values="0 0 0 0 0 0 0 0 0 0 0 0 0 0 0 0 0 0 127 0" result="hardAlpha"/>
<feOffset dy="3"/>
<feGaussianBlur stdDeviation="1.5"/>
<feComposite in2="hardAlpha" operator="out"/>
<feColorMatrix type="matrix" values="0 0 0 0 0 0 0 0 0 0 0 0 0 0 0 0 0 0 0.25 0"/>
<feBlend mode="normal" in2="BackgroundImageFix" result="effect1_dropShadow_26_2"/>
<feBlend mode="normal" in="SourceGraphic" in2="effect1_dropShadow_26_2" result="shape"/>
</filter>
<filter id="filter3_d_26_2" x="136.579" y="670.894" width="133.976" height="152.106" filterUnits="userSpaceOnUse" color-interpolation-filters="sRGB">
<feFlood flood-opacity="0" result="BackgroundImageFix"/>
<feColorMatrix in="SourceAlpha" type="matrix" values="0 0 0 0 0 0 0 0 0 0 0 0 0 0 0 0 0 0 127 0" result="hardAlpha"/>
<feOffset dy="3"/>
<feGaussianBlur stdDeviation="1.5"/>
<feComposite in2="hardAlpha" operator="out"/>
<feColorMatrix type="matrix" values="0 0 0 0 0 0 0 0 0 0 0 0 0 0 0 0 0 0 0.25 0"/>
<feBlend mode="normal" in2="BackgroundImageFix" result="effect1_dropShadow_26_2"/>
<feBlend mode="normal" in="SourceGraphic" in2="effect1_dropShadow_26_2" result="shape"/>
</filter>
<filter id="filter4_d_26_2" x="-5.20801" y="727.876" width="83.265" height="79.3188" filterUnits="userSpaceOnUse" color-interpolation-filters="sRGB">
<feFlood flood-opacity="0" result="BackgroundImageFix"/>
<feColorMatrix in="SourceAlpha" type="matrix" values="0 0 0 0 0 0 0 0 0 0 0 0 0 0 0 0 0 0 127 0" result="hardAlpha"/>
<feOffset dy="2"/>
<feGaussianBlur stdDeviation="1.5"/>
<feComposite in2="hardAlpha" operator="out"/>
<feColorMatrix type="matrix" values="0 0 0 0 0 0 0 0 0 0 0 0 0 0 0 0 0 0 0.25 0"/>
<feBlend mode="normal" in2="BackgroundImageFix" result="effect1_dropShadow_26_2"/>
<feBlend mode="normal" in="SourceGraphic" in2="effect1_dropShadow_26_2" result="shape"/>
</filter>
<linearGradient id="paint0_linear_26_2" x1="297.424" y1="706.153" x2="316.066" y2="668.871" gradientUnits="userSpaceOnUse">
<stop stop-color="#BD9366"/>
<stop offset="1" stop-color="#D4AB78"/>
</linearGradient>
<linearGradient id="paint1_linear_26_2" x1="303.131" y1="669.921" x2="307.429" y2="669.921" gradientUnits="userSpaceOnUse">
<stop stop-color="#001100"/>
<stop offset="0.9962" stop-color="white"/>
</linearGradient>
<linearGradient id="paint2_linear_26_2" x1="302.888" y1="660.896" x2="301.952" y2="671.099" gradientUnits="userSpaceOnUse">
<stop stop-color="#77483B"/>
<stop offset="1" stop-color="#A97B5C"/>
</linearGradient>
<linearGradient id="paint3_linear_26_2" x1="216.604" y1="661.917" x2="202.357" y2="691.569" gradientUnits="userSpaceOnUse">
<stop stop-color="#BD9366"/>
<stop offset="1" stop-color="#A97B5C"/>
</linearGradient>
<linearGradient id="paint4_linear_26_2" x1="196.124" y1="709.956" x2="186.788" y2="705.317" gradientUnits="userSpaceOnUse">
<stop/>
<stop offset="1" stop-color="white"/>
</linearGradient>
<linearGradient id="paint5_linear_26_2" x1="196.124" y1="709.956" x2="186.788" y2="705.317" gradientUnits="userSpaceOnUse">
<stop stop-color="#A97B5C"/>
<stop offset="1" stop-color="#A97B5C"/>
</linearGradient>
<linearGradient id="paint6_linear_26_2" x1="272.867" y1="642.577" x2="269.097" y2="642.577" gradientUnits="userSpaceOnUse">
<stop stop-color="#F0D7A5"/>
<stop offset="1" stop-color="#E3C391"/>
</linearGradient>
<linearGradient id="paint7_linear_26_2" x1="262.226" y1="758.519" x2="284.238" y2="681.067" gradientUnits="userSpaceOnUse">
<stop stop-color="#BD9366"/>
<stop offset="1" stop-color="#D4AB78"/>
</linearGradient>
<linearGradient id="paint8_linear_26_2" x1="93.2322" y1="718.407" x2="103.235" y2="720.309" gradientUnits="userSpaceOnUse">
<stop stop-color="#F0D7A5"/>
<stop offset="1" stop-color="#D4AB78"/>
</linearGradient>
<linearGradient id="paint9_linear_26_2" x1="88.4041" y1="745.789" x2="46.9993" y2="748.502" gradientUnits="userSpaceOnUse">
<stop stop-color="#BD9366"/>
<stop offset="1" stop-color="#D4AB78"/>
</linearGradient>
<linearGradient id="paint10_linear_26_2" x1="89.4507" y1="785.837" x2="117.87" y2="752.823" gradientUnits="userSpaceOnUse">
<stop stop-color="#BD9366"/>
<stop offset="1" stop-color="#A97B5C"/>
</linearGradient>
<linearGradient id="paint11_linear_26_2" x1="113.314" y1="754.241" x2="141.056" y2="746.856" gradientUnits="userSpaceOnUse">
<stop/>
<stop offset="1" stop-color="white"/>
</linearGradient>
<linearGradient id="paint12_linear_26_2" x1="113.314" y1="754.241" x2="141.056" y2="746.856" gradientUnits="userSpaceOnUse">
<stop stop-color="#9D6C5C"/>
<stop offset="1" stop-color="#865448"/>
</linearGradient>
<linearGradient id="paint13_linear_26_2" x1="96.1706" y1="705.007" x2="84.615" y2="760.072" gradientUnits="userSpaceOnUse">
<stop stop-color="#FDE9A5"/>
<stop offset="0.9962" stop-color="white"/>
</linearGradient>
<linearGradient id="paint14_linear_26_2" x1="63.1516" y1="733.42" x2="66.243" y2="751.399" gradientUnits="userSpaceOnUse">
<stop stop-color="#FDE9A5"/>
<stop offset="0.9962" stop-color="white"/>
</linearGradient>
<linearGradient id="paint15_linear_26_2" x1="101.23" y1="680.981" x2="148.82" y2="725.243" gradientUnits="userSpaceOnUse">
<stop stop-color="#BD9366"/>
<stop offset="1" stop-color="#A97B5C"/>
</linearGradient>
<linearGradient id="paint16_linear_26_2" x1="137.348" y1="659.583" x2="145.926" y2="660.725" gradientUnits="userSpaceOnUse">
<stop stop-color="#F0D7A5"/>
<stop offset="1" stop-color="#E3C391"/>
</linearGradient>
<linearGradient id="paint17_linear_26_2" x1="165.705" y1="713.628" x2="172.688" y2="677.801" gradientUnits="userSpaceOnUse">
<stop stop-color="#BD9366"/>
<stop offset="1" stop-color="#D4AB78"/>
</linearGradient>
<linearGradient id="paint18_linear_26_2" x1="144.875" y1="660.633" x2="143.666" y2="660.633" gradientUnits="userSpaceOnUse">
<stop stop-color="#001100"/>
<stop offset="0.9962" stop-color="white"/>
</linearGradient>
<linearGradient id="paint19_linear_26_2" x1="123.393" y1="649.015" x2="122.037" y2="661.768" gradientUnits="userSpaceOnUse">
<stop stop-color="#77483B"/>
<stop offset="1" stop-color="#A97B5C"/>
</linearGradient>
<linearGradient id="paint20_linear_26_2" x1="319.081" y1="754.639" x2="286.988" y2="760.904" gradientUnits="userSpaceOnUse">
<stop stop-color="#BD9366"/>
<stop offset="1" stop-color="#A97B5C"/>
</linearGradient>
<linearGradient id="paint21_linear_26_2" x1="339.739" y1="719.962" x2="341.576" y2="719.962" gradientUnits="userSpaceOnUse">
<stop offset="0.292" stop-color="#BD9366"/>
<stop offset="0.688" stop-color="#95654D"/>
</linearGradient>
<linearGradient id="paint22_linear_26_2" x1="319.933" y1="720.001" x2="318.594" y2="692.1" gradientUnits="userSpaceOnUse">
<stop stop-color="#BD9366"/>
<stop offset="1" stop-color="#D4AB78"/>
</linearGradient>
<radialGradient id="paint23_radial_26_2" cx="0" cy="0" r="1" gradientUnits="userSpaceOnUse" gradientTransform="translate(323.366 730.372) scale(28.7257 26.9765)">
<stop offset="0.344" stop-color="#AB4E13"/>
<stop offset="1" stop-color="#ED9E55"/>
</radialGradient>
<radialGradient id="paint24_radial_26_2" cx="0" cy="0" r="1" gradientUnits="userSpaceOnUse" gradientTransform="translate(338.068 705.268) scale(25.7525 24.1844)">
<stop offset="0.344" stop-color="white"/>
<stop offset="1"/>
</radialGradient>
<radialGradient id="paint25_radial_26_2" cx="0" cy="0" r="1" gradientUnits="userSpaceOnUse" gradientTransform="translate(338.068 705.268) scale(25.7525 24.1844)">
<stop offset="0.344" stop-color="#FFFFE5"/>
<stop offset="1" stop-color="#FFB900"/>
</radialGradient>
<linearGradient id="paint26_linear_26_2" x1="366.208" y1="731.986" x2="367.388" y2="715.657" gradientUnits="userSpaceOnUse">
<stop stop-color="#BD9366"/>
<stop offset="1" stop-color="#D4AB78"/>
</linearGradient>
<linearGradient id="paint27_linear_26_2" x1="175.429" y1="644.31" x2="177.678" y2="604.792" gradientUnits="userSpaceOnUse">
<stop stop-color="#BD9366"/>
<stop offset="1" stop-color="#D4AB78"/>
</linearGradient>
<linearGradient id="paint28_linear_26_2" x1="211.297" y1="583.506" x2="200.4" y2="635.432" gradientUnits="userSpaceOnUse">
<stop stop-color="#FDE9A5"/>
<stop offset="0.9962" stop-color="white"/>
</linearGradient>
<linearGradient id="paint29_linear_26_2" x1="177.776" y1="587.123" x2="176.545" y2="598.703" gradientUnits="userSpaceOnUse">
<stop stop-color="#77483B"/>
<stop offset="1" stop-color="#A97B5C"/>
</linearGradient>
<linearGradient id="paint30_linear_26_2" x1="253.494" y1="624.186" x2="253.69" y2="622.405" gradientUnits="userSpaceOnUse">
<stop/>
<stop offset="1" stop-color="white"/>
</linearGradient>
<linearGradient id="paint31_linear_26_2" x1="253.494" y1="624.186" x2="253.69" y2="622.405" gradientUnits="userSpaceOnUse">
<stop stop-color="#9D6C5C"/>
<stop offset="1" stop-color="#865448"/>
</linearGradient>
<linearGradient id="paint32_linear_26_2" x1="147.158" y1="778.32" x2="214.499" y2="728.125" gradientUnits="userSpaceOnUse">
<stop stop-color="#BD9366"/>
<stop offset="1" stop-color="#A97B5C"/>
</linearGradient>
<linearGradient id="paint33_linear_26_2" x1="204.641" y1="713.719" x2="205.589" y2="702.105" gradientUnits="userSpaceOnUse">
<stop stop-color="#F0D7A5"/>
<stop offset="1" stop-color="#E3C391"/>
</linearGradient>
<linearGradient id="paint34_linear_26_2" x1="207.006" y1="707.772" x2="204.906" y2="707.772" gradientUnits="userSpaceOnUse">
<stop offset="0.312" stop-color="#95654D"/>
<stop offset="0.708" stop-color="#BD9366"/>
</linearGradient>
<linearGradient id="paint35_linear_26_2" x1="181.228" y1="686.229" x2="176.494" y2="713.114" gradientUnits="userSpaceOnUse">
<stop stop-color="#BD9366"/>
<stop offset="1" stop-color="#94644D"/>
</linearGradient>
<linearGradient id="paint36_linear_26_2" x1="221.676" y1="684.04" x2="200.007" y2="693.135" gradientUnits="userSpaceOnUse">
<stop stop-color="#EBE5B6"/>
<stop offset="1" stop-color="#D4BCA6"/>
</linearGradient>
<linearGradient id="paint37_linear_26_2" x1="211.943" y1="693.408" x2="207.275" y2="719.835" gradientUnits="userSpaceOnUse">
<stop stop-color="#9284AC"/>
<stop offset="1" stop-color="#775F75"/>
</linearGradient>
<linearGradient id="paint38_linear_26_2" x1="177.186" y1="690.98" x2="212.135" y2="706.58" gradientUnits="userSpaceOnUse">
<stop stop-color="#9284AC"/>
<stop offset="1" stop-color="#775F75"/>
</linearGradient>
<linearGradient id="paint39_linear_26_2" x1="185.517" y1="694.483" x2="210.052" y2="705.434" gradientUnits="userSpaceOnUse">
<stop offset="0.008" stop-color="#6D5775"/>
<stop offset="1" stop-color="#775F75"/>
</linearGradient>
<linearGradient id="paint40_linear_26_2" x1="228.954" y1="690.486" x2="207.903" y2="699.322" gradientUnits="userSpaceOnUse">
<stop stop-color="#EBE5B6"/>
<stop offset="1" stop-color="#D4BCA6"/>
</linearGradient>
<linearGradient id="paint41_linear_26_2" x1="219.525" y1="699.259" x2="214.871" y2="725.601" gradientUnits="userSpaceOnUse">
<stop stop-color="#AC5959"/>
<stop offset="1" stop-color="#775542"/>
</linearGradient>
<linearGradient id="paint42_linear_26_2" x1="185.79" y1="696.703" x2="219.792" y2="711.881" gradientUnits="userSpaceOnUse">
<stop stop-color="#AC5959"/>
<stop offset="1" stop-color="#775542"/>
</linearGradient>
<linearGradient id="paint43_linear_26_2" x1="180.962" y1="691.594" x2="179.106" y2="679.117" gradientUnits="userSpaceOnUse">
<stop stop-color="#EBE5E1"/>
<stop offset="1" stop-color="#CBC7CF"/>
</linearGradient>
<linearGradient id="paint44_linear_26_2" x1="185.142" y1="698.428" x2="180.644" y2="718.992" gradientUnits="userSpaceOnUse">
<stop stop-color="#406D66"/>
<stop offset="1" stop-color="#486660"/>
</linearGradient>
<linearGradient id="paint45_linear_26_2" x1="158.019" y1="695.431" x2="184.776" y2="708.839" gradientUnits="userSpaceOnUse">
<stop stop-color="#406D66"/>
<stop offset="1" stop-color="#486660"/>
</linearGradient>
<linearGradient id="paint46_linear_26_2" x1="164.415" y1="698.436" x2="183.2" y2="707.849" gradientUnits="userSpaceOnUse">
<stop offset="0.008" stop-color="#6D5775"/>
<stop offset="1" stop-color="#775F75"/>
</linearGradient>
<linearGradient id="paint47_linear_26_2" x1="185.771" y1="690.878" x2="183.915" y2="678.402" gradientUnits="userSpaceOnUse">
<stop stop-color="#EBE5E1"/>
<stop offset="1" stop-color="#CBC7CF"/>
</linearGradient>
<linearGradient id="paint48_linear_26_2" x1="190.868" y1="703.248" x2="186.384" y2="723.746" gradientUnits="userSpaceOnUse">
<stop stop-color="#AC5959"/>
<stop offset="1" stop-color="#775542"/>
</linearGradient>
<linearGradient id="paint49_linear_26_2" x1="164.549" y1="700.183" x2="190.582" y2="713.228" gradientUnits="userSpaceOnUse">
<stop stop-color="#AC5959"/>
<stop offset="1" stop-color="#775542"/>
</linearGradient>
<linearGradient id="paint50_linear_26_2" x1="12.9755" y1="774.981" x2="31.6169" y2="737.699" gradientUnits="userSpaceOnUse">
<stop stop-color="#BD9366"/>
<stop offset="1" stop-color="#D4AB78"/>
</linearGradient>
<linearGradient id="paint51_linear_26_2" x1="18.6824" y1="738.748" x2="22.9801" y2="738.748" gradientUnits="userSpaceOnUse">
<stop stop-color="#001100"/>
<stop offset="0.9962" stop-color="white"/>
</linearGradient>
<linearGradient id="paint52_linear_26_2" x1="18.4393" y1="729.724" x2="17.5028" y2="739.927" gradientUnits="userSpaceOnUse">
<stop stop-color="#77483B"/>
<stop offset="1" stop-color="#A97B5C"/>
</linearGradient>
<clipPath id="clip0_26_2">
<rect width="375" height="812" fill="white"/>
</clipPath>
<clipPath id="clip1_26_2">
<rect width="430" height="233" fill="white" transform="translate(-34 584)"/>
</clipPath>
</defs>
</svg>
