<svg width="150" height="150" viewBox="0 0 150 150" fill="none" xmlns="http://www.w3.org/2000/svg">
<circle cx="75" cy="75" r="75" fill="#00255B"/>
<path fill-rule="evenodd" clip-rule="evenodd" d="M75.4427 43.7298C70.4973 43.7244 65.7944 45.8706 62.5581 49.6102C59.3221 53.3498 57.8732 58.312 58.5883 63.2056C59.3039 68.0993 62.1125 72.4393 66.2836 75.0958C71.3758 78.3359 77.7846 78.7015 83.2114 76.0605C84.4326 75.4983 84.9658 74.053 84.4037 72.8325C83.8416 71.612 82.3962 71.0781 81.1757 71.641C77.2596 73.5832 72.6166 73.3569 68.9092 71.0425C65.2873 68.7347 63.1506 64.6888 63.2887 60.3965C63.4267 56.1049 65.8173 52.2036 69.5798 50.1327C73.3417 48.0626 77.9175 48.13 81.6168 50.3098C85.3167 52.4902 87.5915 56.4603 87.6028 60.7545C87.4493 61.9696 86.4153 62.8805 85.1901 62.8805C83.9655 62.8805 82.9315 61.9696 82.7773 60.7545C82.8042 58.5073 81.7958 56.3732 80.0435 54.9676C78.2904 53.562 75.9888 53.0409 73.8015 53.5546C71.6143 54.0682 69.7851 55.5601 68.8413 57.5992C67.8982 59.6384 67.9453 61.9986 68.9699 63.9981C69.9945 65.9976 71.8821 67.4145 74.0882 67.8407C76.2944 68.2662 78.5731 67.6529 80.2682 66.1779C81.6752 67.4368 83.5151 68.1006 85.4014 68.0313C87.2876 67.9613 89.0738 67.1635 90.3844 65.805C91.6945 64.4458 92.4275 62.6322 92.4282 60.7446C92.4208 56.2394 90.6293 51.9202 87.4465 48.7319C84.2638 45.5436 79.9477 43.7454 75.4427 43.7301L75.4427 43.7298ZM77.8359 61.1017C77.6609 62.3626 76.54 63.2729 75.2696 63.1853C74 63.0978 73.0144 62.0415 73.0144 60.7686C73.0144 59.4956 74 58.4399 75.2696 58.3518C76.54 58.2643 77.6609 59.1745 77.8359 60.4361C77.8009 60.6691 77.8009 60.9067 77.8359 61.1403V61.1017Z" fill="white"/>
<path fill-rule="evenodd" clip-rule="evenodd" d="M111.913 65.9362C111.909 65.2919 111.653 64.6753 111.199 64.2182L102.185 55.2329V36.4322C102.185 35.0892 101.096 34 99.7525 34H51.1318C49.7881 34 48.6996 35.0892 48.6996 36.4322V55.2329L39.6853 64.2471C39.2477 64.7009 39.002 65.3061 39 65.9362V109.704C39.0027 111.633 39.7681 113.483 41.13 114.85C42.4912 116.217 44.3377 116.99 46.2673 117H104.618C106.552 116.997 108.406 116.228 109.774 114.86C111.142 113.493 111.912 111.638 111.914 109.704L111.913 65.9362ZM102.185 62.0761L106.045 65.9362L102.185 69.7963V62.0753V62.0761ZM53.5624 56.1985V38.8265H97.3214V74.6509L84.1279 87.8155H66.756L53.5624 74.6509V56.1985ZM48.7369 62.0661V69.7872L44.8768 65.9271L48.7369 62.067V62.0661ZM43.9114 108.681V71.8034L62.2777 90.2472L43.8338 108.7L43.9114 108.681ZM47.2699 112.175L66.7565 92.6881H84.1284L103.615 112.175H47.2699ZM107.048 108.7L88.6041 90.2478L107.048 71.8039V108.7Z" fill="white"/>
</svg>
