<svg width="26" height="27" viewBox="0 0 26 27" fill="none" xmlns="http://www.w3.org/2000/svg">
<path d="M13.9693 2.85845C13.8766 2.65429 13.7467 2.46802 13.586 2.31189C13.2521 1.99058 12.7916 1.78944 12.2815 1.78944C11.7714 1.78944 11.3109 1.99058 10.9801 2.31189C10.8194 2.47104 10.6864 2.65429 10.5937 2.86144C11.1316 2.75032 11.6942 2.69325 12.2815 2.69325C12.8688 2.69325 13.4314 2.75035 13.9693 2.85845ZM16.7234 14.1576C17.7065 15.1124 19.0635 15.704 20.5657 15.704C22.0679 15.704 23.4249 15.1124 24.4111 14.1576C25.3941 13.2027 26 11.8815 26 10.4222C26 8.96599 25.3941 7.64481 24.4111 6.68992C23.425 5.73503 22.068 5.14349 20.5657 5.14349C19.0634 5.14349 17.7065 5.73508 16.7234 6.68992C15.7373 7.64481 15.1314 8.96599 15.1314 10.4222C15.1314 11.8815 15.7373 13.2027 16.7234 14.1576ZM8.59668 3.55805C8.60289 2.57924 9.01392 1.69031 9.67545 1.0479C10.3432 0.399265 11.2644 0 12.2813 0C13.2982 0 14.2194 0.399275 14.8871 1.0479C15.5487 1.6905 15.9597 2.57625 15.9659 3.55506C16.6399 3.90028 17.258 4.33874 17.8144 4.85517C17.1653 5.15839 16.5749 5.56691 16.071 6.05619C14.921 7.17323 14.2101 8.71947 14.2101 10.4221C14.2101 12.1277 14.921 13.6709 16.071 14.788C17.2209 15.908 18.8099 16.5987 20.5655 16.5987C21.0415 16.5987 21.5084 16.5476 21.9564 16.4485L22.6056 20.3249C22.6426 20.5441 22.8374 20.7003 23.0569 20.7003C23.4711 20.7003 23.8482 20.8654 24.1202 21.1297C24.3922 21.3939 24.5623 21.7602 24.5623 22.1625C24.5623 22.5648 24.3922 22.9311 24.1202 23.1954C23.8482 23.4596 23.4711 23.6248 23.0569 23.6248H1.50535C1.0912 23.6248 0.714116 23.4596 0.442066 23.1954L0.42035 23.1743C0.160734 22.9131 0 22.5558 0 22.1624C0 21.7601 0.17004 21.3938 0.442061 21.1295C0.714086 20.8653 1.09119 20.7001 1.50534 20.7001C1.74654 20.7001 1.94431 20.5199 1.96292 20.2918L3.46826 11.3166C3.8824 8.85146 4.96118 6.59049 6.59641 5.00196C7.1899 4.42546 7.86109 3.93644 8.59668 3.55805ZM14.4144 26.1442C14.8565 25.7148 15.1624 25.1503 15.2613 24.5198H9.3016C9.40048 25.1503 9.70663 25.7148 10.1485 26.1442C10.6956 26.6727 11.4467 27 12.2814 27C13.1161 27 13.8704 26.6727 14.4144 26.1442Z" fill="#212121"/>
<circle cx="20.5" cy="10.5" r="5.5" fill="#00255B"/>
</svg>
